<?xml version="1.0" standalone="no"?><!DOCTYPE svg PUBLIC "-//W3C//DTD SVG 1.1//EN" "http://www.w3.org/Graphics/SVG/1.1/DTD/svg11.dtd"><svg t="1645106099101" class="icon" viewBox="0 0 1024 1024" version="1.1" xmlns="http://www.w3.org/2000/svg" p-id="18091" xmlns:xlink="http://www.w3.org/1999/xlink" width="200" height="200"><defs><style type="text/css"></style></defs><path d="M945.230769 433.230769h78.769231v78.769231h-78.769231zM866.461538 512h78.769231v78.769231h-78.769231zM787.692308 590.769231h78.76923v78.769231h-78.76923zM708.923077 669.538462h78.769231v78.76923h-78.769231zM630.153846 748.307692h78.769231v78.769231h-78.769231zM551.384615 827.076923h78.769231v78.769231h-78.769231zM472.615385 905.846154h78.76923v78.769231h-78.76923zM393.846154 827.076923h78.769231v78.769231h-78.769231zM315.076923 748.307692h78.769231v78.769231h-78.769231zM236.307692 669.538462h78.769231v78.76923h-78.769231zM157.538462 590.769231h78.76923v78.769231H157.538462zM78.769231 512h78.769231v78.769231H78.769231zM0 433.230769h78.769231v78.769231H0zM945.230769 354.461538h78.769231v78.769231h-78.769231zM945.230769 275.692308h78.769231v78.76923h-78.769231zM945.230769 196.923077h78.769231v78.769231h-78.769231z" fill="#1E2028" p-id="18092"></path><path d="M866.461538 433.230769h78.769231v78.769231h-78.769231zM866.461538 354.461538h78.769231v78.769231h-78.769231zM866.461538 275.692308h78.769231v78.76923h-78.769231zM866.461538 196.923077h78.769231v78.769231h-78.769231z" fill="#AF1441" p-id="18093"></path><path d="M866.461538 118.153846h78.769231v78.769231h-78.769231z" fill="#1E2028" p-id="18094"></path><path d="M787.692308 512h78.76923v78.769231h-78.76923z" fill="#AF1441" p-id="18095"></path><path d="M787.692308 433.230769h78.76923v78.769231h-78.76923zM787.692308 354.461538h78.76923v78.769231h-78.76923zM787.692308 275.692308h78.76923v78.76923h-78.76923zM787.692308 196.923077h78.76923v78.769231h-78.76923z" fill="#FF1A51" p-id="18096"></path><path d="M787.692308 118.153846h78.76923v78.769231h-78.76923z" fill="#AF1441" p-id="18097"></path><path d="M787.692308 39.384615h78.76923v78.769231h-78.76923z" fill="#1E2028" p-id="18098"></path><path d="M708.923077 590.769231h78.769231v78.769231h-78.769231z" fill="#AF1441" p-id="18099"></path><path d="M708.923077 512h78.769231v78.769231h-78.769231zM708.923077 433.230769h78.769231v78.769231h-78.769231zM708.923077 354.461538h78.769231v78.769231h-78.769231zM708.923077 275.692308h78.769231v78.76923h-78.769231zM708.923077 196.923077h78.769231v78.769231h-78.769231zM708.923077 118.153846h78.769231v78.769231h-78.769231z" fill="#FF1A51" p-id="18100"></path><path d="M708.923077 39.384615h78.769231v78.769231h-78.769231z" fill="#1E2028" p-id="18101"></path><path d="M630.153846 669.538462h78.769231v78.76923h-78.769231z" fill="#AF1441" p-id="18102"></path><path d="M630.153846 590.769231h78.769231v78.769231h-78.769231zM630.153846 512h78.769231v78.769231h-78.769231zM630.153846 433.230769h78.769231v78.769231h-78.769231zM630.153846 354.461538h78.769231v78.769231h-78.769231zM630.153846 275.692308h78.769231v78.76923h-78.769231zM630.153846 196.923077h78.769231v78.769231h-78.769231zM630.153846 118.153846h78.769231v78.769231h-78.769231z" fill="#FF1A51" p-id="18103"></path><path d="M630.153846 39.384615h78.769231v78.769231h-78.769231z" fill="#1E2028" p-id="18104"></path><path d="M551.384615 748.307692h78.769231v78.769231h-78.769231z" fill="#AF1441" p-id="18105"></path><path d="M551.384615 669.538462h78.769231v78.76923h-78.769231zM551.384615 590.769231h78.769231v78.769231h-78.769231zM551.384615 512h78.769231v78.769231h-78.769231zM551.384615 433.230769h78.769231v78.769231h-78.769231zM551.384615 354.461538h78.769231v78.769231h-78.769231zM551.384615 275.692308h78.769231v78.76923h-78.769231zM551.384615 196.923077h78.769231v78.769231h-78.769231z" fill="#FF1A51" p-id="18106"></path><path d="M551.384615 118.153846h78.769231v78.769231h-78.769231z" fill="#1E2028" p-id="18107"></path><path d="M472.615385 827.076923h78.76923v78.769231h-78.76923z" fill="#F4608A" p-id="18108"></path><path d="M472.615385 748.307692h78.76923v78.769231h-78.76923zM472.615385 669.538462h78.76923v78.76923h-78.76923zM472.615385 590.769231h78.76923v78.769231h-78.76923zM472.615385 512h78.76923v78.769231h-78.76923zM472.615385 433.230769h78.76923v78.769231h-78.76923zM472.615385 354.461538h78.76923v78.769231h-78.76923zM472.615385 275.692308h78.76923v78.76923h-78.76923z" fill="#FF1A51" p-id="18109"></path><path d="M472.615385 196.923077h78.76923v78.769231h-78.76923z" fill="#1E2028" p-id="18110"></path><path d="M393.846154 748.307692h78.769231v78.769231h-78.769231z" fill="#F4608A" p-id="18111"></path><path d="M393.846154 669.538462h78.769231v78.76923h-78.769231zM393.846154 590.769231h78.769231v78.769231h-78.769231zM393.846154 512h78.769231v78.769231h-78.769231zM393.846154 433.230769h78.769231v78.769231h-78.769231zM393.846154 354.461538h78.769231v78.769231h-78.769231zM393.846154 275.692308h78.769231v78.76923h-78.769231zM393.846154 196.923077h78.769231v78.769231h-78.769231z" fill="#FF1A51" p-id="18112"></path><path d="M393.846154 118.153846h78.769231v78.769231h-78.769231z" fill="#1E2028" p-id="18113"></path><path d="M315.076923 669.538462h78.769231v78.76923h-78.769231z" fill="#F4608A" p-id="18114"></path><path d="M315.076923 590.769231h78.769231v78.769231h-78.769231zM315.076923 512h78.769231v78.769231h-78.769231zM315.076923 433.230769h78.769231v78.769231h-78.769231zM315.076923 354.461538h78.769231v78.769231h-78.769231zM315.076923 275.692308h78.769231v78.76923h-78.769231zM315.076923 196.923077h78.769231v78.769231h-78.769231zM315.076923 118.153846h78.769231v78.769231h-78.769231z" fill="#FF1A51" p-id="18115"></path><path d="M315.076923 39.384615h78.769231v78.769231h-78.769231z" fill="#1E2028" p-id="18116"></path><path d="M236.307692 590.769231h78.769231v78.769231h-78.769231z" fill="#F4608A" p-id="18117"></path><path d="M236.307692 512h78.769231v78.769231h-78.769231zM236.307692 433.230769h78.769231v78.769231h-78.769231zM236.307692 354.461538h78.769231v78.769231h-78.769231zM236.307692 275.692308h78.769231v78.76923h-78.769231z" fill="#FF1A51" p-id="18118"></path><path d="M236.307692 196.923077h78.769231v78.769231h-78.769231z" fill="#FFFFFF" p-id="18119"></path><path d="M236.307692 118.153846h78.769231v78.769231h-78.769231z" fill="#FF1A51" p-id="18120"></path><path d="M236.307692 39.384615h78.769231v78.769231h-78.769231z" fill="#1E2028" p-id="18121"></path><path d="M157.538462 512h78.76923v78.769231H157.538462z" fill="#F4608A" p-id="18122"></path><path d="M157.538462 433.230769h78.76923v78.769231H157.538462zM157.538462 354.461538h78.76923v78.769231H157.538462z" fill="#FF1A51" p-id="18123"></path><path d="M157.538462 275.692308h78.76923v78.76923H157.538462zM157.538462 196.923077h78.76923v78.769231H157.538462z" fill="#FFFFFF" p-id="18124"></path><path d="M157.538462 118.153846h78.76923v78.769231H157.538462z" fill="#F4608A" p-id="18125"></path><path d="M157.538462 39.384615h78.76923v78.769231H157.538462z" fill="#1E2028" p-id="18126"></path><path d="M78.769231 433.230769h78.769231v78.769231H78.769231zM78.769231 354.461538h78.769231v78.769231H78.769231zM78.769231 275.692308h78.769231v78.76923H78.769231zM78.769231 196.923077h78.769231v78.769231H78.769231z" fill="#F4608A" p-id="18127"></path><path d="M78.769231 118.153846h78.769231v78.769231H78.769231zM0 354.461538h78.769231v78.769231H0zM0 275.692308h78.769231v78.76923H0zM0 196.923077h78.769231v78.769231H0z" fill="#1E2028" p-id="18128"></path></svg>