<?xml version="1.0" standalone="no"?><!DOCTYPE svg PUBLIC "-//W3C//DTD SVG 1.1//EN" "http://www.w3.org/Graphics/SVG/1.1/DTD/svg11.dtd"><svg t="1640257040020" class="icon" viewBox="0 0 1024 1024" version="1.1" xmlns="http://www.w3.org/2000/svg" p-id="2326" xmlns:xlink="http://www.w3.org/1999/xlink" width="200" height="200"><defs><style type="text/css"></style></defs><path d="M512 512m-469.333333 0a469.333333 469.333333 0 1 0 938.666666 0 469.333333 469.333333 0 1 0-938.666666 0Z" fill="#25D120" p-id="2327"></path><path d="M768 375.466667L437.333333 708.266667c-8.533333 8.533333-21.333333 8.533333-29.866666 0l-29.866667-29.866667c-8.533333-8.533333-8.533333-21.333333 0-29.866667l332.8-332.8c8.533333-8.533333 21.333333-8.533333 29.866667 0l29.866666 29.866667c6.4 8.533333 6.4 21.333333-2.133333 29.866667z" fill="#FFFFFF" p-id="2328"></path><path d="M315.733333 497.066667l151.466667 151.466666c8.533333 8.533333 8.533333 21.333333 0 29.866667l-29.866667 29.866667c-8.533333 8.533333-21.333333 8.533333-29.866666 0L256 556.8c-8.533333-8.533333-8.533333-21.333333 0-29.866667l29.866667-29.866666c8.533333-8.533333 21.333333-8.533333 29.866666 0z" fill="#FFFFFF" p-id="2329"></path></svg>