<?xml version="1.0" standalone="no"?><!DOCTYPE svg PUBLIC "-//W3C//DTD SVG 1.1//EN" "http://www.w3.org/Graphics/SVG/1.1/DTD/svg11.dtd"><svg t="1640256955650" class="icon" viewBox="0 0 1024 1024" version="1.1" xmlns="http://www.w3.org/2000/svg" p-id="19313" xmlns:xlink="http://www.w3.org/1999/xlink" width="200" height="200"><defs><style type="text/css"></style></defs><path d="M512.042667 0c282.752 0 512 229.248 512 512s-229.248 512-512 512-512-229.248-512-512 229.248-512 512-512z m0 256a42.666667 42.666667 0 0 0-42.666667 42.666667v256l0.298667 4.992a42.666667 42.666667 0 0 0 16.768 29.141333l170.666666 128 4.48 2.944a42.666667 42.666667 0 0 0 55.253334-11.477333l2.944-4.48a42.666667 42.666667 0 0 0-11.477334-55.253334L554.666667 533.333333l0.042666-234.666666-0.298666-4.992A42.666667 42.666667 0 0 0 512.042667 256z" fill="#008df0" p-id="19314"></path></svg>