<?xml version="1.0" standalone="no"?><!DOCTYPE svg PUBLIC "-//W3C//DTD SVG 1.1//EN" "http://www.w3.org/Graphics/SVG/1.1/DTD/svg11.dtd"><svg t="1675600726889" class="icon" viewBox="0 0 1024 1024" version="1.1" xmlns="http://www.w3.org/2000/svg" p-id="3631" xmlns:xlink="http://www.w3.org/1999/xlink" width="128" height="128"><path d="M512 63.993c35.2 0 64 28.8 64 64v768c0 35.2-28.8 64-64 64s-64-28.8-64-64v-768c0-35.2 28.8-64 64-64z" fill="#92C8FF" p-id="3632"></path><path d="M301.145 594.649L557.34 850.855c24.881 24.882 24.881 65.599 0 90.482-24.883 24.885-65.602 24.885-90.485 0L210.66 685.131c-24.881-24.882-24.881-65.599 0-90.482 24.883-24.884 65.602-24.884 90.485 0z" fill="#409EFF" p-id="3633"></path><path d="M722.855 594.649L466.66 850.855c-24.881 24.882-24.881 65.599 0 90.482 24.883 24.885 65.602 24.885 90.485 0L813.34 685.131c24.881-24.882 24.881-65.599 0-90.482-24.883-24.884-65.602-24.884-90.485 0z" fill="#409EFF" p-id="3634"></path></svg>