<?xml version="1.0" standalone="no"?><!DOCTYPE svg PUBLIC "-//W3C//DTD SVG 1.1//EN" "http://www.w3.org/Graphics/SVG/1.1/DTD/svg11.dtd"><svg t="1675600685204" class="icon" viewBox="0 0 1024 1024" version="1.1" xmlns="http://www.w3.org/2000/svg" p-id="3293" xmlns:xlink="http://www.w3.org/1999/xlink" width="128" height="128"><path d="M63.996 511.997c0-35.2 28.8-64 64-64h768c35.2 0 64 28.8 64 64s-28.8 64-64 64h-768c-35.2-0.001-64-28.801-64-64z" fill="#92C8FF" p-id="3294"></path><path d="M594.653 722.851l256.206-256.195c24.882-24.881 65.599-24.881 90.482 0 24.885 24.883 24.885 65.602 0 90.485L685.134 813.337c-24.882 24.881-65.599 24.881-90.482 0-24.884-24.884-24.884-65.602 0.001-90.486z" fill="#409EFF" p-id="3295"></path><path d="M594.653 301.142l256.206 256.195c24.882 24.881 65.599 24.881 90.482 0 24.885-24.883 24.885-65.602 0-90.485L685.134 210.656c-24.882-24.881-65.599-24.881-90.482 0-24.884 24.884-24.884 65.602 0.001 90.486z" fill="#409EFF" p-id="3296"></path></svg>