<?xml version="1.0" standalone="no"?><!DOCTYPE svg PUBLIC "-//W3C//DTD SVG 1.1//EN" "http://www.w3.org/Graphics/SVG/1.1/DTD/svg11.dtd"><svg t="1675600738471" class="icon" viewBox="0 0 1024 1024" version="1.1" xmlns="http://www.w3.org/2000/svg" p-id="3800" xmlns:xlink="http://www.w3.org/1999/xlink" width="128" height="128"><path d="M512 960c35.2 0 64-28.8 64-64V128c0-35.2-28.8-64-64-64s-64 28.8-64 64v768c0 35.2 28.8 64 64 64z" fill="#92C8FF" p-id="3801"></path><path d="M301.145 429.344L557.34 173.138c24.881-24.882 24.881-65.599 0-90.482-24.883-24.885-65.602-24.885-90.485 0L210.66 338.862c-24.881 24.882-24.881 65.599 0 90.482 24.883 24.884 65.602 24.884 90.485 0z" fill="#409EFF" p-id="3802"></path><path d="M722.855 429.344L466.66 173.138c-24.881-24.882-24.881-65.599 0-90.482 24.883-24.885 65.602-24.885 90.485 0L813.34 338.862c24.881 24.882 24.881 65.599 0 90.482-24.883 24.884-65.602 24.884-90.485 0z" fill="#409EFF" p-id="3803"></path></svg>