<?xml version="1.0" standalone="no"?><!DOCTYPE svg PUBLIC "-//W3C//DTD SVG 1.1//EN" "http://www.w3.org/Graphics/SVG/1.1/DTD/svg11.dtd"><svg t="1675600756383" class="icon" viewBox="0 0 1024 1024" version="1.1" xmlns="http://www.w3.org/2000/svg" p-id="3969" xmlns:xlink="http://www.w3.org/1999/xlink" width="128" height="128"><path d="M512 512m-448 0a448 448 0 1 0 896 0 448 448 0 1 0-896 0Z" fill="#92C8FF" p-id="3970"></path><path d="M530.158 749.34c-24.885-24.884-24.885-65.602 0-90.485L613.017 576H256.501c-35.2 0-64-28.8-64-64s28.8-64 64-64h356.516l-82.859-82.855c-24.884-24.883-24.884-65.602 0-90.485 24.882-24.881 65.599-24.881 90.482 0l189.29 189.28a64.115 64.115 0 0 1 2.915 2.72c12.467 12.466 18.686 28.907 18.661 45.34 0.025 16.433-6.194 32.874-18.661 45.34a64.115 64.115 0 0 1-2.915 2.72L620.639 749.34c-24.882 24.881-65.599 24.881-90.481 0z" fill="#409EFF" p-id="3971"></path></svg>