<?xml version="1.0" standalone="no"?><!DOCTYPE svg PUBLIC "-//W3C//DTD SVG 1.1//EN" "http://www.w3.org/Graphics/SVG/1.1/DTD/svg11.dtd"><svg t="1675600791390" class="icon" viewBox="0 0 1024 1024" version="1.1" xmlns="http://www.w3.org/2000/svg" p-id="4473" xmlns:xlink="http://www.w3.org/1999/xlink" width="128" height="128"><path d="M512 512m-448 0a448 448 0 1 0 896 0 448 448 0 1 0-896 0Z" fill="#92C8FF" p-id="4474"></path><path d="M274.663 530.154c24.884-24.885 65.602-24.885 90.485 0l82.855 82.859V256.497c0-35.2 28.8-64 64-64s64 28.8 64 64v356.516l82.855-82.859c24.883-24.885 65.602-24.885 90.485 0 24.881 24.882 24.881 65.599 0 90.482l-189.28 189.291a64.115 64.115 0 0 1-2.72 2.915c-12.466 12.467-28.907 18.686-45.34 18.661-16.433 0.025-32.874-6.194-45.34-18.661a64.115 64.115 0 0 1-2.72-2.915l-189.28-189.291c-24.881-24.883-24.881-65.6 0-90.482z" fill="#409EFF" p-id="4475"></path></svg>