<?xml version="1.0" standalone="no"?><!DOCTYPE svg PUBLIC "-//W3C//DTD SVG 1.1//EN" "http://www.w3.org/Graphics/SVG/1.1/DTD/svg11.dtd"><svg t="1675600713921" class="icon" viewBox="0 0 1024 1024" version="1.1" xmlns="http://www.w3.org/2000/svg" p-id="3462" xmlns:xlink="http://www.w3.org/1999/xlink" width="128" height="128"><path d="M960.004 511.997c0-35.2-28.8-64-64-64h-768c-35.2 0-64 28.8-64 64s28.8 64 64 64h768c35.2-0.001 64-28.801 64-64z" fill="#92C8FF" p-id="3463"></path><path d="M429.347 722.851L173.141 466.656c-24.882-24.881-65.599-24.881-90.482 0-24.885 24.883-24.885 65.602 0 90.485l256.206 256.195c24.882 24.881 65.599 24.881 90.482 0 24.885-24.883 24.885-65.601 0-90.485z" fill="#409EFF" p-id="3464"></path><path d="M429.347 301.142L173.141 557.337c-24.882 24.881-65.599 24.881-90.482 0-24.885-24.883-24.885-65.602 0-90.485l256.206-256.195c24.882-24.881 65.599-24.881 90.482 0 24.885 24.883 24.885 65.601 0 90.485z" fill="#409EFF" p-id="3465"></path></svg>