<?xml version="1.0" standalone="no"?><!DOCTYPE svg PUBLIC "-//W3C//DTD SVG 1.1//EN" "http://www.w3.org/Graphics/SVG/1.1/DTD/svg11.dtd"><svg t="1640256702874" class="icon" viewBox="0 0 1024 1024" version="1.1" xmlns="http://www.w3.org/2000/svg" p-id="3426" xmlns:xlink="http://www.w3.org/1999/xlink" width="200" height="200"><defs><style type="text/css"></style></defs><path d="M512 929.959184c-230.4 0-417.959184-187.559184-417.959184-417.959184s187.559184-417.959184 417.959184-417.959184 417.959184 187.559184 417.959184 417.959184-187.559184 417.959184-417.959184 417.959184z" fill="#16C4AF" p-id="3427"></path><path d="M444.081633 689.632653c-5.22449 0-10.44898-2.089796-14.628572-6.269388-8.359184-8.359184-8.359184-21.420408 0-29.779592l156.734694-156.734693c8.359184-8.359184 21.420408-8.359184 29.779592 0 8.359184 8.359184 8.359184 21.420408 0 29.779591l-156.734694 156.734694c-4.702041 4.179592-9.926531 6.269388-15.15102 6.269388z" fill="#DCFFFA" p-id="3428"></path><path d="M600.816327 532.897959c-5.22449 0-10.44898-2.089796-14.628572-6.269388l-156.734694-156.734693c-8.359184-8.359184-8.359184-21.420408 0-29.779592 8.359184-8.359184 21.420408-8.359184 29.779592 0l156.734694 156.734694c8.359184 8.359184 8.359184 21.420408 0 29.779591-4.702041 4.179592-9.926531 6.269388-15.15102 6.269388z" fill="#DCFFFA" p-id="3429"></path></svg>