<?xml version="1.0" standalone="no"?><!DOCTYPE svg PUBLIC "-//W3C//DTD SVG 1.1//EN" "http://www.w3.org/Graphics/SVG/1.1/DTD/svg11.dtd"><svg t="1658895127388" class="icon" viewBox="0 0 1024 1024" version="1.1" xmlns="http://www.w3.org/2000/svg" p-id="1120" xmlns:xlink="http://www.w3.org/1999/xlink" width="128" height="128"><defs><style type="text/css"></style></defs><path d="M32 512a480 480 0 1 0 960 0 480 480 0 1 0-960 0Z" fill="#FFE5B4" p-id="1121"></path><path d="M32 512c0 265.088 214.912 480 480 480 27.264 0 54.016-2.272 80.064-6.656L512 512 59.264 352.096A479.232 479.232 0 0 0 32 512z" fill="#FFA500" p-id="1122"></path><path d="M512 512l80.064 473.344c168.864-28.352 307.84-144.896 367.936-300.64L512 512z" fill="#3A5BA0" p-id="1123"></path><path d="M512 512l448.032 172.576C980.672 631.04 992 572.832 992 512c0-156.992-75.36-296.352-191.872-383.936L512 512z" fill="#1F4690" p-id="1124"></path><path d="M512 32v480l288.128-383.936A477.888 477.888 0 0 0 512 32z" fill="#FFA500" p-id="1125"></path></svg>