<?xml version="1.0" standalone="no"?><!DOCTYPE svg PUBLIC "-//W3C//DTD SVG 1.1//EN" "http://www.w3.org/Graphics/SVG/1.1/DTD/svg11.dtd"><svg t="1639301977607" class="icon" viewBox="0 0 1024 1024" version="1.1" xmlns="http://www.w3.org/2000/svg" p-id="2704" xmlns:xlink="http://www.w3.org/1999/xlink" width="200" height="200"><defs><style type="text/css"></style></defs><path d="M490.820513 41.025641S360.461538 259.692308 99.74359 259.692308c0 0-16.832821 492 391.076923 723.282051 0 0 433.538462-210.25641 433.538461-744.307692-0.004103 0-291.286154 37.842051-433.538461-197.641026z" fill="#8BE0A3" p-id="2705"></path><path d="M87.407179 299.060513c-0.172308 4.369231-3.675897 108.504615 41.6 240.328205 41.809231 121.735385 134.929231 291.388718 341.12 408.299487a40.996923 40.996923 0 0 0 33.44 3.150769c4.447179-1.509744 110.112821-38.203077 215.770257-139.224615 97.316923-93.050256 213.300513-260.590769 213.300513-530.408205l-29.234872-14.420513c0 391.224615-411.109744 562.974359-426.363077 568.250256a40.8 40.8 0 0 1 33.546667 3.117949c-351.712821-199.425641-11.708718-721.058462-11.561026-724.787692L87.407179 299.060513z" fill="#6E6E96" opacity=".15" p-id="2706"></path><path d="M499.025641 106.666667C599.173333 377.641026 903.747692 261.595897 932.564103 258.568205c1.669744-22.70359 0 0 0-24.004102-0.004103 0-291.286154 37.842051-433.538462-197.641026 0 0-130.358974 218.666667-391.076923 218.666667 0 0-0.890256-16.008205 2.773333 27.331282C401.511795 345.846154 499.025641 106.666667 499.025641 106.666667z" fill="#B0EDC1" p-id="2707"></path><path d="M473.2 30.523077l0.012308-0.020513c-1.247179 2.084103-127.991795 208.676923-373.468718 208.676923a20.512821 20.512821 0 0 0-20.500513 19.811282c-0.17641 5.161026-3.782564 128.209231 43.470769 281.645128 43.774359 142.149744 141.419487 337.378462 357.989744 460.180513a20.512821 20.512821 0 0 0 19.068718 0.60718c4.570256-2.219487 113.214359-55.684103 222.998974-176.549744 101.316923-111.540513 222.100513-303.790769 222.100513-586.215384a20.512821 20.512821 0 0 0-23.138462-20.344616c-2.781538 0.352821-279.913846 33.001026-413.357948-187.901538a20.521026 20.521026 0 0 0-17.616411-9.907693 20.553846 20.553846 0 0 0-17.558974 10.018462z m430.646154 208.14359c0 515.241026-417.755897 723.803077-421.973333 725.850256a20.521026 20.521026 0 0 1 19.068717 0.611282C108.38359 742.547692 120.08 265.189744 120.244103 260.393846a20.512821 20.512821 0 0 1-20.500513 19.811282c269.271795 0 403.130256-219.335385 408.697436-228.67282a20.512821 20.512821 0 0 1-35.175385 0.098461c61.070769 101.095385 158.88 169.029744 282.851282 196.46359 92.947692 20.566154 167.725128 11.318974 170.855385 10.916923a20.512821 20.512821 0 0 1-23.126154-20.344615z" fill="#6E6E96" p-id="2708"></path></svg>