<?xml version="1.0" standalone="no"?><!DOCTYPE svg PUBLIC "-//W3C//DTD SVG 1.1//EN" "http://www.w3.org/Graphics/SVG/1.1/DTD/svg11.dtd"><svg t="1639302781036" class="icon" viewBox="0 0 1024 1024" version="1.1" xmlns="http://www.w3.org/2000/svg" p-id="1375" xmlns:xlink="http://www.w3.org/1999/xlink" width="200" height="200"><defs><style type="text/css"></style></defs><path d="M974.812642 278.103832l-159.41814-211.031704c-28.134221-40.377184-74.163755-40.377184-102.256984 0l-159.436359 211.02715c-28.120557 40.377184-10.862897 95.784792 38.341245 73.412233l107.913888-40.254208v361.249404l-65.186492 129.220653c31.664093 53.230474 55.430381 118.448849 65.186492 198.31961l128.596662-0.920044V311.261858l107.922998 40.254208c49.204142 0 66.461801-33.030495 38.33669-73.412234z" fill="#00CCC6" p-id="1376"></path><path d="M992.981236 264.3806L833.563096 53.348895c0.177632 0.232288 0.346155 0.469131 0.514678 0.705975-17.7359-25.451518-43.191972-40.044693-69.855033-40.040138-26.644842 0.009109-52.082696 14.606839-69.782159 40.049247 0.168523-0.245952 0.346155-0.482795 0.523788-0.724193l-159.436359 211.02715a25.91154 25.91154 0 0 0-0.519233 0.715084c-22.076504 31.70053-23.597765 72.118706-3.616411 96.099064 16.237412 19.48945 42.431342 23.625093 70.073657 11.058748a23.04665 23.04665 0 0 1-1.466605 0.605772l107.913888-40.254208a22.759705 22.759705 0 0 1-30.730384-21.338647v361.249404c0-3.561755 0.83806-7.077963 2.441305-10.257126L614.437735 791.46568a22.76426 22.76426 0 0 0 0.760631 21.903427c32.575028 54.756289 53.485535 118.49895 62.15308 189.437995a22.773369 22.773369 0 0 0 22.768814 20.013237l128.596663-0.920044a22.773369 22.773369 0 0 0 22.609401-22.773369V311.261858a22.777924 22.777924 0 0 1-30.730385 21.338647l107.922998 40.254208c2.546063 0.947372 5.237875 1.434722 7.957015 1.434722 44.116571 0 61.761378-21.174679 68.351991-33.79568 6.590613-12.621001 13.882646-39.202078-11.332029-75.402626a15.64075 15.64075 0 0 0-0.514678-0.710529z m-48.543714 65.796819l-107.922998-40.254208a22.759705 22.759705 0 0 0-30.730384 21.338647v687.865068a22.773369 22.773369 0 0 1 22.609401-22.773369l-128.596662 0.920044a22.773369 22.773369 0 0 1 22.768814 20.013237c-9.43273-77.256378-32.383731-146.970217-68.219905-207.201224a22.76426 22.76426 0 0 1 0.760631 21.903426l65.186492-129.220652a22.727823 22.727823 0 0 0 2.441305-10.257126V311.257303a22.777924 22.777924 0 0 0-30.730384-21.338647l-107.913889 40.254208a23.04665 23.04665 0 0 0-1.466605 0.605772c-3.766715 1.712557-12.885172 5.265203-16.228303 1.252535-5.010141-6.007615-5.752553-24.039569 6.003061-40.914635a25.91154 25.91154 0 0 1-0.519233 0.715083l159.436359-211.02715c0.177632-0.236843 0.355265-0.478241 0.523787-0.724193 9.204996-13.226773 20.714657-20.509696 32.41106-20.514251 11.705512-0.004555 23.242501 7.287478 32.465715 20.527915 0.168523 0.241398 0.337046 0.473686 0.514678 0.705975l159.418141 211.031704a15.64075 15.64075 0 0 1-0.514679-0.710529c9.733338 13.978294 10.685265 23.779952 8.330499 28.28908-2.359321 4.509127-10.940327 9.332527-27.979362 9.332527 2.714586 0 5.406398 0.48735 7.952461 1.434722z" fill="#6E6E96" p-id="1377"></path><path d="M314.207297 455.881863l75.971961-79.570153c18.519304-43.191972-3.98534-70.775077-50.005765-61.296801L99.103714 409.087144c-46.02498 9.473722-63.360068 49.860015-38.500658 89.740739l146.191367 185.835249c24.863965 39.903498 79.993737 45.615059 78.877843-5.993951l-19.885707-109.881507s386.209017 38.719283 434.169733 431.27296l128.592108-0.920044c0-155.537558-128.592108-326.629328-128.592108-326.629328-75.425399-102.44828-195.299861-190.713305-385.748995-216.629399z" fill="#F0CF6D" p-id="1378"></path><path d="M330.681553 471.604597l75.97196-79.570152c1.876526-1.967619 3.388677-4.254065 4.459026-6.750027 16.820411-39.220297 4.659431-63.05946-4.085543-73.776607s-29.655482-27.410027-71.444614-18.79714a23.105861 23.105861 0 0 0-3.684731 1.088568L90.823317 387.871473c1.197879-0.469131 2.432196-0.833505 3.689286-1.093122-29.341209 6.039498-52.000712 23.101306-62.171299 46.799274-10.166032 23.702523-6.90944 51.873181 8.936271 77.292816a23.228837 23.228837 0 0 0 1.425613 2.031384l146.191367 185.835249a24.062342 24.062342 0 0 1-1.430168-2.035939c19.758175 31.705085 55.152546 48.452621 84.161264 39.812404 23.688859-7.05519 37.448529-28.867523 36.815429-58.345372a22.864463 22.864463 0 0 0-0.359819-3.56631l-19.885706-109.881507a22.746041 22.746041 0 0 1-5.684233 19.507668 22.759705 22.759705 0 0 1-18.997545 7.205494c15.00765 1.544034 368.719069 42.076077 413.837669 411.37359a22.773369 22.773369 0 0 0 22.768814 20.013237l128.592108-0.920044a22.773369 22.773369 0 0 0 22.609401-22.773369c0-161.290111-127.72672-333.078746-133.160445-340.311568-92.783262-126.009608-227.706366-201.940576-400.888731-225.511013a22.768815 22.768815 0 0 1 18.423656 15.044088 22.773369 22.773369 0 0 1-5.014696 23.256164z m351.074262 214.584351l-0.004554-0.00911c1.238871 1.653347 124.028324 167.001672 124.028324 312.956197a22.773369 22.773369 0 0 1 22.609401-22.773369l-128.592107 0.920044a22.773369 22.773369 0 0 1 22.768814 20.013237c-25.916094-212.138491-148.277408-323.650571-246.3532-379.841583-105.550012-60.46785-204.008398-70.911718-208.148597-71.326193a22.759705 22.759705 0 0 0-24.677223 26.713163l19.885706 109.881507a22.914564 22.914564 0 0 1-0.359819-3.56631c0.063765 2.901327-0.059211 12.452478-4.276839 13.714123-7.005088 2.086041-22.759705-4.60933-32.506707-20.25008a23.351813 23.351813 0 0 0-1.430168-2.035939l-146.191367-185.830694c0.514678 0.651318 0.988364 1.329965 1.425613 2.031384-7.966125-12.77586-9.997509-25.292104-5.72978-35.244066 4.272284-9.956517 14.743479-17.107355 29.496068-20.145323 1.25709-0.259616 2.491407-0.62399 3.689286-1.093121l241.069779-94.072235a22.19948 22.19948 0 0 1-3.684731 1.088567c15.499555-3.192826 24.212646-0.387147 26.963669 2.987866s3.753051 12.475252-2.482297 27.027435c1.070348-2.495961 2.5825-4.782408 4.459026-6.750026l-75.971961 79.570152a22.76426 22.76426 0 0 0 13.399851 38.291144c160.502153 21.844216 285.149913 91.68103 370.613813 207.74323z" fill="#6E6E96" p-id="1379"></path></svg>