<?xml version="1.0" standalone="no"?><!DOCTYPE svg PUBLIC "-//W3C//DTD SVG 1.1//EN" "http://www.w3.org/Graphics/SVG/1.1/DTD/svg11.dtd"><svg t="1639302169371" class="icon" viewBox="0 0 1024 1024" version="1.1" xmlns="http://www.w3.org/2000/svg" p-id="1244" xmlns:xlink="http://www.w3.org/1999/xlink" width="200" height="200"><defs><style type="text/css"></style></defs><path d="M90.54208 92.59008c0-20.93056 17.129472-38.060032 38.060032-38.060032h601.399296c20.93056 0 38.064128 17.129472 38.064128 38.060032v218.865664c0 20.93056 13.520896 48.574464 30.048256 61.431808l8.421376 6.549504c16.523264 12.853248 30.04416 40.497152 30.04416 61.427712v239.796224c0 20.934656-13.193216 48.98816-29.30688 62.349312l-7.9872 6.623232c-16.125952 13.35296-29.302784 41.41056-29.302784 62.349312v13.324288c0 20.934656-17.137664 38.064128-38.07232 38.064128H128.602112c-20.93056 0-38.060032-17.129472-38.060032-38.064128V92.59008z" fill="#E0B88F" p-id="1245"></path><path d="M731.906048 879.751168H128.602112c-30.019584 0-54.444032-24.424448-54.444032-54.448128V92.59008c0-30.019584 24.424448-54.444032 54.444032-54.444032h601.399296c30.02368 0 54.448128 24.424448 54.448128 54.444032v218.865664c0 16.003072 11.087872 38.66624 23.724032 48.500736l8.41728 6.545408c20.393984 15.867904 36.37248 48.529408 36.37248 74.36288v239.796224c0 25.657344-15.474688 58.585088-35.237888 74.960896l-7.983104 6.623232c-12.460032 10.317824-23.379968 33.550336-23.379968 49.737728v13.324288c-0.004096 30.019584-24.428544 54.444032-54.45632 54.444032zM128.602112 70.914048a21.700608 21.700608 0 0 0-21.676032 21.676032V825.30304a21.700608 21.700608 0 0 0 21.676032 21.680128h603.303936a21.7088 21.7088 0 0 0 21.68832-21.680128v-13.324288c0-25.677824 15.478784-58.605568 35.241984-74.969088l7.974912-6.61504c12.460032-10.326016 23.384064-33.56672 23.384064-49.737728v-239.796224c0-16.003072-11.083776-38.66624-23.719936-48.49664l-8.421376-6.545408c-20.393984-15.867904-36.37248-48.533504-36.37248-74.366976V92.59008a21.700608 21.700608 0 0 0-21.680128-21.676032H128.602112z" fill="#6E6E96" p-id="1246"></path><path d="M94.35136 92.59008c0-20.93056 15.826944-31.510528 35.168256-23.506944l260.808704 107.921408c19.345408 7.999488 35.168256 31.678464 35.168256 52.617216v350.175232c0 20.938752 14.483456 47.210496 32.182272 58.396672l7.954432 5.025792c17.702912 11.177984 32.182272 37.453824 32.182272 58.38848v123.703296c0 20.93056-17.129472 38.064128-38.060032 38.064128H132.411392c-20.93056 0-38.060032-17.133568-38.060032-38.064128V92.59008z" fill="#694A2B" opacity=".57" p-id="1247"></path><path d="M122.802176 74.739712c-17.747968-11.116544-32.256-3.080192-32.256 17.850368V825.30304c0 20.934656 14.823424 46.645248 32.948224 57.126912l200.544256 116.031488c18.120704 10.481664 45.060096 6.94272 59.858944-7.86432l20.393984-20.389888c14.80704-14.80704 26.914816-44.048384 26.914816-64.978944V665.43616c0-20.934656-14.323712-47.460352-31.830016-58.94144l-24.834048-16.297984c-17.506304-11.481088-31.830016-37.998592-31.830016-58.937344V250.556416c0-20.934656-14.512128-47.157248-32.256-58.273792L122.802176 74.739712z" fill="#E0B88F" p-id="1248"></path><path d="M347.93472 1020.874752c-0.004096 0-0.004096 0 0 0-11.689984 0-22.786048-2.842624-32.096256-8.228864l-200.548352-116.035584c-23.06048-13.340672-41.127936-44.658688-41.127936-71.307264V92.59008c0-26.959872 17.420288-39.23968 33.603584-39.23968 7.798784 0 15.785984 2.523136 23.732224 7.503872l187.654144 117.542912c22.396928 14.036992 39.940096 45.73184 39.940096 72.159232v280.707072c0 15.286272 11.644928 36.851712 24.428544 45.236224l24.838144 16.30208c21.991424 14.422016 39.223296 46.329856 39.223296 72.634368v239.792128c0 25.14944-13.930496 58.781696-31.711232 76.562432l-20.393984 20.393984c-11.866112 11.8784-29.196288 18.690048-47.542272 18.690048zM108.032 86.130688c-0.434176 0.847872-1.101824 2.899968-1.101824 6.459392V825.30304c0 14.979072 11.804672 35.446784 24.768512 42.942464l200.544256 116.035584c4.263936 2.465792 9.838592 3.825664 15.68768 3.825664 9.433088 0 18.771968-3.485696 24.379392-9.09312l20.39808-20.393984c11.780096-11.780096 22.114304-36.732928 22.114304-53.39136V665.43616c0-15.290368-11.644928-36.855808-24.428544-45.24032l-24.838144-16.30208c-21.991424-14.422016-39.223296-46.329856-39.223296-72.630272V250.556416c0-15.17568-11.710464-36.33152-24.571904-44.388352L114.102272 88.625152c-3.272704-2.052096-5.316608-2.428928-6.070272-2.494464z" fill="#6E6E96" p-id="1249"></path><path d="M478.543872 183.758848l-32.272384 28.962816v-28.962816z" fill="#8CEDB3" p-id="1250"></path><path d="M501.567488 183.758848l-55.296 49.618944v-20.70528l32.239616-28.913664z" fill="#8CEDB3" p-id="1251"></path><path d="M524.640256 183.758848L446.271488 254.062592v-20.6848l55.296-49.618944z" fill="#8BECB2" p-id="1252"></path><path d="M547.69664 183.758848L446.271488 274.751488v-20.688896l78.368768-70.303744z" fill="#8AEBB1" p-id="1253"></path><path d="M570.769408 183.758848L446.271488 295.440384v-20.688896l101.425152-90.99264z" fill="#89EAB0" p-id="1254"></path><path d="M593.825792 183.758848L446.271488 316.12928v-20.688896l124.49792-111.681536z" fill="#88EAAF" p-id="1255"></path><path d="M616.894464 183.758848L446.271488 336.81408v-20.6848l147.554304-132.370432z" fill="#87E9AE" p-id="1256"></path><path d="M639.967232 183.758848L446.271488 357.502976V336.81408l170.622976-153.055232z" fill="#86E8AD" p-id="1257"></path><path d="M663.023616 183.758848L446.271488 378.208256v-20.70528l193.695744-173.744128z" fill="#85E7AC" p-id="1258"></path><path d="M686.096384 183.758848L446.271488 398.897152v-20.688896l216.752128-194.449408z" fill="#84E6AB" p-id="1259"></path><path d="M709.152768 183.758848l-262.88128 235.8272v-20.688896l239.824896-215.138304z" fill="#83E5AA" p-id="1260"></path><path d="M732.225536 183.758848l-285.954048 256.512v-20.6848l262.88128-235.8272z" fill="#82E5AA" p-id="1261"></path><path d="M755.28192 183.758848l-309.010432 277.200896v-20.688896l285.954048-256.512z" fill="#81E4A9" p-id="1262"></path><path d="M778.350592 183.758848L446.271488 481.64864v-20.688896l309.010432-277.200896z" fill="#80E3A8" p-id="1263"></path><path d="M801.406976 183.758848l-355.135488 318.578688v-20.688896l332.079104-297.889792z" fill="#7FE2A7" p-id="1264"></path><path d="M824.479744 183.758848l-378.208256 339.279872v-20.701184l355.135488-318.578688z" fill="#7EE1A6" p-id="1265"></path><path d="M847.552512 183.758848l-401.281024 359.968768v-20.688896l378.208256-339.279872z" fill="#7DE0A5" p-id="1266"></path><path d="M870.608896 183.758848L446.271488 564.416512v-20.688896l401.281024-359.968768z" fill="#7CDFA4" p-id="1267"></path><path d="M893.66528 183.758848L446.271488 585.105408v-20.688896l424.337408-380.657664z" fill="#7BDFA3" p-id="1268"></path><path d="M916.733952 183.758848L446.271488 605.790208v-20.6848L893.66528 183.758848z" fill="#7ADEA2" p-id="1269"></path><path d="M917.536768 203.743232L446.271488 626.495488v-20.70528L916.733952 183.758848h0.802816z" fill="#79DDA1" p-id="1270"></path><path d="M917.536768 224.432128L455.200768 639.168512h-8.92928v-12.673024L917.536768 203.743232z" fill="#78DCA0" p-id="1271"></path><path d="M917.536768 245.121024l-439.279616 394.047488h-23.056384L917.536768 224.432128z" fill="#77DB9F" p-id="1272"></path><path d="M917.536768 265.80992l-416.206848 373.358592h-23.072768l439.279616-394.047488z" fill="#76DA9E" p-id="1273"></path><path d="M917.536768 286.49472l-393.15456 352.673792h-23.052288l416.206848-373.358592z" fill="#75D99D" p-id="1274"></path><path d="M917.536768 307.2l-370.081792 331.968512h-23.072768l393.15456-352.673792z" fill="#74D99C" p-id="1275"></path><path d="M917.536768 327.888896l-347.025408 311.279616h-23.056384L917.536768 307.2z" fill="#73D89B" p-id="1276"></path><path d="M917.536768 348.577792l-323.95264 290.59072h-23.072768l347.025408-311.279616z" fill="#72D79A" p-id="1277"></path><path d="M917.536768 369.262592l-300.896256 269.90592h-23.056384l323.95264-290.59072z" fill="#71D699" p-id="1278"></path><path d="M917.536768 389.951488l-277.823488 249.217024h-23.072768l300.896256-269.90592z" fill="#70D599" p-id="1279"></path><path d="M917.536768 410.640384l-254.754816 228.528128h-23.068672l277.823488-249.217024z" fill="#6FD498" p-id="1280"></path><path d="M917.536768 431.32928l-231.698432 207.839232h-23.056384l254.754816-228.528128z" fill="#6ED497" p-id="1281"></path><path d="M917.536768 452.030464l-208.642048 187.138048h-23.056384l231.698432-207.839232z" fill="#6DD396" p-id="1282"></path><path d="M917.536768 472.71936l-185.56928 166.449152h-23.072768l208.642048-187.138048z" fill="#6CD295" p-id="1283"></path><path d="M917.536768 493.408256l-162.496512 145.760256h-23.072768l185.56928-166.449152z" fill="#6BD194" p-id="1284"></path><path d="M917.536768 514.097152l-139.440128 125.07136h-23.056384l162.496512-145.760256z" fill="#6AD093" p-id="1285"></path><path d="M917.536768 534.781952l-116.36736 104.38656h-23.072768l139.440128-125.07136z" fill="#69CF92" p-id="1286"></path><path d="M917.536768 555.470848l-93.310976 83.697664h-23.056384l116.36736-104.38656z" fill="#68CE91" p-id="1287"></path><path d="M917.536768 576.159744l-70.242304 63.008768h-23.068672l93.310976-83.697664z" fill="#67CE90" p-id="1288"></path><path d="M917.536768 596.865024l-47.18592 42.303488h-23.056384l70.242304-63.008768z" fill="#66CD8F" p-id="1289"></path><path d="M917.536768 617.55392l-24.113152 21.614592h-23.072768l47.18592-42.303488z" fill="#65CC8E" p-id="1290"></path><path d="M917.536768 638.23872l-1.056768 0.929792h-23.056384l24.113152-21.614592z" fill="#64CB8D" p-id="1291"></path><path d="M916.48 639.168512l1.056768-0.929792v0.929792z" fill="#63CA8C" p-id="1292"></path><path d="M917.52448 655.556608a16.388096 16.388096 0 0 1-14.708736-9.17504c-64.708608-132.112384-152.264704-150.413312-238.1824-152.133632v93.446144a16.384 16.384 0 0 1-27.611136 11.931648L435.044352 409.53856a16.392192 16.392192 0 0 1-0.684032-23.179264l201.977856-213.848064a16.384 16.384 0 0 1 28.295168 11.251712v102.526976c102.703104 5.840896 181.4528 67.084288 228.384768 178.020352 36.364288 85.942272 40.710144 170.53696 40.873984 174.096384a16.375808 16.375808 0 0 1-16.367616 17.149952z m-269.275136-194.228224c80.252928 0 169.377792 9.043968 241.434624 101.41696-5.783552-26.169344-14.39744-56.40192-27.160576-86.413312-44.52352-104.665088-116.617216-157.732864-214.274048-157.732864a16.384 16.384 0 0 1-16.384-16.384V224.968704l-162.410496 171.958272 162.410496 152.850432v-72.065024a16.384 16.384 0 0 1 16.384-16.384z" fill="#6E6E96" p-id="1293"></path></svg>