<?xml version="1.0" standalone="no"?><!DOCTYPE svg PUBLIC "-//W3C//DTD SVG 1.1//EN" "http://www.w3.org/Graphics/SVG/1.1/DTD/svg11.dtd"><svg t="1639301945956" class="icon" viewBox="0 0 1024 1024" version="1.1" xmlns="http://www.w3.org/2000/svg" p-id="2285" xmlns:xlink="http://www.w3.org/1999/xlink" width="200" height="200"><defs><style type="text/css"></style></defs><path d="M45.559322 980.610169h932.881356L509.830508 43.389831z" fill="#F0CE53" p-id="2286"></path><path d="M201.845153 874.721627h622.110372L511.457627 147.79878z" fill="#FFEF5F" p-id="2287"></path><path d="M45.559322 1002.305085h932.881356a21.686237 21.686237 0 0 0 19.408271-31.396882l-468.610169-937.220339a21.694915 21.694915 0 0 0-38.842577 0.073763l-464.271186 937.220339A21.707932 21.707932 0 0 0 45.559322 1002.305085zM490.426576 53.091797l468.61017 937.220339a21.707932 21.707932 0 0 1 19.408271-31.396882H45.559322a21.686237 21.686237 0 0 1 19.442983 31.31878l464.271187-937.220339a21.694915 21.694915 0 0 1-38.846916 0.078102z" fill="#6E6E96" p-id="2288"></path><path d="M481.627119 459.290034v180.575458a34.074034 34.074034 0 1 0 68.148067 0v-180.575458a34.074034 34.074034 0 0 0-68.148067 0zM481.627119 748.899797v34.069695a34.074034 34.074034 0 1 0 68.148067 0v-34.069695a34.078373 34.078373 0 1 0-68.148067 0z" fill="#6E6E96" p-id="2289"></path></svg>