<?xml version="1.0" standalone="no"?><!DOCTYPE svg PUBLIC "-//W3C//DTD SVG 1.1//EN" "http://www.w3.org/Graphics/SVG/1.1/DTD/svg11.dtd"><svg t="1639302495931" class="icon" viewBox="0 0 1093 1024" version="1.1" xmlns="http://www.w3.org/2000/svg" p-id="4348" xmlns:xlink="http://www.w3.org/1999/xlink" width="213.4765625" height="200"><defs><style type="text/css"></style></defs><path d="M541.347734 219.102381c23.997224-133.508433 167.807316-202.506004 264.14715-199.565212 146.542098 7.049906 276.314569 142.52183 269.815507 302.004304a323.842577 323.842577 0 0 1-0.781842 12.38509c-0.071077 4.890956-0.017769 9.790796-0.302076 14.872771-13.602277 214.957729-151.313112 329.60422-277.478448 394.928021-211.11071 144.201013-258.478795 262.503505-258.478795 262.503505s-63.107101-111.159298-236.431734-258.492122C176.969307 625.877976 25.105352 543.851183 17.79335 315.046852c-0.164365-5.090859 0.550843-9.97293 0.8929-14.850559 0.008885-4.135767 0.053307-8.253766 0.226556-12.411744C25.389658 128.279864 168.404581 11.012425 314.942236 18.071215c85.527313 4.126883 194.905254 71.054349 226.405498 201.031166z" fill="#FF87BB" p-id="4349"></path><path d="M529.744485 194.438814l-0.106615-0.297633c0.031096 0.115499 0.066634 0.239883 0.093288 0.364268a0.195461 0.195461 0 0 0 0.013327-0.066635z m277.425141-174.439647c115.077393 25.81856 209.178316 137.550913 203.905324 266.843618a306.761991 306.761991 0 0 1-0.701881 11.167904c-0.062192 4.406747-0.008885 8.822378-0.279864 13.406816-12.251822 193.768029-136.400361 297.126675-250.131742 356.022489-190.316374 129.990144-233.006733 202.177275-233.006733 202.177275s-56.887902-65.759145-213.131949-198.565697c-112.567502-109.853266-249.465399-183.790657-256.05775-390.04595-0.151038-4.593323 0.497536-8.991185 0.804053-13.384604 0.008885-3.727077 0.048865-7.44527 0.204346-11.194559C63.411175 142.197543 145.748928 52.068022 245.624821 22.997709c-121.274381 23.992781-225.641424 129.075033-231.1543 264.791282a313.376553 313.376553 0 0 0-0.226556 12.411745c-0.342056 4.877629-1.057264 9.750816-0.8929 14.850559 7.312001 228.808774 159.175956 310.831124 284.048588 432.687443 173.324634 147.32394 236.431735 258.492122 236.431735 258.492122s47.363643-118.311376 258.474352-262.503505c126.160894-65.323801 263.880614-179.983619 277.478448-394.932464 0.293191-5.081974 0.25321-9.981814 0.302076-14.87277 0.319845-4.100229 0.617478-8.235996 0.790726-12.38509 6.392448-157.256889-119.688485-291.076282-263.707364-301.537864z" fill="#EB71A7" p-id="4350"></path><path d="M538.26923 1023.968904a17.760255 17.760255 0 0 1-15.445825-8.951204c-0.62192-1.08836-64.115499-110.612897-232.49587-253.743319a17.573679 17.573679 0 0 1-0.901784-0.826266c-23.19317-22.633442-47.812313-44.298466-71.618518-65.248282C113.782245 603.662109 6.212313 509.001458 0.033095 315.60658c-0.151038-4.70438 0.244326-8.986743 0.595266-12.767127 0.102173-1.110571 0.208787-2.221143 0.293191-3.327271 0.013327-4.157979 0.066634-8.298188 0.239883-12.478379 3.171791-78.113139 37.457347-151.082113 96.539738-205.442354C154.064885 29.741098 228.659735 0 302.352801 0c4.468939 0 8.991185 0.106615 13.442354 0.319845 82.58652 3.98473 178.708683 60.259596 224.704102 161.805788C589.715333 52.987575 716.507031 1.674741 799.515569 1.674741c2.198931 0 4.357882 0.031096 6.516832 0.097731 75.812036 3.642674 150.380232 39.949469 204.878184 99.618241 56.265982 61.605608 85.44291 140.043035 82.151177 220.87041a329.781912 329.781912 0 0 1-0.7774 12.44284l-0.031096 3.242868c-0.031096 3.891442-0.066634 7.818422-0.288749 11.847574-11.318942 178.81974-107.578816 316.459499-286.083154 409.209968-202.212813 138.359409-250.678143 252.748247-251.144582 253.885472a17.809121 17.809121 0 0 1-16.467551 11.079059z m-224.459776-289.374887c125.841049 107.045742 194.016797 194.745332 222.940515 236.556118 26.898036-44.622753 95.584646-136.635802 249.976261-242.091205 0.595266-0.40869 1.208302-0.7774 1.852433-1.106129 167.283126-86.620115 257.425973-214.562366 267.914209-380.272923 0.186576-3.322829 0.208787-6.672312 0.230998-9.995141l0.039981-4.006941c0.008885-0.377594 0.026654-0.755188 0.053307-1.137225 0.302075-3.873673 0.586382-7.773999 0.741862-11.700979 2.909697-71.418616-22.971056-140.833761-72.880128-195.473867-48.225446-52.796557-113.842438-84.896509-180.041369-88.081627-1.483723-0.039981-3.287291-0.071077-5.117512-0.071077-47.510238 0-102.239189 17.844659-146.382175 47.736795-36.164642 24.481433-81.880197 68.175748-94.305268 137.297703a17.76914 17.76914 0 0 1-16.956202 14.61956c-8.26265 0.324287-15.823419-5.410703-17.800236-13.575623C495.530006 105.490942 396.831318 39.811758 314.084875 35.818144 245.664802 32.517526 174.645992 59.10016 121.765031 107.752065 69.674797 155.679878 39.453932 219.870896 36.664177 288.504199a296.389255 296.389255 0 0 0-0.208787 11.727633c0 0.404248-0.013327 0.808496-0.044423 1.208301-0.111057 1.559242-0.25321 3.118484-0.395363 4.682169-0.279864 3.011869-0.541959 5.854932-0.461998 8.347053 5.690567 178.024571 102.856667 263.525231 205.731103 354.054557 23.997224 21.123065 48.807385 42.952454 72.524745 66.070105z" fill="#6E6E96" p-id="4351"></path></svg>