<?xml version="1.0" standalone="no"?><!DOCTYPE svg PUBLIC "-//W3C//DTD SVG 1.1//EN" "http://www.w3.org/Graphics/SVG/1.1/DTD/svg11.dtd"><svg t="1639301901748" class="icon" viewBox="0 0 1062 1024" version="1.1" xmlns="http://www.w3.org/2000/svg" p-id="2003" xmlns:xlink="http://www.w3.org/1999/xlink" width="207.421875" height="200"><defs><style type="text/css"></style></defs><path d="M42.666667 42.666667h977.066666v392.533333H42.666667z" fill="#F0F0FF" p-id="2004"></path><path d="M42.666667 64h977.066666l-21.333333-21.333333v392.533333l21.333333-21.333333H42.666667l21.333333 21.333333V42.666667l-21.333333 21.333333z m0 392.533333h998.4V21.333333H21.333333v435.2h21.333334z" fill="#6E6E96" p-id="2005"></path><path d="M145.066667 435.2h42.666666v290.133333H145.066667zM866.133333 435.2h42.666667v290.133333h-42.666667z" fill="#6E6E96" p-id="2006"></path><path d="M42.666667 725.333333h256v256H42.666667z" fill="#FFE95F" p-id="2007"></path><path d="M42.666667 746.666667h256l-21.333334-21.333334v256l21.333334-21.333333H42.666667l21.333333 21.333333v-256l-21.333333 21.333334z m0 256h277.333333v-298.666667H21.333333v298.666667h21.333334z" fill="#6E6E96" p-id="2008"></path><path d="M763.733333 725.333333h256v256h-256z" fill="#3FD9FF" p-id="2009"></path><path d="M763.733333 746.666667h256l-21.333333-21.333334v256l21.333333-21.333333h-256l21.333334 21.333333v-256l-21.333334 21.333334z m0 256h277.333334v-298.666667h-298.666667v298.666667h21.333333z" fill="#6E6E96" p-id="2010"></path><path d="M64 64h934.4v61.866667H64zM64 746.666667h213.333333v53.333333H64zM785.066667 746.666667h213.333333v53.333333h-213.333333z" fill="#6E6E96" opacity=".15" p-id="2011"></path></svg>