<?xml version="1.0" standalone="no"?><!DOCTYPE svg PUBLIC "-//W3C//DTD SVG 1.1//EN" "http://www.w3.org/Graphics/SVG/1.1/DTD/svg11.dtd"><svg t="1639302221916" class="icon" viewBox="0 0 1024 1024" version="1.1" xmlns="http://www.w3.org/2000/svg" p-id="1994" xmlns:xlink="http://www.w3.org/1999/xlink" width="200" height="200"><defs><style type="text/css"></style></defs><path d="M941.740921 956.548715c-27.187674 27.191817-71.664919 27.191817-98.84845 0l-333.618696-333.614553c-27.187674-27.191817-27.187674-71.677348 0-98.852593l12.35502-12.359163c27.187674-27.187674 71.664919-27.187674 98.844307 0l333.622839 333.614553c27.187674 27.187674 27.187674 71.669062 0 98.865022l-12.35502 12.346734z" fill="#A5A5C4" p-id="1995"></path><path d="M892.312553 993.518483c-23.152198 0-44.862562-8.970027-61.145336-25.2528l-333.618696-333.614553c-16.27863-16.282773-25.244513-38.001424-25.244514-61.153622s8.965883-44.866706 25.248657-61.141193l12.350877-12.35502c16.282773-16.27863 37.997281-25.244513 61.145336-25.244514 23.152198 0 44.866706 8.965883 61.145335 25.244514l333.618697 333.614553c33.713213 33.713213 33.713213 88.577458 0.004143 122.303101l-12.363307 12.350877c-16.274487 16.27863-37.988995 25.248657-61.141192 25.248657z m-321.263676-485.616107c-14.294038 0-27.689001 5.518742-37.707257 15.536997l-12.350877 12.359164c-10.022399 10.018256-15.541141 23.404933-15.541141 37.703114 0 14.302324 5.518742 27.697287 15.541141 37.719686l333.614553 333.614553c10.022399 10.022399 23.409076 15.541141 37.707257 15.541141s27.689001-5.518742 37.707257-15.541141l12.363306-12.350877c20.786431-20.794717 20.786431-54.632226-0.008286-75.4228l-333.618696-333.614553c-10.018256-10.026542-23.409076-15.545284-37.707257-15.545284z" fill="#6E6E96" p-id="1996"></path><path d="M438.217906 433.266783m-391.702207 0a391.702208 391.702208 0 1 0 783.404415 0 391.702208 391.702208 0 1 0-783.404415 0Z" fill="#F5F5F5" p-id="1997"></path><path d="M438.217906 841.541788c-225.124879 0-408.275005-183.150126-408.275004-408.275005S213.093028 24.991778 438.217906 24.991778s408.275005 183.150126 408.275005 408.275005-183.150126 408.275005-408.275005 408.275005z m0-783.404415c-206.845083 0-375.12941 168.284327-375.12941 375.12941 0 206.849226 168.284327 375.12941 375.12941 375.12941 206.849226 0 375.12941-168.280184 375.129411-375.12941 0-206.845083-168.280184-375.12941-375.129411-375.12941z" fill="#6E6E96" p-id="1998"></path><path d="M438.30077 134.840422c164.866188 0 298.505082 133.655467 298.505082 298.505082 0 164.853758-133.638894 298.517511-298.505082 298.517511-164.849615 0-298.496795-133.663753-298.496795-298.517511-0.004143-164.853758 133.647181-298.505082 298.496795-298.505082z" fill="#9FD4FF" p-id="1999"></path><path d="M438.30077 748.43167c-173.728491 0-315.069593-141.349388-315.069592-315.090309 0-84.156665 32.772707-163.275199 92.281478-222.788114 59.512915-59.512915 138.631449-92.285622 222.788114-92.285622 173.736777 0 315.077879 141.341102 315.07788 315.077879s-141.345245 315.086166-315.07788 315.086166z m0-597.018451c-75.302648 0-146.097495 29.329708-199.350035 82.578106-53.252541 53.252541-82.578106 124.051531-82.573963 199.354179 0 155.461125 126.471159 281.944714 281.923998 281.944714 155.456982 0 281.932285-126.479446 281.932285-281.944714 0-155.456982-126.475303-281.932285-281.932285-281.932285z" fill="#6E6E96" p-id="2000"></path><path d="M173.318314 479.446883c0-146.391662 118.686088-265.07775 265.07775-265.07775 146.404091 0 265.07775 118.686088 265.07775 265.07775a264.365119 264.365119 0 0 1-12.972357 81.931767 284.111607 284.111607 0 0 0 33.008869-133.241148c0-157.644591-127.796983-285.449861-285.449861-285.44986-157.640448 0-285.449861 127.809413-285.449861 285.44986 0 49.602382 12.674047 96.234091 34.910598 136.858161a264.327831 264.327831 0 0 1-14.202888-85.54878z" fill="#90C0F0" p-id="2001"></path><path d="M555.503593 557.575193c0 42.331068-51.01107 76.649188-113.937982 76.649187s-113.937981-34.31812-113.937981-76.649187 51.015213-47.646792 113.937981-47.646793c62.926911 0 113.937981 5.324011 113.937982 47.646793z" fill="#F0F0F0" opacity=".64" p-id="2002"></path><path d="M591.827021 385.706998h-106.177769V279.533372H383.266654v106.173626H277.088885v102.386742h106.177769v106.177769h102.382598v-106.177769h106.177769z" fill="#6E6E96" p-id="2003"></path></svg>