<?xml version="1.0" standalone="no"?><!DOCTYPE svg PUBLIC "-//W3C//DTD SVG 1.1//EN" "http://www.w3.org/Graphics/SVG/1.1/DTD/svg11.dtd"><svg t="1639302318286" class="icon" viewBox="0 0 1024 1024" version="1.1" xmlns="http://www.w3.org/2000/svg" p-id="2876" xmlns:xlink="http://www.w3.org/1999/xlink" width="200" height="200"><defs><style type="text/css"></style></defs><path d="M505.4153 518.934331m-487.534217 0a487.534217 487.534217 0 1 0 975.068433 0 487.534217 487.534217 0 1 0-975.068433 0Z" fill="#FF4000" opacity=".35" p-id="2877"></path><path d="M505.4153 1006.47271c88.065165 0 170.669442-23.350297 241.964848-64.198749-9.369255-237.482091-114.116771-424.638257-241.964848-424.638257S272.819706 704.796033 263.450451 942.273961c71.303731 40.831802 153.903845 64.198748 241.964849 64.198749z" fill="#FFFF00" opacity=".55" p-id="2878"></path><path d="M82.071506 762.052126c44.032583 76.260987 105.559158 136.126819 176.58818 177.449768 200.979042-126.853296 310.679652-311.145826 246.759776-421.862027C441.499585 406.911178 227.03481 409.778977 16.690676 520.403609c0.274709 82.171401 21.360735 165.395854 65.38083 241.648517z" fill="#00A0C6" opacity=".55" p-id="2879"></path><path d="M928.759093 762.052126c44.02842-76.260987 65.114446-159.472953 65.384993-241.648517-210.344135-110.628794-424.80891-113.496594-488.724624-2.772067-63.924039 110.724526 45.784896 295.017056 246.763938 421.862028 71.020698-41.322949 132.54311-101.188781 176.575693-177.441444z" fill="#FFBF00" opacity=".55" p-id="2880"></path><path d="M928.759093 273.219283c-44.032583-76.269311-105.554996-136.130981-176.579856-177.449768-200.979042 126.849134-310.683814 311.141663-246.759775 421.862027 63.915714 110.724526 278.376327 107.860889 488.720462-2.763743-0.270547-82.171401-21.35241-165.387529-65.380831-241.648516z" fill="#FF0000" opacity=".55" p-id="2881"></path><path d="M505.419462 28.802862c-88.069328 0-170.673604 23.350297-241.973173 64.198748 9.369255 237.477929 114.120933 424.634095 241.973173 424.634094 127.843915 0 232.591432-187.152004 241.960686-424.634094-71.299569-40.840127-153.908007-64.198748-241.960686-64.198748z" fill="#D010B1" opacity=".55" p-id="2882"></path><path d="M82.071506 273.219283C38.038924 349.484432 16.961223 432.700561 16.690676 514.867799c210.344135 110.624632 424.800585 113.488269 488.728786 2.763743 63.915714-110.724526-45.789058-295.012893-246.759776-421.862027-71.029022 41.331274-132.551435 101.192944-176.58818 177.449768z" fill="#0000FF" opacity=".55" p-id="2883"></path><path d="M845.763564 438.34459l-25.040176-3.096724c-20.973644-2.597252-24.886172-15.824925-8.674156-29.402227l13.494057-11.296383c16.212015-13.57314 20.827965-39.658044 10.255817-57.96784l-23.063101-39.953565c-10.563824-18.309796-35.137826-26.546915-54.62138-18.297309l-23.212942 9.827104c-19.479392 8.245443-29.477148-1.257003-22.213999-21.115162l6.026957-16.540834c7.250663-19.86232-1.789773-44.756817-20.103731-55.328965l-39.941078-23.0631c-18.309796-10.572149-43.720413-5.419267-56.465263 11.462873l-15.183937 20.12038c-12.74485 16.877977-26.1515 13.639737-29.79348-7.184066l-3.042614-17.344151c-3.64198-20.819641-23.933014-37.859946-45.064824-37.859947h-46.130364c-21.140135 0-40.565417 17.165174-43.162669 38.138818l-3.096724 25.031851c-2.59309 20.981969-15.820763 24.890334-29.393903 8.674157l-11.300545-13.502382c-13.57314-16.216178-39.658044-20.823803-57.972002-10.251654l-39.953565 23.0631c-18.305634 10.580473-26.542753 35.150313-18.297309 54.617218l9.827104 23.221267c8.237119 19.471067-1.261166 29.468824-21.123486 22.213999l-16.53251-6.039444c-19.866482-7.2465-44.760979 1.80226-55.333127 20.112056l-23.058939 39.953565c-10.572149 18.301471-5.419267 43.712088 11.454549 56.456938l20.128705 15.179774c16.869653 12.74485 13.635574 26.155662-7.188229 29.801805l-17.339988 3.038452c-20.823803 3.650305-37.864109 23.937176-37.864109 45.077311v46.130363c0 21.135973 17.169336 40.565417 38.14298 43.150183l25.027689 3.105048c20.986131 2.59309 24.890334 15.833249 8.674157 29.393903l-13.49822 11.292221c-16.207853 13.585627-20.819641 39.666369-10.247492 57.988651l23.058938 39.949402c10.572149 18.305634 35.146151 26.555239 54.617218 18.297309l23.221267-9.827103c19.471067-8.237119 29.464661 1.273653 22.213999 21.119324l-6.035282 16.544996c-7.250663 19.866482 1.798098 44.756817 20.103731 55.328965l39.957728 23.058938c18.305634 10.576311 43.712088 5.410942 56.444451-11.446223l15.188099-20.141192c12.74485-16.861328 26.1515-13.635574 29.801804 7.196553l3.03429 17.323339c3.650305 20.83629 23.9455 37.876595 45.077311 37.876596l46.130364 0.008324c21.140135 0 40.561255-17.17766 43.154345-38.167953l3.088399-25.006878c2.601415-20.981969 15.829087-24.886172 29.398065-8.682481l11.304707 13.502382c13.568978 16.195366 39.64972 20.815478 57.972002 10.239167l39.966052-23.0631c18.297309-10.563824 26.542753-35.129502 18.297309-54.617218l-9.827103-23.217105c-8.237119-19.471067 1.265328-29.468824 21.110999-22.209836l16.544996 6.039444c19.858158 7.242338 44.756817-1.806422 55.33729-20.116218l23.067263-39.953565c10.567986-18.305634 5.398455-43.712088-11.467036-56.452776l-20.128705-15.179774c-16.869653-12.74485-13.639737-26.147338 7.192391-29.805967l17.335827-3.03429c20.827965-3.64198 37.859946-23.933014 37.859946-45.077311v-46.130363c0.004162-21.148459-17.173498-40.56958-38.138818-43.16267z m-342.429396 289.114966c-113.546541 0-205.599155-92.052614-205.599155-205.599154s92.052614-205.59083 205.599155-205.59083c113.534054 0 205.594992 92.044289 205.594992 205.59083-0.004162 113.546541-92.052614 205.599155-205.594992 205.599154z m0.004162-301.289586c-52.856581 0-95.698756 42.846338-95.698756 95.698756 0 52.835769 42.842175 95.694594 95.698756 95.694594 52.844094 0 95.694594-42.858824 95.694594-95.694594 0-52.852419-42.846338-95.698756-95.694594-95.698756z" fill="#F0F0FF" p-id="2884"></path><path d="M543.691472 919.085993l-46.130363-0.008325c-29.398065 0-56.402829-22.688497-61.476628-51.649524l-3.03429-17.32334-0.024974-0.154003-0.095732 0.124868-15.175611 20.124542c-11.150703 14.759385-29.327307 23.566734-48.640208 23.566735-10.50139 0-20.678124-2.676335-29.427201-7.725161l-39.953565-23.054776c-25.45224-14.701114-37.497829-47.845216-27.42099-75.45767l6.035281-16.544996 0.049947-0.137355-0.133192 0.058272-23.221267 9.827103a57.576587 57.576587 0 0 1-22.609413 4.52438c-21.681229 0-42.450923-11.708446-52.914853-29.83094l-23.0631-39.949403c-14.692789-25.460564-8.553451-60.190489 13.972717-79.070514l13.510707-11.304707 0.099894-0.087408-0.137355-0.016649-25.036013-3.105048c-29.073409-3.583709-52.740037-30.355386-52.740037-59.674368v-46.130364c0-29.398065 22.680172-56.402829 51.637037-61.476627l17.339989-3.038453 0.149841-0.024973-0.120705-0.09157-20.116219-15.171449c-23.404406-17.677132-30.505227-52.698415-15.845736-78.079896l23.054776-39.949403c10.85102-18.796781 32.523925-30.938103 55.216584-30.938102 7.046712 0 13.860337 1.182083 20.241087 3.508787l16.540834 6.043607 0.137354 0.049947-0.058271-0.137355-9.822942-23.221266c-11.425413-26.971466-0.079083-60.852288 25.298236-75.520104l39.96189-23.067263c8.965515-5.177855 19.487716-7.912462 30.421982-7.912463 18.97992 0 37.164848 8.18301 48.640208 21.897667l11.300544 13.506544 0.087408 0.099895a1.456792 1.456792 0 0 1 0.016649-0.133193l3.096724-25.031851c3.600358-29.081733 30.376197-52.7442 59.686854-52.7442h46.130364c29.402227 0 56.398667 22.684335 61.464141 51.637038l3.038452 17.335826 0.024974 0.141517 0.087407-0.108218 15.183937-20.116219c11.146541-14.763548 29.331469-23.575059 48.648532-23.575059 10.50139 0 20.682286 2.672173 29.431363 7.725161l39.941078 23.063101c25.456402 14.692789 37.501992 47.841054 27.420991 75.453507l-6.026958 16.53251-0.049947 0.137355 0.12903-0.05411 23.212942-9.827103a57.647346 57.647346 0 0 1 22.617739-4.520218c21.689554 0 42.459247 11.708446 52.919015 29.83094l23.058938 39.953565c14.701114 25.456402 8.557613 60.182164-13.985205 79.053866l-13.494057 11.296382-0.108219 0.09157 0.141517 0.016649 25.040176 3.096724c29.090058 3.600358 52.752524 30.376197 52.740037 59.686855v46.122038c0 29.40639-22.680172 56.415316-51.637038 61.480791l-17.331664 3.03429-0.154003 0.024973 0.124868 0.095732 20.116218 15.175612c23.400244 17.677132 30.509389 52.694252 15.862385 78.071571l-23.067263 39.953565c-10.859345 18.796781-32.532249 30.942265-55.224908 30.942265h-0.004163c-7.046712 0-13.852012-1.182083-20.228599-3.508788l-16.553321-6.039444-0.120706-0.045785 0.05411 0.124868 9.827103 23.212942c11.42125 26.996439 0.070758 60.877262-25.30656 75.528429l-39.970214 23.067262c-8.961353 5.173693-19.483554 7.9083-30.41782 7.908301-18.97992 0-37.160686-8.178847-48.640208-21.876856l-11.308869-13.510706-0.087407-0.108219-0.020812 0.154004-3.088399 24.998553c-3.600358 29.102545-30.376197 52.773336-59.686855 52.773335z m-108.023217-106.503992c11.899911 0 26.076579 8.3495 30.18057 31.77888l3.03429 17.32334c2.251784 12.840582 15.65011 24.099504 28.677994 24.099504l46.130363 0.008324c12.636631 0 25.077636-11.013349 26.63016-23.558409l3.0884-25.006878c3.042614-24.549029 17.444045-33.293944 29.910023-33.293944 7.0259 0 17.731241 2.772067 28.777888 15.96228l11.308869 13.506544c5.144557 6.143501 14.001854 9.960296 23.108886 9.960296 5.098772 0 9.856239-1.19457 13.772929-3.450516l39.970214-23.067263c10.938428-6.314153 16.212015-22.06832 11.288058-33.71017l-9.827104-23.212942c-7.437964-17.5814-3.875067-29.006812 0.428713-35.495781 7.875002-11.879099 23.508463-15.508593 41.735014-8.840647l16.536671 6.035282c2.705471 0.986456 5.673165 1.49009 8.819836 1.49009 10.672043 0 21.527225-5.877116 26.388749-14.297374l23.067263-39.949403c6.314153-10.938428 3.005154-27.221202-7.084172-34.846467l-20.116218-15.175612c-18.596992-14.047638-18.447151-28.274254-16.707325-35.504105 1.743988-7.229851 8.095602-19.962214 31.042159-23.991286l17.339989-3.038452c12.832258-2.24346 24.082855-15.641785 24.082855-28.677994v-46.130363c0.004162-12.640793-10.992537-25.08596-23.529274-26.634322l-25.040176-3.096724c-23.113048-2.859475-30.097325-15.258857-32.20343-22.388814-2.106105-7.134119-2.976018-21.339924 14.884253-36.299098l13.49822-11.300544c9.985269-8.361987 13.036208-25.593757 6.522266-36.87349l-23.0631-39.957727c-4.549354-7.883327-14.226616-13.177725-24.078693-13.177726-3.433867 0-6.67627 0.632664-9.631477 1.885505l-23.212942 9.827104c-18.172441 7.691862-34.251264 4.566003-42.538331-7.283961-4.362052-6.239233-8.216308-17.352475-1.806422-34.879766l6.022795-16.524185c4.470271-12.249541-1.502577-28.698805-12.786473-35.208584l-39.941077-23.067263c-3.700252-2.135241-8.116413-3.263214-12.782311-3.263214-8.799024 0-17.256743 3.962475-22.072482 10.339061l-15.183936 20.116219c-10.875994 14.409755-21.939289 17.431558-29.302333 17.43572-11.899911 0-26.080741-8.345338-30.180571-31.783042l-3.038452-17.335826c-2.247622-12.83642-15.641785-24.087017-28.665507-24.087017h-46.130363c-12.640793 0-25.08596 11.000862-26.638485 23.537598l-3.096724 25.027689c-3.03429 24.540704-17.431558 33.289781-29.897537 33.289781-7.034225 0-17.739566-2.772067-28.790374-15.970604l-11.300545-13.506544c-5.14872-6.151825-14.001854-9.96862-23.104723-9.96862-5.098772 0-9.860402 1.19457-13.772929 3.454678l-39.957727 23.063101c-10.934266 6.322478-16.216178 22.072482-11.288058 33.706007l9.827103 23.229591c7.437964 17.577238 3.870905 29.00265-0.428713 35.491619-7.87084 11.879099-23.500138 15.508593-41.739175 8.848972l-16.53251-6.039444a25.701975 25.701975 0 0 0-8.823998-1.490091c-10.672043 0-21.523063 5.877116-26.380424 14.28905l-23.058939 39.953565c-6.32664 10.946752-3.021803 27.229526 7.067523 34.85063l20.116218 15.171449c18.601154 14.051801 18.447151 28.282579 16.703163 35.51243-1.743988 7.234013-8.099764 19.966377-31.042159 23.982961l-17.339989 3.038452c-12.832258 2.251784-24.087017 15.65011-24.087017 28.677994v46.130363c0 12.640793 10.996699 25.081798 23.529274 26.625998l25.044338 3.105048c23.11721 2.859475 30.101488 15.258857 32.207592 22.397139s2.967694 21.344086-14.900902 36.294935l-13.49822 11.29222c-9.976945 8.361987-13.023722 25.606243-6.509779 36.894302l23.058938 39.94524c4.549354 7.883327 14.226616 13.181888 24.078693 13.181888 3.433867 0 6.667946-0.632664 9.61899-1.885506l23.233754-9.831265c18.15163-7.683538 34.238777-4.566003 42.525843 7.292285 4.362052 6.23507 8.22047 17.352475 1.818909 34.875603l-6.035282 16.536672c-4.466108 12.237054 1.510902 28.69048 12.790635 35.204423l39.953565 23.054776c3.700252 2.139403 8.112251 3.267377 12.773986 3.267376 8.799024 0 17.252581-3.958312 22.059995-10.326575l15.179774-20.128705c10.888481-14.413918 21.951776-17.435721 29.310658-17.435721z m67.665913-68.473392c-122.549516 0-222.248207-99.698691-222.248208-222.248207 0-122.541192 99.698691-222.239883 222.248208-222.239883 122.541192 0 222.244045 99.698691 222.244045 222.239883-0.004162 122.549516-99.702853 222.248207-222.244045 222.248207z m0-411.189984c-104.185611 0-188.950102 84.760328-188.950102 188.941777 0 104.185611 84.764491 188.950102 188.950102 188.950101 104.181449 0 188.945939-84.764491 188.945939-188.950101-0.004162-104.181449-84.764491-188.941777-188.945939-188.941777z m0.004162 301.293748c-61.951126 0-112.347809-50.396683-112.347809-112.343647s50.396683-112.347809 112.347809-112.347809c61.946964 0 112.343647 50.396683 112.343647 112.347809 0 61.946964-50.396683 112.343647-112.343647 112.343647z m0-191.39335c-43.587221 0-79.049703 35.462483-79.049703 79.049703 0 43.587221 35.462483 79.045541 79.049703 79.045541 43.587221 0 79.045541-35.462483 79.045541-79.045541 0-43.587221-35.45832-79.049703-79.045541-79.049703z" fill="#6E6E96" p-id="2885"></path><path d="M506.842956 1024.004162C228.537387 1024.004162 2.122754 797.589529 2.122754 519.288123S228.537387 14.567921 506.842956 14.567921s504.720202 226.414633 504.720201 504.720202-226.418795 504.716039-504.720201 504.716039z m0-976.138135C246.901293 47.866027 35.42086 259.34646 35.42086 519.288123s211.480432 471.422096 471.422096 471.422096 471.422096-211.480432 471.422096-471.422096S766.784619 47.866027 506.842956 47.866027z" fill="#6E6E96" p-id="2886"></path></svg>