<?xml version="1.0" standalone="no"?><!DOCTYPE svg PUBLIC "-//W3C//DTD SVG 1.1//EN" "http://www.w3.org/Graphics/SVG/1.1/DTD/svg11.dtd"><svg t="1639302595372" class="icon" viewBox="0 0 1296 1024" version="1.1" xmlns="http://www.w3.org/2000/svg" p-id="1437" xmlns:xlink="http://www.w3.org/1999/xlink" width="253.125" height="200"><defs><style type="text/css"></style></defs><path d="M37.288515 51.630252h1198.160314v943.686275H37.288515z" fill="#8585B0" p-id="1438"></path><path d="M151.546263 991.21479l350.08753-350.087529 116.036123 116.030386 187.607126-187.073613 361.170824 421.130756z" fill="#8298A8" p-id="1439"></path><path d="M723.53488 233.127798h52.117871v52.112135h-52.117871z" fill="#F7DF97" p-id="1440"></path><path d="M1010.163092 476.317759h43.426779v43.421042h-43.426779zM147.817412 611.560336h32.676213v32.676213h-32.676213z" fill="#F7DF97" opacity=".43" p-id="1441"></path><path d="M292.800896 188.358633c-36.450958 37.661401-59.099429 90.312784-59.099428 148.574656 0 114.515899 87.45591 207.341356 195.328717 207.341355 43.707877 0 84.05405-15.236661 116.592583-40.982947 21.12251-22.424739-11.978218-31.494454-11.978219-31.494453-119.300303-7.543754-228.251608-113.546398-213.869714-241.170645 7.457703-66.138353-26.973938-42.267966-26.973939-42.267966z" fill="#F7DF97" p-id="1442"></path><path d="M272.188952 168.412146c-43.317782 44.757692-67.170958 104.608627-67.170958 168.521143 0 130.142655 100.489681 236.024829 224.012191 236.024829 48.916796 0 95.384022-16.309423 134.387809-47.172841l1.646432-1.302229 1.43991-1.525961c17.336291-18.403317 15.804594-35.814185 13.349289-44.551171-6.861087-24.432583-33.381826-32.842577-38.625166-34.276751l-2.833927-0.774454-2.937187-0.18931c-54.55023-3.447754-108.681681-31.230566-144.805648-74.313143-32.73358-39.043944-47.78093-86.991238-42.36549-135.01311 2.701983-23.956437 3.36744-57.550521-21.896963-72.643764-17.743597-10.601412-37.982655-4.692616-49.920717 3.579697l-2.311888 1.606275-1.967687 2.03079z m19.080247 59.007641c-7.182342 63.780571 12.494521 127.102207 55.41647 178.296471 46.014028 54.882958 115.227249 90.289838 185.146085 94.712829l-5.771115-0.963765c0.59088 0.189311 2.059473 0.854768 2.592986 1.239126-4.543462-3.246969-6.287417-13.355025-3.103552-18.030431 0 0-0.229468 0.332728-0.814611 0.952291l3.086342-2.82819c-28.769524 22.763204-62.931541 34.793053-98.797356 34.793053-91.890375 0-166.645244-80.147361-166.645244-178.657882 0-48.945479 18.122218-94.626779 51.0279-128.628169l-4.268101 3.625591a9.436863 9.436863 0 0 1-0.699877 0.470409c-0.774454 0.332728-4.658196 1.158812-9.471283-0.917871-5.002398-2.162734-7.291339-5.868639-7.704381-6.998767 0.08605 0.229468 1.956213 5.650644 0.005737 22.935305z" fill="#6E6E96" p-id="1443"></path><path d="M785.204347 590.156728l169.955317 401.058062h211.288202l-361.170824-421.130756z" fill="#6E6E96" opacity=".35" p-id="1444"></path><path d="M510.03805 661.406476L370.016807 962.531317H220.788168z" fill="#FFFFFF" opacity=".14" p-id="1445"></path><path d="M171.825479 1011.494006l350.093266-350.08753a28.683473 28.683473 0 0 1-40.564168 0l116.036123 116.036123a28.683473 28.683473 0 0 0 40.535485 0.028684l187.601389-187.067877a28.68921 28.68921 0 0 1-42.027025-1.640695l361.170824 421.130757a28.672 28.672 0 1 1 21.770756-47.356415H151.546263a28.677737 28.677737 0 1 1 20.279216 48.956953z m1016.393143-38.952157l-361.170824-421.130757a28.683473 28.683473 0 0 0-42.027025-1.634958l-187.607126 187.073614a28.683473 28.683473 0 0 1 40.535485 0.028683l-116.036124-116.036123a28.683473 28.683473 0 0 0-40.564168 0L131.261311 970.935574a28.683473 28.683473 0 0 0 20.284952 48.962689h1014.907339a28.683473 28.683473 0 0 0 21.76502-47.356414z" fill="#6E6E96" p-id="1446"></path><path d="M37.288515 80.313725h1198.160314a28.683473 28.683473 0 0 1-28.683473-28.683473v943.686275a28.683473 28.683473 0 0 1 28.683473-28.683474H37.288515a28.683473 28.683473 0 0 1 28.683474 28.683474V51.630252a28.683473 28.683473 0 0 1-28.683474 28.683473z m0 943.686275h1198.160314a28.683473 28.683473 0 0 0 28.683474-28.683473V51.630252a28.683473 28.683473 0 0 0-28.683474-28.683473H37.288515a28.683473 28.683473 0 0 0-28.683473 28.683473v943.686275a28.683473 28.683473 0 0 0 28.683473 28.683473z" fill="#6E6E96" p-id="1447"></path></svg>