<?xml version="1.0" standalone="no"?><!DOCTYPE svg PUBLIC "-//W3C//DTD SVG 1.1//EN" "http://www.w3.org/Graphics/SVG/1.1/DTD/svg11.dtd"><svg t="1639301857512" class="icon" viewBox="0 0 1024 1024" version="1.1" xmlns="http://www.w3.org/2000/svg" p-id="1436" xmlns:xlink="http://www.w3.org/1999/xlink" width="200" height="200"><defs><style type="text/css"></style></defs><path d="M138.934673 51.457286l746.130654 447.678392-746.130654 473.407036z" fill="#85F2C6" p-id="1437"></path><path d="M133.788945 849.045226v118.351759l746.130653-473.407035-95.87007-57.524101z" fill="#6E6E96" opacity=".15" p-id="1438"></path><path d="M125.699859 73.522171l746.130654 447.678392A25.769809 25.769809 0 0 1 859.336683 499.459859a25.74408 25.74408 0 0 1 11.938091-22.044301l-746.130653 473.407035A25.718352 25.718352 0 1 1 164.663317 972.542714V51.457286a25.728643 25.728643 0 0 1-38.963458 22.064885z m27.020221 920.750955l746.130654-473.407036c7.528201-4.785528 12.051296-13.126754 11.93809-22.049447s-4.831839-17.150714-12.493829-21.740703l-746.130653-447.678392A25.723497 25.723497 0 1 0 113.20603 51.457286v921.085428a25.738935 25.738935 0 0 0 39.51405 21.730412z" fill="#6E6E96" p-id="1439"></path><path d="M164.663317 96.899216l530.982593 395.660221 62.433125-39.616965zM257.744402 770.39791L164.663317 96.899216v732.556221z" fill="#6E6E96" opacity=".15" p-id="1440"></path><path d="M257.744402 770.39791V241.849246l437.901508 250.710191L164.663317 96.899216z" fill="#FFFFFF" opacity=".39" p-id="1441"></path></svg>