<?xml version="1.0" standalone="no"?><!DOCTYPE svg PUBLIC "-//W3C//DTD SVG 1.1//EN" "http://www.w3.org/Graphics/SVG/1.1/DTD/svg11.dtd"><svg t="1639302338934" class="icon" viewBox="0 0 1024 1024" version="1.1" xmlns="http://www.w3.org/2000/svg" p-id="3174" xmlns:xlink="http://www.w3.org/1999/xlink" width="200" height="200"><defs><style type="text/css"></style></defs><path d="M945.88412 956.548715c-27.187674 27.187674-71.664919 27.187674-98.852593 0l-333.618696-333.614553c-27.187674-27.187674-27.187674-71.677348 0-98.852593l12.35502-12.359163c27.187674-27.187674 71.664919-27.187674 98.84845 0l333.622839 333.614553c27.187674 27.187674 27.187674 71.669062 0 98.865022l-12.35502 12.346734z" fill="#A5A5C4" p-id="3175"></path><path d="M896.455752 993.514339c-23.152198 0-44.866706-8.965883-61.145336-25.248656l-333.622839-333.614553c-16.27863-16.27863-25.244513-37.997281-25.244514-61.149479 0-23.156341 8.965883-44.870849 25.248657-61.145336l12.350877-12.35502c16.282773-16.27863 37.997281-25.244513 61.145336-25.244514 23.152198 0 44.866706 8.965883 61.145336 25.244514l333.622839 333.618696c33.713213 33.713213 33.713213 88.577458 0.004143 122.303101l-12.363307 12.350877c-16.274487 16.274487-37.988995 25.24037-61.141192 25.24037z m-321.267819-485.616106c-14.294038 0-27.689001 5.518742-37.707257 15.536997l-12.350877 12.359164c-10.022399 10.018256-15.541141 23.404933-15.541141 37.707257s5.518742 27.693144 15.536997 37.715543l333.618697 333.614553c10.022399 10.018256 23.413219 15.536997 37.7114 15.536998s27.689001-5.518742 37.7114-15.536998l12.359164-12.350877c20.786431-20.798861 20.786431-54.63637-0.008287-75.426944l-333.618696-333.614553c-10.018256-10.022399-23.413219-15.541141-37.7114-15.54114z" fill="#6E6E96" p-id="3176"></path><path d="M442.361106 433.26264m-391.702208 0a391.702208 391.702208 0 1 0 783.404415 0 391.702208 391.702208 0 1 0-783.404415 0Z" fill="#F5F5F5" p-id="3177"></path><path d="M442.361106 841.537645c-225.124879 0-408.275005-183.150126-408.275005-408.275005S217.236227 24.987635 442.361106 24.987635s408.275005 183.150126 408.275005 408.275005-183.150126 408.275005-408.275005 408.275005z m0-783.404415c-206.845083 0-375.12941 168.284327-375.129411 375.12941 0 206.849226 168.284327 375.12941 375.129411 375.12941 206.849226 0 375.12941-168.280184 375.12941-375.12941 0-206.845083-168.280184-375.12941-375.12941-375.12941z" fill="#6E6E96" p-id="3178"></path><path d="M442.44397 134.840422c164.866188 0 298.505082 133.651324 298.505082 298.505082s-133.638894 298.513368-298.505082 298.513368c-164.849615 0-298.496795-133.65961-298.496796-298.513368-0.004143-164.857901 133.647181-298.505082 298.496796-298.505082z" fill="#9FD4FF" p-id="3179"></path><path d="M442.44397 748.427526c-173.728491 0-315.069593-141.345245-315.069593-315.086165 0-84.156665 32.772707-163.279342 92.281479-222.792258 59.512915-59.508772 138.631449-92.285622 222.788114-92.285621 173.736777 0 315.077879 141.341102 315.077879 315.077879 0 173.740921-141.345245 315.086166-315.077879 315.086165z m0-597.014307c-75.302648 0-146.101638 29.325565-199.350036 82.578106-53.252541 53.252541-82.578106 124.047388-82.573962 199.354179 0 155.461125 126.471159 281.940571 281.923998 281.940571 155.456982 0 281.932285-126.475303 281.932284-281.940571 0-155.456982-126.475303-281.932285-281.932284-281.932285z" fill="#6E6E96" p-id="3180"></path><path d="M177.461514 479.446883c0-146.391662 118.686088-265.07775 265.077749-265.07775 146.404091 0 265.07775 118.686088 265.07775 265.07775a264.514275 264.514275 0 0 1-12.972357 81.93591 284.111607 284.111607 0 0 0 33.008869-133.241147c0-157.644591-127.796983-285.449861-285.449861-285.449861-157.640448 0-285.449861 127.809413-285.449861 285.449861 0 49.598239 12.669904 96.229948 34.910598 136.85816a264.406551 264.406551 0 0 1-14.202887-85.552923z" fill="#90C0F0" p-id="3181"></path><path d="M559.646792 557.575193c0 42.331068-51.01107 76.649188-113.937981 76.649187s-113.937981-34.31812-113.937982-76.649187 51.01107-47.646792 113.937982-47.646793 113.937981 5.319868 113.937981 47.646793z" fill="#F0F0F0" opacity=".64" p-id="3182"></path></svg>