<?xml version="1.0" standalone="no"?><!DOCTYPE svg PUBLIC "-//W3C//DTD SVG 1.1//EN" "http://www.w3.org/Graphics/SVG/1.1/DTD/svg11.dtd"><svg t="1639301891713" class="icon" viewBox="0 0 1024 1024" version="1.1" xmlns="http://www.w3.org/2000/svg" p-id="1861" xmlns:xlink="http://www.w3.org/1999/xlink" width="200" height="200"><defs><style type="text/css"></style></defs><path d="M892.878049 320.520325v657.691057H122.796748V37.463415h487.02439z" fill="#F0F0FF" p-id="1862"></path><path d="M872.065041 320.520325v657.691057a20.813008 20.813008 0 0 1 20.813008-20.813008H122.796748a20.813008 20.813008 0 0 1 20.813008 20.813008V37.463415a20.813008 20.813008 0 0 1-20.813008 20.813008h487.02439a20.813008 20.813008 0 0 1-14.714797-6.094049l283.056911 283.056911A20.78387 20.78387 0 0 1 872.065041 320.520325zM609.821138 16.650407H122.796748a20.813008 20.813008 0 0 0-20.813008 20.813008v940.747967a20.813008 20.813008 0 0 0 20.813008 20.813008h770.081301a20.813008 20.813008 0 0 0 20.813008-20.813008V320.520325a20.78387 20.78387 0 0 0-6.098211-14.718959l-283.056911-283.056911A20.813008 20.813008 0 0 0 609.821138 16.650407z" fill="#6E6E96" p-id="1863"></path><path d="M609.821138 37.463415v283.05691h283.056911z" fill="#F0F0FF" p-id="1864"></path><path d="M589.00813 37.463415v283.05691a20.813008 20.813008 0 0 0 20.813008 20.813008h283.056911a20.813008 20.813008 0 0 0 14.714797-35.527805l-283.056911-283.05691a20.804683 20.804683 0 0 0-22.677854-4.508098A20.796358 20.796358 0 0 0 589.00813 37.463415z m303.869919 262.243902h-283.056911a20.813008 20.813008 0 0 1 20.813008 20.813008V37.463415a20.813008 20.813008 0 0 1-35.527805 14.718959l283.056911 283.056911A20.813008 20.813008 0 0 1 892.878049 299.707317z" fill="#6E6E96" p-id="1865"></path><path d="M833.21548 375.329301v543.914666H193.560976V957.398374h678.504065V375.329301zM143.609756 97.821138h49.95122V957.398374H143.609756z" fill="#FFFFFF" opacity=".4" p-id="1866"></path><path d="M143.609756 58.276423h445.398374v39.544715H143.609756zM589.00813 325.378081V97.821138h-38.849561v277.508163H872.065041v-49.95122z" fill="#6E6E96" opacity=".15" p-id="1867"></path><path d="M385.644228 513.927285L268.188098 631.383415l-14.714797 14.714796 14.714797 14.714797 117.45613 117.45613 29.433756-29.433756L297.626016 631.383415v29.429593l117.451968-117.451967zM617.996488 543.361041l117.451967 117.451967-0.008325-29.429593-117.447805 117.451967 29.437919 29.433756 117.447805-117.45613 14.714797-14.714797-14.71896-14.714796-117.447805-117.45613zM573.906211 487.086829l-71.496845 330.252488-40.689431-8.808065 71.496845-330.252488z" fill="#6E6E96" p-id="1868"></path></svg>