<?xml version="1.0" standalone="no"?><!DOCTYPE svg PUBLIC "-//W3C//DTD SVG 1.1//EN" "http://www.w3.org/Graphics/SVG/1.1/DTD/svg11.dtd"><svg t="1639302029979" class="icon" viewBox="0 0 1024 1024" version="1.1" xmlns="http://www.w3.org/2000/svg" p-id="2845" xmlns:xlink="http://www.w3.org/1999/xlink" width="200" height="200"><defs><style type="text/css"></style></defs><path d="M67.819917 296.267904v438.335382l364.373761 245.247711V541.519629z" fill="#79CDF2" p-id="2846"></path><path d="M47.752188 296.267904v438.335382a20.067729 20.067729 0 0 0 8.861909 16.648188l364.373761 245.243697a20.067729 20.067729 0 0 0 31.273549-16.644174V541.519629c0-6.67854-3.323216-12.923617-8.861909-16.644174L79.025736 279.615703a20.067729 20.067729 0 0 0-31.273548 16.652201z m364.373762 245.251725v438.331368a20.067729 20.067729 0 0 1 31.273548-16.644174L79.025736 717.963126a20.055688 20.055688 0 0 1 8.861909 16.64016V296.267904A20.071742 20.071742 0 0 1 56.614097 312.916092l364.373761 245.247711a20.047661 20.047661 0 0 1-8.861908-16.644174z" fill="#6E6E96" p-id="2847"></path><path d="M808.319101 346.08002l-357.659099-246.006271-382.840085 196.194155 364.373761 245.251725 376.125423-195.439609" fill="#91D4F2" p-id="2848"></path><path d="M819.69349 329.544212l-357.655086-246.006271a20.067729 20.067729 0 0 0-20.525273-1.324471L58.665019 278.407626a20.083783 20.083783 0 0 0-10.884736 16.668255 20.079769 20.079769 0 0 0 8.825787 17.840211l364.373761 245.247711a20.067729 20.067729 0 0 0 20.461056 1.159915L817.570324 363.888122a20.071742 20.071742 0 0 0-18.506459-35.616204l-376.125423 195.439608a20.079769 20.079769 0 0 1 20.461056 1.159915L79.025736 279.615703a20.055688 20.055688 0 0 1 8.825787 17.840211 20.051674 20.051674 0 0 1-10.880722 16.668255l382.844099-196.194155a20.067729 20.067729 0 0 1-20.52126-1.32447l357.651073 246.006271a20.067729 20.067729 0 0 0 22.748777-33.067603z" fill="#6E6E96" p-id="2849"></path><path d="M808.319101 773.045027l-376.125423 206.80597V541.519629l376.125423-195.439609z" fill="#67AFCF" p-id="2850"></path><path d="M798.65047 755.45767l-376.125424 206.80597a20.067729 20.067729 0 0 1 29.736361 17.587357V541.519629a20.087796 20.087796 0 0 1-10.808479 17.808102L817.570324 363.888122a20.059701 20.059701 0 0 1-29.318951-17.804088v426.965007c0-7.320707 3.985451-14.063464 10.399097-17.591371z m0.413395-427.181739l-376.125423 195.439609a20.067729 20.067729 0 0 0-10.812492 17.812116v438.331368a20.059701 20.059701 0 0 0 29.73636 17.587358l376.125423-206.805971a20.075756 20.075756 0 0 0 10.399097-17.587357V346.08002a20.063715 20.063715 0 0 0-29.322965-17.804089z" fill="#6E6E96" p-id="2851"></path><path d="M1006.122689 102.345416h-102.345416v-102.345416h-40.135457v102.345416h-102.345416v40.135457h102.345416v102.345416h40.135457v-102.345416h102.345416z" fill="#6E6E96" p-id="2852"></path></svg>