<?xml version="1.0" standalone="no"?><!DOCTYPE svg PUBLIC "-//W3C//DTD SVG 1.1//EN" "http://www.w3.org/Graphics/SVG/1.1/DTD/svg11.dtd"><svg t="1645156975018" class="icon" viewBox="0 0 1103 1024" version="1.1" xmlns="http://www.w3.org/2000/svg" p-id="2560" xmlns:xlink="http://www.w3.org/1999/xlink" width="137.875" height="128"><defs><style type="text/css"></style></defs><path d="M370.984384 993.268535h-21.667191c-0.00862 0 9.797001 2.133531 21.667191 0z m390.630109-0.021551c-57.463098 0.021551-62.484439-47.670407-62.837872-59.932822v-73.552938H412.137824v70.673749c0 46.321326-22.986101 59.596629-41.15775 62.812011" fill="#F0F0FF" p-id="2561"></path><path d="M359.066782 1011.582419c-8.736701 0-18.770762-1.58183-23.559353-7.991043l-20.619822-27.567805h54.411503c7.672091-1.495627 25.59806-6.960914 25.598061-45.592908v-87.914403h321.120103v90.534982c1.189605 37.364807 29.02895 42.955088 45.562738 42.955089h0.030171l0.01293 34.481307h-0.047412c-57.441548 0-79.013915-41.299986-80.031114-76.677807l-0.00862-0.495669v-56.312285H429.378478v53.433096c0 21.037908-5.396325 70.910808-55.346808 79.781124v0.021551c-2.159392 0.392225-8.17207 1.344771-14.964888 1.344771z" fill="#6E6E96" p-id="2562"></path><path d="M52.829673 753.744135V121.525057c0-43.192147 35.33472-78.535487 78.535487-78.535487h848.188435c43.192147 0 78.535487 35.34334 78.535487 78.535487v632.219078" fill="#B4D1F2" p-id="2563"></path><path d="M1058.097703 690.914883v90.310853c0 43.192147-35.34765 78.535487-78.535488 78.535488H131.36947c-43.200768 0-78.535487-35.34765-78.535487-78.535488v-90.310853h1005.26372z" fill="#F0F0FF" p-id="2564"></path><path d="M463.545143 680.630833L1058.093392 53.29086v202.612161l-394.323918 424.727812z" fill="#DEEFFF" opacity=".31" p-id="2565"></path><path d="M1058.093392 255.903021l-394.323918 424.727812h394.323918z" fill="#FFFFFF" opacity=".31" p-id="2566"></path><path d="M979.562215 877.001877H131.36947c-52.808122 0-95.776141-42.963709-95.776141-95.776141v-107.551507h1039.740717v107.551507c0.00431 52.812432-42.959399 95.776141-95.771831 95.776141z m-909.487578-168.846341v73.0702c0 33.800301 27.494532 61.294834 61.294833 61.294834h848.192745c33.800301 0 61.294834-27.494532 61.294834-61.294834v-73.0702H70.074637z" fill="#6E6E96" p-id="2567"></path><path d="M1075.329736 753.744135h-34.481307V121.525057c0-33.795991-27.494532-61.294834-61.294834-61.294834H131.36516c-33.795991 0-61.294834 27.494532-61.294834 61.294834v632.219078h-34.481307V121.525057c0-52.808122 42.963709-95.776141 95.776141-95.776141h848.188435c52.812432 0 95.776141 42.963709 95.776141 95.776141v632.219078z" fill="#6E6E96" p-id="2568"></path><path d="M52.829673 637.912803h1005.259409v31.451263H52.829673zM412.137824 859.761224h286.643107v50.13151H412.137824z" fill="#6E6E96" opacity=".15" p-id="2569"></path><path d="M585.05727 788.022864h-66.255832a17.240654 17.240654 0 0 1 0-34.481307h66.255832a17.240654 17.240654 0 0 1 0 34.481307zM783.337716 1010.509189H324.697539a17.240654 17.240654 0 0 1 0-34.481308h458.640177a17.240654 17.240654 0 0 1 0 34.481308z" fill="#6E6E96" p-id="2570"></path><path d="M979.562215 800.789568H131.36947c-43.200768 0-78.535487-35.34334-78.535487-78.535487v52.411587c0 43.192147 35.326099 78.539797 78.535487 78.539797h848.192745c43.187837 0 78.539797-35.330409 78.539798-78.539797v-52.411587c-0.00431 43.205078-35.360581 78.535487-78.539798 78.535487z" fill="#6E6E96" opacity=".15" p-id="2571"></path></svg>