<?xml version="1.0" standalone="no"?><!DOCTYPE svg PUBLIC "-//W3C//DTD SVG 1.1//EN" "http://www.w3.org/Graphics/SVG/1.1/DTD/svg11.dtd"><svg t="1639302746418" class="icon" viewBox="0 0 1024 1024" version="1.1" xmlns="http://www.w3.org/2000/svg" p-id="943" xmlns:xlink="http://www.w3.org/1999/xlink" width="200" height="200"><defs><style type="text/css"></style></defs><path d="M805.916834 283.056605c0.023492-1.24976 0.098665-2.494822 0.098665-3.763376C806.029594 145.803798 683.63296 37.586775 532.642187 37.586775 402.662421 37.586775 293.947373 117.815746 266.194238 225.29043a189.16954 189.16954 0 0 0-12.915755-0.483929c-89.799504 0-162.600388 64.353257-162.600389 143.764715 0 17.022111 3.373413 33.334771 9.509454 48.48694-25.216028 31.497717-40.086295 69.925496-40.086295 111.454184 0 105.261763 95.221396 190.781073 213.63853 193.073866v0.108062h420.027511c143.990236 0 260.706569-103.203887 260.706569-230.510294 0.018793-91.786904-60.697943-171.048016-148.557029-208.127369z" fill="#EEEEFC" p-id="944"></path><path d="M810.615181 292.453299c0.023492-1.24976 0.098665-2.494822 0.098665-3.763376C810.727941 155.200492 688.331307 46.983469 537.340534 46.983469 407.360768 46.983469 298.64572 127.21244 270.892585 234.687124a189.16954 189.16954 0 0 0-12.915756-0.48393c-89.799504 0-162.600388 64.353257-162.600388 143.764716 0 11.323016 1.522264 22.317148 4.327178 32.879031 16.834177-63.540443 81.281401-110.866891 158.277909-110.866891 4.350669 0 8.644958 0.192632 12.915755 0.48393C298.650418 192.984597 407.360768 112.760325 537.340534 112.760325c150.990773 0 273.387407 108.221722 273.382709 241.706454 0 1.268554-0.08457 2.513616-0.098666 3.763376 77.118665 32.550147 133.315592 97.608156 145.897765 175.116784 1.714897-10.702834 2.659264-21.631189 2.659265-32.766271 0.009397-91.786904-60.70734-171.048016-148.566426-208.127369zM95.507995 439.224956c-19.474648 28.87604-30.703697 62.61017-30.703697 98.684078 0 11.205557 1.141698 22.162102 3.208971 32.841444 5.62862-28.87604 18.483297-55.543857 36.877325-78.518772a128.753497 128.753497 0 0 1-9.509454-48.48694c-0.004698-1.517566 0.075174-3.016339 0.126855-4.51981z" fill="#FFFFFF" opacity=".42" p-id="945"></path><path d="M829.408568 283.404283c0-0.281901 0.023492-0.685959 0.037587-1.104112 0.032888-0.826909 0.070475-1.851149 0.070475-3.002244 0-65.297625-26.761784-128.029952-75.375579-176.643746C697.854856 46.372684 617.132559 14.095041 532.642187 14.095041 393.589913 14.095041 274.670056 98.524334 243.449541 219.417497a23.491734 23.491734 0 0 1 24.346833-17.562421 215.757485 215.757485 0 0 0-14.513193-0.535611c-49.1682 0-95.531487 17.045602-130.538869 47.998311-35.824895 31.666858-55.557952 74.022455-55.557952 119.25344 0 19.629693 3.777471 38.90701 11.229049 57.305737a23.491734 23.491734 0 0 1 3.434492-23.496433C52.255014 439.347113 36.614217 482.961867 36.614217 528.517038c0 57.587637 24.920032 111.77837 70.16981 152.597608 44.380584 40.034614 103.513978 62.741724 166.504715 63.958596a23.491734 23.491734 0 0 1-23.035995-23.487036c0 12.981532 10.519599 23.599796 23.491735 23.599796h420.027511c156.708661 0 284.203002-113.93961 284.203001-254.002028 0.009397-97.79609-63.939802-187.999651-162.919876-229.772653a23.477639 23.477639 0 0 1 14.35345 21.992962z m101.582958 207.789088c0 114.146337-106.412858 207.018559-237.219533 207.018559H273.744482a23.491734 23.491734 0 0 1 23.491734 23.491735c0-12.802995-10.242396-23.350784-23.035995-23.595098-105.097321-2.039083-190.602535-78.114715-190.602535-169.591529 0-34.763068 12.07945-68.224695 34.932209-96.77185a23.491734 23.491734 0 0 0 3.434491-23.496433 105.346333 105.346333 0 0 1-7.789859-39.67284c0-31.577589 14.095041-61.430885 39.696333-84.062822 26.414106-23.355482 61.717484-36.214858 99.417019-36.214858 3.378111 0 7.080409 0.136252 11.31362 0.427549a23.491734 23.491734 0 0 0 24.346833-17.56242C314.38988 132.61084 416.884317 61.078509 532.642187 61.078509c72.124323 0 140.73898 27.264507 188.272155 74.792984 39.733919 39.738618 61.609422 90.668698 61.609423 143.421736 0 0.281901-0.018793 0.756434-0.037587 1.259157-0.023492 0.638975-0.05638 1.353124-0.065777 2.16124a23.505829 23.505829 0 0 0 14.358148 21.992961c81.53981 34.410692 134.222373 107.610937 134.212977 186.486784z" fill="#6E6E96" p-id="946"></path><path d="M849.2121 304.246149c35.026176 36.994783 56.13115 84.640719 56.13115 136.64672 0 117.688891-107.897536 213.088824-241.020496 213.088824H276.032576v-0.098665c-109.471482-2.109558-197.499709-81.16864-197.499708-178.480801 0-11.318318 1.226269-22.378226 3.504967-33.099854-14.019867 25.469738-21.931883 54.045084-21.931884 84.278946 0 105.261763 95.221396 190.781073 213.638531 193.073866v0.108062h420.027511c143.994935 0 260.711267-103.203887 260.711267-230.510293 0.009397-75.779637-41.401833-142.994187-105.27116-185.006805zM115.588729 372.36748a118.999729 118.999729 0 0 1-8.790607-44.826927c0-10.331665 1.376616-20.381429 3.904327-30.04123-12.751313 20.517681-20.019656 44.075192-20.019656 69.140873 0 12.535189 1.841752 24.685114 5.25745 36.271237a174.397937 174.397937 0 0 1 19.648486-30.543953z" fill="#6E6E96" opacity=".15" p-id="947"></path><path d="M510.141804 731.969553m-249.5339 0a249.5339 249.5339 0 1 0 499.0678 0 249.5339 249.5339 0 1 0-499.0678 0Z" fill="#00CCC6" p-id="948"></path><path d="M519.538498 463.642265c-137.816608 0-249.5339 111.712593-249.533901 249.524503 0 137.821307 111.717292 249.543297 249.533901 249.543297 0.394661 0 0.779926-0.02819 1.174586-0.02819-115.21756-0.648372-208.423365-94.211251-208.423365-209.579158 0-115.753172 93.840082-209.588555 209.597952-209.588555 115.762568 0 209.588555 93.84478 209.588555 209.588555 0 108.024391-81.723045 196.92651-186.702907 208.343493 125.967378-12.657346 224.289682-118.976238 224.289682-248.279442 0.014095-137.802513-111.712593-249.524503-249.524503-249.524503z" fill="#FFFFFF" opacity=".24" p-id="949"></path><path d="M510.141804 505.927387c124.633047 0 226.032769 101.40442 226.032769 226.032769 0 124.642444-101.399722 226.051563-226.032769 226.051562s-226.042166-101.409119-226.042166-226.051562c-0.004698-124.633047 101.399722-226.032769 226.042166-226.032769z m-273.030333 226.042166c0 150.549128 122.476506 273.025634 273.025634 273.025634 150.54443 0 273.020936-122.476506 273.020937-273.025634s-122.476506-273.020936-273.020937-273.020937c-150.54443-0.004698-273.025634 122.471808-273.025634 273.020937z" fill="#6E6E96" p-id="950"></path><path d="M611.663683 495.887019c68.454914 38.249242 114.780614 111.388407 114.780614 195.371358 0 123.547729-100.145263 223.702389-223.678898 223.702389-116.970043 0-212.896191-89.766615-222.795608-204.176059a253.020074 253.020074 0 0 0-0.897384 20.409618c0 137.821307 111.712593 249.543297 249.5339 249.543297 137.81191 0 249.519805-111.72199 249.519805-249.543297-0.004698-108.672763-69.507343-201.070452-166.462429-235.307306z" fill="#6E6E96" opacity=".15" p-id="951"></path><path d="M478.188347 743.161015v114.334271h76.33874v-114.334271h101.803779l-139.973149-139.987245-139.97315 139.987245z" fill="#FFFFFF" p-id="952"></path><path d="M454.696613 743.161015v114.334271a23.491734 23.491734 0 0 0 23.491734 23.491734h76.343438a23.491734 23.491734 0 0 0 23.491734-23.491734v-114.334271a23.491734 23.491734 0 0 1-23.491734 23.491734h101.80378a23.482338 23.482338 0 0 0 21.701664-14.503797 23.482338 23.482338 0 0 0-5.08831-25.596593l-139.973149-139.987245a23.496433 23.496433 0 0 0-33.226709 0L359.771213 726.54766a23.491734 23.491734 0 1 0 16.613354 40.100391h101.80378a23.487036 23.487036 0 0 1-23.491734-23.487036z m-61.698691 16.608656l139.977848-139.987245a23.496433 23.496433 0 0 1-33.226709 0l139.973149 139.987245a23.482338 23.482338 0 0 1-5.088309-25.596594 23.482338 23.482338 0 0 1 21.701664-14.503797h-101.80378a23.491734 23.491734 0 0 0-23.491734 23.491735v114.334271a23.491734 23.491734 0 0 1 23.491734-23.491735H478.188347a23.491734 23.491734 0 0 1 23.491734 23.491735v-114.334271a23.491734 23.491734 0 0 0-23.491734-23.491735H376.384567a23.491734 23.491734 0 0 1 16.613355 40.100391z" fill="#6E6E96" p-id="953"></path></svg>