<?xml version="1.0" standalone="no"?><!DOCTYPE svg PUBLIC "-//W3C//DTD SVG 1.1//EN" "http://www.w3.org/Graphics/SVG/1.1/DTD/svg11.dtd"><svg t="1639302180138" class="icon" viewBox="0 0 1024 1024" version="1.1" xmlns="http://www.w3.org/2000/svg" p-id="1430" xmlns:xlink="http://www.w3.org/1999/xlink" width="200" height="200"><defs><style type="text/css"></style></defs><path d="M185.825402 205.864797C3.337179 388.3571 3.337179 684.231904 185.825402 866.724207c182.492303 182.492303 478.367108 182.492303 660.86349 0 182.488223-182.492303 182.488223-478.363028 0-660.85941-182.496382-182.492303-478.371187-182.492303-660.86349 0z m494.024925 494.033083c-90.348622 90.348622-236.837737 90.348622-327.186359 0-90.352701-90.348622-90.352701-236.841817-0.00408-327.190438s236.833657-90.352701 327.198598 0c90.340462 90.340462 90.340462 236.837737-0.008159 327.190438z" fill="#EBEBFF" p-id="1431"></path><path d="M338.617625 684.468526c-48.629801-58.176255-64.238661-134.576446-46.781705-204.457307l-226.0429-68.244908c-38.854884 141.0509-10.37055 296.756016 85.444845 416.311075l187.37976-143.60886z" fill="#64CFE8" p-id="1432"></path><path d="M385.305498 87.651952l66.266263 226.495745c72.524494-21.047076 153.289944-5.8829 213.914008 45.427251l145.240733-186.159936c-121.713211-99.009785-281.636717-127.592032-425.421004-85.76306z" fill="#E08BD3" p-id="1433"></path><path d="M959.308494 685.072319l-225.606374-69.76663a230.257211 230.257211 0 0 1-53.851793 84.575873 230.118502 230.118502 0 0 1-92.102885 56.417912l75.098773 223.786837c67.208669-22.136351 130.390693-59.918279 183.842677-113.362104 52.86859-52.86043 90.393498-115.267315 112.619602-181.651888z" fill="#FF8AC3" p-id="1434"></path><path d="M519.975777 1016.19557c-129.179028 0-250.62706-50.30655-341.971124-141.654694-188.558789-188.562869-188.558789-495.375299 0-683.938167C269.352797 99.262725 390.800829 48.956175 519.975777 48.956175c129.179028 0 250.62706 50.30655 341.971123 141.646534 188.562869 188.571028 188.562869 495.383458 0 683.938167-91.344064 91.348143-212.792096 141.654693-341.971123 141.654694z m0-934.601945C399.519108 81.593625 286.263076 128.50588 201.08749 213.681466c-175.834263 175.834263-175.834263 461.942311 0 637.784733 85.179665 85.179665 198.431618 132.09192 318.892367 132.091921 120.460749 0 233.712701-46.912255 318.896446-132.091921 175.834263-175.834263 175.834263-461.938231 0-637.784733C753.688478 128.50588 640.436526 81.593625 519.975777 81.593625z m0.00408 698.665817c-66.156112 0-128.354932-25.763187-175.132558-72.544892-96.566056-96.570135-96.570135-253.69906-0.00408-350.269195 46.777625-46.781705 108.976446-72.544892 175.136638-72.544893 66.156112 0 128.354932 25.763187 175.136637 72.544893 96.570135 96.566056 96.570135 253.69906 0 350.269195-46.777625 46.777625-108.976446 72.544892-175.136637 72.544892z m0-462.725609c-57.441912 0-111.440574 22.368892-152.053801 62.986199-83.84153 83.84561-83.84153 220.270151 0.004079 304.115761 40.613227 40.613227 94.611888 62.98212 152.053801 62.982119 57.441912 0 111.440574-22.368892 152.057881-62.982119 83.84153-83.849689 83.84561-220.274231 0-304.115761-40.621386-40.617307-94.624127-62.986199-152.06196-62.986199z" fill="#6E6E96" p-id="1435"></path><path d="M846.688892 194.04188C664.19251 11.545498 368.317705 11.545498 185.825402 194.04188 3.337179 376.530104 3.337179 672.404908 185.825402 854.901291c182.492303 182.492303 478.367108 182.492303 660.86349 0 182.492303-182.496382 182.492303-478.367108 0-660.859411z m-324.628398 734.652686c-226.450869 0-410.024287-183.577498-410.024287-410.024287 0-226.454948 183.573418-410.028367 410.024287-410.028367s410.028367 183.573418 410.028367 410.028367c0 226.446789-183.577498 410.024287-410.028367 410.024287z" fill="#6E6E96" opacity=".15" p-id="1436"></path></svg>