<?xml version="1.0" standalone="no"?><!DOCTYPE svg PUBLIC "-//W3C//DTD SVG 1.1//EN" "http://www.w3.org/Graphics/SVG/1.1/DTD/svg11.dtd"><svg t="1639302308422" class="icon" viewBox="0 0 1024 1024" version="1.1" xmlns="http://www.w3.org/2000/svg" p-id="2736" xmlns:xlink="http://www.w3.org/1999/xlink" width="200" height="200"><defs><style type="text/css"></style></defs><path d="M895.876 336.292V982H124V32h471.292z" fill="#E6E6F2" p-id="2737"></path><path d="M895.876 998H124a16 16 0 0 1-16-16V32a16 16 0 0 1 16-16h471.292c4.276 0 8.376 1.712 11.384 4.756l300.584 304.292a16.012 16.012 0 0 1 4.616 11.244V982a16 16 0 0 1-16 16zM140 966h739.876V342.864L588.608 48H140v918z" fill="#6E6E96" p-id="2738"></path><path d="M895.876 336.292h-300.588V32z" fill="#FFFFFF" p-id="2739"></path><path d="M895.952 352.292h-300.664a16 16 0 0 1-16-16V32a15.996 15.996 0 0 1 27.38-11.244l299.676 303.372a15.964 15.964 0 0 1 5.604 12.168 15.992 15.992 0 0 1-15.996 15.996z m-284.664-32h246.288l-246.288-249.328v249.328z" fill="#6E6E96" p-id="2740"></path><path d="M595.288 336.292l300.588 300.584V336.292z" fill="#B2B2B2" opacity=".25" p-id="2741"></path><path d="M409.192 654.372v-210.456h187.792v210.456h111.708l-205.6 195.884-205.604-195.884z" fill="#9FCBEB" p-id="2742"></path><path d="M503.092 866.256a15.952 15.952 0 0 1-11.036-4.416l-205.604-195.888a16 16 0 0 1 11.036-27.588h95.704v-194.456a16 16 0 0 1 16-16h187.792a16 16 0 0 1 16 16v194.456h95.708a16 16 0 0 1 11.036 27.584l-205.596 195.892a15.968 15.968 0 0 1-11.04 4.416z m-165.616-195.884l165.616 157.788 165.612-157.788h-71.72a16 16 0 0 1-16-16v-194.456H425.192v194.456a16 16 0 0 1-16 16H337.476z" fill="#6E6E96" p-id="2743"></path></svg>