<?xml version="1.0" standalone="no"?><!DOCTYPE svg PUBLIC "-//W3C//DTD SVG 1.1//EN" "http://www.w3.org/Graphics/SVG/1.1/DTD/svg11.dtd"><svg t="1639302648926" class="icon" viewBox="0 0 1024 1024" version="1.1" xmlns="http://www.w3.org/2000/svg" p-id="1100" xmlns:xlink="http://www.w3.org/1999/xlink" width="200" height="200"><defs><style type="text/css"></style></defs><path d="M512 512m-468.239316 0a468.239316 468.239316 0 1 0 936.478632 0 468.239316 468.239316 0 1 0-936.478632 0Z" fill="#F08282" p-id="1101"></path><path d="M507.623932 49.983453c-258.599385 0-468.239316 209.639932-468.239317 468.239316s209.639932 468.239316 468.239317 468.239316 468.239316-209.639932 468.239316-468.239316-209.639932-468.239316-468.239316-468.239316z m17.504273 914.598291c-236.850325 0-428.854701-192.004376-428.854701-428.854701s192.004376-428.854701 428.854701-428.854701 428.854701 192.004376 428.854701 428.854701-192.004376 428.854701-428.854701 428.854701z" fill="#FFFFFF" opacity=".14" p-id="1102"></path><path d="M507.623932 39.384615C249.024547 39.384615 39.384615 249.024547 39.384615 507.623932s209.639932 468.239316 468.239317 468.239316 468.239316-209.639932 468.239316-468.239316S766.223316 39.384615 507.623932 39.384615z m-10.940171 870.837607C258.625641 910.222222 65.641026 717.233231 65.641026 479.179487 65.641026 241.121368 258.625641 48.136752 496.683761 48.136752c238.053744 0 431.042735 192.984615 431.042735 431.042735 0 238.053744-192.988991 431.042735-431.042735 431.042735z" fill="#6E6E96" opacity=".15" p-id="1103"></path><path d="M574.958496 508.744205l121.125196-121.125196c17.088547-17.088547 17.088547-44.797812 0-61.886359s-44.797812-17.088547-61.890735 0l-121.12082 121.12082-121.125197-121.125196c-17.088547-17.092923-44.797812-17.092923-61.886359 0-17.092923 17.088547-17.092923 44.797812 0 61.886358l121.125197 121.129573-121.125197 121.125197c-17.088547 17.088547-17.088547 44.797812 0 61.890735 17.092923 17.088547 44.797812 17.088547 61.890735 0l121.125197-121.125197 121.12082 121.125197c17.088547 17.088547 44.797812 17.088547 61.890735 0s17.088547-44.797812 0-61.890735l-121.129572-121.125197z" fill="#F0F0F0" p-id="1104"></path></svg>