<?xml version="1.0" standalone="no"?><!DOCTYPE svg PUBLIC "-//W3C//DTD SVG 1.1//EN" "http://www.w3.org/Graphics/SVG/1.1/DTD/svg11.dtd"><svg t="1639302201052" class="icon" viewBox="0 0 1024 1024" version="1.1" xmlns="http://www.w3.org/2000/svg" p-id="1712" xmlns:xlink="http://www.w3.org/1999/xlink" width="200" height="200"><defs><style type="text/css"></style></defs><path d="M899.876 332.292V978H128V28h471.292z" fill="#E6E6F2" p-id="1713"></path><path d="M899.876 994H128a16 16 0 0 1-16-16V28a16 16 0 0 1 16-16h471.292c4.276 0 8.376 1.712 11.384 4.756l300.584 304.292a16.012 16.012 0 0 1 4.616 11.244V978a16 16 0 0 1-16 16zM144 962h739.876V338.864L592.608 44H144v918z" fill="#6E6E96" p-id="1714"></path><path d="M899.876 332.292h-300.588V28z" fill="#FFFFFF" p-id="1715"></path><path d="M899.952 348.292h-300.664a16 16 0 0 1-16-16V28a15.996 15.996 0 0 1 27.38-11.244l299.676 303.372a15.964 15.964 0 0 1 5.604 12.168 15.992 15.992 0 0 1-15.996 15.996z m-284.664-32h246.288l-246.288-249.328v249.328z" fill="#6E6E96" p-id="1716"></path><path d="M599.288 332.292l300.588 300.584V332.292z" fill="#B2B2B2" opacity=".25" p-id="1717"></path><path d="M600.984 635.804v210.452H413.192v-210.452H301.488l205.596-195.888 205.608 195.888z" fill="#9FEBC9" p-id="1718"></path><path d="M600.984 862.256H413.192a16 16 0 0 1-16-16v-194.452H301.488a16.004 16.004 0 0 1-11.036-27.584l205.596-195.892a16 16 0 0 1 22.076 0l204.684 195.008a16 16 0 0 1-10.036 28.464h-95.788v194.452a16 16 0 0 1-16 16.004z m-171.792-32h155.792v-194.452a16 16 0 0 1 16-16h71.72l-165.62-157.788-165.608 157.788h71.716a16 16 0 0 1 16 16v194.452z" fill="#6E6E96" p-id="1719"></path><path d="M600.984 830H413.192a16 16 0 0 1 0-32h187.792a16 16 0 0 1 0 32z" fill="#6E6E96" opacity=".15" p-id="1720"></path></svg>