<?xml version="1.0" standalone="no"?><!DOCTYPE svg PUBLIC "-//W3C//DTD SVG 1.1//EN" "http://www.w3.org/Graphics/SVG/1.1/DTD/svg11.dtd"><svg t="1645156894022" class="icon" viewBox="0 0 1036 1024" version="1.1" xmlns="http://www.w3.org/2000/svg" p-id="65505" xmlns:xlink="http://www.w3.org/1999/xlink" width="129.5" height="128"><defs><style type="text/css"></style></defs><path d="M877.326336 942.784512c0 21.848064-17.870848 39.718912-39.718912 39.718912H106.496c-21.843968 0-39.723008-17.870848-39.723008-39.718912V84.779008C66.772992 62.930944 84.652032 45.056 106.496 45.056h731.111424c21.848064 0 39.718912 17.874944 39.718912 39.723008v858.005504z" fill="#EFDAD8" p-id="65506"></path><path d="M132.42368 904.679424V150.429696c0-21.848064 17.87904-39.723008 39.723008-39.723008h564.502528V45.056H106.496c-21.843968 0-39.723008 17.874944-39.723008 39.723008v819.900416H132.42368z" fill="#FFFFFF" opacity=".5" p-id="65507"></path><path d="M837.607424 1000.935424H106.496c-32.067584 0-58.155008-26.087424-58.155008-58.150912V84.779008C48.340992 52.711424 74.428416 26.624 106.496 26.624h731.111424c32.067584 0 58.150912 26.087424 58.150912 58.155008v858.005504c0 32.063488-26.083328 58.150912-58.150912 58.150912zM106.496 63.488a21.315584 21.315584 0 0 0-21.291008 21.291008v858.005504A21.311488 21.311488 0 0 0 106.496 964.071424h731.111424a21.311488 21.311488 0 0 0 21.286912-21.286912V84.779008a21.315584 21.315584 0 0 0-21.286912-21.291008H106.496z" fill="#6E6E96" p-id="65508"></path><path d="M736.649216 45.056h36.864v937.447424h-36.864z" fill="#6E6E96" p-id="65509"></path><path d="M775.561216 239.16544H937.984v147.456h-162.422784" fill="#84D9A4" p-id="65510"></path><path d="M937.984 405.05344h-162.422784a18.436096 18.436096 0 0 1 0-36.864H919.552v-110.592h-143.990784a18.436096 18.436096 0 0 1 0-36.864H937.984c10.174464 0 18.432 8.25344 18.432 18.432v147.456c0 10.17856-8.257536 18.432-18.432 18.432z" fill="#6E6E96" p-id="65511"></path><path d="M775.561216 517.697536H978.944v147.456h-203.382784" fill="#FFBF00" p-id="65512"></path><path d="M978.944 683.585536h-203.382784a18.432 18.432 0 0 1 0-36.864H960.512v-110.592h-184.950784a18.432 18.432 0 0 1 0-36.864H978.944c10.174464 0 18.432 8.25344 18.432 18.432v147.456c0 10.174464-8.257536 18.432-18.432 18.432z" fill="#6E6E96" p-id="65513"></path><path d="M837.607424 904.679424H106.496c-21.843968 0-39.723008-17.870848-39.723008-39.718912v77.824c0 21.848064 17.87904 39.718912 39.723008 39.718912h731.111424c21.848064 0 39.718912-17.870848 39.718912-39.718912v-77.824c0 21.848064-17.870848 39.718912-39.718912 39.718912z" fill="#6E6E96" opacity=".2" p-id="65514"></path><path d="M773.513216 63.488H806.912v841.191424h-33.398784zM806.912 405.05344h49.860608v31.17056H806.912zM806.912 683.585536h51.982336V720.896H806.912z" fill="#6E6E96" opacity=".2" p-id="65515"></path><path d="M262.987776 276.02944h277.44256v36.864H262.987776zM262.987776 410.611712h138.723328v36.864H262.987776z" fill="#6E6E96" p-id="65516"></path></svg>