<?xml version="1.0" standalone="no"?><!DOCTYPE svg PUBLIC "-//W3C//DTD SVG 1.1//EN" "http://www.w3.org/Graphics/SVG/1.1/DTD/svg11.dtd"><svg t="1639302111459" class="icon" viewBox="0 0 1167 1024" version="1.1" xmlns="http://www.w3.org/2000/svg" p-id="3708" xmlns:xlink="http://www.w3.org/1999/xlink" width="227.9296875" height="200"><defs><style type="text/css"></style></defs><path d="M317.10341 976.838661l-268.371599-464.836303L317.10341 47.161339h536.747912l268.38103 464.841019-268.38103 464.836303z" fill="#FF96A5" p-id="3709"></path><path d="M849.135188 42.445205H312.387276L44.015677 507.286224l268.371599 464.836303H849.139904l268.376315-464.836303L849.135188 42.445205z m-67.162462 836.349749H345.395497L127.10924 500.711934 345.395497 122.619481h436.577229l218.290972 378.087736-218.290972 378.087737z" fill="#ED8C99" p-id="3710"></path><path d="M337.524269 965.048327l-268.371598-464.836304a23.580669 23.580669 0 0 1 0 23.58067L337.524269 58.951673a23.580669 23.580669 0 0 1-20.420859 11.790335H853.856038a23.585386 23.585386 0 0 1-20.42086-11.790335l268.376315 464.836304a23.561805 23.561805 0 0 1 0-23.58067l-268.376315 464.836303a23.599534 23.599534 0 0 1 20.42086-11.790334H317.10341a23.594818 23.594818 0 0 1 20.420859 11.795051z m536.747913 23.580669l268.376314-464.836303a23.561805 23.561805 0 0 0 0-23.58067L874.272182 35.371004a23.599534 23.599534 0 0 0-20.42086-11.790335H317.10341a23.580669 23.580669 0 0 0-20.42086 11.790335L28.310952 500.212023a23.580669 23.580669 0 0 0 0 23.58067l268.371598 464.836303a23.580669 23.580669 0 0 0 20.42086 11.790335H853.856038a23.580669 23.580669 0 0 0 20.416144-11.790335z" fill="#6E6E96" p-id="3711"></path><path d="M831.50628 511.997642c0 47.986662-42.445205 87.248477-94.322678 87.248477h-278.251898c-51.877473 0-94.322678-39.261815-94.322678-87.248477s42.445205-87.248477 94.322678-87.248477h278.251898c51.877473 0 94.322678 39.266531 94.322678 87.248477z" fill="#F0F0FF" p-id="3712"></path><path d="M807.92561 511.997642c0 35.106901-31.734865 63.667807-70.742008 63.667807h-278.251898c-39.007143 0-70.742008-28.565623-70.742009-63.667807 0-16.558346 7.154375-32.296085 20.137892-44.308078 13.497575-12.483606 31.466045-19.35973 50.604117-19.359729h278.251898c19.142787 0 37.106541 6.876123 50.599401 19.359729 12.983517 12.016709 20.142608 27.749732 20.142607 44.308078z m-70.742008-110.829146h-278.251898c-31.046309 0-60.390094 11.328154-82.626666 31.899929-22.75063 21.038673-35.276681 49.071373-35.276681 78.929217 0 61.111663 52.891441 110.829146 117.903347 110.829146h278.251898c65.011905 0 117.903347-49.722199 117.903347-110.829146 0-29.857844-12.526052-57.885827-35.271965-78.929217-22.241287-20.56706-51.585072-31.89993-82.631382-31.899929z" fill="#6E6E96" p-id="3713"></path><path d="M454.21557 490.775039h278.251898c40.205041 0 74.661115 23.637263 88.158691 56.593607 3.914391-9.559603 6.163987-19.869072 6.163987-30.65487 0-47.991378-42.445205-87.248477-94.322678-87.248477h-278.251898c-51.877473 0-94.322678 39.261815-94.322678 87.248477 0 10.785798 2.24488 21.095267 6.163987 30.65487 13.497575-32.956344 47.944217-56.593607 88.158691-56.593607z" fill="#6E6E96" opacity=".15" p-id="3714"></path></svg>