<?xml version="1.0" standalone="no"?><!DOCTYPE svg PUBLIC "-//W3C//DTD SVG 1.1//EN" "http://www.w3.org/Graphics/SVG/1.1/DTD/svg11.dtd"><svg t="1639302293689" class="icon" viewBox="0 0 1048 1024" version="1.1" xmlns="http://www.w3.org/2000/svg" p-id="2445" xmlns:xlink="http://www.w3.org/1999/xlink" width="204.6875" height="200"><defs><style type="text/css"></style></defs><path d="M997.794196 124.888746v837.708534c0 24.122497-19.736588 43.859086-43.859085 43.859086h-859.638077c-24.122497 0-43.859086-19.736588-43.859086-43.859086v-837.708534" fill="#FFCC9C" p-id="2446"></path><path d="M54.95982 835.405932h197.365885v35.087269h-197.365885zM67.981583 212.606917h912.268979v35.087269h-912.268979zM53.72738 936.281829h940.777385v57.016811H53.72738z" fill="#D43131" opacity=".22" p-id="2447"></path><path d="M980.250562 124.888746v837.708534c0 14.521743-11.80248 26.315451-26.315451 26.315452h-859.638077c-14.512971 0-26.315451-11.793708-26.315451-26.315452v-837.708534l-17.543635 17.543634h947.356248l-17.543634-17.543634z m-947.356248 0v837.708534c0 33.8636 27.543506 61.40272 61.40272 61.40272h859.638077c33.8636 0 61.40272-27.53912 61.40272-61.40272v-855.252168H32.894314v17.543634z" fill="#6E6E96" p-id="2448"></path><path d="M17.543634 195.063283v-130.612357C17.543634 38.653012 38.653012 17.543634 64.450926 17.543634h919.339064C1009.583519 17.543634 1030.688511 38.653012 1030.688511 64.450926v130.612357H17.543634z" fill="#FFCC9C" p-id="2449"></path><path d="M983.289997 21.929543H63.959704C38.16179 21.929543 17.056798 43.038921 17.056798 68.836835v43.859085C17.056798 86.898006 38.16179 65.788628 63.959704 65.788628h919.330293c25.8023 0 46.907292 21.104992 46.907292 46.898521v-43.859086C1030.201675 43.038921 1009.092297 21.929543 983.289997 21.929543z" fill="#FFE3C9" p-id="2450"></path><path d="M26.315451 142.43238h995.601242v35.087269H26.315451z" fill="#D43131" opacity=".22" p-id="2451"></path><path d="M35.087268 195.063283v-130.612357A29.394359 29.394359 0 0 1 64.450926 35.087268h919.339064A29.389973 29.389973 0 0 1 1013.144876 64.442154v130.612357a17.543634 17.543634 0 0 1 17.543635-17.543634H17.543634c9.688472 0.008772 17.543634 7.863934 17.543634 17.552406z m1013.144877 0v-130.612357C1048.232145 28.911909 1019.320236 0 983.78999 0H64.450926C28.911909 0 0 28.911909 0 64.450926v130.612357a17.543634 17.543634 0 0 0 17.543634 17.543634h1013.144877a17.543634 17.543634 0 0 0 17.543634-17.543634z" fill="#6E6E96" p-id="2452"></path><path d="M701.745369 405.586894c0 36.183746-29.604883 65.788628-65.788628 65.788628H412.275404c-36.183746 0-65.788628-29.604883-65.788628-65.788628s29.604883-65.788628 65.788628-65.788629h223.681337c36.183746 0 65.788628 29.604883 65.788628 65.788629z" fill="#D48888" p-id="2453"></path><path d="M414.468358 394.622122h223.681337c26.832989 0 50.016901 16.298036 60.218524 39.473177a65.029866 65.029866 0 0 0 5.570104-26.315451c0-36.183746-29.604883-65.788628-65.788628-65.788628h-223.681337c-36.183746 0-65.788628 29.604883-65.788628 65.788628 0 9.350757 2.008746 18.240994 5.565718 26.315451 10.206009-23.175141 33.389922-39.473177 60.22291-39.473177z" fill="#BD7979" p-id="2454"></path><path d="M684.201735 405.586894c0 26.600535-21.648845 48.244994-48.244994 48.244994H412.275404c-26.600535 0-48.244994-21.644459-48.244994-48.244994 0-26.591764 21.644459-48.244994 48.244994-48.244994h223.681337c26.596149 0 48.244994 21.640073 48.244994 48.244994z m35.087268 0c0-45.951164-37.381099-83.332263-83.332262-83.332263H412.275404c-45.951164 0-83.332263 37.381099-83.332262 83.332263 0 45.959936 37.381099 83.332263 83.332262 83.332262h223.681337c45.951164 0 83.332263-37.385485 83.332262-83.332262z" fill="#6E6E96" p-id="2455"></path><path d="M857.581086 633.654139H980.250562v35.087268h-122.669476z" fill="#D43131" opacity=".22" p-id="2456"></path><path d="M304.956608 589.795053h448.34073v223.681336H304.956608z" fill="#FFFFFF" p-id="2457"></path><path d="M753.297338 831.020024H304.956608a17.543634 17.543634 0 0 1-17.543634-17.543635v-223.681336a17.543634 17.543634 0 0 1 17.543634-17.543634h448.34073a17.543634 17.543634 0 0 1 17.543634 17.543634v223.681336a17.543634 17.543634 0 0 1-17.543634 17.543635z m-430.797096-35.087269h413.253462v-188.594068H322.500242v188.594068z" fill="#6E6E96" p-id="2458"></path><path d="M370.745236 642.425956h188.594068v35.087268h-188.594068zM370.745236 716.986401h124.998394v35.087269h-124.998394z" fill="#6E6E96" opacity=".51" p-id="2459"></path><path d="M67.981583 870.493201h184.344122v35.087268H67.981583z" fill="#FFFFFF" opacity=".33" p-id="2460"></path><path d="M857.581086 668.741407H980.250562v39.473177h-122.669476z" fill="#FFFFFF" opacity=".33" p-id="2461"></path></svg>