<?xml version="1.0" standalone="no"?><!DOCTYPE svg PUBLIC "-//W3C//DTD SVG 1.1//EN" "http://www.w3.org/Graphics/SVG/1.1/DTD/svg11.dtd"><svg t="1639301967809" class="icon" viewBox="0 0 1218 1024" version="1.1" xmlns="http://www.w3.org/2000/svg" p-id="2561" xmlns:xlink="http://www.w3.org/1999/xlink" width="237.890625" height="200"><defs><style type="text/css"></style></defs><path d="M1169.592417 975.469194V145.592417c0-53.383886-43.677725-97.061611-97.061611-97.061611H145.592417c-53.383886 0-97.061611 43.677725-97.061611 97.061611v829.876777h1121.061611z" fill="#B3E5FF" p-id="2562"></path><path d="M1193.85782 999.734597H24.265403V145.592417C24.265403 78.692701 78.692701 24.265403 145.592417 24.265403h926.938389c66.899716 0 121.327014 54.427299 121.327014 121.327014v854.14218zM72.796209 951.203791h1072.530805V145.592417c0-40.139829-32.656379-72.796209-72.796208-72.796208H145.592417c-40.139829 0-72.796209 32.656379-72.796208 72.796208v805.611374z" fill="#6E6E96" p-id="2563"></path><path d="M48.530806 237.800948h1145.327014v48.530806H48.530806zM439.029081 800.928152L254.442161 616.341232l184.58692-184.591772 34.320985 34.320985L323.074427 616.341232l150.275639 150.27564zM804.567962 800.928152l-34.31128-34.31128L920.527469 616.341232l-150.270787-150.270787 34.31128-34.320985L989.159735 616.341232zM650.875754 378.2491l47.434009 10.264265-101.871014 470.77308-47.43401-10.264265z" fill="#6E6E96" p-id="2564"></path><path d="M1072.530806 48.530806H145.592417c-53.383886 0-97.061611 43.677725-97.061611 97.061611v111.620853h1121.061611V145.592417c0-53.383886-43.677725-97.061611-97.061611-97.061611z" fill="#BFBFD9" p-id="2565"></path><path d="M1072.530806 24.265403H145.592417C78.692701 24.265403 24.265403 78.692701 24.265403 145.592417v135.886256h1169.592417V145.592417c0-66.899716-54.427299-121.327014-121.327014-121.327014z m72.796208 121.327014v111.620853l24.265403-24.265403H48.530806l24.265403 24.265403V145.592417c0-40.139829 32.656379-72.796209 72.796208-72.796208h926.938389c40.139829 0 72.796209 32.656379 72.796208 72.796208z" fill="#6E6E96" p-id="2566"></path><path d="M72.796209 281.478673h1067.677725v63.090047H72.796209z" fill="#6E6E96" opacity=".15" p-id="2567"></path><path d="M72.796209 179.563981h1072.530805v77.649289H72.796209z" fill="#6E6E96" opacity=".15" p-id="2568"></path><path d="M72.796209 344.56872h53.383886v596.92891H72.796209z" fill="#6E6E96" opacity=".15" p-id="2569"></path></svg>