<?xml version="1.0" standalone="no"?><!DOCTYPE svg PUBLIC "-//W3C//DTD SVG 1.1//EN" "http://www.w3.org/Graphics/SVG/1.1/DTD/svg11.dtd"><svg t="1639302265823" class="icon" viewBox="0 0 1024 1024" version="1.1" xmlns="http://www.w3.org/2000/svg" p-id="2138" xmlns:xlink="http://www.w3.org/1999/xlink" width="200" height="200"><defs><style type="text/css"></style></defs><path d="M707.971457 274.878069v548.6417H52.131555V16.328744h400.446106z" fill="#D8D8E3" p-id="2139"></path><path d="M707.971457 839.848513H52.131555a16.328744 16.328744 0 0 1-16.328744-16.328744V16.328744a16.328744 16.328744 0 0 1 16.328744-16.328744h400.446106c4.363857 0 8.548097 1.747176 11.617901 4.853719l255.393796 258.549325a16.34099 16.34099 0 0 1 4.710842 11.475025v548.6417a16.328744 16.328744 0 0 1-16.328743 16.328744z m-639.511159-32.657487h623.182415V281.5851L445.756329 32.657487H68.460298v774.533539z" fill="#6E6E96" p-id="2140"></path><path d="M707.971457 274.878069h-255.397878V16.328744z" fill="#FFFFFF" p-id="2141"></path><path d="M708.0531 291.206812h-255.479521a16.328744 16.328744 0 0 1-16.328744-16.328743V16.328744a16.328744 16.328744 0 0 1 27.942563-11.475025l254.471221 257.60634a16.292004 16.292004 0 0 1 5.719143 12.41801 16.320579 16.320579 0 0 1-16.324662 16.328743z m-239.150777-32.657487h199.986286l-199.986286-202.456009v202.456009z" fill="#6E6E96" p-id="2142"></path><path d="M452.573579 274.878069l255.397878 255.393795V274.878069z" fill="#B2B2B2" opacity=".25" p-id="2143"></path><path d="M959.360628 438.728846v536.599252H317.914513V185.857841h391.653078z" fill="#E6E6F2" p-id="2144"></path><path d="M959.360628 991.656841H317.914513a16.328744 16.328744 0 0 1-16.328743-16.328743V185.857841a16.328744 16.328744 0 0 1 16.328743-16.328743h391.653078c4.363857 0 8.548097 1.747176 11.617901 4.853719l249.793037 252.871004a16.34099 16.34099 0 0 1 4.710842 11.475025v536.599252a16.328744 16.328744 0 0 1-16.328743 16.328743z m-625.117371-32.657487h608.792709V445.435877L702.750341 202.190667H334.243257v756.808687z" fill="#6E6E96" p-id="2145"></path><path d="M709.567591 438.728846l249.793037 249.797118v-249.797118z" fill="#B2B2B2" opacity=".25" p-id="2146"></path><path d="M959.360628 438.728846H709.567591V185.857841z" fill="#FFFFFF" p-id="2147"></path><path d="M959.442271 455.057589H709.567591a16.328744 16.328744 0 0 1-16.328743-16.328743V185.857841a16.324661 16.324661 0 0 1 27.942562-11.475024l248.86638 251.928019a16.292004 16.292004 0 0 1 5.719143 12.41801 16.320579 16.320579 0 0 1-16.324662 16.328743z m-233.545936-32.657487h194.381445L725.896335 225.626496v196.773606z" fill="#6E6E96" p-id="2148"></path></svg>