<?xml version="1.0" standalone="no"?><!DOCTYPE svg PUBLIC "-//W3C//DTD SVG 1.1//EN" "http://www.w3.org/Graphics/SVG/1.1/DTD/svg11.dtd"><svg t="1639302853803" class="icon" viewBox="0 0 1024 1024" version="1.1" xmlns="http://www.w3.org/2000/svg" p-id="1671" xmlns:xlink="http://www.w3.org/1999/xlink" width="200" height="200"><defs><style type="text/css"></style></defs><path d="M861.170686 56.158518L580.818518 260.951472c-12.499245-3.263545 0 0-13.485795 0H305.156871C184.374877 260.951472 149.620986 330.943721 149.620986 416.487357v103.693527c0 85.552444 34.753891 155.531481 155.535885 155.531481h262.175852c12.715053 0 0.867636 2.920014 12.715053 0l281.12291 204.788549V56.158518z" fill="#FFD042" p-id="1672"></path><path d="M171.642207 586.002314V482.308787c0-85.543636 34.753891-155.535886 155.535885-155.535885h262.175852c13.485796 0 0.986551-3.263545 13.485796 0l258.330946-188.704249V55.916285l-280.352168 204.788549c-12.499245-3.263545 0 0-13.485795 0H305.156871C184.374877 260.704834 149.620986 330.697083 149.620986 416.245124v103.693526c0 37.145396 6.566728 71.335544 23.866599 98.157392a267.320009 267.320009 0 0 1-1.845378-32.093728z" fill="#FFFFFF" opacity=".34" p-id="1673"></path><path d="M848.18257 38.378584l-280.352168 204.788549a22.016817 22.016817 0 0 1 18.555081-3.523395c-22.126923-5.778368-30.173477 4.272117-33.018619 13.723625 2.774674-9.200466 11.059057-14.014305 16.05347-14.494368-0.022021 0-0.598977 0.057255-2.083207 0.057255H305.156871C188.999333 238.93025 127.599764 300.325415 127.599764 416.487357v103.693527c0 116.157538 61.395165 177.552703 177.557107 177.552702h262.175852c1.382933 0 1.924655 0.048447 1.942271 0.048447-5.117732-0.458041-13.578285-5.320327-16.370576-14.696963 2.783482 9.350211 10.662675 19.369866 32.410834 14.009901a22.021221 22.021221 0 0 1-18.24238-3.580651l281.12291 204.788549a22.016817 22.016817 0 0 0 34.987317-17.797551V56.158518a22.021221 22.021221 0 0 0-35.000529-17.779934z m-9.033105 17.779934v824.342396a22.021221 22.021221 0 0 1 34.987316-17.797551l-281.12291-204.788549a22.016817 22.016817 0 0 0-18.24238-3.580651c-1.849783 0.458041-3.593863 0.885253-4.073926 0.990955 9.002275-1.902634 20.902543 3.373651 24.421535 15.207856-3.325204-11.173568-12.671011-16.837426-27.790782-16.837426H305.156871C212.82189 653.695548 171.642207 612.515864 171.642207 520.185288V416.487357c0-92.339385 41.179684-133.514664 133.514664-133.514664h262.175852c5.712305 0 23.100261 0 28.191567-16.881468-3.474949 11.517099-15.511748 17.088468-24.575683 15.062515 0.502084 0.110106 2.347462 0.594573 4.302947 1.105465 6.399367 1.669209 13.212733 0.374361 18.555081-3.523395l280.352167-204.788549a22.021221 22.021221 0 0 1-35.009337-17.788743z" fill="#6E6E96" p-id="1674"></path><path d="M298.735483 675.703557h145.08021v317.457925H298.735483z" fill="#DCDCF2" p-id="1675"></path><path d="M298.735483 697.724778h145.08021a22.021221 22.021221 0 0 1-22.021222-22.021221v317.457925a22.021221 22.021221 0 0 1 22.021222-22.021221H298.735483a22.021221 22.021221 0 0 1 22.021221 22.021221v-317.457925a22.021221 22.021221 0 0 1-22.021221 22.021221z m0 317.457925h145.08021a22.021221 22.021221 0 0 0 22.021221-22.021221v-317.457925a22.021221 22.021221 0 0 0-22.021221-22.021222H298.735483a22.021221 22.021221 0 0 0-22.021221 22.021222v317.457925a22.021221 22.021221 0 0 0 22.021221 22.021221z" fill="#6E6E96" p-id="1676"></path><path d="M567.332723 587.62748H305.156871C184.374877 587.62748 149.620986 517.648443 149.620986 432.095999v96.893373c0 85.552444 34.753891 155.531481 155.535885 155.531481h262.175852c12.715053 0 0.867636 2.920014 12.715053 0l281.12291 204.788549v-96.893373l-281.12291-204.788549c-11.847417 2.920014 0 0-12.715053 0z" fill="#6E6E96" opacity=".15" p-id="1677"></path><path d="M639.742902 299.810119v205.581313s8.804084 53.960801-53.965205 53.9608-62.764885-53.960801-62.764884-53.9608V326.768498h66.341131l50.388958-26.958379z" fill="#FFFFFF" opacity=".34" p-id="1678"></path><path d="M805.175125 751.628323V178.970869l33.97434-24.817916v622.222818zM320.756704 697.733586h101.037767v45.487035H320.756704zM377.672753 743.220621h44.126123v227.91964H377.672753z" fill="#6E6E96" opacity=".15" p-id="1679"></path><path d="M564.271773 271.217765v234.178071c0 12.164523 9.856699 22.021221 22.021221 22.021221s22.021221-9.856699 22.021221-22.021221V271.217765a22.021221 22.021221 0 1 0-44.042442 0z" fill="#6E6E96" p-id="1680"></path></svg>