<?xml version="1.0" standalone="no"?><!DOCTYPE svg PUBLIC "-//W3C//DTD SVG 1.1//EN" "http://www.w3.org/Graphics/SVG/1.1/DTD/svg11.dtd"><svg t="1639302638434" class="icon" viewBox="0 0 1024 1024" version="1.1" xmlns="http://www.w3.org/2000/svg" p-id="959" xmlns:xlink="http://www.w3.org/1999/xlink" width="200" height="200"><defs><style type="text/css"></style></defs><path d="M512 516.376068m-468.239316 0a468.239316 468.239316 0 1 0 936.478632 0 468.239316 468.239316 0 1 0-936.478632 0Z" fill="#00CCC6" p-id="960"></path><path d="M507.623932 54.359521c-258.599385 0-468.239316 209.639932-468.239317 468.239317s209.639932 468.239316 468.239317 468.239316 468.239316-209.639932 468.239316-468.239316-209.639932-468.239316-468.239316-468.239317z m17.504273 914.598291c-236.850325 0-428.854701-192.004376-428.854701-428.854701s192.004376-428.854701 428.854701-428.854701 428.854701 192.004376 428.854701 428.854701-192.004376 428.854701-428.854701 428.854701z" fill="#FFFFFF" opacity=".18" p-id="961"></path><path d="M507.623932 43.760684C249.024547 43.760684 39.384615 253.400615 39.384615 512s209.639932 468.239316 468.239317 468.239316 468.239316-209.639932 468.239316-468.239316S766.223316 43.760684 507.623932 43.760684z m-10.940171 870.837607C258.625641 914.598291 65.641026 721.609299 65.641026 483.555556 65.641026 245.497436 258.625641 52.512821 496.683761 52.512821c238.053744 0 431.042735 192.984615 431.042735 431.042735 0 238.053744-192.988991 431.042735-431.042735 431.042735z" fill="#6E6E96" opacity=".15" p-id="962"></path><path d="M255.868718 522.808889l149.963487 149.959111 30.94318 30.947556 30.943179-30.947556 290.697846-290.697846-61.890735-61.886359-290.69347 290.697846h61.886359l-149.963487-149.963487z" fill="#FFFFFF" p-id="963"></path></svg>