<?xml version="1.0" standalone="no"?><!DOCTYPE svg PUBLIC "-//W3C//DTD SVG 1.1//EN" "http://www.w3.org/Graphics/SVG/1.1/DTD/svg11.dtd"><svg t="1645156937088" class="icon" viewBox="0 0 1024 1024" version="1.1" xmlns="http://www.w3.org/2000/svg" p-id="2317" xmlns:xlink="http://www.w3.org/1999/xlink" width="128" height="128"><defs><style type="text/css"></style></defs><path d="M997.960991 762.493014c0 31.697816-25.93921 57.615793-57.637026 57.615793H83.667542c-31.697816 0-57.628533-25.922223-57.628533-57.615793V74.602833C26.039009 42.91351 51.965478 16.98704 83.667542 16.98704h856.656423c31.697816 0 57.637026 25.92647 57.637026 57.615793v687.890181z" fill="#FFDD99" p-id="2318"></path><path d="M114.184759 146.678843c-23.267998 0-42.204301-18.932056-42.204301-42.200054s18.932056-42.200054 42.204301-42.200054c23.267998 0 42.200054 18.932056 42.200054 42.200054s-18.932056 42.200054-42.200054 42.200054z m0-75.906588c-18.588068 0-33.710781 15.122712-33.710781 33.706534s15.122712 33.706534 33.710781 33.706534c18.583822 0 33.706534-15.122712 33.706534-33.706534s-15.122712-33.706534-33.706534-33.706534z" fill="#823D3D" opacity=".29" p-id="2319"></path><path d="M153.777302 146.678843c-23.267998 0-42.204301-18.932056-42.2043-42.200054s18.932056-42.200054 42.2043-42.200054c23.267998 0 42.200054 18.932056 42.200054 42.200054s-18.932056 42.200054-42.200054 42.200054z m0-75.906588c-18.588068 0-33.710781 15.122712-33.71078 33.706534s15.122712 33.706534 33.71078 33.706534c18.583822 0 33.706534-15.122712 33.706534-33.706534s-15.122712-33.706534-33.706534-33.706534z" fill="#823D3D" opacity=".29" p-id="2320"></path><path d="M193.378339 146.678843c-23.267998 0-42.200054-18.932056-42.200054-42.200054s18.932056-42.200054 42.200054-42.200054c23.267998 0 42.204301 18.932056 42.204301 42.200054s-18.936303 42.200054-42.204301 42.200054z m0-75.906588c-18.583822 0-33.706534 15.122712-33.706534 33.706534s15.122712 33.706534 33.706534 33.706534c18.588068 0 33.710781-15.122712 33.710781-33.706534s-15.122712-33.706534-33.710781-33.706534z" fill="#823D3D" opacity=".29" p-id="2321"></path><path d="M232.983623 146.678843c-23.267998 0-42.200054-18.932056-42.200054-42.200054s18.932056-42.200054 42.200054-42.200054c23.267998 0 42.204301 18.932056 42.2043 42.200054s-18.936303 42.200054-42.2043 42.200054z m0-75.906588c-18.583822 0-33.706534 15.122712-33.706534 33.706534s15.122712 33.706534 33.706534 33.706534c18.588068 0 33.710781-15.122712 33.71078-33.706534s-15.122712-33.706534-33.71078-33.706534z" fill="#823D3D" opacity=".29" p-id="2322"></path><path d="M272.593153 146.678843c-23.267998 0-42.200054-18.932056-42.200054-42.200054s18.932056-42.200054 42.200054-42.200054c23.267998 0 42.204301 18.932056 42.204301 42.200054s-18.936303 42.200054-42.204301 42.200054z m0-75.906588c-18.583822 0-33.706534 15.122712-33.706534 33.706534s15.122712 33.706534 33.706534 33.706534c18.588068 0 33.710781-15.122712 33.710781-33.706534s-15.122712-33.706534-33.710781-33.706534z" fill="#823D3D" opacity=".29" p-id="2323"></path><path d="M312.198436 146.678843c-23.267998 0-42.204301-18.932056-42.2043-42.200054s18.932056-42.200054 42.2043-42.200054c23.267998 0 42.200054 18.932056 42.200054 42.200054s-18.932056 42.200054-42.200054 42.200054z m0-75.906588c-18.588068 0-33.710781 15.122712-33.71078 33.706534s15.122712 33.706534 33.71078 33.706534c18.583822 0 33.706534-15.122712 33.706534-33.706534s-15.122712-33.706534-33.706534-33.706534z" fill="#823D3D" opacity=".29" p-id="2324"></path><path d="M351.79098 146.678843c-23.267998 0-42.204301-18.932056-42.204301-42.200054s18.932056-42.200054 42.204301-42.200054c23.267998 0 42.200054 18.932056 42.200054 42.200054s-18.932056 42.200054-42.200054 42.200054z m0-75.906588c-18.588068 0-33.710781 15.122712-33.710781 33.706534s15.122712 33.706534 33.710781 33.706534c18.583822 0 33.706534-15.122712 33.706534-33.706534s-15.122712-33.706534-33.706534-33.706534z" fill="#823D3D" opacity=".29" p-id="2325"></path><path d="M391.392017 146.678843c-23.267998 0-42.200054-18.932056-42.200054-42.200054s18.932056-42.200054 42.200054-42.200054c23.267998 0 42.204301 18.932056 42.2043 42.200054s-18.936303 42.200054-42.2043 42.200054z m0-75.906588c-18.583822 0-33.706534 15.122712-33.706534 33.706534s15.122712 33.706534 33.706534 33.706534c18.588068 0 33.710781-15.122712 33.71078-33.706534s-15.126959-33.706534-33.71078-33.706534z" fill="#823D3D" opacity=".29" p-id="2326"></path><path d="M430.9973 146.678843c-23.267998 0-42.200054-18.932056-42.200054-42.200054s18.932056-42.200054 42.200054-42.200054c23.267998 0 42.204301 18.932056 42.204301 42.200054s-18.936303 42.200054-42.204301 42.200054z m0-75.906588c-18.583822 0-33.706534 15.122712-33.706534 33.706534s15.122712 33.706534 33.706534 33.706534c18.588068 0 33.710781-15.122712 33.710781-33.706534s-15.122712-33.706534-33.710781-33.706534z" fill="#823D3D" opacity=".29" p-id="2327"></path><path d="M470.59409 146.678843c-23.267998 0-42.200054-18.932056-42.200054-42.200054s18.932056-42.200054 42.200054-42.200054c23.267998 0 42.204301 18.932056 42.204301 42.200054s-18.936303 42.200054-42.204301 42.200054z m0-75.906588c-18.583822 0-33.706534 15.122712-33.706534 33.706534s15.122712 33.706534 33.706534 33.706534c18.588068 0 33.710781-15.122712 33.710781-33.706534s-15.122712-33.706534-33.710781-33.706534z" fill="#823D3D" opacity=".29" p-id="2328"></path><path d="M510.203621 146.678843c-23.267998 0-42.204301-18.932056-42.204301-42.200054s18.932056-42.200054 42.204301-42.200054 42.200054 18.932056 42.200053 42.200054-18.927809 42.200054-42.200053 42.200054z m0-75.906588c-18.588068 0-33.710781 15.122712-33.710781 33.706534s15.122712 33.706534 33.710781 33.706534c18.583822 0 33.706534-15.122712 33.706533-33.706534s-15.122712-33.706534-33.706533-33.706534z" fill="#823D3D" opacity=".29" p-id="2329"></path><path d="M549.808904 146.68309c-23.272245 0-42.208547-18.932056-42.208547-42.208548s18.936303-42.208547 42.208547-42.208547 42.204301 18.932056 42.204301 42.208547-18.927809 42.208547-42.204301 42.208548z m0-75.923575c-18.592315 0-33.715027 15.126959-33.715027 33.715027s15.126959 33.715027 33.715027 33.715028c18.588068 0 33.710781-15.126959 33.710781-33.715028s-15.122712-33.715027-33.710781-33.715027z" fill="#823D3D" opacity=".29" p-id="2330"></path><path d="M589.405694 146.678843c-23.267998 0-42.204301-18.932056-42.204301-42.200054s18.932056-42.200054 42.204301-42.200054 42.200054 18.932056 42.200054 42.200054-18.927809 42.200054-42.200054 42.200054z m0-75.906588c-18.588068 0-33.710781 15.122712-33.710781 33.706534s15.122712 33.706534 33.710781 33.706534c18.583822 0 33.706534-15.122712 33.706534-33.706534s-15.122712-33.706534-33.706534-33.706534z" fill="#823D3D" opacity=".29" p-id="2331"></path><path d="M629.015224 146.68309c-23.272245 0-42.204301-18.932056-42.2043-42.208548s18.932056-42.208547 42.2043-42.208547 42.208547 18.932056 42.208548 42.208547-18.936303 42.208547-42.208548 42.208548z m0-75.923575c-18.588068 0-33.710781 15.126959-33.71078 33.715027s15.126959 33.715027 33.71078 33.715028c18.592315 0 33.715027-15.126959 33.715028-33.715028s-15.122712-33.715027-33.715028-33.715027z" fill="#823D3D" opacity=".29" p-id="2332"></path><path d="M668.603521 146.678843c-23.267998 0-42.200054-18.932056-42.200054-42.200054s18.927809-42.200054 42.200054-42.200054 42.204301 18.932056 42.204301 42.200054-18.936303 42.200054-42.204301 42.200054z m0-75.906588c-18.583822 0-33.706534 15.122712-33.706534 33.706534s15.122712 33.706534 33.706534 33.706534c18.588068 0 33.710781-15.122712 33.710781-33.706534s-15.122712-33.706534-33.710781-33.706534z" fill="#823D3D" opacity=".29" p-id="2333"></path><path d="M708.208805 146.68309c-23.272245 0-42.208547-18.932056-42.208548-42.208548s18.936303-42.208547 42.208548-42.208547 42.204301 18.932056 42.2043 42.208547-18.927809 42.208547-42.2043 42.208548z m0-75.923575c-18.592315 0-33.715027 15.126959-33.715028 33.715027s15.126959 33.715027 33.715028 33.715028c18.588068 0 33.710781-15.126959 33.71078-33.715028s-15.122712-33.715027-33.71078-33.715027z" fill="#823D3D" opacity=".29" p-id="2334"></path><path d="M747.797101 146.678843c-23.267998 0-42.204301-18.932056-42.204301-42.200054s18.932056-42.200054 42.204301-42.200054 42.200054 18.932056 42.200054 42.200054-18.927809 42.200054-42.200054 42.200054z m0-75.906588c-18.588068 0-33.710781 15.122712-33.710781 33.706534s15.122712 33.706534 33.710781 33.706534c18.583822 0 33.706534-15.122712 33.706534-33.706534s-15.122712-33.706534-33.706534-33.706534z" fill="#823D3D" opacity=".29" p-id="2335"></path><path d="M787.398138 146.68309c-23.267998 0-42.200054-18.932056-42.200054-42.200054 0.004247-23.276491 18.936303-42.217041 42.200054-42.217041 23.272245 0 42.208547 18.936303 42.208547 42.217041 0 23.272245-18.936303 42.200054-42.208547 42.200054z m0-75.923575c-18.579575 0-33.702287 15.126959-33.706534 33.723521 0 18.583822 15.122712 33.706534 33.706534 33.706534 18.592315 0 33.715027-15.122712 33.715027-33.706534 0-18.592315-15.126959-33.723521-33.715027-33.723521z" fill="#823D3D" opacity=".29" p-id="2336"></path><path d="M827.011915 146.678843c-23.267998 0-42.200054-18.932056-42.200054-42.200054s18.927809-42.200054 42.200054-42.200054 42.204301 18.932056 42.204301 42.200054-18.936303 42.200054-42.204301 42.200054z m0-75.906588c-18.583822 0-33.706534 15.122712-33.706534 33.706534s15.122712 33.706534 33.706534 33.706534c18.588068 0 33.710781-15.122712 33.710781-33.706534s-15.122712-33.706534-33.710781-33.706534z" fill="#823D3D" opacity=".29" p-id="2337"></path><path d="M866.604458 146.678843c-23.267998 0-42.200054-18.932056-42.200054-42.200054s18.927809-42.200054 42.200054-42.200054 42.204301 18.932056 42.204301 42.200054-18.936303 42.200054-42.204301 42.200054z m0-75.906588c-18.583822 0-33.706534 15.122712-33.706534 33.706534s15.122712 33.706534 33.706534 33.706534c18.588068 0 33.710781-15.122712 33.710781-33.706534s-15.122712-33.706534-33.710781-33.706534z" fill="#823D3D" opacity=".29" p-id="2338"></path><path d="M906.222482 146.68309c-23.272245 0-42.204301-18.932056-42.204301-42.200054a41.907027 41.907027 0 0 1 12.353825-29.841983 41.936755 41.936755 0 0 1 29.850476-12.362318c23.267998 0 42.200054 18.932056 42.200054 42.204301s-18.927809 42.200054-42.200054 42.200054z m0-75.910835a33.498443 33.498443 0 0 0-23.845557 9.873717 33.498443 33.498443 0 0 0-9.865224 23.837064c0 18.583822 15.126959 33.706534 33.710781 33.706534 18.583822 0 33.706534-15.122712 33.706534-33.706534 0-18.588068-15.122712-33.710781-33.706534-33.710781z" fill="#823D3D" opacity=".29" p-id="2339"></path><path d="M114.184759 767.385281c-23.272245 0-42.208547-18.936303-42.208547-42.208547s18.936303-42.208547 42.208547-42.208547 42.204301 18.936303 42.204301 42.208547-18.932056 42.208547-42.204301 42.208547z m0-75.927821c-18.592315 0-33.715027 15.126959-33.715028 33.715027s15.126959 33.715027 33.715028 33.715028c18.588068 0 33.710781-15.126959 33.710781-33.715028s-15.118466-33.715027-33.710781-33.715027z" fill="#823D3D" opacity=".29" p-id="2340"></path><path d="M153.777302 767.385281c-23.272245 0-42.208547-18.936303-42.208547-42.208547s18.936303-42.208547 42.208547-42.208547 42.204301 18.936303 42.204301 42.208547-18.932056 42.208547-42.204301 42.208547z m0-75.927821c-18.592315 0-33.715027 15.126959-33.715027 33.715027s15.126959 33.715027 33.715027 33.715028c18.588068 0 33.710781-15.126959 33.710781-33.715028s-15.118466-33.715027-33.710781-33.715027z" fill="#823D3D" opacity=".29" p-id="2341"></path><path d="M193.378339 767.385281c-23.272245 0-42.204301-18.936303-42.204301-42.208547s18.932056-42.208547 42.204301-42.208547 42.208547 18.936303 42.208547 42.208547-18.936303 42.208547-42.208547 42.208547z m0-75.927821c-18.588068 0-33.710781 15.126959-33.710781 33.715027s15.122712 33.715027 33.710781 33.715028c18.592315 0 33.715027-15.126959 33.715028-33.715028s-15.126959-33.715027-33.715028-33.715027z" fill="#823D3D" opacity=".29" p-id="2342"></path><path d="M232.983623 767.385281c-23.272245 0-42.204301-18.936303-42.204301-42.208547s18.932056-42.208547 42.204301-42.208547 42.208547 18.936303 42.208547 42.208547-18.936303 42.208547-42.208547 42.208547z m0-75.927821c-18.588068 0-33.710781 15.126959-33.710781 33.715027s15.122712 33.715027 33.710781 33.715028c18.592315 0 33.715027-15.126959 33.715027-33.715028s-15.122712-33.715027-33.715027-33.715027z" fill="#823D3D" opacity=".29" p-id="2343"></path><path d="M272.593153 767.385281c-23.272245 0-42.204301-18.936303-42.204301-42.208547s18.932056-42.208547 42.204301-42.208547 42.208547 18.936303 42.208547 42.208547-18.936303 42.208547-42.208547 42.208547z m0-75.927821c-18.588068 0-33.710781 15.126959-33.710781 33.715027s15.122712 33.715027 33.710781 33.715028c18.592315 0 33.715027-15.126959 33.715027-33.715028s-15.122712-33.715027-33.715027-33.715027z" fill="#823D3D" opacity=".29" p-id="2344"></path><path d="M312.198436 767.385281c-23.272245 0-42.208547-18.936303-42.208547-42.208547s18.936303-42.208547 42.208547-42.208547 42.204301 18.936303 42.204301 42.208547-18.932056 42.208547-42.204301 42.208547z m0-75.927821c-18.592315 0-33.715027 15.126959-33.715027 33.715027s15.126959 33.715027 33.715027 33.715028c18.588068 0 33.710781-15.126959 33.710781-33.715028s-15.122712-33.715027-33.710781-33.715027z" fill="#823D3D" opacity=".29" p-id="2345"></path><path d="M351.79098 767.385281c-23.272245 0-42.208547-18.936303-42.208548-42.208547s18.936303-42.208547 42.208548-42.208547 42.204301 18.936303 42.2043 42.208547-18.932056 42.208547-42.2043 42.208547z m0-75.927821c-18.592315 0-33.715027 15.126959-33.715028 33.715027s15.126959 33.715027 33.715028 33.715028c18.588068 0 33.710781-15.126959 33.71078-33.715028s-15.118466-33.715027-33.71078-33.715027z" fill="#823D3D" opacity=".29" p-id="2346"></path><path d="M391.392017 767.385281c-23.272245 0-42.204301-18.936303-42.204301-42.208547s18.932056-42.208547 42.204301-42.208547 42.208547 18.936303 42.208547 42.208547-18.936303 42.208547-42.208547 42.208547z m0-75.927821c-18.588068 0-33.710781 15.126959-33.710781 33.715027s15.122712 33.715027 33.710781 33.715028c18.592315 0 33.715027-15.126959 33.715027-33.715028s-15.126959-33.715027-33.715027-33.715027z" fill="#823D3D" opacity=".29" p-id="2347"></path><path d="M430.9973 767.385281c-23.272245 0-42.204301-18.936303-42.204301-42.208547s18.932056-42.208547 42.204301-42.208547 42.208547 18.936303 42.208548 42.208547-18.936303 42.208547-42.208548 42.208547z m0-75.927821c-18.588068 0-33.710781 15.126959-33.710781 33.715027s15.122712 33.715027 33.710781 33.715028c18.592315 0 33.715027-15.126959 33.715028-33.715028s-15.122712-33.715027-33.715028-33.715027z" fill="#823D3D" opacity=".29" p-id="2348"></path><path d="M470.59409 767.385281c-23.272245 0-42.204301-18.936303-42.2043-42.208547s18.932056-42.208547 42.2043-42.208547 42.208547 18.936303 42.208548 42.208547-18.936303 42.208547-42.208548 42.208547z m0-75.927821c-18.588068 0-33.710781 15.126959-33.710781 33.715027s15.122712 33.715027 33.710781 33.715028c18.592315 0 33.715027-15.126959 33.715028-33.715028s-15.122712-33.715027-33.715028-33.715027z" fill="#823D3D" opacity=".29" p-id="2349"></path><path d="M510.203621 767.385281c-23.272245 0-42.208547-18.936303-42.208548-42.208547s18.936303-42.208547 42.208548-42.208547 42.204301 18.936303 42.2043 42.208547-18.927809 42.208547-42.2043 42.208547z m0-75.927821c-18.592315 0-33.715027 15.126959-33.715028 33.715027s15.126959 33.715027 33.715028 33.715028c18.588068 0 33.710781-15.126959 33.71078-33.715028s-15.122712-33.715027-33.71078-33.715027z" fill="#823D3D" opacity=".29" p-id="2350"></path><path d="M549.808904 767.385281c-23.272245 0-42.208547-18.936303-42.208547-42.208547s18.936303-42.208547 42.208547-42.208547 42.204301 18.936303 42.204301 42.208547-18.927809 42.208547-42.204301 42.208547z m0-75.927821c-18.592315 0-33.715027 15.126959-33.715027 33.715027s15.126959 33.715027 33.715027 33.715028c18.588068 0 33.710781-15.126959 33.710781-33.715028s-15.122712-33.715027-33.710781-33.715027z" fill="#823D3D" opacity=".29" p-id="2351"></path><path d="M589.405694 767.385281c-23.272245 0-42.208547-18.936303-42.208547-42.208547s18.936303-42.208547 42.208547-42.208547 42.204301 18.936303 42.204301 42.208547-18.927809 42.208547-42.204301 42.208547z m0-75.927821c-18.592315 0-33.715027 15.126959-33.715027 33.715027s15.126959 33.715027 33.715027 33.715028c18.588068 0 33.710781-15.126959 33.710781-33.715028s-15.122712-33.715027-33.710781-33.715027z" fill="#823D3D" opacity=".29" p-id="2352"></path><path d="M629.015224 767.385281c-23.272245 0-42.204301-18.936303-42.2043-42.208547s18.932056-42.208547 42.2043-42.208547 42.208547 18.936303 42.208548 42.208547-18.936303 42.208547-42.208548 42.208547z m0-75.927821c-18.588068 0-33.710781 15.126959-33.71078 33.715027s15.126959 33.715027 33.71078 33.715028c18.592315 0 33.715027-15.126959 33.715028-33.715028s-15.122712-33.715027-33.715028-33.715027z" fill="#823D3D" opacity=".29" p-id="2353"></path><path d="M668.603521 767.385281c-23.272245 0-42.204301-18.936303-42.204301-42.208547s18.932056-42.208547 42.204301-42.208547 42.208547 18.936303 42.208547 42.208547-18.936303 42.208547-42.208547 42.208547z m0-75.927821c-18.588068 0-33.710781 15.126959-33.710781 33.715027s15.126959 33.715027 33.710781 33.715028c18.592315 0 33.715027-15.126959 33.715027-33.715028s-15.122712-33.715027-33.715027-33.715027z" fill="#823D3D" opacity=".29" p-id="2354"></path><path d="M708.208805 767.385281c-23.272245 0-42.208547-18.936303-42.208548-42.208547s18.936303-42.208547 42.208548-42.208547 42.204301 18.936303 42.2043 42.208547-18.927809 42.208547-42.2043 42.208547z m0-75.927821c-18.592315 0-33.715027 15.126959-33.715028 33.715027s15.126959 33.715027 33.715028 33.715028c18.588068 0 33.710781-15.126959 33.71078-33.715028s-15.122712-33.715027-33.71078-33.715027z" fill="#823D3D" opacity=".29" p-id="2355"></path><path d="M747.797101 767.385281c-23.272245 0-42.208547-18.936303-42.208547-42.208547s18.936303-42.208547 42.208547-42.208547 42.204301 18.936303 42.204301 42.208547-18.927809 42.208547-42.204301 42.208547z m0-75.927821c-18.592315 0-33.715027 15.126959-33.715027 33.715027s15.126959 33.715027 33.715027 33.715028c18.588068 0 33.710781-15.126959 33.710781-33.715028s-15.122712-33.715027-33.710781-33.715027z" fill="#823D3D" opacity=".29" p-id="2356"></path><path d="M787.398138 767.385281c-23.267998 0-42.200054-18.936303-42.200054-42.212794 0.004247-23.272245 18.936303-42.204301 42.200054-42.2043 23.272245 0 42.208547 18.932056 42.208547 42.2043 0 23.276491-18.936303 42.212794-42.208547 42.212794z m0-75.927821c-18.579575 0-33.702287 15.126959-33.706534 33.710781 0 18.592315 15.122712 33.719274 33.706534 33.719274 18.592315 0 33.715027-15.126959 33.715027-33.719274 0-18.583822-15.126959-33.710781-33.715027-33.710781z" fill="#823D3D" opacity=".29" p-id="2357"></path><path d="M827.011915 767.385281c-23.272245 0-42.204301-18.936303-42.204301-42.208547s18.932056-42.208547 42.204301-42.208547 42.208547 18.936303 42.208547 42.208547-18.936303 42.208547-42.208547 42.208547z m0-75.927821c-18.588068 0-33.710781 15.126959-33.710781 33.715027s15.126959 33.715027 33.710781 33.715028c18.592315 0 33.715027-15.126959 33.715027-33.715028s-15.122712-33.715027-33.715027-33.715027z" fill="#823D3D" opacity=".29" p-id="2358"></path><path d="M866.604458 767.385281c-23.272245 0-42.204301-18.936303-42.2043-42.208547s18.932056-42.208547 42.2043-42.208547 42.208547 18.936303 42.208548 42.208547-18.936303 42.208547-42.208548 42.208547z m0-75.927821c-18.588068 0-33.710781 15.126959-33.71078 33.715027s15.126959 33.715027 33.71078 33.715028c18.592315 0 33.715027-15.126959 33.715028-33.715028s-15.122712-33.715027-33.715028-33.715027z" fill="#823D3D" opacity=".29" p-id="2359"></path><path d="M906.222482 767.385281c-23.272245 0-42.208547-18.936303-42.208547-42.208547s18.936303-42.208547 42.208547-42.208547 42.208547 18.936303 42.208548 42.208547-18.936303 42.208547-42.208548 42.208547z m0-75.927821c-18.592315 0-33.715027 15.126959-33.715027 33.715027s15.126959 33.715027 33.715027 33.715028 33.715027-15.126959 33.715028-33.715028-15.122712-33.715027-33.715028-33.715027z" fill="#823D3D" opacity=".29" p-id="2360"></path><path d="M114.184759 183.612914c-23.267998 0-42.204301-18.932056-42.204301-42.200053s18.932056-42.200054 42.204301-42.200054c23.267998 0 42.200054 18.932056 42.200054 42.200054s-18.932056 42.200054-42.200054 42.200053z m0-75.906587c-18.588068 0-33.710781 15.122712-33.710781 33.706534s15.122712 33.706534 33.710781 33.706534c18.583822 0 33.706534-15.122712 33.706534-33.706534s-15.122712-33.706534-33.706534-33.706534z" fill="#823D3D" opacity=".29" p-id="2361"></path><path d="M114.184759 222.589678c-23.272245 0-42.208547-18.932056-42.208547-42.208548s18.936303-42.208547 42.208547-42.208547 42.204301 18.932056 42.204301 42.208547-18.932056 42.208547-42.204301 42.208548z m0-75.923575c-18.592315 0-33.715027 15.126959-33.715028 33.715027s15.126959 33.715027 33.715028 33.715028c18.588068 0 33.710781-15.126959 33.710781-33.715028s-15.118466-33.715027-33.710781-33.715027z" fill="#823D3D" opacity=".29" p-id="2362"></path><path d="M114.184759 261.562194c-23.272245 0-42.204301-18.932056-42.204301-42.204301s18.932056-42.204301 42.204301-42.2043c23.267998 0 42.204301 18.932056 42.204301 42.2043s-18.932056 42.204301-42.204301 42.204301z m0-75.915082c-18.588068 0-33.710781 15.122712-33.710781 33.710781s15.122712 33.710781 33.710781 33.710781 33.710781-15.122712 33.710781-33.710781-15.122712-33.710781-33.710781-33.710781z" fill="#823D3D" opacity=".29" p-id="2363"></path><path d="M114.184759 300.53471c-23.272245 0-42.208547-18.932056-42.208547-42.208547s18.936303-42.208547 42.208547-42.208548 42.204301 18.932056 42.204301 42.208548-18.932056 42.208547-42.204301 42.208547z m0-75.923575c-18.592315 0-33.715027 15.126959-33.715028 33.715028s15.126959 33.715027 33.715028 33.715027c18.588068 0 33.710781-15.126959 33.710781-33.715027s-15.118466-33.715027-33.710781-33.715028z" fill="#823D3D" opacity=".29" p-id="2364"></path><path d="M114.184759 339.50298c-23.272245 0-42.204301-18.932056-42.204301-42.204301s18.932056-42.204301 42.204301-42.204301c23.267998 0 42.204301 18.932056 42.204301 42.204301s-18.932056 42.204301-42.204301 42.204301z m0-75.915082c-18.588068 0-33.710781 15.122712-33.710781 33.710781s15.122712 33.710781 33.710781 33.710781 33.710781-15.122712 33.710781-33.710781-15.122712-33.710781-33.710781-33.710781z" fill="#823D3D" opacity=".29" p-id="2365"></path><path d="M114.184759 378.462756c-23.272245 0-42.204301-18.932056-42.204301-42.204301s18.932056-42.204301 42.204301-42.204301c23.267998 0 42.204301 18.932056 42.204301 42.204301s-18.932056 42.204301-42.204301 42.204301z m0-75.915082c-18.588068 0-33.710781 15.122712-33.710781 33.710781s15.122712 33.710781 33.710781 33.710781 33.710781-15.122712 33.710781-33.710781-15.122712-33.710781-33.710781-33.710781z" fill="#823D3D" opacity=".29" p-id="2366"></path><path d="M114.184759 417.448012c-23.276491 0-42.212794-18.936303-42.212794-42.212794s18.936303-42.212794 42.212794-42.212794c23.272245 0 42.208547 18.936303 42.208547 42.212794s-18.932056 42.212794-42.208547 42.212794z m0-75.932068c-18.592315 0-33.719274 15.126959-33.719274 33.719274s15.126959 33.719274 33.719274 33.719274 33.715027-15.126959 33.715027-33.719274-15.122712-33.719274-33.715027-33.719274z" fill="#823D3D" opacity=".29" p-id="2367"></path><path d="M114.184759 456.416282c-23.272245 0-42.208547-18.932056-42.208547-42.208547s18.936303-42.208547 42.208547-42.208548 42.204301 18.932056 42.204301 42.208548-18.932056 42.208547-42.204301 42.208547z m0-75.923575c-18.592315 0-33.715027 15.126959-33.715028 33.715028s15.126959 33.715027 33.715028 33.715027c18.588068 0 33.710781-15.126959 33.710781-33.715027s-15.118466-33.715027-33.710781-33.715028z" fill="#823D3D" opacity=".29" p-id="2368"></path><path d="M114.184759 495.380305c-23.272245 0-42.204301-18.932056-42.204301-42.204301s18.932056-42.204301 42.204301-42.204301c23.267998 0 42.204301 18.932056 42.204301 42.204301s-18.932056 42.204301-42.204301 42.204301z m0-75.915082c-18.588068 0-33.710781 15.122712-33.710781 33.710781s15.122712 33.710781 33.710781 33.710781 33.710781-15.122712 33.710781-33.710781-15.122712-33.710781-33.710781-33.710781z" fill="#823D3D" opacity=".29" p-id="2369"></path><path d="M114.184759 534.335834c-23.267998 0-42.204301-18.932056-42.204301-42.204301 0-23.267998 18.932056-42.200054 42.204301-42.200053 23.267998 0 42.200054 18.932056 42.200054 42.200053 0 23.272245-18.932056 42.204301-42.200054 42.204301z m0-75.906588c-18.588068 0-33.710781 15.122712-33.710781 33.706534 0 18.588068 15.122712 33.710781 33.710781 33.710781 18.583822 0 33.706534-15.122712 33.706534-33.710781 0-18.583822-15.122712-33.706534-33.706534-33.706534z" fill="#823D3D" opacity=".29" p-id="2370"></path><path d="M114.184759 573.321091c-23.272245 0-42.208547-18.936303-42.208547-42.208548s18.936303-42.204301 42.208547-42.2043 42.204301 18.932056 42.204301 42.2043c0.004247 23.272245-18.932056 42.208547-42.204301 42.208548z m0-75.923575c-18.592315 0-33.715027 15.122712-33.715028 33.710781 0 18.592315 15.126959 33.715027 33.715028 33.715027 18.588068 0 33.710781-15.126959 33.710781-33.715027 0.004247-18.588068-15.118466-33.710781-33.710781-33.710781z" fill="#823D3D" opacity=".29" p-id="2371"></path><path d="M114.184759 612.285114c-23.272245 0-42.204301-18.932056-42.204301-42.204301s18.932056-42.204301 42.204301-42.204301c23.267998 0 42.204301 18.932056 42.204301 42.204301s-18.932056 42.204301-42.204301 42.204301z m0-75.915082c-18.588068 0-33.710781 15.126959-33.710781 33.710781s15.122712 33.710781 33.710781 33.710781 33.710781-15.122712 33.710781-33.710781-15.122712-33.710781-33.710781-33.710781z" fill="#823D3D" opacity=".29" p-id="2372"></path><path d="M114.184759 651.27037c-23.272245 0-42.204301-18.932056-42.204301-42.204301s18.932056-42.204301 42.204301-42.2043c23.267998 0 42.204301 18.932056 42.204301 42.2043s-18.932056 42.204301-42.204301 42.204301z m0-75.919328c-18.588068 0-33.710781 15.126959-33.710781 33.710781s15.122712 33.710781 33.710781 33.71078 33.710781-15.126959 33.710781-33.71078-15.122712-33.710781-33.710781-33.710781z" fill="#823D3D" opacity=".29" p-id="2373"></path><path d="M114.184759 690.221653c-23.272245 0-42.204301-18.932056-42.204301-42.204301s18.932056-42.204301 42.204301-42.204301c23.267998 0 42.204301 18.932056 42.204301 42.204301s-18.932056 42.204301-42.204301 42.204301z m0-75.910835c-18.588068 0-33.710781 15.122712-33.710781 33.710781s15.122712 33.710781 33.710781 33.71078 33.710781-15.122712 33.710781-33.71078-15.122712-33.710781-33.710781-33.710781z" fill="#823D3D" opacity=".29" p-id="2374"></path><path d="M114.184759 729.211156c-23.272245 0-42.204301-18.932056-42.204301-42.204301 0-23.267998 18.932056-42.204301 42.204301-42.2043 23.267998 0 42.204301 18.932056 42.204301 42.2043s-18.932056 42.204301-42.204301 42.204301z m0-75.915081c-18.588068 0-33.710781 15.122712-33.710781 33.71078s15.122712 33.710781 33.710781 33.710781 33.710781-15.126959 33.710781-33.710781-15.122712-33.710781-33.710781-33.71078z" fill="#823D3D" opacity=".29" p-id="2375"></path><path d="M906.222482 183.612914c-23.272245 0-42.204301-18.932056-42.204301-42.200053a41.924015 41.924015 0 0 1 12.353825-29.841983 41.936755 41.936755 0 0 1 29.850476-12.362318c23.267998 0 42.200054 18.932056 42.200054 42.204301 0 23.267998-18.927809 42.200054-42.200054 42.200053z m0-75.910834a33.51543 33.51543 0 0 0-23.845557 9.873717 33.498443 33.498443 0 0 0-9.865224 23.837064c0 18.583822 15.126959 33.706534 33.710781 33.706534 18.583822 0 33.706534-15.122712 33.706534-33.706534 0-18.588068-15.122712-33.710781-33.706534-33.710781z" fill="#823D3D" opacity=".29" p-id="2376"></path><path d="M906.222482 222.589678c-23.272245 0-42.208547-18.932056-42.208547-42.208548s18.936303-42.208547 42.208547-42.208547 42.208547 18.932056 42.208548 42.208547-18.936303 42.208547-42.208548 42.208548z m0-75.923575c-18.592315 0-33.715027 15.126959-33.715027 33.715027s15.126959 33.715027 33.715027 33.715028 33.715027-15.126959 33.715028-33.715028-15.122712-33.715027-33.715028-33.715027z" fill="#823D3D" opacity=".29" p-id="2377"></path><path d="M906.222482 261.566441c-23.272245 0-42.204301-18.932056-42.204301-42.204301a41.907027 41.907027 0 0 1 12.353825-29.841982 41.936755 41.936755 0 0 1 29.850476-12.362319c23.267998 0 42.200054 18.932056 42.200054 42.204301s-18.927809 42.204301-42.200054 42.204301z m0-75.915082a33.498443 33.498443 0 0 0-23.845557 9.873717 33.498443 33.498443 0 0 0-9.865224 23.837064c0 18.588068 15.126959 33.710781 33.710781 33.710781 18.583822 0 33.706534-15.122712 33.706534-33.710781s-15.122712-33.710781-33.706534-33.710781z" fill="#823D3D" opacity=".29" p-id="2378"></path><path d="M906.222482 300.53471c-23.272245 0-42.208547-18.932056-42.208547-42.208547s18.936303-42.208547 42.208547-42.208548 42.208547 18.932056 42.208548 42.208548-18.936303 42.208547-42.208548 42.208547z m0-75.923575c-18.592315 0-33.715027 15.126959-33.715027 33.715028s15.126959 33.715027 33.715027 33.715027 33.715027-15.126959 33.715028-33.715027-15.122712-33.715027-33.715028-33.715028z" fill="#823D3D" opacity=".29" p-id="2379"></path><path d="M906.222482 339.50298c-23.272245 0-42.204301-18.932056-42.204301-42.204301s18.932056-42.204301 42.204301-42.204301 42.204301 18.932056 42.204301 42.204301-18.932056 42.204301-42.204301 42.204301z m0-75.915082c-18.588068 0-33.710781 15.122712-33.710781 33.710781s15.126959 33.710781 33.710781 33.710781 33.710781-15.122712 33.710781-33.710781-15.122712-33.710781-33.710781-33.710781z" fill="#823D3D" opacity=".29" p-id="2380"></path><path d="M906.222482 378.467003c-23.272245 0-42.204301-18.932056-42.204301-42.204301a41.924015 41.924015 0 0 1 12.353825-29.846229 41.949495 41.949495 0 0 1 29.850476-12.358072c23.267998 0 42.200054 18.932056 42.200054 42.204301s-18.927809 42.204301-42.200054 42.204301z m0-75.915082a33.51543 33.51543 0 0 0-23.845557 9.86947 33.506936 33.506936 0 0 0-9.865224 23.841311c0 18.588068 15.126959 33.710781 33.710781 33.710781 18.583822 0 33.706534-15.122712 33.706534-33.710781s-15.122712-33.710781-33.706534-33.710781z" fill="#823D3D" opacity=".29" p-id="2381"></path><path d="M906.222482 417.448012c-23.276491 0-42.212794-18.936303-42.212794-42.212794s18.936303-42.212794 42.212794-42.212794 42.212794 18.936303 42.212794 42.212794-18.936303 42.212794-42.212794 42.212794z m0-75.932068c-18.592315 0-33.719274 15.126959-33.719274 33.719274s15.126959 33.719274 33.719274 33.719274 33.719274-15.126959 33.719274-33.719274-15.126959-33.719274-33.719274-33.719274z" fill="#823D3D" opacity=".29" p-id="2382"></path><path d="M906.222482 456.416282c-23.272245 0-42.208547-18.932056-42.208547-42.208547s18.936303-42.208547 42.208547-42.208548 42.208547 18.932056 42.208548 42.208548-18.936303 42.208547-42.208548 42.208547z m0-75.923575c-18.592315 0-33.715027 15.126959-33.715027 33.715028s15.126959 33.715027 33.715027 33.715027 33.715027-15.126959 33.715028-33.715027-15.122712-33.715027-33.715028-33.715028z" fill="#823D3D" opacity=".29" p-id="2383"></path><path d="M906.222482 495.380305c-23.272245 0-42.204301-18.932056-42.204301-42.204301a41.924015 41.924015 0 0 1 12.353825-29.841982 41.949495 41.949495 0 0 1 29.850476-12.358072c23.267998 0 42.200054 18.932056 42.200054 42.200054 0 23.272245-18.927809 42.204301-42.200054 42.204301z m0-75.910835a33.506936 33.506936 0 0 0-23.845557 9.873717 33.494196 33.494196 0 0 0-9.865224 23.832817c0 18.588068 15.126959 33.710781 33.710781 33.710781 18.583822 0 33.706534-15.122712 33.706534-33.710781s-15.122712-33.706534-33.706534-33.706534z" fill="#823D3D" opacity=".29" p-id="2384"></path><path d="M906.222482 534.340081c-23.272245 0-42.204301-18.932056-42.204301-42.204301a41.915521 41.915521 0 0 1 12.353825-29.837735 41.945248 41.945248 0 0 1 29.850476-12.362319c23.267998 0 42.200054 18.932056 42.200054 42.200054 0 23.272245-18.927809 42.204301-42.200054 42.204301z m0-75.910835a33.51543 33.51543 0 0 0-23.845557 9.873717 33.494196 33.494196 0 0 0-9.865224 23.832817c0 18.588068 15.126959 33.710781 33.710781 33.710781 18.583822 0 33.706534-15.122712 33.706534-33.710781 0-18.583822-15.122712-33.706534-33.706534-33.706534z" fill="#823D3D" opacity=".29" p-id="2385"></path><path d="M906.222482 573.321091c-23.272245 0-42.208547-18.936303-42.208547-42.208548s18.936303-42.204301 42.208547-42.2043 42.208547 18.932056 42.208548 42.2043-18.936303 42.208547-42.208548 42.208548z m0-75.923575c-18.592315 0-33.715027 15.122712-33.715027 33.710781 0 18.592315 15.126959 33.715027 33.715027 33.715027s33.715027-15.126959 33.715028-33.715027c0-18.588068-15.122712-33.710781-33.715028-33.710781z" fill="#823D3D" opacity=".29" p-id="2386"></path><path d="M906.222482 612.285114c-23.272245 0-42.204301-18.932056-42.204301-42.204301a41.894287 41.894287 0 0 1 12.353825-29.837736 41.928261 41.928261 0 0 1 29.850476-12.366565c23.267998 0 42.200054 18.932056 42.200054 42.204301s-18.927809 42.204301-42.200054 42.204301z m0-75.915082a33.485702 33.485702 0 0 0-23.84131 9.877964 33.481456 33.481456 0 0 0-9.869471 23.832817c0 18.588068 15.126959 33.710781 33.710781 33.710781 18.583822 0 33.706534-15.122712 33.706534-33.710781s-15.122712-33.710781-33.706534-33.710781z" fill="#823D3D" opacity=".29" p-id="2387"></path><path d="M906.222482 651.27037c-23.272245 0-42.204301-18.932056-42.204301-42.204301s18.932056-42.204301 42.204301-42.2043 42.204301 18.932056 42.204301 42.2043-18.932056 42.204301-42.204301 42.204301z m0-75.919328c-18.588068 0-33.710781 15.126959-33.710781 33.710781s15.126959 33.710781 33.710781 33.71078 33.710781-15.126959 33.710781-33.71078-15.122712-33.710781-33.710781-33.710781z" fill="#823D3D" opacity=".29" p-id="2388"></path><path d="M906.222482 690.221653c-23.272245 0-42.204301-18.927809-42.204301-42.200054-0.004247-11.270901 4.382656-21.870814 12.353825-29.841983s18.571081-12.362318 29.850476-12.362318c23.267998 0 42.200054 18.932056 42.200054 42.204301s-18.927809 42.200054-42.200054 42.200054z m0-75.910835c-9.007378 0-17.475417 3.507824-23.84131 9.873717s-9.86947 14.833933-9.869471 23.837064c0 18.583822 15.126959 33.706534 33.710781 33.706534 18.583822 0 33.706534-15.122712 33.706534-33.706534s-15.122712-33.710781-33.706534-33.710781z" fill="#823D3D" opacity=".29" p-id="2389"></path><path d="M906.222482 729.211156c-23.272245 0-42.204301-18.932056-42.204301-42.204301 0-23.267998 18.932056-42.204301 42.204301-42.2043s42.204301 18.932056 42.204301 42.2043-18.932056 42.204301-42.204301 42.204301z m0-75.915081c-18.588068 0-33.710781 15.122712-33.710781 33.71078s15.126959 33.710781 33.710781 33.710781 33.710781-15.126959 33.710781-33.710781-15.122712-33.710781-33.710781-33.71078z" fill="#823D3D" opacity=".29" p-id="2390"></path><path d="M145.933537 115.872846a24.996429 24.996429 0 0 0-24.970949 24.970949v546.948711a24.996429 24.996429 0 0 0 24.970949 24.970949H871.908661a25.000676 25.000676 0 0 0 24.975196-24.970949V140.839548a25.004923 25.004923 0 0 0-24.975196-24.975195H145.933537v0.008493z" fill="#FFF8EB" p-id="2391"></path><path d="M871.908661 729.750495H145.933537c-23.136348 0-41.957989-18.82164-41.957989-41.957989V140.843795c0-23.136348 18.82164-41.957989 41.957989-41.957989l725.975124-0.008493c23.136348 0 41.962235 18.825887 41.962236 41.962235v546.952958c0 23.136348-18.825887 41.957989-41.962236 41.957989zM145.933537 132.851392c-4.399643 0-7.983909 3.588512-7.983909 7.992403v546.948711c0 4.399643 3.580019 7.983909 7.983909 7.983909H871.908661a7.996649 7.996649 0 0 0 7.988156-7.983909V140.839548a7.996649 7.996649 0 0 0-7.988156-7.988156H145.933537z" fill="#6E6E96" p-id="2392"></path><path d="M296.404736 200.599954v12.472734h-5.843542c-0.704962-3.231784-1.787886-5.618463-3.270005-7.160037-1.499106-1.53308-3.448369-2.301744-5.856282-2.301744-4.522799 0-7.958428 2.174341-10.285652 6.52727-2.318731 4.344435-3.482343 10.78677-3.482344 19.331252 0 7.949935 1.053196 13.967594 3.18507 18.052976 2.12338 4.081136 5.227762 6.123828 9.325885 6.123828 2.102146 0 3.805097-0.352481 5.130086-1.053196 1.312249-0.704962 2.373939-1.753912 3.163836-3.15959 0.789897-1.405678 1.469379-3.384668 2.046939-5.945464h5.898749v13.0418c-3.155343 0.74743-6.034646 1.291015-8.65065 1.635003-2.603264 0.343988-5.32119 0.518105-8.136792 0.518105-5.958204 0-10.833485-1.078677-14.600361-3.236031-3.771123-2.153107-6.552751-5.397632-8.344883-9.733574-1.787886-4.340189-2.696693-9.852483-2.696693-16.498663 0-6.22575 1.053196-11.640369 3.168083-16.235363 2.106393-4.603488 5.210774-8.162273 9.304652-10.655121 4.106617-2.501342 9.007378-3.745642 14.715023-3.745642 2.89629 0 5.516541 0.161377 7.869246 0.479884 2.352705 0.305767 4.803086 0.836612 7.359635 1.541573zM346.860491 199.262225v13.687307h-5.890256c-0.951274-2.717926-1.749665-4.565267-2.399419-5.529281a7.686636 7.686636 0 0 0-2.373939-2.272017c-0.925794-0.564819-2.480108-0.836612-4.688423-0.836611h-9.385339v20.65624h5.682164c1.265534 0 2.250783-0.182611 2.955745-0.547832 0.721949-0.356728 1.316496-0.955521 1.787886-1.779392 0.475637-0.840858 0.93004-2.127627 1.346223-3.877292h4.86254v17.462677h-4.86254c-0.394949-1.656236-0.845105-2.921771-1.324989-3.796604a4.611981 4.611981 0 0 0-1.741171-1.877067c-0.679482-0.365221-1.681717-0.560572-3.036434-0.560573H322.123115v22.966478h9.330131c1.006482 0 1.851587-0.072195 2.535316-0.191104 0.692222-0.123156 1.320742-0.343988 1.855834-0.662495 0.543585-0.318507 1.065937-0.738936 1.567054-1.286768 0.505364-0.552079 0.951274-1.138132 1.32499-1.766652 0.386455-0.62852 0.798391-1.465132 1.223066-2.497095 0.441663-1.031963 0.908807-2.450381 1.422665-4.2595h5.894503l-0.819625 15.696025h-42.284989v-2.832589c1.07443-0.28878 1.906795-0.60304 2.526822-0.934287a3.18507 3.18507 0 0 0 1.375951-1.375951c0.293026-0.581806 0.488377-1.329236 0.581806-2.229549 0.089182-0.896066 0.13165-2.038445 0.131649-3.418641v-37.091202c0-1.329236-0.042468-2.484355-0.106169-3.384668a5.847788 5.847788 0 0 0-0.556325-2.233795 3.490837 3.490837 0 0 0-1.375951-1.401431 10.306886 10.306886 0 0 0-2.565043-0.968262v-2.845329l42.675691-0.01274zM377.662242 257.986422h-22.588517v-2.832589c1.057443-0.280286 1.902548-0.594546 2.514082-0.925794a3.155343 3.155343 0 0 0 1.371704-1.37595c0.293026-0.5903 0.488377-1.329236 0.581806-2.238042 0.089182-0.900313 0.13165-2.042692 0.131649-3.414395v-37.086955c0-1.346223-0.038221-2.484355-0.101922-3.397408a5.962451 5.962451 0 0 0-0.564819-2.221056 3.452616 3.452616 0 0 0-1.371703-1.414171 11.351589 11.351589 0 0 0-2.565044-0.964014v-2.836836h25.068625c3.401655 0 6.276711 0.233572 8.633663 0.713456a21.781632 21.781632 0 0 1 6.217256 2.178588c1.486366 0.794144 2.743407 1.80912 3.78811 3.032186 1.031963 1.227314 1.8346 2.641485 2.386679 4.263747 0.556326 1.622262 0.832365 3.49933 0.832365 5.656685 0 2.807108-0.492624 5.219268-1.482119 7.223738a14.43049 14.43049 0 0 1-3.991954 5.019671c-1.681717 1.333483-3.9325 2.58203-6.739608 3.754135v0.441663c2.13612 0.9173 3.877292 2.140367 5.274475 3.677695 1.392937 1.528834 2.637238 3.47385 3.76263 5.830801l2.717926 5.847788c1.19334 2.603264 2.395173 4.565267 3.580019 5.864776 1.19334 1.308002 2.611757 2.11064 4.24676 2.390926v2.841082h-16.558117c-1.660483-2.297497-3.541798-5.711892-5.631204-10.238938l-3.35494-7.351142c-1.006482-2.182835-1.864328-3.732902-2.586277-4.650202-0.717702-0.9173-1.452392-1.545821-2.212562-1.894055-0.76017-0.348234-1.919536-0.518105-3.507824-0.518104H372.999299v13.852931c0 2.157354 0.089182 3.664954 0.297273 4.522799a3.856058 3.856058 0 0 0 1.150872 2.063925c0.586053 0.509611 1.639249 0.985248 3.193564 1.380197v2.828343h0.01274v-0.016987h0.004247v-0.008494z m-4.658696-53.594111v23.905012h4.27224c2.284757 0 4.183059-0.310013 5.673672-0.925794 1.486366-0.620027 2.675459-1.473626 3.554538-2.573536 0.870586-1.099911 1.465132-2.403666 1.800626-3.894279 0.322754-1.499106 0.496871-3.129862 0.496871-4.905008 0-3.890032-0.921547-6.81605-2.747654-8.769559-1.851587-1.940769-4.569514-2.917524-8.183506-2.917524-2.454627-0.004247-4.085383 0.029727-4.866787 0.080688zM421.926221 257.986422v-2.832589a11.041576 11.041576 0 0 0 2.858069-0.794144 3.478096 3.478096 0 0 0 1.575548-1.392937c0.352481-0.607287 0.569066-1.37595 0.645508-2.301744a39.112659 39.112659 0 0 0 0.135896-3.465356V204.311623h-3.490837c-1.711444 0-3.032187 0.195351-3.953733 0.607286a6.128075 6.128075 0 0 0-2.395173 1.898302c-0.662495 0.849352-1.235807 2.012964-1.728431 3.452616-0.492624 1.452392-0.89182 2.811355-1.20608 4.110864h-5.890256v-15.105726h50.629872v15.105726h-5.890256a86.052097 86.052097 0 0 0-1.291015-4.301968 11.742291 11.742291 0 0 0-1.06169-2.339965 7.448817 7.448817 0 0 0-1.227313-1.613769c-0.428923-0.441663-0.883326-0.77291-1.371704-1.036209s-1.091417-0.450157-1.8346-0.581806a17.271573 17.271573 0 0 0-2.85807-0.186858h-3.104381v42.888029c0 1.5076 0.050961 2.666965 0.135896 3.465356 0.089182 0.781404 0.246312 1.414171 0.475637 1.898302a3.592759 3.592759 0 0 0 0.836612 1.189093c0.322754 0.30152 0.781404 0.573313 1.36321 0.811131 0.586053 0.246312 1.380197 0.44591 2.386679 0.586053v2.836836H421.921974v-0.008494h0.004247zM483.992618 247.191158c0 0.997989 0.029727 1.923782 0.084935 2.790121 0.076442 0.870586 0.174117 1.567054 0.365221 2.114887a3.588512 3.588512 0 0 0 0.751677 1.380197c0.339741 0.365221 0.77291 0.692222 1.346223 0.968261 0.573313 0.271793 1.269781 0.509611 2.097899 0.713456v2.832589h-22.575776v-2.832589c1.06169-0.280286 1.898302-0.594546 2.514082-0.925794a3.248771 3.248771 0 0 0 1.371704-1.37595c0.293026-0.581806 0.492624-1.329236 0.581806-2.229549s0.123156-2.051185 0.123156-3.414395v-37.129423c0-1.37595-0.038221-2.505588-0.101922-3.405901a6.06862 6.06862 0 0 0-0.560573-2.208315 3.333707 3.333707 0 0 0-1.380197-1.405678 11.975863 11.975863 0 0 0-2.556549-0.942781v-2.845329h22.584269v2.845329c-1.180599 0.318507-2.038445 0.654001-2.599017 1.010729a3.63098 3.63098 0 0 0-1.265534 1.316496 5.63545 5.63545 0 0 0-0.607287 2.017211 28.5085 28.5085 0 0 0-0.161377 3.660707v37.069968l-0.01274-0.004247zM514.811355 247.191158c0 1.5076 0.042468 2.666965 0.127403 3.465356 0.080688 0.785651 0.229325 1.414171 0.467144 1.902549a3.652214 3.652214 0 0 0 0.836611 1.189093c0.318507 0.30152 0.798391 0.573313 1.367457 0.811131 0.5903 0.246312 1.380197 0.44591 2.386679 0.581806v2.841082h-23.127855v-2.841082a10.362094 10.362094 0 0 0 2.505589-0.900313 3.359187 3.359187 0 0 0 1.384443-1.401431c0.284533-0.573313 0.475637-1.333483 0.569066-2.246536a36.692006 36.692006 0 0 0 0.135896-3.439876v-37.044487c0-1.341976-0.046714-2.475861-0.110415-3.384668a6.085607 6.085607 0 0 0-0.560573-2.238042 3.652214 3.652214 0 0 0-1.392937-1.392938 10.115782 10.115782 0 0 0-2.548056-0.968261v-2.845329h41.597014v13.687307h-5.890256c-0.942781-2.717926-1.753912-4.556773-2.399419-5.529281a7.516765 7.516765 0 0 0-2.378186-2.272017c-0.913053-0.564819-2.475861-0.840858-4.688423-0.840858h-8.293922v21.896294h5.508048c1.35047 0 2.390926-0.199598 3.117121-0.624273 0.730443-0.420429 1.324989-1.104158 1.80912-2.08516 0.462897-0.976755 0.862092-2.352705 1.172106-4.140591h4.86254v18.762186h-4.86254c-0.335494-1.792133-0.755923-3.206304-1.252794-4.187305-0.47139-1.002235-1.078677-1.681717-1.79638-2.0979-0.726196-0.394949-1.745418-0.598793-3.057667-0.598793h-5.508048v15.942337h0.021234zM563.360315 247.191158c0 0.997989 0.021234 1.923782 0.089182 2.790121 0.050961 0.870586 0.16987 1.567054 0.348234 2.114887a4.07689 4.07689 0 0 0 0.73469 1.380197c0.335494 0.365221 0.798391 0.692222 1.36321 0.968261s1.295262 0.509611 2.11064 0.713456v2.832589h-22.592763v-2.832589c1.06169-0.280286 1.906795-0.594546 2.522575-0.925794a3.176576 3.176576 0 0 0 1.371703-1.37595c0.30152-0.581806 0.492624-1.329236 0.594547-2.229549 0.089182-0.900313 0.118909-2.051185 0.118909-3.414395v-37.129423c0-1.37595-0.042468-2.505588-0.106169-3.405901a5.894503 5.894503 0 0 0-0.573313-2.208315 3.312473 3.312473 0 0 0-1.371703-1.405678 12.026824 12.026824 0 0 0-2.560796-0.942781v-2.845329h22.580023v2.845329c-1.172106 0.318507-2.034198 0.654001-2.590524 1.010729a3.741396 3.741396 0 0 0-1.278275 1.316496 5.728879 5.728879 0 0 0-0.60304 2.017211 28.805773 28.805773 0 0 0-0.174117 3.660707v37.069968l0.016987-0.004247zM618.946157 200.599954v12.472734h-5.852036c-0.700715-3.231784-1.779392-5.618463-3.270005-7.160037-1.490613-1.53308-3.452616-2.301744-5.847788-2.301744-4.522799 0-7.937194 2.174341-10.294147 6.52727-2.314484 4.344435-3.465356 10.78677-3.465356 19.331252 0 7.949935 1.065937 13.967594 3.180824 18.052976 2.131874 4.081136 5.227762 6.123828 9.347118 6.123828 2.093653 0 3.80085-0.352481 5.121593-1.053196 1.320742-0.704962 2.378186-1.753912 3.168083-3.15959 0.781404-1.405678 1.465132-3.384668 2.034198-5.945464h5.890256v13.0418c-3.155343 0.74743-6.051633 1.291015-8.654897 1.635003-2.607511 0.343988-5.32119 0.518105-8.128299 0.518105-5.966698 0-10.850472-1.078677-14.60036-3.236031-3.771123-2.153107-6.561244-5.397632-8.357624-9.733574-1.783639-4.340189-2.688199-9.852483-2.688199-16.498663 0-6.22575 1.06169-11.640369 3.176576-16.235363 2.102146-4.603488 5.198034-8.162273 9.300405-10.655121 4.110864-2.501342 8.994638-3.745642 14.702283-3.745642 2.917524 0 5.533528 0.161377 7.87774 0.479884 2.348458 0.305767 4.803086 0.836612 7.359635 1.541573zM657.311386 239.793302h-18.371483l-1.418418 4.07689a34.347795 34.347795 0 0 0-0.985249 3.337953c-0.254806 1.07443-0.390702 2.212562-0.390702 3.418642 0 2.811355 1.499106 4.318955 4.476085 4.518553v2.836835h-18.37573v-2.836835c1.053196-0.114663 2.004471-0.479884 2.790121-1.116898 0.811131-0.637014 1.53308-1.49486 2.199822-2.577784 0.658248-1.082924 1.358963-2.662719 2.114887-4.692669l17.934067-47.78879h11.487486l14.196918 48.187985c0.624274 2.140367 1.159365 3.677694 1.579795 4.569514 0.441663 0.913053 0.989495 1.639249 1.685964 2.199821 0.683728 0.560572 1.656236 0.968261 2.892043 1.227314v2.841083h-23.752128v-2.841083c1.490613-0.161377 2.603264-0.586053 3.312472-1.248547 0.717702-0.658248 1.07443-1.596782 1.074431-2.794368 0-0.89182-0.106169-1.898302-0.30152-2.972732a42.696925 42.696925 0 0 0-0.989495-4.123604l-1.159366-4.22128z m-16.732234-5.045151h15.483687l-6.879751-24.219272-8.603936 24.219272zM689.234281 257.986422v-2.832589a11.296382 11.296382 0 0 0 2.858069-0.794144 3.414395 3.414395 0 0 0 1.567055-1.392937 5.223515 5.223515 0 0 0 0.624274-2.301744c0.093429-0.942781 0.140143-2.093653 0.140143-3.465356V204.311623h-3.48659c-1.711444 0-3.049174 0.195351-3.962227 0.607286a6.072867 6.072867 0 0 0-2.386679 1.898302c-0.658248 0.849352-1.240054 2.012964-1.736925 3.452616-0.488377 1.452392-0.89182 2.811355-1.201833 4.110864h-5.89875v-15.105726h50.638366v15.105726h-5.89875c-0.556326-1.949263-0.976755-3.380421-1.303755-4.301968a11.52146 11.52146 0 0 0-1.04895-2.339965 8.49352 8.49352 0 0 0-1.210326-1.613769 5.860529 5.860529 0 0 0-1.384444-1.036209 5.970945 5.970945 0 0 0-1.82186-0.581806 16.948819 16.948819 0 0 0-2.858069-0.186858h-3.095888v42.888029c0 1.5076 0.025481 2.666965 0.106169 3.465356 0.097675 0.781404 0.263299 1.414171 0.48413 1.898302a3.783863 3.783863 0 0 0 0.836612 1.189093c0.327001 0.305767 0.789897 0.573313 1.36321 0.811131 0.586053 0.246312 1.37595 0.44591 2.390926 0.586053v2.836836h-23.747882v-0.008494h0.033974zM776.042302 199.262225v13.687307h-5.88601c-0.951274-2.717926-1.758159-4.565267-2.416406-5.529281a7.656908 7.656908 0 0 0-2.365445-2.272017c-0.90456-0.564819-2.488601-0.836612-4.696917-0.836611h-9.381093v20.65624h5.690659c1.261288 0 2.25503-0.182611 2.964238-0.547832 0.704962-0.356728 1.312249-0.955521 1.783639-1.779392 0.484131-0.840858 0.934287-2.127627 1.36321-3.877292h4.866787v17.462677h-4.866787c-0.407689-1.656236-0.849352-2.921771-1.346223-3.796604a4.544033 4.544033 0 0 0-1.732678-1.877067c-0.679482-0.365221-1.685964-0.560572-3.02794-0.560573h-5.694905v22.966478h9.347119c1.006482 0 1.847341-0.072195 2.522575-0.191104 0.704962-0.123156 1.312249-0.343988 1.860081-0.662495s1.07443-0.738936 1.567055-1.286768c0.488377-0.539339 0.951274-1.138132 1.324989-1.766652s0.794144-1.465132 1.227314-2.497095c0.420429-1.031963 0.887573-2.450381 1.405677-4.2595h5.894503l-0.819625 15.700272h-42.284989v-2.832589c1.065937-0.28878 1.906795-0.60304 2.509835-0.934288a3.112875 3.112875 0 0 0 1.380197-1.37595 6.115334 6.115334 0 0 0 0.586053-2.229549 36.224863 36.224863 0 0 0 0.123156-3.418642v-37.091201c0-1.329236-0.038221-2.484355-0.097675-3.384668a5.826555 5.826555 0 0 0-0.57756-2.233796 3.363434 3.363434 0 0 0-1.367456-1.401431 10.251679 10.251679 0 0 0-2.552303-0.968261v-2.845329l42.696925-0.016987z" fill="#5A534A" p-id="2393"></path><path d="M190.235737 374.245723h640.602509v8.49352H190.235737zM362.178555 321.462743h313.088132v8.49352H362.178555zM316.079975 425.185609h407.200581v8.49352H316.079975zM371.788973 482.805649h288.10869v8.493519H371.788973z" fill="#6E6E96" opacity=".42" p-id="2394"></path><path d="M940.319718 837.095847H83.667542c-41.142611 0-74.615573-33.468715-74.615573-74.602833V74.602833C9.051969 33.464469 42.524931 0 83.667542 0h856.656423c41.146857 0 74.624066 33.464469 74.624066 74.602833v687.890181c0 41.134117-33.477209 74.602833-74.628313 74.602833zM83.667542 33.97408C61.257389 33.97408 43.026049 52.201174 43.026049 74.602833v687.890181c0 22.401659 18.231341 40.628753 40.637246 40.628753h856.656423c22.414399 0 40.649987-18.227094 40.649987-40.628753V74.602833c0-22.401659-18.235587-40.628753-40.649987-40.628753H83.667542z" fill="#6E6E96" p-id="2395"></path><path d="M656.827256 778.609468l0.662494 228.403492 68.398316-69.077798 69.086292 68.377083-0.687975-228.382258" fill="#FF9999" p-id="2396"></path><path d="M657.485503 1024a16.99978 16.99978 0 0 1-16.982793-16.936079l-0.658248-228.403492a16.98704 16.98704 0 0 1 16.936079-17.038001h0.050961a16.98704 16.98704 0 0 1 16.98704 16.936079l0.539339 187.277868 39.460893-39.851595a16.98704 16.98704 0 0 1 24.019675-0.11891l40.025713 39.613777-0.564819-187.498699a16.98704 16.98704 0 0 1 16.936078-17.038001h0.050962a16.98704 16.98704 0 0 1 16.987039 16.936078l0.687976 228.382259a16.991287 16.991287 0 0 1-28.933176 12.120253l-57.017-56.4267-56.447933 57.008506a16.995533 16.995533 0 0 1-12.077786 5.036657z" fill="#6E6E96" p-id="2397"></path><path d="M911.373802 641.464601c0 104.117814-84.404355 188.505182-188.530663 188.505182-104.105074 0-188.522169-84.387368-188.522169-188.505182 0-104.126308 84.417095-188.517922 188.522169-188.517922 104.126308 0 188.530663 84.391614 188.530663 188.517922z" fill="#FFD28F" p-id="2398"></path><path d="M565.025045 651.261877c0-92.001808 74.590092-166.5919 166.596147-166.591901 40.301752 0 86.047851 14.311581 114.84513 38.127411-30.542698-36.993526-85.555227-60.554551-137.268022-60.55455-91.997561 0-166.5919 74.564612-166.591901 166.587653 0 51.712796 23.548284 103.799307 60.533317 134.333512-23.80309-28.797279-38.114671-71.596126-38.114671-111.902125z" fill="#FFFFFF" opacity=".75" p-id="2399"></path><path d="M759.577613 456.556425c72.36479 20.443903 125.432303 86.93967 125.432303 165.878445 0 95.195372-77.193356 172.388728-172.405715 172.388728-95.199618 0-172.397221-77.20185-172.397221-172.388728 0-17.908587 2.722173-35.158926 7.780064-51.381549a188.148454 188.148454 0 0 0-13.666074 70.402787c0 104.109321 84.417095 188.496688 188.53491 188.496688 104.113568 0 188.517922-84.378874 188.517922-188.496688 0-91.551652-65.242974-167.819214-151.796189-184.899683z" fill="#E8B76D" opacity=".76" p-id="2400"></path><path d="M669.78412 661.912751c0-33.337066 27.799291-60.342213 62.108865-60.342213 13.313593 0 25.595222 4.085383 35.732238 11.024589-10.481004-18.893835-31.039569-31.702063-54.660047-31.702063-34.30108 0-62.104618 27.01364-62.104618 60.333719 0 20.392941 10.421549 38.428931 26.351145 49.343104a58.834613 58.834613 0 0 1-7.427583-28.657136z" fill="#8B5C29" opacity=".15" p-id="2401"></path><path d="M715.385829 705.624651c-34.177924 0-61.994202-27.795044-61.994202-61.994202 0-16.54113 6.450828-32.118246 18.154899-43.809576a61.505825 61.505825 0 0 1 43.818069-18.159146c16.545377 0 32.126739 6.450828 43.801083 18.159146a61.412396 61.412396 0 0 1 18.171886 43.809576 14.634335 14.634335 0 0 0 14.642828 14.647075 14.647075 14.647075 0 0 0 14.638582-14.647075 90.642845 90.642845 0 0 0-26.729108-64.538011 90.613118 90.613118 0 0 0-64.533764-26.733355c-24.389143 0-47.313153 9.483015-64.542259 26.733355a90.685313 90.685313 0 0 0-26.7376 64.538011c0 50.341093 40.938766 91.262872 91.279859 91.262872a14.630088 14.630088 0 0 0 14.647075-14.630088 14.608854 14.608854 0 0 0-14.617348-14.638582z" fill="#6E6E96" p-id="2402"></path><path d="M759.13595 767.742009a16.995533 16.995533 0 0 1-3.983461-33.502689c39.014984-9.444794 57.713468-54.477437 57.896079-54.936087a17.01252 17.01252 0 0 1 22.087399-9.393833 16.970053 16.970053 0 0 1 9.453288 22.027944c-1.002235 2.514082-25.183287 61.705422-81.44861 75.320535a16.846897 16.846897 0 0 1-4.004695 0.48413z" fill="#FFFFFF" opacity=".73" p-id="2403"></path><path d="M651.616481 842.191959c2.734913 1.392937 68.050082 34.046275 147.566416 0.365221l-9.313145-22.019451c-69.366578 29.374839-126.770032 0.654001-127.343345 0.365222l-10.909926 21.289008z" fill="#6E6E96" opacity=".2" p-id="2404"></path><path d="M722.843139 846.956823c-113.320543 0-205.509209-92.184419-205.509208-205.492222 0-113.316297 92.188666-205.504962 205.509208-205.504962 113.32479 0 205.517702 92.188666 205.517703 205.504962 0 113.307803-92.192912 205.492222-205.517703 205.492222z m0-377.023104c-94.583838 0-171.535129 76.947044-171.535129 171.530882 0 94.575345 76.947044 171.518142 171.535129 171.518142 94.588085 0 171.543623-76.942797 171.543623-171.518142 0-94.583838-76.951291-171.530882-171.543623-171.530882z" fill="#6E6E96" p-id="2405"></path></svg>