<?xml version="1.0" standalone="no"?><!DOCTYPE svg PUBLIC "-//W3C//DTD SVG 1.1//EN" "http://www.w3.org/Graphics/SVG/1.1/DTD/svg11.dtd"><svg t="1639301804262" class="icon" viewBox="0 0 1218 1024" version="1.1" xmlns="http://www.w3.org/2000/svg" p-id="1007" xmlns:xlink="http://www.w3.org/1999/xlink" width="237.890625" height="200"><defs><style type="text/css"></style></defs><path d="M1169.592417 975.469194V145.592417c0-53.383886-43.677725-97.061611-97.061611-97.061611H145.592417c-53.383886 0-97.061611 43.677725-97.061611 97.061611v829.876777h1121.061611z" fill="#7CDEDC" p-id="1008"></path><path d="M1193.85782 975.469194V145.592417c0-66.899716-54.427299-121.327014-121.327014-121.327014H145.592417C78.692701 24.265403 24.265403 78.692701 24.265403 145.592417v854.14218h1169.592417v-24.265403z m-1121.061611 0V145.592417c0-40.139829 32.656379-72.796209 72.796208-72.796208h926.938389c40.139829 0 72.796209 32.656379 72.796208 72.796208v829.876777l24.265403-24.265403H48.530806l24.265403 24.265403z" fill="#6E6E96" p-id="1009"></path><path d="M48.530806 237.800948h1145.327014v48.530806H48.530806z" fill="#6E6E96" p-id="1010"></path><path d="M1072.530806 48.530806H145.592417c-53.383886 0-97.061611 43.677725-97.061611 97.061611v111.620853h1121.061611V145.592417c0-53.383886-43.677725-97.061611-97.061611-97.061611z" fill="#FFF491" p-id="1011"></path><path d="M1072.530806 24.265403H145.592417C78.692701 24.265403 24.265403 78.692701 24.265403 145.592417v135.886256h1169.592417V145.592417c0-66.899716-54.427299-121.327014-121.327014-121.327014z m72.796208 121.327014v111.620853l24.265403-24.265403H48.530806l24.265403 24.265403V145.592417c0-40.139829 32.656379-72.796209 72.796208-72.796208h926.938389c40.139829 0 72.796209 32.656379 72.796208 72.796208zM374.725763 431.74946l-167.43128 167.436132L190.138844 616.341232l17.155639 17.15564 167.43128 167.43128 34.320986-34.31128-167.43128-167.43128v34.31128l167.43128-167.426427zM813.934408 466.070445l167.431279 167.426427v-34.31128l-167.431279 167.43128 34.311279 34.31128 167.43128-167.43128L1032.832607 616.341232l-17.15564-17.15564-167.43128-167.436132z" fill="#6E6E96" p-id="1012"></path><path d="M531.412322 618.767773m-41.251185 0a41.251185 41.251185 0 1 0 82.50237 0 41.251185 41.251185 0 1 0-82.50237 0Z" fill="#6E6E96" p-id="1013"></path><path d="M706.123223 618.767773m-41.251185 0a41.251185 41.251185 0 1 0 82.50237 0 41.251185 41.251185 0 1 0-82.50237 0Z" fill="#6E6E96" p-id="1014"></path><path d="M72.796209 281.478673h1072.530805v53.383886H72.796209z" fill="#6E6E96" opacity=".15" p-id="1015"></path><path d="M72.796209 189.270142h1072.530805v43.677725H72.796209z" fill="#6E6E96" opacity=".15" p-id="1016"></path></svg>