<?xml version="1.0" standalone="no"?><!DOCTYPE svg PUBLIC "-//W3C//DTD SVG 1.1//EN" "http://www.w3.org/Graphics/SVG/1.1/DTD/svg11.dtd"><svg t="1639301870102" class="icon" viewBox="0 0 1103 1024" version="1.1" xmlns="http://www.w3.org/2000/svg" p-id="1576" xmlns:xlink="http://www.w3.org/1999/xlink" width="215.4296875" height="200"><defs><style type="text/css"></style></defs><path d="M1059.158798 980.051502V131.845494c0-48.343348-39.553648-87.896996-87.896995-87.896996H131.845494c-48.343348 0-87.896996 39.553648-87.896996 87.896996v848.206008h1015.2103z" fill="#F0F0FF" p-id="1577"></path><path d="M1081.133047 980.051502V131.845494c0-60.583004-49.28824-109.871245-109.871244-109.871245H131.845494C71.262489 21.974249 21.974249 71.262489 21.974249 131.845494v870.180257h1059.158798v-21.974249z m-1015.2103 0V131.845494c0-36.349803 29.572944-65.922747 65.922747-65.922747h839.416309c36.349803 0 65.922747 29.572944 65.922746 65.922747v848.206008l21.974249-21.974249H43.948498l21.974249 21.974249z" fill="#6E6E96" p-id="1578"></path><path d="M43.948498 215.347639h1037.184549v43.948498H43.948498z" fill="#6E6E96" p-id="1579"></path><path d="M971.261803 43.948498H131.845494c-48.343348 0-87.896996 39.553648-87.896996 87.896996v105.476394h1015.2103V131.845494c0-48.343348-39.553648-87.896996-87.896995-87.896996z" fill="#A3E9FF" p-id="1580"></path><path d="M971.261803 21.974249H131.845494C71.262489 21.974249 21.974249 71.262489 21.974249 131.845494v127.450643h1059.158798V131.845494c0-60.583004-49.28824-109.871245-109.871244-109.871245z m65.922746 109.871245v105.476394l21.974249-21.974249H43.948498l21.974249 21.974249V131.845494c0-36.349803 29.572944-65.922747 65.922747-65.922747h839.416309c36.349803 0 65.922747 29.572944 65.922746 65.922747z" fill="#6E6E96" p-id="1581"></path><path d="M268.085837 43.948498h43.948498v193.37339H268.085837z" fill="#6E6E96" p-id="1582"></path><path d="M206.55794 421.905579h263.690987v408.72103H206.55794zM597.699571 421.905579h303.244635v162.609442h-303.244635zM597.699571 668.017167h303.244635v162.609442h-303.244635z" fill="#6E6E96" opacity=".28" p-id="1583"></path><path d="M65.922747 259.296137h971.261802v52.738198H65.922747zM65.922747 175.793991h971.261802v39.553648H65.922747zM65.922747 312.034335h48.343347v646.042918H65.922747zM997.630901 312.034335h61.527897v646.042918h-61.527897z" fill="#6E6E96" opacity=".15" p-id="1584"></path><path d="M114.266094 918.523605h883.364807v39.553648H114.266094z" fill="#6E6E96" opacity=".15" p-id="1585"></path></svg>