<?xml version="1.0" standalone="no"?><!DOCTYPE svg PUBLIC "-//W3C//DTD SVG 1.1//EN" "http://www.w3.org/Graphics/SVG/1.1/DTD/svg11.dtd"><svg t="1639302603099" class="icon" viewBox="0 0 1024 1024" version="1.1" xmlns="http://www.w3.org/2000/svg" p-id="1582" xmlns:xlink="http://www.w3.org/1999/xlink" width="200" height="200"><defs><style type="text/css"></style></defs><path d="M836.948506 387.898396c0-174.238415-141.248187-315.486601-315.486602-315.486601S205.975303 213.664369 205.975303 387.898396c0 102.971626 49.349345 194.401059 125.669956 251.980413h-0.021935l0.052644 0.021935a314.824164 314.824164 0 0 0 27.510866 18.565777c36.052353 31.077496 94.671425 107.924547 94.671425 279.118385h99.725247s23.128255-195.572388 141.980816-286.615765a312.156869 312.156869 0 0 0 15.534361-10.958722c0.070192-0.039483 0.135997-0.092127 0.206189-0.13161h-0.030709c76.324998-57.579354 125.674342-149.0044 125.674343-251.980413z" fill="#FFD75E" p-id="1583"></path><path d="M507.546345 98.071349S241.926755 171.71589 298.668192 430.838337s155.738442 152.825475 155.738442 335.605375v208.180621l-75.294053-76.443446v-136.124173l27.037071-48.256982s-177.068028-98.549532-177.068028-207.206707S161.469205 122.844729 507.546345 98.071349z" fill="#FFFFFF" opacity=".25" p-id="1584"></path><path d="M858.883497 387.898396c0-186.056988-151.368992-337.421593-337.421593-337.421593C335.404916 50.476803 184.040311 201.845795 184.040311 387.898396c0 106.827797 48.985224 205.052691 134.395695 269.493311a21.930605 21.930605 0 0 1 13.209253-39.443503 21.95254 21.95254 0 0 0-21.553323 17.789279 21.934992 21.934992 0 0 0 13.380345 24.514547 21.627902 21.627902 0 0 1-5.018727-2.838388 338.641179 338.641179 0 0 0 29.419212 19.855554 22.04028 22.04028 0 0 1-3.013868-2.180338c32.516432 28.028533 87.059983 99.400609 87.059982 262.504822a21.934992 21.934992 0 0 0 21.934992 21.934992h99.725247a21.939379 21.939379 0 0 0 21.785834-19.359824c0.21935-1.851313 23.602051-187.566116 133.535844-271.774549a29.305149 29.305149 0 0 1-1.219586 0.868625 329.156488 329.156488 0 0 0 16.626724-11.73522 21.522614 21.522614 0 0 1-1.381904 0.960752 21.934992 21.934992 0 0 0-11.629933-40.535865c9.42766 0 17.789278 6.027736 20.781211 14.968439s-0.074579 18.798288-7.598281 24.475064c85.419245-64.440619 134.404469-162.6699 134.404469-269.497698z m-147.604947 273.919792h0.030709a21.948153 21.948153 0 0 1-21.088301-15.885321 21.943766 21.943766 0 0 1 8.730127-24.176748 21.917444 21.917444 0 0 0-1.066041 0.750177 288.348629 288.348629 0 0 1-14.441999 10.182223 24.435581 24.435581 0 0 0-1.219585 0.868626c-124.770621 95.579534-149.434326 293.095362-150.425788 301.45698a21.939379 21.939379 0 0 1 21.785834-19.359824H453.858259a21.934992 21.934992 0 0 1 21.934992 21.934992c0-180.595175-64.085272-262.803138-102.282867-295.731948a21.320812 21.320812 0 0 0-3.013868-2.180338 295.819688 295.819688 0 0 1-25.598135-17.275999 21.90867 21.90867 0 0 1 8.295814 21.64545 21.956927 21.956927 0 0 1-21.566484 17.776117c9.42766 0 17.8156-6.027736 20.81192-14.968438s-0.048257-18.798288-7.576346-24.475064C270.534371 566.295685 227.910295 480.836957 227.910295 387.898396c0-161.862692 131.688917-293.551609 293.551609-293.551609s293.551609 131.688917 293.55161 293.551609c0 92.938561-42.628463 178.397289-116.948603 234.471903a21.934992 21.934992 0 0 0 13.213639 39.447889z" fill="#6E6E96" p-id="1585"></path><path d="M482.540455 1002.065008h59.408732c29.182313 0 52.845782-23.659082 52.845782-52.841395s-23.663469-52.845782-52.845782-52.845783H482.540455c-29.1867 0-52.841395 23.663469-52.841396 52.845783s23.654695 52.841395 52.841396 52.841395z" fill="#EEEEFC" p-id="1586"></path><path d="M482.540455 1024h59.408732c41.233398 0 74.780774-33.54299 74.780774-74.776387 0-41.233398-33.54299-74.780774-74.780774-74.780775H482.540455c-41.233398 0-74.776387 33.54299-74.776388 74.780775-0.004387 41.233398 33.54299 74.776387 74.776388 74.776387z m0-43.869984c-17.043489 0-30.906404-13.862915-30.906404-30.906403s13.867302-30.910791 30.906404-30.910791h59.408732c17.043489 0 30.910791 13.867302 30.91079 30.910791s-13.867302 30.906404-30.91079 30.906403H482.540455z" fill="#6E6E96" p-id="1587"></path><path d="M636.844349 821.180291c16.130993-9.045991 27.045845-26.282507 27.045845-46.094192 0-29.182313-23.663469-52.841395-52.841396-52.841395H421.960394c-29.182313 0-52.841395 23.659082-52.841395 52.841395 0 19.811685 10.914852 37.048201 27.045845 46.094192-16.130993 9.050378-27.045845 26.286894-27.045845 46.098579 0 29.182313 23.659082 52.841395 52.841395 52.841395h189.088404c29.177926 0 52.841395-23.659082 52.841396-52.841395 0-19.811685-10.914852-37.048201-27.045845-46.098579z" fill="#EEEEFC" p-id="1588"></path><path d="M490.094866 96.027007s223.043771 12.56875 223.043771 223.043772-192.931415 175.383421-192.931414 469.312312v213.488889s90.837188-15.946739 90.837188-59.816723 57.952249-28.682195 52.841396-74.776387 5.110853-34.679222 0-92.192771-32.40237-70.420098 26.330764-129.153232 194.111517-212.896644 93.210554-423.472566-273.823278-106.928698-293.332259-126.433294z" fill="#6E6E96" opacity=".1" p-id="1589"></path><path d="M647.57056 840.311991a74.886062 74.886062 0 0 0 38.254625-65.225892c0-41.229011-33.54299-74.776387-74.776387-74.776387H421.960394c-41.229011 0-74.776387 33.54299-74.776387 74.776387a74.881675 74.881675 0 0 0 38.250239 65.225892 21.934992 21.934992 0 0 1-0.004387-38.259013 74.90361 74.90361 0 0 0-38.245852 65.225892c0 41.229011 33.54299 74.776387 74.776387 74.776387h189.088404c41.229011 0 74.776387-33.54299 74.776387-74.776387a74.890449 74.890449 0 0 0-38.250238-65.225892 21.934992 21.934992 0 0 1-0.004387 38.259013z m-5.615358 26.966879a30.937113 30.937113 0 0 1-30.906404 30.906404H421.960394a30.937113 30.937113 0 0 1-30.906403-30.906404 30.98537 30.98537 0 0 1 15.841451-26.966879 21.934992 21.934992 0 0 0-0.004387-38.259013 30.963435 30.963435 0 0 1-15.837064-26.962492 30.937113 30.937113 0 0 1 30.906403-30.906403h189.088404a30.937113 30.937113 0 0 1 30.906404 30.906403 30.976596 30.976596 0 0 1-15.837064 26.962492 21.939379 21.939379 0 0 0-0.004387 38.259013 30.980983 30.980983 0 0 1 15.841451 26.966879z" fill="#6E6E96" p-id="1590"></path><path d="M467.567629 334.012895c-18.877254 52.433405-25.001504 83.287164-64.89248 68.924132-39.895363-14.363033-56.930078-68.511754-38.048437-120.940771 18.877254-52.433405 66.524443-83.287164 106.41542-68.924132 39.895363 14.363033 15.407138 68.511754-3.474503 120.940771z" fill="#FFFFFF" opacity=".4" p-id="1591"></path><path d="M636.853123 799.240912H520.21161a21.934992 21.934992 0 1 0 0 43.869984h116.641513c12.11689 0 21.934992-9.818102 21.934991-21.934992s-9.818102-21.934992-21.934991-21.934992z" fill="#6E6E96" p-id="1592"></path></svg>