<?xml version="1.0" standalone="no"?><!DOCTYPE svg PUBLIC "-//W3C//DTD SVG 1.1//EN" "http://www.w3.org/Graphics/SVG/1.1/DTD/svg11.dtd"><svg t="1639301880760" class="icon" viewBox="0 0 1024 1024" version="1.1" xmlns="http://www.w3.org/2000/svg" p-id="1720" xmlns:xlink="http://www.w3.org/1999/xlink" width="200" height="200"><defs><style type="text/css"></style></defs><path d="M512 512m-470.373984 0a470.373984 470.373984 0 1 0 940.747968 0 470.373984 470.373984 0 1 0-940.747968 0Z" fill="#EB8A98" p-id="1721"></path><path d="M499.512195 491.186992m-391.284553 0a391.284553 391.284553 0 1 0 782.569106 0 391.284553 391.284553 0 1 0-782.569106 0Z" fill="#FF96A5" p-id="1722"></path><path d="M512 62.439024c247.891252 0 449.560976 201.673886 449.560976 449.560976 0 247.891252-201.669724 449.560976-449.560976 449.560976-247.887089 0-449.560976-201.669724-449.560976-449.560976C62.439024 264.112911 264.112911 62.439024 512 62.439024zM20.813008 512c0 270.835512 220.347317 491.186992 491.186992 491.186992 270.835512 0 491.186992-220.35148 491.186992-491.186992C1003.186992 241.160325 782.835512 20.813008 512 20.813008 241.160325 20.813008 20.813008 241.160325 20.813008 512z" fill="#6E6E96" p-id="1723"></path><path d="M470.711154 299.803057v235.291057a34.899252 34.899252 0 0 0 69.802667 0V299.803057c0-19.277008-15.626407-34.899252-34.903414-34.899252s-34.899252 15.626407-34.899253 34.899252zM470.711154 651.942504v36.510179a34.903415 34.903415 0 0 0 69.802667 0v-36.510179a34.907577 34.907577 0 0 0-69.802667 0z" fill="#6E6E96" p-id="1724"></path></svg>