<?xml version="1.0" standalone="no"?><!DOCTYPE svg PUBLIC "-//W3C//DTD SVG 1.1//EN" "http://www.w3.org/Graphics/SVG/1.1/DTD/svg11.dtd"><svg t="1639302099308" class="icon" viewBox="0 0 1024 1024" version="1.1" xmlns="http://www.w3.org/2000/svg" p-id="3559" xmlns:xlink="http://www.w3.org/1999/xlink" width="200" height="200"><defs><style type="text/css"></style></defs><path d="M817.953301 320.520325v657.691057h-770.081301V37.463415h487.02439z" fill="#F0F0FF" p-id="3560"></path><path d="M797.140293 320.520325v657.691057a20.813008 20.813008 0 0 1 20.813008-20.813008h-770.081301a20.813008 20.813008 0 0 1 20.813008 20.813008V37.463415a20.813008 20.813008 0 0 1-20.813008 20.813008h487.02439a20.813008 20.813008 0 0 1-14.714797-6.094049l283.056911 283.056911A20.80052 20.80052 0 0 1 797.140293 320.520325z m-262.243903-303.869918h-487.02439a20.813008 20.813008 0 0 0-20.813008 20.813008v940.747967a20.813008 20.813008 0 0 0 20.813008 20.813008h770.081301a20.813008 20.813008 0 0 0 20.813008-20.813008V320.520325a20.78387 20.78387 0 0 0-6.098211-14.718959l-283.056911-283.056911A20.821333 20.821333 0 0 0 534.89639 16.650407z" fill="#6E6E96" p-id="3561"></path><path d="M534.89639 37.463415v283.05691h283.056911z" fill="#F0F0FF" p-id="3562"></path><path d="M514.083382 37.463415v283.05691a20.813008 20.813008 0 0 0 20.813008 20.813008h283.056911a20.808846 20.808846 0 0 0 14.714797-35.527805l-283.056911-283.05691a20.80052 20.80052 0 0 0-22.673691-4.508098A20.779707 20.779707 0 0 0 514.083382 37.463415z m303.869919 262.243902h-283.056911a20.813008 20.813008 0 0 1 20.813008 20.813008V37.463415a20.817171 20.817171 0 0 1-35.527805 14.718959l283.056911 283.056911A20.813008 20.813008 0 0 1 817.953301 299.707317z" fill="#6E6E96" p-id="3563"></path><path d="M758.294894 375.329301v543.914666H118.636228V957.398374h678.504065V375.329301z" fill="#FFFFFF" opacity=".4" p-id="3564"></path><path d="M762.544911 683.19948m-171.861334 0a171.861333 171.861333 0 1 0 343.722667 0 171.861333 171.861333 0 1 0-343.722667 0Z" fill="#FFE6A6" p-id="3565"></path><path d="M762.544911 513.419447c93.616911 0 169.780033 76.163122 169.780032 169.780033s-76.163122 169.780033-169.780032 169.780032-169.780033-76.163122-169.780033-169.780032 76.163122-169.780033 169.780033-169.780033z m-173.942635 169.780033c0 95.914667 78.03213 173.942634 173.942635 173.942634s173.942634-78.027967 173.942634-173.942634c0-95.910504-78.03213-173.942634-173.942634-173.942634s-173.942634 78.03213-173.942635 173.942634z" fill="#6E6E96" p-id="3566"></path><path d="M762.665626 522.098472c89.325268 0 162.00013 72.674862 162.00013 162.00013 0 43.274407-16.854374 83.955512-47.445333 114.558959-30.603447 30.599285-71.28039 47.441171-114.554797 47.441171s-83.959675-16.850211-114.558959-47.441171c-30.599285-30.599285-47.441171-71.28039-47.441171-114.558959 0-43.274407 16.850211-83.95135 47.441171-114.554797 30.599285-30.590959 71.288715-47.445333 114.558959-47.445333z m-203.626146 162.00013c0 54.388553 21.179317 105.534439 59.633431 143.992715 38.458276 38.454114 89.595837 59.633431 143.992715 59.633431 54.388553 0 105.526114-21.179317 143.98439-59.633431 38.454114-38.458276 59.641756-89.595837 59.641756-143.992715 0-112.282016-91.34413-203.626146-203.626146-203.626147-54.388553 0-105.534439 21.179317-143.992715 59.641756-38.454114 38.458276-59.633431 89.591675-59.633431 143.984391z" fill="#6E6E96" p-id="3567"></path><path d="M547.355057 586.260813l49.793041 17.545366-13.836488 39.261658-49.793041-17.549528zM527.31213 706.942959l51.878504-9.715512 7.659187 40.910049-51.874341 9.715512zM570.261854 821.635122l40.073366-34.353951 27.086048 31.594146-40.073366 34.353951zM664.786211 899.413333l17.524553-49.797203 39.274147 13.819837-17.524553 49.801366zM785.497496 919.447935l-9.71135-51.878504 40.918374-7.659187 9.71135 51.878504zM900.189659 876.519024l-34.362277-40.073365 31.606634-27.098537 34.358114 40.077528zM978.005333 781.957203l-49.797203-17.53704 13.828163-39.265822 49.797203 17.537041zM998.073236 661.170992l-51.882667 9.711349-7.659187-40.918374 51.882667-9.711349zM955.069398 546.570407l-40.069203 34.349788-27.086049-31.594146 40.073366-34.349789zM860.486764 468.733919l-17.524553 49.79304-39.274146-13.819837 17.524553-49.797203zM739.821268 448.724293l9.71135 51.878504-40.918374 7.659187-9.71135-51.878504zM625.070829 491.686504l34.362277 40.073366-31.598309 27.094374-34.362277-40.077529z" fill="#6E6E96" p-id="3568"></path><path d="M769.034407 686.812618m-49.847155 0a49.847154 49.847154 0 1 0 99.694309 0 49.847154 49.847154 0 1 0-99.694309 0Z" fill="#F0F0FF" p-id="3569"></path><path d="M769.034407 657.778472c16.001041 0 29.017496 13.02478 29.017495 29.034146s-13.016455 29.034146-29.017495 29.034146c-16.013528 0-29.038309-13.02478-29.038309-29.034146s13.02478-29.034146 29.038309-29.034146z m-70.664326 29.034146c0 38.957789 31.694049 70.660163 70.664326 70.660162 38.949463 0 70.643512-31.698211 70.643512-70.660162 0-38.961951-31.685724-70.660163-70.643512-70.660163-38.970276 0-70.664325 31.702374-70.664326 70.660163z" fill="#6E6E96" p-id="3570"></path><path d="M762.819642 511.034276c-94.923967 0-171.861333 76.949854-171.861333 171.861334 0 94.919805 76.937366 171.865496 171.861333 171.865496 94.919805 0 171.861333-76.945691 171.861334-171.865496 0.004163-94.91148-76.941528-171.861333-171.861334-171.861334z m-1.523512 304.232065c-73.948618 0-133.885919-59.941463-133.885919-133.902569 0-73.944455 59.937301-133.885919 133.885919-133.885918 73.961106 0 133.890081 59.941463 133.890081 133.885918 0 73.961106-59.928976 133.902569-133.890081 133.902569z" fill="#6E6E96" opacity=".15" p-id="3571"></path><path d="M68.685008 97.821138h49.95122V957.398374h-49.95122z" fill="#FFFFFF" opacity=".4" p-id="3572"></path><path d="M68.685008 58.276423h445.398374v39.544715h-445.398374zM514.083382 325.378081V97.821138h-38.849561v277.508163h321.906472v-49.95122z" fill="#6E6E96" opacity=".15" p-id="3573"></path></svg>