<?xml version="1.0" standalone="no"?><!DOCTYPE svg PUBLIC "-//W3C//DTD SVG 1.1//EN" "http://www.w3.org/Graphics/SVG/1.1/DTD/svg11.dtd"><svg t="1639302381149" class="icon" viewBox="0 0 1024 1024" version="1.1" xmlns="http://www.w3.org/2000/svg" p-id="3459" xmlns:xlink="http://www.w3.org/1999/xlink" width="200" height="200"><defs><style type="text/css"></style></defs><path d="M634.355962 367.578708v-114.424094l-73.984393-9.646925a226.939671 226.939671 0 0 0-16.881032-40.696199l45.500097-59.159691-80.901138-80.892444-59.146649 45.487055a226.426675 226.426675 0 0 0-40.691851-16.889726L398.599723 17.38968h-114.424094L274.520009 91.356684a227.674385 227.674385 0 0 0-40.691851 16.867989L174.677162 62.737618 93.762981 143.647451l45.500097 59.146649a226.904892 226.904892 0 0 0-16.872337 40.709241L48.410695 253.154614v114.424094l73.980046 9.633883a227.122263 227.122263 0 0 0 16.872337 40.717935l-45.500097 59.146649 80.901138 80.914181 59.155344-45.504445a227.956967 227.956967 0 0 0 40.691851 16.872337l9.65562 73.984393h114.419747l9.651272-73.984393a228.278676 228.278676 0 0 0 40.691851-16.872337l59.146649 45.504445 80.896792-80.914181-45.495751-59.150996a227.774376 227.774376 0 0 0 16.876685-40.696199l74.001783-9.651272zM341.378981 429.472926c-65.780812 0-119.106266-53.329801-119.106265-119.110613 0-65.772117 53.329801-119.097571 119.106265-119.09757S460.485247 244.590196 460.485247 310.362313c0.004347 65.780812-53.321106 119.110613-119.106266 119.110613z" fill="#E6E6F5" p-id="3460"></path><path d="M398.591028 620.733321h-114.424094a17.385333 17.385333 0 0 1-17.241868-15.137716l-8.242708-63.15497a246.237868 246.237868 0 0 1-22.915251-9.507808l-50.49963 38.848545a17.38968 17.38968 0 0 1-22.902209-1.491165l-80.901138-80.914181a17.38968 17.38968 0 0 1-1.486818-22.897861l38.83985-50.490936a247.746423 247.746423 0 0 1-9.512155-22.936987L46.163079 384.820576A17.385333 17.385333 0 0 1 31.021015 367.578708v-114.424094a17.385333 17.385333 0 0 1 15.137717-17.241868l63.150623-8.238361a244.325004 244.325004 0 0 1 9.512155-22.93264l-38.839851-50.486589a17.38968 17.38968 0 0 1 1.486818-22.902208l80.909833-80.909834a17.402722 17.402722 0 0 1 22.897862-1.486817l50.495283 38.831155a245.794432 245.794432 0 0 1 22.919598-9.50346l8.242708-63.137581A17.38968 17.38968 0 0 1 284.175629 0H398.595376a17.385333 17.385333 0 0 1 17.241867 15.137716l8.238361 63.141928a244.759746 244.759746 0 0 1 22.928293 9.512155l50.482241-38.82246a17.38968 17.38968 0 0 1 22.897861 1.486817l80.901139 80.892444a17.38968 17.38968 0 0 1 1.491165 22.897861l-38.83985 50.499631a247.216038 247.216038 0 0 1 9.512155 22.923946l63.15497 8.238361a17.38968 17.38968 0 0 1 15.137717 17.241867v114.424094a17.385333 17.385333 0 0 1-15.137717 17.241868l-63.168012 8.242708a245.550976 245.550976 0 0 1-9.512155 22.919599l38.83985 50.495283a17.38968 17.38968 0 0 1-1.486818 22.897861l-80.896791 80.914181a17.380985 17.380985 0 0 1-22.902208 1.486817l-50.490936-38.844197a247.929015 247.929015 0 0 1-22.915251 9.507807l-8.238361 63.154971a17.38968 17.38968 0 0 1-17.241868 15.142063z m-99.155955-34.779359h83.883469l7.677544-58.84233a17.37229 17.37229 0 0 1 12.168428-14.381265 211.154189 211.154189 0 0 0 37.592141-15.589849 17.38968 17.38968 0 0 1 18.780854 1.565072l47.043432 36.192271 59.307504-59.316198-36.187924-47.052127a17.37229 17.37229 0 0 1-1.560724-18.772159 210.932471 210.932471 0 0 0 15.589848-37.587794 17.380985 17.380985 0 0 1 14.385613-12.177123l58.855371-7.677544V268.422753l-58.842329-7.673197a17.38968 17.38968 0 0 1-14.385613-12.177123 210.502076 210.502076 0 0 0-15.589848-37.583446 17.38968 17.38968 0 0 1 1.556376-18.780854l36.192272-47.056474-59.311851-59.303156-47.047779 36.183576a17.376638 17.376638 0 0 1-18.798244 1.547682 209.532601 209.532601 0 0 0-37.566057-15.589848 17.38968 17.38968 0 0 1-12.172776-14.385613L383.327237 34.77936H299.443768l-7.677544 58.829287a17.38968 17.38968 0 0 1-12.172776 14.385613 210.941165 210.941165 0 0 0-37.583446 15.576806 17.38968 17.38968 0 0 1-18.780854-1.560724l-47.052126-36.179229-59.320546 59.316198 36.187924 47.043432a17.38968 17.38968 0 0 1 1.565071 18.780854 209.967343 209.967343 0 0 0-15.581153 37.587794 17.38968 17.38968 0 0 1-14.389961 12.185818L65.800375 268.422753v83.883468l58.833635 7.664502a17.385333 17.385333 0 0 1 14.394308 12.185818 210.180367 210.180367 0 0 0 15.581153 37.596488 17.380985 17.380985 0 0 1-1.565071 18.776507l-36.192272 47.047779 59.311851 59.316199 47.052127-36.192272a17.38968 17.38968 0 0 1 18.780854-1.565071 210.84987 210.84987 0 0 0 37.587793 15.585501 17.38968 17.38968 0 0 1 12.168429 14.385612l7.681891 58.846678z m41.943908-139.091356c-75.262535 0-136.495946-61.233411-136.495945-136.500293 0-75.258187 61.233411-136.487251 136.495945-136.48725 75.262535 0 136.491598 61.229063 136.491598 136.48725 0 36.457464-14.194326 70.736871-39.974526 96.517072-25.775853 25.784548-60.05526 39.983222-96.517072 39.983221z m0-238.208183c-56.086065 0-101.716586 45.626173-101.716585 101.70789 0 56.090413 45.63052 101.720933 101.716585 101.720933 27.171375 0 52.712467-10.58162 71.923717-29.792869a101.034041 101.034041 0 0 0 29.788521-71.923716c0.004347-56.086065-45.626173-101.712238-101.712238-101.712238z" fill="#6E6E96" p-id="3461"></path><path d="M975.589305 823.223102v-89.009076l-57.542451-7.4993a175.37927 175.37927 0 0 0-13.129209-31.653565l35.387999-46.021788-62.928904-62.92021-46.004399 35.387999a176.722623 176.722623 0 0 0-31.657912-13.133556l-7.507994-57.529408h-89.00473l-7.507994 57.529408a176.122679 176.122679 0 0 0-31.653565 13.124861l-46.008746-35.387998-62.946294 62.941946 35.401041 46.004399a177.405168 177.405168 0 0 0-13.133556 31.662259l-57.533756 7.507995v89.004729l57.533756 7.4993a176.400914 176.400914 0 0 0 13.133556 31.670954l-35.401041 46.004399 62.941947 62.937599 46.013093-35.401041a177.696445 177.696445 0 0 0 31.653565 13.133556l7.507994 57.538103h89.00473l7.507994-57.538103a176.5922 176.5922 0 0 0 31.657912-13.133556l46.004399 35.401041 62.928904-62.937599-35.387999-46.013093a177.383431 177.383431 0 0 0 13.129209-31.653565l57.542451-7.51669z m-227.878714 48.143329c-51.169133 0-92.652215-41.478734-92.652215-92.652214 0-51.164786 41.483082-92.64352 92.652215-92.64352 51.173481 0 92.639173 41.478734 92.639173 92.64352 0.004347 51.173481-41.470039 92.652215-92.639173 92.652214z" fill="#E6E6F5" p-id="3462"></path><path d="M792.210782 1024h-89.00473a17.394027 17.394027 0 0 1-17.246215-15.137716l-6.09943-46.795629a195.190463 195.190463 0 0 1-13.811753-5.725552l-37.409549 28.77992a17.38968 17.38968 0 0 1-22.902209-1.486818l-62.941946-62.937599a17.38968 17.38968 0 0 1-1.486818-22.902208l28.77992-37.405202a196.094726 196.094726 0 0 1-5.734247-13.824796l-46.778239-6.095082a17.38968 17.38968 0 0 1-15.142064-17.246216v-89.004729a17.394027 17.394027 0 0 1 15.137717-17.246215l46.786934-6.09943a195.942567 195.942567 0 0 1 5.729899-13.820449l-28.77992-37.405201a17.38968 17.38968 0 0 1 1.486818-22.902209l62.946294-62.941946a17.398375 17.398375 0 0 1 22.897861-1.491165l37.405201 28.771225a196.146895 196.146895 0 0 1 13.816101-5.725552l6.09943-46.778239a17.394027 17.394027 0 0 1 17.246215-15.137717h89.00473a17.394027 17.394027 0 0 1 17.246215 15.137717l6.09943 46.782586a194.242725 194.242725 0 0 1 13.820448 5.7299l37.405202-28.771226a17.380985 17.380985 0 0 1 22.897861 1.491165l62.928905 62.924557a17.38968 17.38968 0 0 1 1.491165 22.897862l-28.771226 37.418243a192.621138 192.621138 0 0 1 5.7299 13.816101l46.786934 6.090736a17.38968 17.38968 0 0 1 15.142063 17.246215v89.009077a17.394027 17.394027 0 0 1-15.137716 17.246215l-46.795629 6.103777a196.242538 196.242538 0 0 1-5.729899 13.811754l28.775573 37.413896a17.38968 17.38968 0 0 1-1.491165 22.897861l-62.924557 62.9376a17.394027 17.394027 0 0 1-22.906556 1.486817l-37.405202-28.77992c-4.534359 2.086762-9.146972 3.999626-13.816101 5.729899l-6.09943 46.791282a17.402722 17.402722 0 0 1-17.246215 15.146411z m-73.736591-34.77936h58.468452l5.525571-42.400387a17.394027 17.394027 0 0 1 12.172776-14.385613 159.415544 159.415544 0 0 0 28.549507-11.842372 17.367943 17.367943 0 0 1 18.785202 1.560724l33.901181 26.08452 41.335269-41.339617-26.080173-33.914223a17.380985 17.380985 0 0 1-1.565071-18.77216 160.167647 160.167647 0 0 0 11.84672-28.549507 17.38968 17.38968 0 0 1 14.385613-12.177123l42.404734-5.529919v-58.468451l-42.400387-5.525571a17.394027 17.394027 0 0 1-14.394308-12.194513 159.093835 159.093835 0 0 0-11.833677-28.523423 17.394027 17.394027 0 0 1 1.556376-18.785201l26.080173-33.918571-41.335269-41.335269-33.905529 26.080172a17.367943 17.367943 0 0 1-18.789549 1.552029 160.132868 160.132868 0 0 0-28.536465-11.838025 17.394027 17.394027 0 0 1-12.177123-14.385612l-5.525571-42.391693h-58.468452l-5.52557 42.391693a17.394027 17.394027 0 0 1-12.177124 14.385612 158.698219 158.698219 0 0 0-28.532117 11.833678c-6.034219 3.217091-13.381359 2.608452-18.789549-1.556377l-33.909876-26.080172-41.348312 41.348311 26.08452 33.901181a17.38968 17.38968 0 0 1 1.565071 18.785202 160.228511 160.228511 0 0 0-11.846719 28.549507 17.394027 17.394027 0 0 1-14.385613 12.177124l-42.39604 5.525571v58.464104l42.391693 5.52557a17.38968 17.38968 0 0 1 14.38996 12.181471 159.763337 159.763337 0 0 0 11.846719 28.553855 17.394027 17.394027 0 0 1-1.565071 18.785202l-26.08452 33.901181 41.343964 41.343964 33.909876-26.088868a17.367943 17.367943 0 0 1 18.789549-1.560723 160.832803 160.832803 0 0 0 28.549507 11.846719 17.38968 17.38968 0 0 1 12.164082 14.381265l5.52557 42.404735z m29.2364-100.464529c-60.676941 0-110.041895-49.360607-110.041895-110.041894 0-60.672593 49.360607-110.0332 110.041895-110.0332 60.668246 0 110.028853 49.360607 110.028852 110.0332 0.004347 29.392907-11.442409 57.025108-32.223076 77.810123-20.780668 20.785015-48.412869 32.231772-77.805776 32.231771z m0-185.291387c-41.500471 0-75.262535 33.757716-75.262535 75.25384 0 41.500471 33.762064 75.262535 75.262535 75.262535 20.10247 0 39.000705-7.829703 53.208073-22.041419a74.749539 74.749539 0 0 0 22.037072-53.216769c0.004347-41.500471-33.753369-75.258187-75.245145-75.258187z" fill="#6E6E96" p-id="3463"></path><path d="M230.328485 297.946082c0-65.772117 53.329801-119.097571 119.101918-119.097571 50.377903 0 93.413013 31.288382 110.824431 75.471211-4.495232-61.6725-55.920863-110.328825-118.749778-110.328824-65.776464 0-119.101918 53.325454-119.101918 119.09757 0 15.407256 2.956246 30.114578 8.277488 43.635055a122.279882 122.279882 0 0 1-0.352141-8.777441z m366.717919-166.710515l-19.637296-19.632948-33.783801 43.935026a228.591691 228.591691 0 0 1 12.77272 28.566897l40.648377-52.868975zM139.389154 155.524603l-26.897488-34.966299-10.677263 10.677263 30.297169 39.387625a227.51353 227.51353 0 0 1 7.277582-15.098589z m272.518022-110.263613l-5.251684-40.283194h-3.382292l5.099523 39.10939c1.19554 0.365183 2.356302 0.79123 3.534453 1.173804z m96.31709 465.452174L449.068922 465.213066a228.335193 228.335193 0 0 1-40.696199 16.876684l-9.646925 73.975699H287.679649l4.551749 34.866308h114.424094l9.646925-73.984393a227.561352 227.561352 0 0 0 40.696199-16.876684l59.146649 45.508792 80.896791-80.914181-18.60261-24.18035-70.21518 70.228223z m126.262119-271.00512v80.596819l-73.988741 9.646925a228.000442 228.000442 0 0 1-16.876685 40.700546l15.198581 19.763371a226.061492 226.061492 0 0 0 9.60345-25.610651l73.984394-9.646925V240.738382l-7.920999-1.030338z m-400.532152 225.505022l-59.155344 45.500098-61.26819-61.272538-11.711949 15.220318 80.905486 80.909833 59.150996-45.504445a227.557005 227.557005 0 0 0 37.166094 15.698534l-4.395242-33.68381a227.487446 227.487446 0 0 1-40.691851-16.86799zM134.554822 376.94305l4.829984-6.286369a227.543962 227.543962 0 0 1-16.876684-40.713588L56.466465 321.339549v33.822927l73.975698 9.63823c1.24771 4.099617 2.643231 8.13837 4.112659 12.142344z" fill="#6E6E96" opacity=".15" p-id="3464"></path><path d="M660.783928 769.554203c0-49.138888 39.839757-88.96995 88.978645-88.969951 37.631267 0 69.780438 23.367382 82.787919 56.38169-3.351861-46.073957-41.774359-82.418388-88.709105-82.418388-49.134541 0-88.974298 39.831062-88.974297 88.965603 0 11.511968 2.208489 22.502246 6.190726 32.596955-0.160855-2.169363-0.273887-4.34742-0.273888-6.555909z m273.957018-124.536193l-14.672542-14.663848-25.236773 32.827368a169.971079 169.971079 0 0 1 9.533892 21.337138l30.375423-39.500658z m-341.885455 18.146131l-20.093775-26.1193-7.977516 7.973169 22.632668 29.423338c1.695494-3.834424 3.477936-7.612332 5.438623-11.277207z m203.580983-82.374914l-3.92572-30.092842h-2.521504l3.80834 29.21901c0.886874 0.273887 1.75201 0.595597 2.638884 0.873832z m71.945454 347.710998l-44.187177-33.988129a170.075418 170.075418 0 0 1-30.401508 12.607517l-7.203675 55.260056h-82.957468l3.399682 26.036698h85.474625l7.208022-55.260055a171.492676 171.492676 0 0 0 30.39716-12.603171l44.187177 33.98813 60.433486-60.437833-13.898702-18.067877-52.451622 52.464664z m94.321624-202.455002v60.211767l-55.273098 7.199328a170.07107 170.07107 0 0 1-12.594476 30.405855l11.351114 14.763838a171.01446 171.01446 0 0 0 7.168895-19.128647l55.268751-7.199328v-85.474624l-5.921186-0.778189z m-299.211181 168.462525l-44.187177 33.98813-45.773985-45.773986-8.747009 11.368504 60.437833 60.44218 44.191524-33.992477a169.536337 169.536337 0 0 0 27.766971 11.729339l-3.282302-25.162867a169.058121 169.058121 0 0 1-30.405855-12.598823z m-74.249586-65.941666l3.612706-4.695214a170.201493 170.201493 0 0 1-12.607518-30.41455l-49.33887-6.429834v25.267205l55.260056 7.199327c0.930348 3.073626 1.973729 6.086388 3.073626 9.073066z" fill="#6E6E96" opacity=".15" p-id="3465"></path></svg>