<?xml version="1.0" standalone="no"?><!DOCTYPE svg PUBLIC "-//W3C//DTD SVG 1.1//EN" "http://www.w3.org/Graphics/SVG/1.1/DTD/svg11.dtd"><svg t="1639302758783" class="icon" viewBox="0 0 1052 1024" version="1.1" xmlns="http://www.w3.org/2000/svg" p-id="1088" xmlns:xlink="http://www.w3.org/1999/xlink" width="205.46875" height="200"><defs><style type="text/css"></style></defs><path d="M870.493707 294.832923c0-23.00357-18.821102-41.824672-41.824672-41.824672H90.561048c-23.00357 0-41.824672 18.821102-41.824672 41.824672v447.741088c0 22.999139 18.821102 41.820241 41.824672 41.820241h37.939054c23.00357 0 41.824672 18.821102 41.824672 41.824672v137.88407c0 23.00357 13.309461 28.519641 29.574119 12.250552l162.376313-162.380744c16.264658-16.269088 48.395222-29.57855 71.398792-29.57855h394.990606c23.00357 0 41.824672-18.821102 41.824672-41.820241V294.832923z" fill="#00CCC6" p-id="1089"></path><path d="M892.646605 294.832923c0-35.276275-28.701295-63.97757-63.97757-63.97757H90.561048C55.280342 230.855353 26.583478 259.556648 26.583478 294.832923v447.741088c0 35.276275 28.701295 63.97314 63.97757 63.97314h37.939054a19.693927 19.693927 0 0 1 19.671773 19.671773v137.88407c0 28.931685 15.639946 38.532751 22.365566 41.319586 6.72562 2.782404 24.571995 7.053483 45.027981-13.406935l162.376314-162.380744c12.082191-12.086621 38.647946-23.087751 55.736692-23.08775h394.990607c35.280706 0 63.97757-28.701295 63.97757-63.97314V294.832923z m-44.305797 447.741088a19.689496 19.689496 0 0 1-19.671773 19.667343H433.678428c-29.077894 0-66.507431 15.507029-87.065321 36.069349l-162.376313 162.380744c-2.622903 2.622903-4.058411 3.28306-4.071703 3.28749 0.757629-0.336724 3.730548-0.979158 7.328179 0.509517s5.245806 4.040689 5.538224 4.820471c-0.004431-0.013292-0.553822-1.497536-0.553822-5.205931v-137.88407c0-35.280706-28.701295-63.97757-63.97757-63.97757H90.561048a19.689496 19.689496 0 0 1-19.671774-19.667343V294.832923a19.693927 19.693927 0 0 1 19.671774-19.671774h738.107987a19.693927 19.693927 0 0 1 19.671773 19.671774v447.741088z" fill="#6E6E96" p-id="1090"></path><path d="M833.099614 237.058164H94.991628c-23.00357 0-41.824672 18.821102-41.824672 41.824672v447.741088c0 22.999139 18.821102 41.820241 41.824672 41.820242h37.939053c23.00357 0 41.824672 18.821102 41.824672 41.824672v137.884069c0 23.00357 13.309461 28.519641 29.574119 12.250553l162.376314-162.380745c16.264658-16.269088 48.395222-29.57855 71.398791-29.578549h394.990607c23.00357 0 41.824672-18.821102 41.824672-41.820242V278.882836c0.004431-23.00357-18.816672-41.824672-41.820242-41.824672z m-60.783122 478.985536H417.085907c-20.686376 0-49.582617 11.966996-64.212391 26.6012l-146.031905 146.036336c-14.625343 14.634205-26.59677 9.676386-26.59677-11.018851v-124.003064c0-20.686376-16.929245-37.611191-37.615621-37.61119H108.504896c-20.686376 0-37.615621-16.924814-37.615622-37.611191V275.759278c0-20.686376 16.924814-37.615621 37.615622-37.615622h663.816027c19.117951 0 34.992718 14.461412 37.296619 32.981235l-347.78278 4.036258s-8.861159 163.736502 119.625651 252.348095c89.683793 61.850892 174.50281 65.404217 228.476131 57.398159v93.525106c-0.004431 20.686376-16.929245 37.611191-37.620052 37.611191z" fill="#6E6E96" opacity=".15" p-id="1091"></path><path d="M70.889274 319.272h393.205084v-44.110851H90.561048S70.889274 266.105045 70.889274 319.272z" fill="#FFFFFF" opacity=".28" p-id="1092"></path><path d="M763.871807 295.439912m-229.805305 0a229.805305 229.805305 0 1 0 459.610611 0 229.805305 229.805305 0 1 0-459.610611 0Z" fill="#FF7D7D" p-id="1093"></path><path d="M772.524729 48.328763c-126.918385 0-229.805305 102.886921-229.805305 229.805305 0 126.922815 102.886921 229.805305 229.805305 229.805306 0.363308 0 0.717754-0.026583 1.081062-0.026584-106.107952-0.589267-191.946002-86.75518-191.946002-193.004911 0-106.604177 86.422887-193.022633 193.027063-193.022633s193.022633 86.418456 193.022634 193.022633c0 99.484236-75.257826 181.356917-171.950797 191.861822 116.005867-11.647994 206.562485-109.563804 206.562485-228.635633 0.004431-126.918385-102.87806-229.805305-229.796445-229.805305z" fill="#FFFFFF" opacity=".12" p-id="1094"></path><path d="M763.871807 87.273558c114.783027 0 208.166354 93.383327 208.166355 208.166354s-93.383327 208.170785-208.166355 208.170785-208.170785-93.387758-208.170785-208.170785 93.387758-208.166354 208.170785-208.166354z m-251.439825 208.166354c0 138.641699 112.793697 251.435395 251.439825 251.435396 138.641699 0 251.435395-112.793697 251.435396-251.435396s-112.793697-251.435395-251.435396-251.435395c-138.646129 0-251.439826 112.793697-251.439825 251.435395z" fill="#6E6E96" p-id="1095"></path><path d="M857.361469 78.026938c63.047148 35.223108 105.700339 102.57678 105.700338 179.930271 0 113.781716-92.231377 206.008662-205.999801 206.008662-107.720683 0-196.062011-82.670186-205.184574-188.02494a233.340908 233.340908 0 0 0-0.828518 18.79895c0 126.918385 102.886921 229.805305 229.805305 229.805305s229.800875-102.886921 229.800875-229.805305c0.008861-100.086794-63.999723-185.184938-153.293625-216.712943z" fill="#6E6E96" opacity=".15" p-id="1096"></path><path d="M730.735502 175.131953l13.814548 151.251128h51.784615l13.810116-151.251128zM744.55005 363.577797h51.784615v59.298878h-51.784615z" fill="#FFFF00" p-id="1097"></path></svg>