<?xml version="1.0" standalone="no"?><!DOCTYPE svg PUBLIC "-//W3C//DTD SVG 1.1//EN" "http://www.w3.org/Graphics/SVG/1.1/DTD/svg11.dtd"><svg t="1639302813854" class="icon" viewBox="0 0 1106 1024" version="1.1" xmlns="http://www.w3.org/2000/svg" p-id="1235" xmlns:xlink="http://www.w3.org/1999/xlink" width="216.015625" height="200"><defs><style type="text/css"></style></defs><path d="M914.399605 801.86058c-68.379473-19.509101-127.402387 5.241475-205.403746-5.43171-10.367808-1.421756-20.73061-3.944873-31.078393-7.088757-17.446553-10.277697-36.47506-31.468875-43.483717-75.533311-3.018729-18.95842-1.531892-29.711704 20.720597-45.200839 40.485013-17.131163 77.75105-45.426117 99.212562-90.441727 5.056246-10.598092 13.446611-22.122329 16.585489-34.63779 5.071265-20.234997-2.568173-29.501445 1.596973-41.331058 4.725838-13.441605 9.23641-24.064728 20.300078-35.118384 24.305025-24.310031 34.262326-17.957183 27.939515-58.091763-16.750693-106.32635-46.402323-143.66748-55.768894-183.561764-7.564345-32.174747 6.833442-25.521528-7.92479-85.981217-19.053538-78.061433-111.702992-106.596684-222.55994-94.04618-193.964614 21.957125-282.018392 175.481782-282.018392 325.627264 0 76.394374 12.981036 119.507634 35.969435 169.929923 22.387657 49.115675 55.853999 79.953771 92.369108 103.753172l4.050004 4.065022c-6.88851-4.715826 146.475949 122.651518-44.184584 157.694808-96.073685 10.197598-132.588794-6.498027-206.92062 14.703164-83.227816 30.367515-92.198898 84.754702-91.167624 158.315575h1012.560869c3.874787-105.770664-41.0407-149.154258-140.79393-177.624428z" fill="#B1B1C7" p-id="1236"></path><path d="M339.639574 576.176781S207.516356 286.178531 420.834879 164.072687s282.018392 39.824197 282.018392 39.824197S733.115656 1.977443 531.917105 32.960718s-361.146142 342.127648-192.277531 543.216063z" fill="#FFFFFF" opacity=".15" p-id="1237"></path><path d="M921.26809 777.795851c-41.881739-11.954768-80.434365-9.021144-117.725432-6.177631-28.840628 2.192709-58.657463 4.465516-91.157612 0.015018-8.165087-1.121385-17.061076-3.158902-27.1986-6.237705a24.730551 24.730551 0 0 1 5.426704 2.382943c-16.29513-9.596855-26.878204-29.075919-31.463869-57.891516-1.867307-11.749515-1.9424-12.205078 10.307734-20.73061a25.181108 25.181108 0 0 1-4.550622 2.508099c52.439782-22.187409 90.13635-56.7451 112.058432-102.726904 1.281583-2.683315 3.048766-5.827199 4.926085-9.156311 4.876024-8.655693 10.402851-18.462808 13.341482-30.152249 3.854762-15.384005 2.458037-26.788093 1.541904-34.332413-0.235291-1.90235-0.55068-4.510572-0.480593-5.321574-0.010012 0.06508-0.045056 0.300371-0.130161 0.545675 4.345368-12.350257 7.304023-18.653043 14.382768-25.726782 4.961129-4.961129 9.311503-8.490489 13.156252-11.609342 20.345133-16.500384 27.874435-29.611581 21.816952-68.084108-11.539255-73.235472-29.236117-115.752996-42.157079-146.801351-6.292774-15.123683-11.263915-27.063433-13.972261-38.592675-2.202721-9.38159-1.832263-12.971024-1.166441-19.494082 1.531892-14.968491 2.077567-30.317453-6.803404-66.702401-21.00595-86.071328-114.351264-128.308506-249.693459-112.984576-210.164627 23.794394-304.235838 193.18365-304.235839 350.502994 0 80.674662 14.01231 127.207146 38.222218 180.317756 21.326346 46.782793 53.571179 83.112673 101.475358 114.336246a25.201132 25.201132 0 0 1-4.065022-3.299076l4.050003 4.065022a25.030922 25.030922 0 0 1 31.874377-38.327348c-10.743272-7.354085-25.546559-5.371636-33.77172 4.715826-0.595736 0.730903-14.372755 18.087344 3.69957 35.518878 30.888158 29.786797 46.897935 58.85771 41.771602 75.853706-4.855999 16.109901-32.024562 29.826847-74.552098 37.641501 0.625773-0.110136 1.251546-0.205254 1.882326-0.270334-38.797929 4.115084-67.928916 3.669533-93.635673 3.279051-37.99694-0.580717-70.812478-1.081336-117.510167 12.235114-0.580717 0.165204-1.151422 0.350433-1.717121 0.555687-101.149956 36.910598-108.629195 110.241187-107.617946 182.185062a25.040934 25.040934 0 0 0 25.030922 24.680489h1012.560869a25.030922 25.030922 0 0 0 25.015903-24.109784c4.050003-110.541558-41.991875-169.23907-158.936342-202.610295z m133.915433 176.658235H42.62766a25.030922 25.030922 0 0 1 25.030922 24.680489c-1.03628-73.73609 9.506744-110.6567 74.722308-134.446088a25.421404 25.421404 0 0 1-1.717121 0.555687c39.598919-11.293952 67.583489-10.868426 103.022269-10.327759 27.123507 0.410507 57.871492 0.881088 99.683144-3.559397 0.630779-0.06508 1.256552-0.155192 1.882325-0.270334 64.349494-11.824608 102.511638-36.194713 113.435132-72.429476 11.203841-37.180932-7.794629-80.864897-54.952886-126.341075l-0.9712-0.941163c7.739561 7.71453 10.302727 22.25249 1.196478 33.246071-8.255198 9.962307-22.512811 12.119972-33.185996 4.810943a25.030922 25.030922 0 0 0 31.874376-38.327348l-4.050003-4.065022a24.98086 24.98086 0 0 0-4.065022-3.299075c-40.139587-26.16232-65.8113-54.897818-83.257853-93.165092-21.867013-47.964253-33.711646-87.598215-33.711645-159.547097 0-125.174635 68.044058-279.049725 259.805951-300.75654 83.312921-9.431651 178.400387 5.341599 195.426421 75.107785 7.559338 30.96325 6.538077 40.93557 5.636963 49.736442-0.886095 8.660699-1.887332 18.477827 2.237765 36.039521 3.644502 15.519172 9.596855 29.82184 16.485365 46.377293 12.620591 30.312447 28.314979 68.034046 38.918078 135.352207 2.117616 13.436599 1.516874 17.081101 1.371694 17.676837 0.100124-0.395489 0.450557-1.101361 0.715884-1.431768-0.735909 0.911126-3.649508 3.269038-5.98239 5.166382-4.310325 3.499323-10.217622 8.285235-17.016021 15.083633-15.023559 15.013547-20.970906 29.621593-26.207375 44.509986-3.869781 11.003593-2.708346 20.52035-1.862301 27.468934 0.690853 5.646976 1.186466 9.72201-0.405501 16.08487-1.291596 5.151364-4.901055 11.55928-8.395371 17.75193-2.202721 3.914836-4.485541 7.964839-6.503033 12.195065-16.495378 34.592734-45.556278 60.895227-86.376706 78.166563a25.181108 25.181108 0 0 0-4.550622 2.508099c-31.649098 22.04223-35.378705 43.003124-31.13346 69.68108 8.765829 55.153134 35.01826 81.105193 55.49856 93.165092 1.707109 1.006243 3.52936 1.802226 5.426704 2.382944 12.695684 3.859768 24.124803 6.452972 34.948173 7.934802 37.78668 5.171388 70.301847 2.698333 101.750698 0.305377 35.904355-2.733377 66.912661-5.09129 100.188768 4.405443 96.068679 27.418872 125.8755 64.504686 122.6365 152.62855a25.015903 25.015903 0 0 1 25.005891-24.114791z" fill="#6E6E96" p-id="1238"></path><path d="M957.232519 821.51486c17.036046 25.286237 24.510279 58.276993 22.86825 102.90212H46.016847c-3.103834 18.267567-3.694564 38.327348-3.389187 60.074213h1012.560869c3.274045-89.220218-28.174806-134.045593-97.95601-162.976333z m-332.605886-53.751402c9.89222 3.008717 19.784441 5.416692 29.696686 6.778373 0.615761 0.085105 1.216503 0.130161 1.832264 0.21026-9.51175-12.505449-17.6468-30.34749-21.716828-55.934098-3.018729-18.95842-1.531892-29.711704 20.720597-45.200839 40.485013-17.131163 77.75105-45.426117 99.212563-90.441727 5.056246-10.598092 13.446611-22.122329 16.585488-34.63779 5.071265-20.234997-2.568173-29.501445 1.596973-41.331059 4.725838-13.441605 9.23641-24.064728 20.300078-35.118383 24.305025-24.310031 34.262326-17.957183 27.939515-58.091764-16.750693-106.32635-46.402323-143.66748-55.768894-183.561763-7.564345-32.174747 6.833442-25.521528-7.92479-85.981217-12.59556-51.593736-57.350848-81.535725-118.251082-92.299022 28.620356 15.228813 48.765242 38.202193 56.424705 69.590969 14.102421 57.771368 0.345427 51.413514 7.574357 82.156493 8.951058 38.122094 37.281055 73.806177 53.290833 175.401682 6.037458 38.347372-3.469286 32.274871-26.697982 55.503567-10.568055 10.563049-14.87838 20.715591-19.393958 33.556454-3.979917 11.303964 3.314094 20.154898-1.531893 39.493788-3.003711 11.959775-11.018612 22.968374-15.849579 33.095885-20.510337 43.013136-56.114321 70.051538-94.802114 86.421762-21.261265 14.803287-22.678015 25.075978-19.79946 43.188353 6.703281 42.097005 29.886921 87.382949 46.562521 97.200076z m-255.891115-126.33607c-14.648096-20.445257-31.423819-34.607753-29.095944-33.015786l-3.864774-3.879793a308.140662 308.140662 0 0 1-21.756877-15.53419c16.079864 21.356383 34.777963 38.197187 54.717595 52.429769z" fill="#6E6E96" opacity=".15" p-id="1239"></path></svg>