<?xml version="1.0" standalone="no"?><!DOCTYPE svg PUBLIC "-//W3C//DTD SVG 1.1//EN" "http://www.w3.org/Graphics/SVG/1.1/DTD/svg11.dtd"><svg t="1639302275493" class="icon" viewBox="0 0 1024 1024" version="1.1" xmlns="http://www.w3.org/2000/svg" p-id="2279" xmlns:xlink="http://www.w3.org/1999/xlink" width="200" height="200"><defs><style type="text/css"></style></defs><path d="M187.66 946.584c29.8 28.268 87.792 51.416 128.872 51.416h570.836c41.08 0 74.688-33.608 74.688-74.688V116.688c0-41.08-33.608-74.688-74.688-74.688H123.688C82.608 42 49 75.608 49 116.688v623.64c0 41.08 24.38 97.824 54.176 126.1l84.484 80.156z" fill="#92ADD6" p-id="2280"></path><path d="M887.368 1014H316.532c-45.452 0-106.896-24.512-139.884-55.804l-84.484-80.16C58.988 846.552 33 786.064 33 740.328V116.688C33 66.68 73.68 26 123.688 26h763.68c50.004 0 90.688 40.68 90.688 90.688v806.624c0 50.004-40.684 90.688-90.688 90.688z m-763.68-956c-32.36 0-58.688 26.328-58.688 58.688v623.64c0 36.756 22.524 89.192 49.188 114.496l84.484 80.156c26.868 25.484 80.84 47.02 117.86 47.02h570.836c32.36 0 58.688-26.328 58.688-58.688V116.688c0-32.36-26.328-58.688-58.688-58.688H123.688z" fill="#6E6E96" p-id="2281"></path><path d="M210.36 42h590.328v1.124H210.36z" fill="#FFFFFF" p-id="2282"></path><path d="M210.36 43.124h590.328v79.048H210.36z" fill="#FEFEFE" p-id="2283"></path><path d="M210.36 122.172h590.328v79.048H210.36z" fill="#FDFDFD" p-id="2284"></path><path d="M210.36 201.22h590.328v79.048H210.36z" fill="#FCFCFC" p-id="2285"></path><path d="M210.36 280.264h590.328v79.032H210.36z" fill="#FBFBFB" p-id="2286"></path><path d="M210.36 359.296h590.328v79.048H210.36z" fill="#FAFAFA" p-id="2287"></path><path d="M210.36 438.344h590.328v77.92H210.36z" fill="#F9F9F9" p-id="2288"></path><path d="M726.008 532.264H285.048c-50.004 0-90.688-40.68-90.688-90.684V45.736c0-1.212 0.068-2.412 0.152-3.604l0.844-16.132h620.368l0.824 16.168c0.084 1.184 0.148 2.368 0.148 3.568v395.844c0 50.004-40.684 90.684-90.688 90.684zM226.36 58v383.58c0 32.36 26.328 58.684 58.688 58.684h440.96c32.36 0 58.688-26.328 58.688-58.684V58H226.36z" fill="#6E6E96" p-id="2289"></path><path d="M215.188 643.236V998v-354.764zM215.188 643.236h39.408V998h-39.408z" fill="#FFFFFF" p-id="2290"></path><path d="M254.592 643.236h39.42V998h-39.42z" fill="#FEFEFE" p-id="2291"></path><path d="M294.016 643.236h39.408V998h-39.408z" fill="#FDFDFD" p-id="2292"></path><path d="M333.42 643.236h39.42V998h-39.42z" fill="#FCFCFC" p-id="2293"></path><path d="M372.844 643.236h39.408V998h-39.408z" fill="#FBFBFB" p-id="2294"></path><path d="M412.248 643.236h39.42V998h-39.42z" fill="#FAFAFA" p-id="2295"></path><path d="M451.672 643.236h39.42V998h-39.42z" fill="#F9F9F9" p-id="2296"></path><path d="M491.092 643.236h39.408V998h-39.408z" fill="#F8F8F8" p-id="2297"></path><path d="M530.5 643.236h39.42V998h-39.42z" fill="#F6F6F6" p-id="2298"></path><path d="M569.92 643.236h39.42V998h-39.42z" fill="#F5F5F5" p-id="2299"></path><path d="M609.344 643.236h39.408V998h-39.408z" fill="#F4F4F4" p-id="2300"></path><path d="M648.752 643.236h39.42V998h-39.42z" fill="#F3F3F3" p-id="2301"></path><path d="M688.172 643.236h39.42V998h-39.42z" fill="#F2F2F2" p-id="2302"></path><path d="M727.592 643.236H767V998h-39.408z" fill="#F1F1F1" p-id="2303"></path><path d="M767 643.236h39.408V998H767zM806.408 643.236h1.312V998h-1.312z" fill="#F0F0F0" p-id="2304"></path><path d="M817.192 1014H316.532c-32.42 0-75.412-13.092-109.52-33.352l-7.832-4.652V717.92c0-50.004 40.68-90.688 90.688-90.688h440.656c50 0 90.688 40.68 90.696 90.684v257.676c0 1.828 0.248 3.992 0.508 6.28 0.668 5.84 1.496 13.1-0.992 20.96l-3.544 11.168zM231.18 957.544c27.724 14.8 61.024 24.456 85.352 24.456h473.024a66.68 66.68 0 0 1-0.336-6.408V717.92c-0.008-32.36-26.336-58.688-58.696-58.688H289.868c-32.36 0-58.688 26.328-58.688 58.688v239.624z" fill="#6E6E96" p-id="2305"></path><path d="M887.368 908.376H316.532c-41.08 0-99.072-23.132-128.868-51.416l-84.484-80.164C73.38 748.528 49 691.78 49 650.704v89.624c0 41.08 24.38 97.824 54.176 126.1l84.484 80.164c29.8 28.26 87.792 51.408 128.872 51.408h570.836c41.08 0 74.688-33.608 74.688-74.688v-89.624c0 41.076-33.612 74.688-74.688 74.688z" fill="#6E6E96" opacity=".15" p-id="2306"></path><path d="M730.008 456.264H289.048c-41.08 0-74.688-33.608-74.688-74.688v60c0 41.08 33.608 74.688 74.688 74.688h440.96c41.08 0 74.688-33.608 74.688-74.688v-60c0 41.08-33.612 74.688-74.688 74.688z" fill="#6E6E96" opacity=".15" p-id="2307"></path><path d="M578 734h108v182.376h-108z" fill="#92ADD6" p-id="2308"></path><path d="M686 932.376h-108a16 16 0 0 1-16-16V734a16 16 0 0 1 16-16h108a16 16 0 0 1 16 16v182.376a16 16 0 0 1-16 16z m-92-32h76V750h-76v150.376z" fill="#6E6E96" p-id="2309"></path><path d="M686 782h-108a16 16 0 0 1 0-32h108a16 16 0 0 1 0 32z" fill="#6E6E96" opacity=".15" p-id="2310"></path><path d="M682 234h-344a16 16 0 0 1 0-32h344a16 16 0 0 1 0 32z" fill="#6E6E96" p-id="2311"></path><path d="M593.228 322H338a16 16 0 0 1 0-32h255.228a16 16 0 0 1 0 32z" fill="#6E6E96" p-id="2312"></path></svg>