<?xml version="1.0" standalone="no"?><!DOCTYPE svg PUBLIC "-//W3C//DTD SVG 1.1//EN" "http://www.w3.org/Graphics/SVG/1.1/DTD/svg11.dtd"><svg t="1639302211227" class="icon" viewBox="0 0 1024 1024" version="1.1" xmlns="http://www.w3.org/2000/svg" p-id="1853" xmlns:xlink="http://www.w3.org/1999/xlink" width="200" height="200"><defs><style type="text/css"></style></defs><path d="M387.798728 845.509665c0-96.84985-146.816835-179.407122-146.816835-339.139242 0-149.67704 121.34115-271.009741 271.018191-271.009741s270.997067 121.332701 270.997066 271.009741c0 156.145245-149.541846 201.059341-151.485265 333.030147" fill="#FFE600" p-id="1854"></path><path d="M622.234173 834.765939l-75.759531 0.916787c-9.92411-186.01897 99.726954-157.459165 129.368314-295.416546 32.15513-149.672815-61.555676-304.157705-241.343031-274.060063-56.621082 9.480504-138.434785 94.22201-172.317869 161.438948 0-119.372383 148.265949-196.923239 240.523416-196.923239 149.672815 0 271.03509 121.34115 271.03509 271.009741 0.004225 156.153694-149.558745 201.08469-151.506389 333.034372z" fill="#FFC800" p-id="1855"></path><path d="M630.941534 829.189172v81.767231c0 68.564658-68.509735 96.148529-117.868345 96.148529-49.350161 0-127.196755-25.175722-127.196756-96.148529v-81.767231" fill="#D5D5E3" p-id="1856"></path><path d="M513.073189 1024c-31.597454 0-65.505885-8.901703-90.711182-23.815329-34.926614-20.667836-53.384867-51.52172-53.384867-89.232493v-81.767231h33.798586v81.767231c0 25.458785 12.382957 45.695689 36.798212 60.144584 20.220004 11.960475 47.69403 19.100426 73.499251 19.100427 74.082277 0 100.969052-47.394068 100.969052-79.249236v-81.76723h33.798587v81.76723c0 73.435879-69.439196 113.052047-134.767639 113.052047z" fill="#6E6E96" p-id="1857"></path><path d="M564.2189 822.006973v81.77568c0 68.564658-44.483165 81.327849-76.536899 81.327848s-82.612195-10.363492-82.612195-81.327848v-81.77568" fill="#E6E6F5" p-id="1858"></path><path d="M457.174551 437.104445c41.37792-33.735214 80.10265-54.779059 53.042657-87.914349-27.034644-33.152189-82.50235-32.662109-123.880269 1.073106-41.36947 33.743664-52.996184 87.973496-25.961539 121.125684 27.051544 33.143739 55.429682-0.536553 96.799151-34.284441z" fill="#FFFFFF" opacity=".7" p-id="1859"></path><path d="M512.000084 129.059903a16.899293 16.899293 0 0 1-16.899294-16.899294V16.899293a16.899293 16.899293 0 0 1 33.798587 0v95.261316a16.899293 16.899293 0 0 1-16.899293 16.899294zM236.427533 243.197729a16.857045 16.857045 0 0 1-11.952025-4.951493L157.123375 170.885653a16.899293 16.899293 0 0 1 23.899825-23.899825l67.352134 67.360583a16.899293 16.899293 0 0 1-11.947801 28.851318zM122.285482 518.774504H27.024166a16.899293 16.899293 0 0 1 0-33.798586h95.261316a16.899293 16.899293 0 0 1 0 33.798586zM996.967552 518.774504h-95.248642a16.899293 16.899293 0 0 1 0-33.798586h95.248642a16.899293 16.899293 0 0 1 0 33.798586zM787.564184 243.197729a16.903518 16.903518 0 0 1-11.952025-28.847093l67.347908-67.360583a16.899293 16.899293 0 1 1 23.904051 23.899825l-67.347909 67.360583a16.865495 16.865495 0 0 1-11.952025 4.947268zM400.473198 837.060018h-33.798587c0-37.013677-26.257277-74.023129-56.659105-116.875512-42.256683-59.565784-90.157729-127.074236-90.15773-222.26373 0-158.751961 129.157073-287.909034 287.917484-287.909034 158.747736 0 287.89636 129.157073 287.89636 287.909034 0 87.639735-44.618359 143.470775-83.976813 192.72799-34.284441 42.903081-66.667712 83.427586-67.508452 140.551422l-33.798586-0.494304c1.013958-68.691402 38.581086-115.696786 74.901892-161.155885 39.383803-49.282564 76.583372-95.835892 76.583373-171.629223 0-140.116265-113.985733-254.110448-254.097774-254.110447-140.12049 0-254.118897 113.994183-254.118897 254.110447 0 84.420419 44.58456 147.260441 83.92189 202.707023 32.345247 45.590068 62.894945 88.649468 62.894945 136.432219z" fill="#6E6E96" p-id="1860"></path><path d="M385.876433 817.858196h245.065101v33.798587H385.876433z" fill="#6E6E96" p-id="1861"></path></svg>