<?xml version="1.0" standalone="no"?><!DOCTYPE svg PUBLIC "-//W3C//DTD SVG 1.1//EN" "http://www.w3.org/Graphics/SVG/1.1/DTD/svg11.dtd"><svg t="1639302624839" class="icon" viewBox="0 0 1024 1024" version="1.1" xmlns="http://www.w3.org/2000/svg" p-id="1883" xmlns:xlink="http://www.w3.org/1999/xlink" width="200" height="200"><defs><style type="text/css"></style></defs><path d="M507.488987 53.523172C249.296634 53.523172 39.990132 262.829674 39.990132 521.022026c0 258.196863 209.301991 467.498855 467.498855 467.498855S974.987841 779.223401 974.987841 521.022026c0-258.192352-209.301991-467.498855-467.498854-467.498854z m0 679.620229c-117.151013 0-212.121374-94.979383-212.121375-212.121375 0-117.155524 94.970361-212.121374 212.121375-212.121374 117.155524 0 212.121374 94.970361 212.121374 212.121374 0 117.146502-94.96585 212.121374-212.121374 212.121375z" fill="#F0F0F0" p-id="1884"></path><path d="M303.500969 462.884088L61.864035 379.376211a467.142485 467.142485 0 0 0-21.873903 141.645815c0 63.970678 12.86541 124.932511 36.124194 180.458573l238.208564-92.82763a211.282326 211.282326 0 0 1-18.959789-87.630943 212.216106 212.216106 0 0 1 8.137868-58.137938z m203.988018 270.259313a211.927401 211.927401 0 0 1-65.463824-10.343753l-83.449233 241.48807c46.770185 15.707348 96.846943 24.228652 148.913057 24.228652 58.313868 0 114.119612-10.709145 165.599295-30.210255l-92.755454-238.001058a211.74696 211.74696 0 0 1-72.843841 12.838344z m439.74259-371.13459l-238.208564 92.82763a211.841692 211.841692 0 0 1 10.587348 66.185585 211.4763 211.4763 0 0 1-15.738925 80.219348l241.614379 83.507877c19.05452-50.960916 29.502026-106.121586 29.502026-163.727225 0-55.837322-9.811454-109.374026-27.756264-159.013215zM507.488987 308.900652a211.74696 211.74696 0 0 1 73.109991 12.937586l83.426678-241.424916a466.763559 466.763559 0 0 0-156.536669-26.885639c-61.48511 0-120.186925 11.891031-173.958203 33.467207L426.290749 325.027524a211.444722 211.444722 0 0 1 81.198238-16.126872z" fill="#FF8080" p-id="1885"></path><path d="M507.488987 308.900652c93.7163 0 173.186819 60.799436 201.24081 145.087718 0-0.306749 0.027066-0.613498 0.027066-0.929269 0-114.570714-92.87274-207.452476-207.447964-207.452475-114.570714 0-207.452476 92.881762-207.452476 207.452475 0 13.127048 1.272106 25.942837 3.604299 38.384212 14.394643-103.139806 102.918767-182.542661 210.028265-182.542661z m444.510731 67.047189a459.649692 459.649692 0 0 1 6.509392 77.11126c0 252.508476-204.691736 457.200211-457.200211 457.200212-250.722115 0-454.263542-201.81822-457.128036-451.859172a471.694097 471.694097 0 0 0-4.190731 62.621885c0 258.196863 209.301991 467.498855 467.498855 467.498855S974.987841 779.223401 974.987841 521.022026c0-50.649656-8.088247-99.400176-22.988123-145.074185z" opacity=".05" p-id="1886"></path><path d="M511.878203 57.916899c-258.192352 0-467.494344 209.301991-467.494344 467.494343 0 258.196863 209.301991 467.498855 467.494344 467.498855 258.196863 0 467.498855-209.29748 467.498854-467.498855-0.004511-258.192352-209.301991-467.494344-467.498854-467.494343z m-4.389216 926.214766c-236.372581 0-427.991401-191.618819-427.991401-427.995912 0-236.372581 191.618819-427.98689 427.991401-427.98689 236.377093 0 427.98689 191.614308 427.98689 427.98689 0 236.381604-191.609797 427.995912-427.98689 427.995912z m-178.189533-350.758343c29.87193 68.810996 98.39422 116.966062 178.189533 116.966061 60.158872 0 113.925639-27.363806 149.544599-70.317674-37.951154 35.641515-88.984247 57.51993-145.159894 57.51993-77.711225 0-145.62904-41.826115-182.574238-104.168317z" fill="#FFFFFF" opacity=".26" p-id="1887"></path><path d="M507.488987 31.577093C237.608599 31.577093 18.044053 251.141639 18.044053 521.022026S237.608599 1010.46696 507.488987 1010.46696 996.933921 790.902414 996.933921 521.022026 777.369374 31.577093 507.488987 31.577093z m445.552775 489.444933c0 245.678802-199.878485 445.552775-445.552775 445.552776s-445.548264-199.873974-445.548265-445.552776c0-245.674291 199.873974-445.548264 445.548265-445.548264 245.674291 0 445.552775 199.873974 445.552775 445.548264z" fill="#6E6E96" p-id="1888"></path><path d="M507.488987 711.197322c-104.863013 0-190.175295-85.312282-190.175295-190.175296S402.625974 330.846731 507.488987 330.846731s190.175295 85.312282 190.175295 190.175295-85.312282 190.175295-190.175295 190.175296z m234.076476-190.175296c0-129.06911-105.002855-234.071965-234.076476-234.071964-129.06911 0-234.071965 105.002855-234.071965 234.071964 0 129.06911 105.002855 234.076476 234.071965 234.076476 129.06911 0 234.076476-105.007366 234.076476-234.076476z" fill="#6E6E96" p-id="1889"></path><path d="M310.668969 442.142449L69.032035 358.634573l-21.273938-7.352952-6.816141 21.454379A489.341181 489.341181 0 0 0 18.044053 521.022026c0 65.450291 12.725568 129.014978 37.824846 188.939278l8.268687 19.749216 19.943189-7.776987 238.208564-92.82763 21.607754-8.422062-9.594926-21.116052a188.560352 188.560352 0 0 1-16.992986-78.545763c0-17.574907 2.453991-35.113727 7.298819-52.133779l5.683877-19.965745-19.622908-6.780053zM273.417022 521.022026a232.154784 232.154784 0 0 0 20.92659 96.711613l12.012829-29.533604-238.208564 92.82763 28.211876 11.967718c-22.83926-54.520106-34.419031-112.382872-34.419031-171.977868a445.30467 445.30467 0 0 1 20.845393-135.005603l-28.09008 14.101427L296.328458 483.625727l-13.939031-26.750308a234.356159 234.356159 0 0 0-8.972405 64.146607zM507.488987 711.197322c-19.956722 0-39.705938-3.11711-58.692793-9.274644l-20.48-6.644722-7.03267 20.349181-83.449233 241.492581-7.235665 20.92659 20.985233 7.050714C401.705727 1001.932123 454.159789 1010.46696 507.488987 1010.46696c59.640106 0 117.967507-10.64148 173.376282-31.640246l20.719083-7.844652-8.043136-20.646908-92.755454-238.001057-7.799542-20.019877-20.186784 7.380018a189.606907 189.606907 0 0 1-65.310449 11.503084z m52.390907 17.074185l92.755454 238.001057 12.680458-28.49156c-50.424106 19.09963-103.518731 28.793797-157.822308 28.793798-48.570079 0-96.319154-7.772476-141.920987-23.091877l13.754079 27.977304 83.453745-241.492581-27.51267 13.708969a233.625374 233.625374 0 0 0 72.230344 11.421885 233.499066 233.499066 0 0 0 80.381744-14.178114l-27.999859-12.648881zM939.265128 341.560388L701.056564 434.388018l-19.36578 7.546925 6.482326 19.749216a190.048987 190.048987 0 0 1 9.491172 59.337867 189.151295 189.151295 0 0 1-14.110449 71.914573l-8.778432 21.472423 21.923524 7.578502 241.61889 83.503366 20.227383 6.996581 7.497304-20.051453C986.536035 637.618185 996.933921 579.944881 996.933921 521.022026c0-57.12296-9.779877-113.136211-29.059947-166.474431l-7.646168-21.152141-20.962678 8.164934z m13.776634 179.461638c0 53.658502-9.459595 106.153163-28.112634 156.040459l27.724687-13.063895-241.61889-83.498854 13.149604 29.046414a232.813392 232.813392 0 0 0 17.380934-88.528635c0-24.837639-3.933604-49.409128-11.683525-73.024282l-12.883453 27.29163 238.208563-92.82763-28.608845-12.987207c17.538819 48.543013 26.443559 99.530996 26.443559 151.552zM507.488987 330.846731c22.532511 0 44.586855 3.902026 65.540511 11.593304l20.998766 7.709322 7.307842-21.143119L684.771806 87.581322l7.104846-20.570221-20.502555-7.280775C618.789216 41.05022 563.64659 31.577093 507.488987 31.577093c-62.892546 0-124.174661 11.791789-182.132159 35.046061l-20.16874 8.092758 7.894273 20.245427 92.759965 238.037146 8.142379 20.899524 20.714573-8.59348a188.957322 188.957322 0 0 1 72.789709-14.457798z m-60.745304-13.785656L353.979207 79.02393 341.70474 107.362115c52.738256-21.156652 108.516934-31.888352 165.784247-31.888353 51.141357 0 101.335401 8.620546 149.19274 25.622555l-13.397709-27.850995-83.435701 241.424916 28.306608-13.438308a233.323137 233.323137 0 0 0-80.670449-14.281868 232.750238 232.750238 0 0 0-89.606767 17.800458l28.865974 12.310555z" fill="#6E6E96" p-id="1890"></path><path d="M150.063366 745.715595l162.428053-95.398908-8.656635-14.020229-182.438907 71.093568zM703.13163 649.310731l154.556335 90.130044 34.901709-49.751964-177.179066-61.237005z" opacity=".05" p-id="1891"></path><path d="M93.003559 454.881551l180.986362 49.833163v-28.807331l-171.251595-59.184493zM739.891877 493.103366l177.670766-49.246732-10.943718-42.466678-171.147841 66.704352z" fill="#FFFFFF" opacity=".26" p-id="1892"></path></svg>