<?xml version="1.0" standalone="no"?><!DOCTYPE svg PUBLIC "-//W3C//DTD SVG 1.1//EN" "http://www.w3.org/Graphics/SVG/1.1/DTD/svg11.dtd"><svg t="1645157036324" class="icon" viewBox="0 0 1042 1024" version="1.1" xmlns="http://www.w3.org/2000/svg" p-id="26174" xmlns:xlink="http://www.w3.org/1999/xlink" width="130.25" height="128"><defs><style type="text/css"></style></defs><path d="M491.230389 512m-470.460778 0a470.460777 470.460777 0 1 0 940.921555 0 470.460777 470.460777 0 1 0-940.921555 0Z" fill="#70C4FF" p-id="26175"></path><path d="M484.999505 57.145509s-47.072247 265.851027 55.3884 285.237382 146.77469-8.307845 199.38827 44.309889 170.842516 34.394477 174.464736-19.386355c0 0-72.004089-268.621693-429.241406-310.160916zM193.792937 864.796774s108.666607 16.528457 208.477052-25.106306c105.704861-44.093885 201.465231-149.807054 147.634552-275.558743C465.239297 366.388408 383.373796 471.017403 412.102323 315.785327c28.724373-155.232076-61.527897-217.100595-124.48059-217.100595s-337.672343 410.465677-93.828796 766.112042z" fill="#A3D9FF" opacity=".26" p-id="26176"></path><path d="M170.971288 856.285387s94.27742 15.63121 180.878392-23.739665c91.71445-41.692918 174.79705-141.665366 128.090348-260.546468-73.457962-186.972196-144.485879-88.038229-119.562346-234.81292s-53.390363-205.274378-108.001979-205.274378c-54.619924 0-292.971985 388.105114-81.404415 724.373431z" fill="#A3D9FF" opacity=".26" p-id="26177"></path><path d="M184.812157 147.364547c149.416585 22.929651 95.585906 150.558913 137.710832 299.792726 27.336963 96.815467 68.614488 82.667208 105.580242 154.471908 56.464266 74.662599-216.003959 324.005939-362.093252 115.703352-144.801577-357.540553 118.802178-569.967986 118.802178-569.967986z" fill="#9EE3C3" p-id="26178"></path><path d="M210.005695 815.165711c-62.587147 0-117.086608-30.535483-157.595657-88.299927l-1.088328-1.549413-0.710321-1.752955c-77.100952-190.365951-39.524571-340.318392 5.574564-432.589467 48.862588-99.972448 115.395961-154.284982 118.204013-156.54887l5.703335-4.594238 7.24444 1.113251c116.463519 17.870174 123.40057 95.747909 131.425948 185.925408 3.402062 38.199469 7.256902 81.499955 19.756054 125.772459 14.555344 51.546022 32.479518 68.020478 53.240822 87.099443 15.84306 14.559498 33.779696 31.042261 50.511695 63.106388 14.061027 19.768516 13.288397 47.711951-2.23481 78.912061-34.311398 68.971726-132.015804 143.405859-230.031755 143.40586z m-129.307447-105.850248c34.340476 48.189653 77.836196 72.61887 129.307447 72.618869 90.106882 0 174.211347-72.585638 200.27721-124.97906 9.790795-19.685438 11.456518-36.201433 4.569314-45.30683l-0.864015-1.142329-0.65632-1.275254c-14.20226-27.586198-28.707757-40.916135-44.060654-55.022855-22.427026-20.615916-45.622529-41.925538-62.736688-102.539571-13.342398-47.263328-17.342626-92.204613-20.87346-131.857956-7.668141-86.110809-12.382842-139.056703-95.884988-154.750221-16.445378 14.85858-66.662145 64.065944-104.363144 141.78583-60.39803 124.517975-61.980675 259.927534-4.714702 402.469377z" fill="#6E6E96" p-id="26179"></path><path d="M531.245122 43.250639s-73.703043 251.225066 88.258387 251.225066c164.578401 0 195.433736 148.984577 298.359623 19.049888-109.759089-264.405462-386.61801-270.274954-386.61801-270.274954z" fill="#9EE3C3" p-id="26180"></path><path d="M838.290596 383.332257h-0.02077c-26.531102-0.004154-49.963377-13.155472-77.100951-28.383751-36.633441-20.557761-78.156048-43.861265-141.665366-43.861266-40.600436 0-71.792239-14.164875-92.707238-42.095848-56.181799-75.032298-13.342398-224.112416-11.493903-230.422224l3.580681-12.204223 12.71931 0.270005c2.953439 0.062309 73.325036 1.939882 158.181361 37.256529 78.558978 32.695522 184.558767 101.438782 243.432308 243.257843l3.746838 9.026473-6.06888 7.659833c-32.595828 41.148754-61.158198 59.496629-92.60339 59.496629z m-294.425858-322.55622c-3.41037 14.227184-8.573696 38.83502-11.149128 66.529219-5.088555 54.82762 2.068653 96.944238 20.698995 121.80131 14.501343 19.34897 36.1142 28.75345 66.08475 28.75345 72.195169 0 119.732656 26.676489 157.932126 48.110728 24.022133 13.479478 42.99725 24.130135 60.842499 24.134289h0.012462c11.822063 0 30.6601-4.270232 60.335721-39.304413-44.135424-100.321377-118.266322-172.877938-220.465271-215.738108-58.719846-24.628605-110.913879-32.076588-134.292154-34.286475z" fill="#6E6E96" p-id="26181"></path><path d="M487.076466 37.385301C227.248627 37.385301 20.769611 248.018238 20.769611 507.846078s206.479015 470.460777 466.306855 470.460777 470.460777-210.632938 470.460777-470.460777S746.904306 37.385301 487.076466 37.385301z m339.840691 523.921757c-16.607381 57.984601-116.833218 40.068734-156.64441 83.186447-32.392286 35.084028-1.050942 134.304616-44.538355 155.290231-50.05061 24.142596-106.178408 37.65946-165.46734 37.65946-65.665204 0 80.062698-119.778349 26.119863-149.001193-19.191121-10.401421-29.040071 46.889475-38.079006-80.357626-3.318984-46.727472-70.550216-68.394331-114.573484-175.374446-11.057741-26.871723-31.715197-216.074576-39.815345-205.26607-49.847068 66.462757-8.307845 274.76119 38.768556 383.544107 29.754545 68.755722-171.735609 188.259912-171.735609 81.429339 0-211.584186-95.498674-86.966517-82.027503-236.316639C97.84564 246.356669 249.659038 74.770601 460.267052 74.770601c88.848244 0 179.1919 25.550776 243.702313 76.681406 30.506405 24.163366 55.234705 54.063299 71.302076 89.666566 28.196825 62.487453-197.224077 22.327332-176.728624 32.583367 41.796766 20.919153 254.959442 98.663962 232.411952 92.536927-294.151699-79.933927-11.23636 67.974784 10.642349 89.870109 36.500515 36.492207-5.113478 71.783931-14.679961 105.198082z" fill="#6E6E96" opacity=".2" p-id="26182"></path><path d="M768.733167 519.198747c0.257543 0 0.510932 0.024924 0.768476 0.033232 0.186927 0 0.357237-0.024924 0.523394-0.024924l-1.29187-0.008308z m184.650154 466.6724c94.472655 0 75.717696-76.116472 58.773847-103.532359l-206.632711-340.455471c-8.24969-13.346552-20.62007-22.368872-36.031122-22.655492-17.006158 0.270005-30.111783 13.521017-38.403012 26.946494l-204.49344 336.164469c-16.943849 27.407579-35.698808 103.532359 58.769693 103.532359h368.016745z" fill="#FFD500" p-id="26183"></path><path d="M772.488313 534.323178l-1.283562-0.004154c0.257543 0 0.502625 0.016616 0.764322 0.029078 0.178619 0 0.353083-0.024924 0.51924-0.024924z m242.144592 363.140041l-206.63271-340.455471c-8.253844-13.350706-20.62007-22.364718-36.031122-22.655492-17.006158 0.278313-30.115937 13.521017-38.41132 26.946494l-204.49344 336.164469c-10.152186 16.424609-20.927461 50.341384-7.609986 74.891065 2.288811-6.160267 4.968091-11.614367 7.609986-15.884599l204.49344-336.156161c8.295383-13.429631 21.405162-26.684797 38.41132-26.954802 15.411052 0.290775 27.777278 9.304786 36.031122 22.651338l206.63271 340.459625c2.637741 4.266078 5.317021 9.720178 7.605832 15.876291 13.317475-24.541373 2.5422-58.462302-7.605832-74.882757z m-242.663832-304.108651c-0.261697-0.008308-0.510932-0.033231-0.768476-0.033231l1.287716 0.012461c-0.166157 0-0.340622 0.02077-0.51924 0.02077z" fill="#FFE76E" p-id="26184"></path><path d="M1012.161321 882.338788l-206.63271-340.455471a57.851676 57.851676 0 0 0-6.488427-8.615235l189.614091 312.424804c15.552285 25.151999 32.774447 95.05005-53.967758 95.050049h-337.904963c-63.413778 0-71.235613-37.3313-64.809496-67.243694l-5.387637 8.847855c-16.943849 27.407579-35.698808 103.532359 58.769693 103.532359h368.016745c94.485116-0.008308 75.721849-76.133088 58.790462-103.540667z" fill="#FF9900" opacity=".52" p-id="26185"></path><path d="M756.304632 797.839701l-5.757337-86.559433c-1.084174-16.873232-1.615876-28.973608-1.615875-36.334358 0-9.990183 2.604509-17.787095 7.821835-23.403198 5.22148-5.599487 12.079606-8.395077 20.603455-8.395077 10.305881 0 17.218008 3.584835 20.682379 10.762812 3.480987 7.161362 5.22148 17.492167 5.22148 30.979953 0 7.954761-0.4237 16.021678-1.262792 24.233982l-7.730449 89.080864c-0.839092 10.60081-2.641895 18.73419-5.395945 24.387678-2.770666 5.657642-7.323365 8.494771-13.674713 8.494771-6.484273 0-10.987124-2.737435-13.500247-8.220612-2.517277-5.479024-4.320079-13.828407-5.391791-25.027382z m19.96375 118.67756c-7.315057 0-13.70379-2.380197-19.166197-7.111515-5.449946-4.739625-8.179073-11.369285-8.179073-19.897288 0-7.447983 2.604509-13.77856 7.821836-19.016656 5.22148-5.217326 11.614367-7.817682 19.170351-7.817682 7.543523 0 14.002872 2.608663 19.3282 7.817682 5.33779 5.238096 8.012916 11.568674 8.012916 19.016656 0 8.395077-2.704203 15.003967-8.087686 19.814209-5.400099 4.801934-11.701599 7.194593-18.900347 7.194594z" fill="#666666" p-id="26186"></path><path d="M953.383321 1002.486836h-368.016745c-49.776451 0-71.347769-19.955443-80.677479-36.691595-18.460031-33.119222-2.98667-74.787217 7.776142-92.192152l204.435286-336.060621c13.097317-21.214081 30.606099-33.451536 49.593678-34.805715 0.747706-0.099694 1.312639-0.19108 2.292965-0.149541h0.108002l1.237869 0.008308c0.569087 0.004154 1.129867 0.037385 1.686493 0.09554 19.36974 1.038481 36.305281 11.797139 47.844877 30.460712l206.707481 340.571781c10.688042 17.296932 26.157249 58.973235 7.697218 92.08415-9.338017 16.727845-30.91349 36.679134-80.685787 36.679133z m-183.898294-466.639168c-11.506365 0.386315-20.786227 13.433785-24.258906 19.058195l-204.43944 336.06893c-8.719083 14.10672-16.615689 41.522607-7.074129 58.640921 7.26521 13.030854 24.645221 19.639745 51.654024 19.639744h368.016745c27.008803 0 44.392968-6.60889 51.654024-19.635591 9.545713-17.11416 1.644953-44.542509-7.011821-58.549534l-206.707481-340.567627c-3.987765-6.446887-11.070203-14.314416-21.833016-14.655038z" fill="#6E6E96" p-id="26187"></path><path d="M487.076466 994.922544C218.500467 994.922544 0 776.417924 0 507.846078 0 239.270078 218.500467 20.769611 487.076466 20.769611c268.571846 0 487.076466 218.500467 487.076466 487.076467a487.628938 487.628938 0 0 1-19.199428 135.833259 16.640613 16.640613 0 0 1-20.582685 11.336054 16.615689 16.615689 0 0 1-11.336054-20.582685 454.47233 454.47233 0 0 0 17.886789-126.586628C940.921554 257.593029 737.325361 54.00099 487.076466 54.00099 236.823418 54.00099 33.231378 257.593029 33.231378 507.846078c0 250.248895 203.592039 453.845088 453.845088 453.845088a16.615689 16.615689 0 0 1 0 33.231378z" fill="#6E6E96" p-id="26188"></path></svg>