<?xml version="1.0" standalone="no"?><!DOCTYPE svg PUBLIC "-//W3C//DTD SVG 1.1//EN" "http://www.w3.org/Graphics/SVG/1.1/DTD/svg11.dtd"><svg t="1645156779481" class="icon" viewBox="0 0 1034 1024" version="1.1" xmlns="http://www.w3.org/2000/svg" p-id="64707" xmlns:xlink="http://www.w3.org/1999/xlink" width="129.25" height="128"><defs><style type="text/css"></style></defs><path d="M451.678208 316.219392v-185.18016L55.296 497.278976l396.382208 366.231552v-232.91904c-6.873088 0 446.926848-10.502144 535.71584 262.36928 0-0.004096 19.31264-516.079616-535.71584-576.741376z" fill="#F0F0FF" p-id="64708"></path><path d="M987.38176 911.392768a18.427904 18.427904 0 0 1-17.514496-12.726272c-32.636928-100.298752-121.700352-172.384256-264.712192-214.24128-99.893248-29.237248-197.05856-34.422784-235.044864-35.28704v214.376448a18.432 18.432 0 0 1-30.937088 13.541376L42.786816 510.81216a18.423808 18.423808 0 0 1 0-27.07456l396.382208-366.235648a18.432 18.432 0 0 1 30.937088 13.541376v168.804352c283.664384 36.294656 414.339072 193.015808 474.124288 319.401984 65.757184 139.010048 61.779968 268.926976 61.579264 274.39104a18.432 18.432 0 0 1-18.427904 17.752064zM82.456576 497.27488l350.789632 324.112384v-189.11232a17.707008 17.707008 0 0 1-0.077824-1.687552c0-7.614464 3.366912-16.551936 18.509824-18.210816v-0.221184c0.548864 0 1.097728 0.024576 1.634304 0.077824 1.155072-0.086016 2.371584-0.126976 3.653632-0.126976 41.406464 0 368.685056 6.029312 504.85248 191.217664-7.335936-46.993408-22.040576-107.606016-51.4048-169.353216-36.265984-76.271616-87.621632-139.452416-152.600576-187.785216-81.53088-60.64128-185.204736-98.2016-308.137984-111.63648a18.427904 18.427904 0 0 1-16.429056-18.321408V173.166592l-350.789632 324.108288z" fill="#6E6E96" p-id="64709"></path><path d="M38.912 497.278976l396.382208 366.231552v-148.860928l-345.399296-264.474624zM956.960768 763.86304c-114.409472-237.047808-528.232448-227.483648-521.66656-227.483648l-75.48928-0.053248v120.512512l75.48928 57.798656v-84.054016c-6.873088 0 446.926848-10.50624 535.71584 262.36928 0 0.004096 1.990656-53.997568-14.04928-129.089536z" fill="#6E6E96" opacity=".15" p-id="64710"></path></svg>