<?xml version="1.0" standalone="no"?><!DOCTYPE svg PUBLIC "-//W3C//DTD SVG 1.1//EN" "http://www.w3.org/Graphics/SVG/1.1/DTD/svg11.dtd"><svg t="1645156801575" class="icon" viewBox="0 0 1024 1024" version="1.1" xmlns="http://www.w3.org/2000/svg" p-id="64861" xmlns:xlink="http://www.w3.org/1999/xlink" width="128" height="128"><defs><style type="text/css"></style></defs><path d="M588.857344 149.36064c-41.271296 0-92.106752-18.776064-112.963584-41.725952-20.84864-22.949888-71.68-41.725952-112.951296-41.725952H135.684096c-41.275392 0-75.046912 33.77152-75.046912 75.046912V871.05536c0 41.271296 33.77152 75.03872 75.046912 75.03872h757.620736c41.275392 0 75.046912-33.767424 75.046912-75.03872V224.39936c0-41.275392-33.77152-75.042816-75.046912-75.042816l-304.447488 0.004096z" fill="#DFB5B0" p-id="64862"></path><path d="M877.920256 148.697088l-292.081664 0.004096c-39.600128 0-88.367104-18.014208-108.376064-40.030208-20.000768-22.016-68.767744-40.030208-108.363776-40.030208h-218.03008c-39.600128 0-71.999488 32.39936-71.999488 71.999488v55.013376c0-39.600128 32.39936-71.999488 71.999488-71.999488h218.03008c39.596032 0 88.363008 18.014208 108.363776 40.030208 20.00896 22.016 68.780032 40.030208 108.376064 40.030208l292.081664-0.004096c39.600128 0 71.999488 32.395264 71.999488 71.995392V220.69248c0-39.600128-32.39936-71.995392-71.999488-71.995392z" fill="#FFFFFF" opacity=".1" p-id="64863"></path><path d="M893.304832 964.52608H135.684096c-51.544064 0-93.478912-41.926656-93.478912-93.47072V140.955648c0-51.544064 41.934848-93.478912 93.478912-93.478912h227.258368c46.657536 0 102.264832 20.979712 126.595072 47.763456 17.272832 19.009536 63.684608 35.688448 99.319808 35.688448l304.447488-0.004096c51.544064 0 93.478912 41.934848 93.478912 93.474816V871.05536c0 51.544064-41.934848 93.47072-93.478912 93.47072zM135.684096 84.340736c-31.219712 0-56.614912 25.399296-56.614912 56.614912V871.05536c0 31.215616 25.3952 56.60672 56.614912 56.60672h757.620736c31.219712 0 56.614912-25.391104 56.614912-56.60672V224.39936c0-31.215616-25.3952-56.610816-56.614912-56.610816l-304.447488 0.004096c-46.65344 0-102.264832-20.979712-126.603264-47.763456-17.272832-19.013632-63.680512-35.688448-99.311616-35.688448H135.684096z" fill="#6E6E96" p-id="64864"></path><path d="M968.351744 872.718336c0 40.361984-33.021952 73.383936-73.37984 73.383936H134.017024c-40.361984 0-73.383936-33.026048-73.383936-73.383936V410.3168c0-40.361984 33.021952-73.383936 73.383936-73.383936h760.95488c40.361984 0 73.37984 33.026048 73.37984 73.383936v462.401536z" fill="#EFDAD8" p-id="64865"></path><path d="M826.687488 809.435136a18.436096 18.436096 0 0 1-13.59872-5.988352l-91.148288-99.581952-84.287488 92.07808a18.432 18.432 0 0 1-32.026624-12.443648V382.005248c0-10.17856 8.257536-18.432 18.432-18.432h202.633216c10.174464 0 18.432 8.25344 18.432 18.432v408.997888a18.436096 18.436096 0 0 1-18.436096 18.432z m-104.747008-151.302144c5.173248 0 10.108928 2.17088 13.594624 5.988352l72.716288 79.446016V400.437248h-165.76512v335.62624l65.855488-71.942144a18.432 18.432 0 0 1 13.59872-5.988352z" fill="#6E6E96" opacity=".2" p-id="64866"></path><path d="M894.971904 927.670272H134.017024c-50.62656 0-91.815936-41.193472-91.815936-91.815936V373.4528c0-50.62656 41.189376-91.815936 91.815936-91.815936h760.95488c50.618368 0 91.81184 41.189376 91.81184 91.815936v462.405632c0 50.62656-41.193472 91.81184-91.81184 91.81184zM134.017024 318.500864c-30.298112 0-54.951936 24.653824-54.951936 54.951936v429.637632c0 30.298112 24.653824 54.951936 54.951936 54.951936h760.95488c30.298112 0 54.94784-24.653824 54.94784-54.951936V373.4528c0-30.298112-24.649728-54.951936-54.94784-54.951936H134.017024z" fill="#6E6E96" opacity=".15" p-id="64867"></path><path d="M624.054272 336.949248v401.494016l97.886208-106.934272 104.742912 114.438144V336.949248z" fill="#9EE8B9" p-id="64868"></path><path d="M826.687488 764.379136a18.436096 18.436096 0 0 1-13.59872-5.988352l-91.148288-99.581952-84.287488 92.07808a18.432 18.432 0 0 1-32.026624-12.443648V336.949248c0-10.17856 8.257536-18.432 18.432-18.432h202.633216c10.174464 0 18.432 8.25344 18.432 18.432v408.997888a18.436096 18.436096 0 0 1-18.436096 18.432z m-104.747008-151.302144c5.173248 0 10.108928 2.17088 13.594624 5.988352l72.716288 79.446016V355.381248h-165.76512v335.62624l65.855488-71.942144a18.432 18.432 0 0 1 13.59872-5.988352z" fill="#6E6E96" p-id="64869"></path><path d="M813.088768 709.238784l-91.148288-99.581952-84.287488 92.07808-27.193344-24.887296 97.882112-106.934272a18.407424 18.407424 0 0 1 27.185152 0l104.738816 114.438144-27.17696 24.887296z" fill="#6E6E96" opacity=".15" p-id="64870"></path><path d="M886.222848 345.124864H140.722176c-39.542784 0-71.892992 32.350208-71.892992 71.892992v56.406016c0-39.542784 32.350208-71.892992 71.892992-71.892992h745.500672c39.542784 0 71.888896 32.354304 71.888896 71.892992v-56.406016c0-39.538688-32.342016-71.892992-71.888896-71.892992z" fill="#FFFFFF" opacity=".1" p-id="64871"></path><path d="M894.971904 964.534272H134.017024c-50.62656 0-91.815936-41.193472-91.815936-91.815936V410.3168c0-50.62656 41.189376-91.815936 91.815936-91.815936h760.95488c50.618368 0 91.81184 41.189376 91.81184 91.815936v462.405632c0 50.62656-41.193472 91.81184-91.81184 91.81184zM134.017024 355.364864c-30.298112 0-54.951936 24.653824-54.951936 54.951936v462.405632c0 30.298112 24.653824 54.951936 54.951936 54.951936h760.95488c30.298112 0 54.94784-24.653824 54.94784-54.951936V410.3168c0-30.298112-24.649728-54.951936-54.94784-54.951936H134.017024z" fill="#6E6E96" p-id="64872"></path></svg>