<?xml version="1.0" standalone="no"?><!DOCTYPE svg PUBLIC "-//W3C//DTD SVG 1.1//EN" "http://www.w3.org/Graphics/SVG/1.1/DTD/svg11.dtd"><svg t="1639302839194" class="icon" viewBox="0 0 1024 1024" version="1.1" xmlns="http://www.w3.org/2000/svg" p-id="1526" xmlns:xlink="http://www.w3.org/1999/xlink" width="200" height="200"><defs><style type="text/css"></style></defs><path d="M512 516.284519m-458.443515 0a458.443515 458.443515 0 1 0 916.88703 0 458.443515 458.443515 0 1 0-916.88703 0Z" fill="#F08282" p-id="1527"></path><path d="M507.715481 63.93359c-253.189356 0-458.443515 205.254159-458.443514 458.443515s205.254159 458.443515 458.443514 458.443514 458.443515-205.254159 458.443515-458.443514-205.258444-458.443515-458.443515-458.443515z m17.138075 895.464435c-231.895297 0-419.882845-187.987548-419.882845-419.882845s187.987548-419.882845 419.882845-419.882845 419.882845 187.987548 419.882846 419.882845-187.987548 419.882845-419.882846 419.882845z" fill="#FFFFFF" opacity=".14" p-id="1528"></path><path d="M507.715481 53.556485c-253.189356 0-458.443515 205.254159-458.443514 458.443515s205.254159 458.443515 458.443514 458.443515 458.443515-205.254159 458.443515-458.443515-205.258444-458.443515-458.443515-458.443515z m-10.711297 852.619247c-233.077824 0-422.025105-188.951565-422.025105-422.025104 0-233.077824 188.94728-422.025105 422.025105-422.025105 233.07354 0 422.025105 188.94728 422.025105 422.025105 0 233.07354-188.951565 422.025105-422.025105 422.025104z" fill="#6E6E96" opacity=".15" p-id="1529"></path><path d="M656.015531 303.438192a38.15364 38.15364 0 0 0-52.97379 10.265708 38.149356 38.149356 0 0 0 10.265707 52.97379 176.787816 176.787816 0 0 1 77.99538 146.654795c0 97.49851-79.319297 176.822092-176.817807 176.822092s-176.817808-79.323582-176.817808-176.822092a176.804954 176.804954 0 0 1 77.982528-146.646226 38.157925 38.157925 0 0 0 10.257138-52.978075 38.15364 38.15364 0 0 0-52.973791-10.257138C303.065439 350.657874 261.355649 429.115983 261.355649 513.332485c0 139.57677 113.552603 253.129372 253.129372 253.129373s253.125088-113.552603 253.125088-253.129373a252.992268 252.992268 0 0 0-111.594578-209.894293zM514.485021 391.467916a38.15364 38.15364 0 0 0 38.15364-38.157924V236.938176a38.15364 38.15364 0 0 0-76.30728 0v116.3761a38.149356 38.149356 0 0 0 38.15364 38.15364z" fill="#FFFFFF" p-id="1530"></path></svg>