<?xml version="1.0" standalone="no"?><!DOCTYPE svg PUBLIC "-//W3C//DTD SVG 1.1//EN" "http://www.w3.org/Graphics/SVG/1.1/DTD/svg11.dtd"><svg t="1639302614050" class="icon" viewBox="0 0 1024 1024" version="1.1" xmlns="http://www.w3.org/2000/svg" p-id="1727" xmlns:xlink="http://www.w3.org/1999/xlink" width="200" height="200"><defs><style type="text/css"></style></defs><path d="M356.629544 122.447227c0-47.729103 39.053573-86.778115 86.782676-86.778115h128.481784c47.729103 0 86.773554 39.053573 86.773554 86.778115v44.490603c0 47.729103-39.049011 86.778115-86.773554 86.778115H443.41222c-47.729103 0-86.782676-39.053573-86.782676-86.778115v-44.490603z" fill="#B1B1C7" p-id="1728"></path><path d="M379.435882 122.447227c0-35.272282 28.699495-63.971777 63.976338-63.971777h128.481784c35.272282 0 63.967216 28.699495 63.967216 63.971777v44.490603c0 35.272282-28.694934 63.971777-63.967216 63.971778H443.41222c-16.990722 0-33.032699-6.682257-45.16111-18.815229-12.132972-12.12841-18.815229-28.170388-18.815228-45.16111v-44.486042z m-45.612676 44.490603c0 29.173867 11.425975 56.669188 32.175182 77.413833 20.744645 20.744645 48.239965 32.17062 77.413832 32.17062h128.481784c60.423111 0 109.579891-49.161341 109.579891-109.584453v-44.490603c0-60.427672-49.15678-109.584452-109.579891-109.584453H443.41222c-60.427672 0-109.589014 49.161341-109.589014 109.584453v44.490603z" fill="#6E6E96" p-id="1729"></path><path d="M571.894004 38.716039H485.87306c47.729103 0 86.773554 39.053573 86.773553 86.778115v44.495164c0 47.724542-39.049011 86.778115-86.773553 86.778115h86.016383c47.729103 0 86.773554-39.058134 86.773553-86.778115v-44.495164c0.004561-47.729103-39.039889-86.778115-86.768992-86.778115z" fill="#6E6E96" opacity=".15" p-id="1730"></path><path d="M838.13519 231.808177v682.602809c0 47.733665-39.058134 86.782676-86.782676 86.782676H267.698511c-47.729103 0-86.778115-39.053573-86.778115-86.782676V231.808177" fill="#B1B1C7" p-id="1731"></path><path d="M815.328852 231.808177v682.602809c0 35.276843-28.699495 63.976338-63.976338 63.976339H267.698511c-35.272282 0-63.971777-28.699495-63.971777-63.976339V231.808177h-45.612676v682.602809c0 60.427672 49.161341 109.589014 109.584453 109.589014h483.654003c60.427672 0 109.589014-49.161341 109.589014-109.589014V231.808177h-45.612676z" fill="#6E6E96" p-id="1732"></path><path d="M295.412772 454.311369c0-20.325008 17.966833-36.95539 39.933898-36.95539h6.15315c21.962503 0 39.929336 16.630381 39.929336 36.95539v390.750106c0 20.320447-17.966833 36.95539-39.929336 36.955389H335.342108c-21.962503 0-39.933897-16.630381-39.933897-36.955389V454.311369z" fill="#9595A8" p-id="1733"></path><path d="M318.21911 454.311369c0-7.672052 7.84538-14.149052 17.12756-14.149052h6.15315c9.282179 0 17.122998 6.477 17.122998 14.149052v390.750106c0 7.672052-7.840819 14.149052-17.122998 14.149052H335.342108c-9.282179 0-17.12756-6.477-17.127559-14.149052V454.311369z m-45.612675 390.754667c0 32.955158 28.143021 59.761727 62.740235 59.761727h6.15315c34.592653 0 62.735674-26.806569 62.735673-59.761727V454.311369c0-32.955158-28.143021-59.761727-62.735673-59.761727H335.342108c-34.592653 0-62.740235 26.806569-62.740234 59.761727v390.754667z" fill="#6E6E96" p-id="1734"></path><path d="M461.15099 454.311369c0-20.325008 17.966833-36.95539 39.929336-36.95539h6.153149c21.962503 0 39.933897 16.630381 39.933898 36.95539v390.750106c0 20.320447-17.966833 36.95539-39.933898 36.955389h-6.153149c-21.962503 0-39.929336-16.630381-39.929336-36.955389V454.311369z" fill="#9595A8" p-id="1735"></path><path d="M483.957327 454.311369c0-7.672052 7.840819-14.149052 17.122999-14.149052h6.153149c9.282179 0 17.12756 6.477 17.12756 14.149052v390.750106c0 7.672052-7.84538 14.149052-17.12756 14.149052h-6.153149c-9.282179 0-17.122998-6.477-17.122999-14.149052V454.311369z m-45.612675 390.754667c0 32.955158 28.143021 59.761727 62.735674 59.761727h6.153149c34.592653 0 62.740235-26.806569 62.740235-59.761727V454.311369c0-32.955158-28.147582-59.761727-62.740235-59.761727h-6.153149c-34.592653 0-62.735674 26.806569-62.735674 59.761727v390.754667z" fill="#6E6E96" p-id="1736"></path><path d="M630.875754 454.311369c0-20.325008 17.966833-36.95539 39.938459-36.95539h6.144027c21.957942 0 39.938459 16.630381 39.938459 36.95539v390.750106c0 20.320447-17.975955 36.95539-39.938459 36.955389h-6.144027c-21.967064 0-39.938459-16.630381-39.938459-36.955389V454.311369z" fill="#9595A8" p-id="1737"></path><path d="M653.682092 454.311369c0-7.672052 7.84538-14.149052 17.132121-14.149052h6.144027c9.286741 0 17.132121 6.477 17.132121 14.149052v390.750106c0 7.672052-7.84538 14.149052-17.132121 14.149052h-6.144027c-9.286741 0-17.132121-6.477-17.132121-14.149052V454.311369z m-45.612675 390.754667c0 32.955158 28.147582 59.761727 62.744796 59.761727h6.144027c34.597214 0 62.744796-26.806569 62.744797-59.761727V454.311369c0-32.955158-28.147582-59.761727-62.744797-59.761727h-6.144027c-34.597214 0-62.744796 26.806569-62.744796 59.761727v390.754667z" fill="#6E6E96" p-id="1738"></path><path d="M778.838712 222.913706v623.306331c0 47.733665-39.058134 86.782676-86.782676 86.782676H208.402033c-8.328875 0-16.370389-1.254349-24.010512-3.475686 10.486354 36.138923 43.906761 62.772164 83.30699 62.772164h483.654003c47.729103 0 86.782676-39.053573 86.782676-86.782676V222.913706h-59.296478z" fill="#6E6E96" opacity=".15" p-id="1739"></path><path d="M203.726734 312.446826h575.111978v45.612675H203.726734z" fill="#6E6E96" opacity=".15" p-id="1740"></path><path d="M881.056717 289.640488H134.240384V191.691829c0-23.864552 19.526786-43.391338 43.391338-43.391338h660.033657c23.864552 0 43.391338 19.526786 43.391338 43.391338V289.640488z" fill="#B1B1C7" p-id="1741"></path><path d="M746.905278 171.106829h134.151439V266.834151H746.905278z" fill="#6E6E96" opacity=".15" p-id="1742"></path><path d="M245.165849 157.36373h323.849995v109.470421h-323.849995z" fill="#FFFFFF" opacity=".19" p-id="1743"></path><path d="M881.056717 266.834151H134.240384a22.806338 22.806338 0 0 1 22.806338 22.806337V191.691829a20.603245 20.603245 0 0 1 20.585-20.585h660.033657a20.607807 20.607807 0 0 1 20.585001 20.585V289.640488a22.806338 22.806338 0 0 1 22.806337-22.806337z m22.806338-75.142322c0-36.499263-29.698413-66.197676-66.197676-66.197675H177.631722c-36.499263 0-66.197676 29.698413-66.197676 66.197675V289.640488a22.806338 22.806338 0 0 0 22.806338 22.806338h746.816333a22.806338 22.806338 0 0 0 22.806338-22.806338V191.691829z" fill="#6E6E96" p-id="1744"></path><path d="M333.923554 171.106829h64.505446V266.834151H333.923554z" fill="#FFFFFF" opacity=".35" p-id="1745"></path><path d="M295.339792 426.478514h86.089364v91.0429H295.339792zM447.467187 420.20221h108.822721v97.323766H447.467187zM628.704591 435.988757h88.196669v81.532657h-88.196669z" fill="#6E6E96" opacity=".15" p-id="1746"></path></svg>