<?xml version="1.0" standalone="no"?><!DOCTYPE svg PUBLIC "-//W3C//DTD SVG 1.1//EN" "http://www.w3.org/Graphics/SVG/1.1/DTD/svg11.dtd"><svg t="1639302482377" class="icon" viewBox="0 0 1028 1024" version="1.1" xmlns="http://www.w3.org/2000/svg" p-id="4200" xmlns:xlink="http://www.w3.org/1999/xlink" width="200.78125" height="200"><defs><style type="text/css"></style></defs><path d="M69.632 90.97216c0-20.93056 17.129472-38.060032 38.060032-38.060032h601.3952c20.934656 0 38.068224 17.129472 38.068224 38.060032v218.865664c0 20.93056 13.5168 48.574464 30.04416 61.431808l8.421376 6.549504c16.523264 12.853248 30.04416 40.497152 30.04416 61.427712v239.796224c0 20.93056-13.193216 48.98816-29.302784 62.349312l-7.991296 6.619136c-16.121856 13.357056-29.302784 41.41056-29.302784 62.349312v13.324288c0 20.934656-17.137664 38.064128-38.068224 38.064128H107.692032c-20.93056 0-38.060032-17.129472-38.060032-38.064128V90.97216z" fill="#E0B88F" p-id="4201"></path><path d="M710.995968 878.133248H107.692032c-30.019584 0-54.444032-24.424448-54.444032-54.448128V90.97216c0-30.019584 24.424448-54.444032 54.444032-54.444032h601.3952c30.02368 0 54.452224 24.424448 54.452224 54.444032v218.865664c0 16.007168 11.083776 38.670336 23.719936 48.500736l8.421376 6.549504c20.393984 15.863808 36.368384 48.525312 36.368384 74.358784v239.796224c0 25.653248-15.474688 58.580992-35.233792 74.960896l-7.995392 6.623232c-12.45184 10.317824-23.371776 33.554432-23.371776 49.733632v13.324288c0 30.02368-24.428544 54.448128-54.452224 54.448128zM107.692032 69.296128A21.700608 21.700608 0 0 0 86.016 90.97216v732.71296a21.700608 21.700608 0 0 0 21.676032 21.680128h603.303936a21.7088 21.7088 0 0 0 21.684224-21.680128v-13.324288c0-25.665536 15.474688-58.597376 35.237888-74.964992l7.991296-6.619136c12.447744-10.326016 23.371776-33.562624 23.371776-49.733632v-239.796224c0-16.007168-11.083776-38.66624-23.719936-48.49664l-8.421376-6.549504c-20.393984-15.867904-36.368384-48.529408-36.368384-74.36288V90.97216a21.7088 21.7088 0 0 0-21.684224-21.676032H107.692032z" fill="#6E6E96" p-id="4202"></path><path d="M73.44128 90.97216c0-20.93056 15.826944-31.510528 35.168256-23.506944L369.41824 175.386624c19.345408 7.999488 35.168256 31.678464 35.168256 52.617216v350.175232c0 20.938752 14.483456 47.210496 32.182272 58.392576l7.954432 5.029888c17.702912 11.177984 32.182272 37.453824 32.182272 58.384384v123.703296c0 20.934656-17.129472 38.064128-38.060032 38.064128H111.501312c-20.93056 0-38.060032-17.129472-38.060032-38.064128V90.97216z" fill="#694A2B" opacity=".57" p-id="4203"></path><path d="M101.888 73.121792C84.144128 62.005248 69.632 70.0416 69.632 90.97216v732.71296c0 20.934656 14.823424 46.645248 32.948224 57.126912l200.544256 116.031488c18.120704 10.481664 45.060096 6.946816 59.858944-7.860224l20.393984-20.393984c14.80704-14.80704 26.914816-44.048384 26.914816-64.974848v-239.792128c0-20.938752-14.323712-47.464448-31.830016-58.945536l-24.834048-16.297984c-17.506304-11.481088-31.830016-37.998592-31.830016-58.937344V248.938496c0-20.934656-14.512128-47.157248-32.256-58.273792L101.888 73.121792z" fill="#E0B88F" p-id="4204"></path><path d="M327.02464 1019.260928c-11.69408-0.004096-22.79424-2.84672-32.104448-8.23296L94.37184 894.992384C71.315456 881.651712 53.248 850.333696 53.248 823.68512V90.97216c0-26.959872 17.420288-39.23968 33.60768-39.23968 7.798784 0 15.785984 2.523136 23.732224 7.503872l187.650048 117.542912c22.396928 14.0288 39.940096 45.727744 39.940096 72.159232v280.711168c0 15.286272 11.644928 36.851712 24.428544 45.236224l24.838144 16.297984c21.99552 14.422016 39.227392 46.333952 39.227392 72.64256v239.792128c0 25.14944-13.930496 58.7776-31.711232 76.558336l-20.393984 20.393984c-11.866112 11.874304-29.196288 18.690048-47.542272 18.690048zM87.117824 84.512768c-0.434176 0.847872-1.101824 2.899968-1.101824 6.459392v732.71296c0 14.979072 11.804672 35.446784 24.768512 42.942464l200.544256 116.035584c4.268032 2.465792 9.838592 3.825664 15.695872 3.82976 9.428992 0 18.767872-3.485696 24.3712-9.09312l20.39808-20.393984c11.780096-11.784192 22.114304-36.732928 22.114304-53.39136v-239.792128c0-15.290368-11.644928-36.859904-24.428544-45.244416l-24.838144-16.297984c-21.99552-14.422016-39.227392-46.333952-39.227392-72.634368V248.938496c0-15.17568-11.710464-36.335616-24.571904-44.388352L93.188096 87.007232c-3.2768-2.052096-5.316608-2.428928-6.070272-2.494464z" fill="#6E6E96" p-id="4205"></path><path d="M949.334016 770.4576c-14.80704 14.798848-39.022592 14.798848-53.837824 0l-181.673984-181.673984c-14.802944-14.802944-14.802944-39.026688 0-53.837824l6.733824-6.729728c14.802944-14.802944 39.018496-14.802944 53.837824 0l181.673984 181.673984c14.798848 14.802944 14.798848 39.022592 0 53.837824l-6.733824 6.729728z" fill="#A5A5C4" p-id="4206"></path><path d="M922.4192 797.94176a54.0672 54.0672 0 0 1-38.498304-15.896576l-181.67808-181.67808c-21.229568-21.229568-21.229568-55.771136-0.004096-77.0048l6.742016-6.733824c10.248192-10.252288 23.92064-15.900672 38.490112-15.900672s28.246016 5.644288 38.5024 15.900672l181.673984 181.673984c21.221376 21.225472 21.225472 55.76704 0.004096 77.000704l-6.729728 6.733824a54.059008 54.059008 0 0 1-38.5024 15.904768z m-174.952448-264.445952c-5.81632 0-11.259904 2.240512-15.327232 6.303744l-6.73792 6.733824a21.716992 21.716992 0 0 0 0.004096 30.662656l181.673984 181.673984a21.54496 21.54496 0 0 0 15.335424 6.299648 21.52448 21.52448 0 0 0 15.331328-6.303744l6.725632-6.725632a21.721088 21.721088 0 0 0 0-30.670848l-181.669888-181.673984a21.540864 21.540864 0 0 0-15.335424-6.299648z" fill="#6E6E96" p-id="4207"></path><path d="M655.966208 466.317312m-194.121728 0a194.121728 194.121728 0 1 0 388.243456 0 194.121728 194.121728 0 1 0-388.243456 0Z" fill="#F5F5F5" p-id="4208"></path><path d="M655.966208 676.82304c-116.076544 0-210.509824-94.43328-210.509824-210.505728s94.43328-210.505728 210.509824-210.505728c116.072448 0 210.505728 94.43328 210.505728 210.505728s-94.43328 210.505728-210.505728 210.505728z m0-388.243456c-98.009088 0-177.741824 79.732736-177.741824 177.737728s79.732736 177.737728 177.741824 177.737728c98.004992 0 177.737728-79.732736 177.737728-177.737728s-79.732736-177.737728-177.737728-177.737728z" fill="#6E6E96" p-id="4209"></path><path d="M655.966208 466.321408m-129.41312 0a129.41312 129.41312 0 1 0 258.82624 0 129.41312 129.41312 0 1 0-258.82624 0Z" fill="#9FD4FF" p-id="4210"></path><path d="M655.966208 612.118528c-80.396288 0-145.801216-65.404928-145.801216-145.79712s65.404928-145.79712 145.801216-145.79712c80.392192 0 145.79712 65.404928 145.79712 145.79712s-65.404928 145.79712-145.79712 145.79712z m0-258.82624c-62.328832 0-113.033216 50.704384-113.033216 113.02912s50.704384 113.02912 113.033216 113.02912c62.324736 0 113.02912-50.704384 113.02912-113.02912s-50.704384-113.02912-113.02912-113.02912z" fill="#6E6E96" p-id="4211"></path></svg>