<?xml version="1.0" standalone="no"?><!DOCTYPE svg PUBLIC "-//W3C//DTD SVG 1.1//EN" "http://www.w3.org/Graphics/SVG/1.1/DTD/svg11.dtd"><svg t="1639302789199" class="icon" viewBox="0 0 1024 1024" version="1.1" xmlns="http://www.w3.org/2000/svg" p-id="1514" xmlns:xlink="http://www.w3.org/1999/xlink" width="200" height="200"><defs><style type="text/css"></style></defs><path d="M151.962451 124.098333c-25.320553 0-31.388278 14.649091-13.484346 32.553024l259.125938 259.125937c17.903933 17.903933 32.553024 53.26984 32.553024 78.590394v469.783732c0 25.320553 17.590879 35.09889 39.094934 21.729638l74.511482-46.327405c21.504055-13.369252 39.094934-45.024547 39.094934-70.3451v-364.371968c0-25.320553 14.649091-60.68646 32.553024-78.590393l269.57642-269.581024c17.908537-17.903933 11.836208-32.553024-13.484345-32.553024H151.962451z" fill="#EEEEFC" p-id="1515"></path><path d="M448.576618 463.660762L366.979985 240.25522h-105.88595z" fill="#FFFFFF" p-id="1516"></path><path d="M151.962451 101.079648c-31.019979 0-41.25869 16.624094-44.218894 23.773698-2.960203 7.145-7.476469 26.140018 14.460338 48.072221l259.125938 259.125937c13.511968 13.507364 25.813153 43.206071 25.813153 62.31158v469.783732c0 20.675383 8.498498 37.258043 23.317927 45.494128 14.824033 8.236085 33.390904 6.698437 50.949557-4.217023l74.511482-46.327404c28.48332-17.710576 49.959753-56.354344 49.959754-89.892568v-364.371967c0-19.105508 12.301185-48.808819 25.808549-62.316184l269.57642-269.581024c21.94141-21.936807 17.420541-40.927221 14.460338-48.076824-2.960203-7.149603-13.19431-23.773698-44.21429-23.773698H151.962451z m719.545668 46.03737c4.465625 0 6.215045 0.695164 6.23346 0.704371-0.72739-0.299243-3.130541-1.924362-4.543888-5.349542-1.422555-3.429784-0.870106-6.27029-0.570863-6.99768-0.004604 0.013811-0.750409 1.744816-3.908573 4.90298l-269.57642 269.581024c-22.401784 22.401784-39.297499 63.186289-39.297499 94.869207v364.371967c0 17.397522-13.456723 41.613178-28.234719 50.797634L457.102739 966.324384c-3.319294 2.062474-5.446221 2.518244-5.984858 2.518244 0.943766 0 2.5873 0.91154 3.084504 1.717194-0.285432-0.460374-1.02203-2.509037-1.02203-6.41761V494.367688c0-31.682918-16.895715-72.467423-39.297499-94.864604L154.756919 140.377147c-3.158164-3.158164-3.903969-4.884565-3.908573-4.90298 0.303847 0.72739 0.851691 3.5725-0.570863 6.99768-1.422555 3.429784-3.816498 5.054903-4.543888 5.354146 0.013811-0.004604 1.763231-0.704372 6.228856-0.704372H871.508119z" fill="#6E6E96" p-id="1517"></path><path d="M91.266783 100.849461c0-25.320553 20.716816-46.037369 46.037369-46.037369h752.609708c25.320553 0 46.037369 20.716816 46.037369 46.037369v18.635928c0 25.320553-20.716816 46.037369-46.037369 46.037369H137.304152c-25.320553 0-46.037369-20.716816-46.037369-46.037369v-18.635928z" fill="#EEEEFC" p-id="1518"></path><path d="M222.086572 240.25522H801.393206l74.727858-74.732462H137.304152z" fill="#6E6E96" opacity=".15" p-id="1519"></path><path d="M730.675203 54.812092h188.753214v110.710666h-188.753214z" fill="#6E6E96" opacity=".15" p-id="1520"></path><path d="M261.094035 54.812092h165.73453v110.710666h-165.73453z" fill="#FFFFFF" p-id="1521"></path><path d="M114.285468 100.849461c0-12.692503 10.326182-23.018685 23.018684-23.018684h752.609708c12.692503 0 23.018685 10.326182 23.018684 23.018684v18.635928c0 12.692503-10.326182 23.018685-23.018684 23.018684H137.304152c-12.692503 0-23.018685-10.326182-23.018684-23.018684v-18.635928zM68.248098 119.485389c0 38.077508 30.978546 69.056054 69.056054 69.056054h752.609708c38.077508 0 69.056054-30.978546 69.056054-69.056054v-18.635928c0-38.077508-30.978546-69.056054-69.056054-69.056054H137.304152c-38.077508 0-69.056054 30.978546-69.056054 69.056054v18.635928z" fill="#6E6E96" p-id="1522"></path><path d="M666.222886 240.25522l-119.697161 149.741147s-41.433632 41.433632-41.433632 110.489687v463.108314l77.770928-94.395023v-387.128239l218.530185-241.815886h-135.17032z" fill="#6E6E96" opacity=".15" p-id="1523"></path></svg>