<?xml version="1.0" standalone="no"?><!DOCTYPE svg PUBLIC "-//W3C//DTD SVG 1.1//EN" "http://www.w3.org/Graphics/SVG/1.1/DTD/svg11.dtd"><svg t="1639302081558" class="icon" viewBox="0 0 1024 1024" version="1.1" xmlns="http://www.w3.org/2000/svg" p-id="3274" xmlns:xlink="http://www.w3.org/1999/xlink" width="200" height="200"><defs><style type="text/css"></style></defs><path d="M52.260428 467.943765c27.26631-0.711925 49.493724-8.07417 66.690768-22.086735 17.175729-14.016827 28.6049-33.26865 34.274724-57.75973 5.661298-24.491081 4.416494-45.051652 4.787377-104.324756 0.358094-59.273104 1.453692-98.309627 3.286793-117.122358 3.205795-29.811336 9.182557-53.765275 17.934547-71.866081 8.739202-18.096543 19.541708-32.556724 32.386204-43.380546 12.848758-10.828084 29.265669-19.081301 49.26352-24.755388C274.427993 23.092808 296.548831 21.315127 327.238351 21.315127h29.981857v83.738606h-16.634325c-37.199159 0-61.877813 6.663109-74.035961 19.968011-12.166674 13.304902-18.241485 43.030978-18.241485 89.161175 0 92.980846 2.306297 130.397419-1.611424 154.879973-6.407327 37.970767-17.34625 67.249225-32.825295 87.835374-15.483308 20.586149-39.774026 38.857476-72.872155 54.822506 39.522508 16.352965 68.191353 41.308715 85.976695 74.88004 17.789605 33.588377 26.695065 88.564351 26.695064 164.970554 0 69.295477 0.545667 80.669228 1.641265 93.824925 2.839175 24.154302 10.043688 41.040145 21.609276 50.631952 11.561325 9.600333 34.22783 14.396237 68.029358 14.396236h16.540538v83.738607h-29.909386c-34.897125 0-60.164077-2.847701-75.834957-8.526051-22.781607-8.176483-41.654021-21.413176-56.595925-39.697292-14.963219-18.309694-24.665865-41.492026-29.1122-69.559784-4.446335-28.072022-6.944468-44.250203-7.490135-108.204109-0.545667-63.962432-3.657676-108.199846-9.327499-132.720768-5.669824-24.512396-17.098995-43.87932-34.274724-58.092246-17.188518-14.212926-39.415932-21.673221-66.690768-22.389409L52.260428 467.943765z" fill="#F0F0FF" p-id="3275"></path><path d="M361.487496 1015.478212h-29.909386c-37.714985 0-64.896035-3.205795-83.099152-9.800695-26.302866-9.442601-48.479124-25.01117-65.838164-46.253825-17.316409-21.187236-28.639004-48.005928-33.660848-79.71431-4.48044-28.306488-7.187461-45.384168-7.75018-111.354485-0.528615-62.082438-3.482892-105.185887-8.777569-128.103911-4.629646-20.010641-13.492475-35.216852-27.095789-46.466977-13.526579-11.186178-31.081718-16.911421-53.6587-17.503982a21.315127 21.315127 0 0 1-20.75667-21.3066L30.945301 467.943765a21.315127 21.315127 0 0 1 20.760933-21.310864c22.628138-0.588297 40.217381-6.249595 53.778065-17.30362 13.530842-11.041236 22.359568-26.106767 26.976424-46.044936 4.071189-17.610558 4.092504-33.072551 4.143661-70.425179 0.012789-8.598522 0.025578-18.250011 0.093786-29.227302 0.36662-60.471014 1.475007-99.413751 3.384842-119.053508 3.525522-32.774139 10.043688-58.569705 19.959485-79.07912 10.001057-20.709777 22.734714-37.668092 37.838613-50.401748 15.116688-12.742183 34.355721-22.483196 57.179959-28.962995C270.936575 1.973781 294.413056 0 327.238351 0h29.981857a21.315127 21.315127 0 0 1 21.315126 21.315127v83.738606a21.315127 21.315127 0 0 1-21.315126 21.315127h-16.634325c-41.871435 0-54.720193 9.114348-58.301135 13.032068-2.971329 3.252688-12.661185 18.241485-12.661185 74.781991 0 29.500135 0.234466 53.662963 0.426303 73.081043 0.42204 43.009663 0.652243 66.699294-2.306297 85.16672-6.978572 41.372661-19.362661 74.040224-36.836802 97.273712-11.220283 14.920589-26.430757 28.754106-45.422535 41.351346 26.021507 17.026523 46.236773 38.972578 60.326072 65.56533 19.631232 37.067005 29.171882 94.293857 29.171882 174.950296 0 69.11643 0.554193 79.820886 1.534689 91.684886 2.157091 17.981441 6.999888 30.553103 14.008301 36.363606 2.685706 2.229562 14.524127 9.489494 54.421782 9.489494h16.540538a21.315127 21.315127 0 0 1 21.315127 21.315127v83.738607a21.315127 21.315127 0 0 1-21.315127 21.315126zM73.571291 535.482875c23.003285 3.542574 42.770933 12.064362 58.957641 25.450261 20.790775 17.201307 34.73513 40.656473 41.462184 69.717517 6.079074 26.315655 9.310447 71.235153 9.873167 137.341887 0.532878 62.798626 2.911646 77.808738 7.225828 105.053733 3.823934 24.158565 12.08994 44.143627 24.563551 59.409521 12.571662 15.376732 28.042181 26.213343 47.294004 33.12797 9.191083 3.329423 28.498324 7.272721 68.634707 7.272721h8.594259v-41.133931c-37.148003-0.477459-61.647609-6.641793-76.870872-19.281664-15.858454-13.155696-25.676202-34.871547-29.163357-64.542203a21.694536 21.694536 0 0 1-0.072471-0.720452c-1.219225-14.634966-1.713736-27.372886-1.713736-95.59408 0-72.509798-8.146641-124.655124-24.213984-154.995075-15.530201-29.308299-40.153436-50.623426-75.289291-65.160342a21.315127 21.315127 0 0 1-1.108386-38.89158c29.853966-14.4005 51.757391-30.698045 65.096397-48.436494 13.334743-17.734185 23.037389-44.164942 28.843629-78.567557 2.357453-14.733016 2.135776-37.14374 1.739314-77.834316-0.187573-19.511867-0.426303-43.789796-0.426302-73.49882 0-52.861514 7.571133-85.763544 23.826048-103.544622 15.947978-17.448563 43.811111-26.255973 85.085723-26.865586V42.630253h-8.66673c-35.775309 0-52.891355 2.519448-60.948474 4.633909-16.561853 4.70638-30.472105 11.616744-40.937832 20.436943-10.487042 8.837252-19.545971 21.067871-26.925268 36.350817-7.647867 15.815824-13.00649 37.642514-15.935189 64.87472-1.739314 17.870602-2.809334 56.625765-3.163164 114.973793-0.068208 10.900556-0.080997 20.4881-0.093787 29.02694-0.055419 38.380017-0.080997 57.644629-5.239258 79.970092-6.73558 29.090885-20.718303 52.46079-41.564497 69.474524-16.173918 13.181274-35.903199 21.579434-58.851065 25.075115l-0.012789 48.035769z" fill="#6E6E96" p-id="3276"></path><path d="M975.97702 467.943765v87.021136c-27.274836 0.724714-49.50225 8.176483-66.690769 22.389409-17.188518 14.212926-28.613426 33.49459-34.274723 57.832202-5.669824 24.337612-8.688046 66.174942-9.04614 125.516254-0.370883 59.332787-1.466481 68.575025-3.286793 87.409072-3.205795 30.207798-9.161241 54.272576-17.883391 72.224175-8.730676 17.926022-19.482026 32.322258-32.292417 43.163131-12.810391 10.845136-29.193197 19.09409-49.114315 24.780967-13.526579 3.909194-35.596262 5.865923-66.191994 5.865923h-29.90086V910.41169h16.549065c37.015849 0 61.558086-6.663109 73.660814-19.985063 12.102729-13.33048 18.156225-43.261181 18.156225-89.809154 0-88.837185 1.645528-115.319098 4.923795-139.128095 5.657035-39.437247 16.988156-70.970846 33.984837-94.609321 16.992419-23.621423 41.069986-42.007852 72.211387-55.159285-41.15951-19.51613-70.165134-45.328748-86.978506-77.450644-16.826161-32.11337-29.500135-65.006873-29.500136-141.310764 0-69.197427-0.91655-110.535984-2.741125-124.024196-2.464029-23.774892-9.417023-40.362324-20.863246-49.770821-11.450486-9.408497-33.869736-14.110614-67.308907-14.110614h-16.370017V21.315127h29.747391c34.701026 0 59.827298 2.839175 75.404392 8.517524 22.653717 7.814125 41.423817 20.944243 56.293249 39.39888 14.856643 18.454637 24.508133 41.705177 28.937416 69.738832 4.429283 28.042181 6.91889 74.001857 7.464558 137.883291 0.54993 63.881435 7.929227 86.667305 13.624629 110.970813 5.695402 24.312033 17.16294 43.559593 34.445244 57.755467 17.286568 14.195874 39.620557 21.651906 67.040337 22.363831z" fill="#F0F0FF" p-id="3277"></path><path d="M697.187952 1015.465423h-29.90086a21.315127 21.315127 0 0 1-21.315126-21.315126V910.41169a21.315127 21.315127 0 0 1 21.315126-21.315127h16.549065c41.581549 0 54.332258-9.093033 57.887621-13.002227 2.950014-3.256951 12.614292-18.339535 12.614292-75.476863 0-89.156912 1.654054-116.836735 5.124156-142.035478 6.134493-42.792248 18.846835-77.791686 37.79172-104.145709 12.030257-16.723848 27.232206-31.192556 45.405482-43.269707-27.428305-18.535634-48.12103-40.971936-61.749922-67.010496-20.219529-38.593168-31.93006-75.707067-31.930059-151.196719 0-84.569897-1.385483-112.57371-2.549289-121.167969l-0.080998-0.656506c-1.828838-17.631873-6.390275-29.909386-13.194063-35.502475-2.643076-2.16988-14.336554-9.259291-53.773802-9.259291h-16.370017a21.315127 21.315127 0 0 1-21.315127-21.315127V21.315127a21.315127 21.315127 0 0 1 21.315127-21.315127h29.747391c37.55299 0 64.601886 3.205795 82.702691 9.804958 26.055611 8.982194 48.240395 24.516659 65.595171 46.053463 17.158677 21.315127 28.396012 48.155134 33.392277 79.786782 4.638172 29.363718 7.166146 75.493916 7.724602 141.029404 0.46467 54.464412 5.878712 76.687563 11.109444 98.177474 0.665032 2.724073 1.321538 5.409779 1.952466 8.112537 4.642435 19.818805 13.547895 34.914177 27.22368 46.147249 13.637418 11.203231 31.32471 16.937 54.063687 17.525297a21.315127 21.315127 0 0 1 20.760933 21.310864v87.021136a21.310864 21.310864 0 0 1-20.748144 21.3066c-22.598297 0.601087-40.153436 6.32633-53.671489 17.503982-13.616103 11.262913-22.478933 26.383864-27.095789 46.241036-5.290414 22.70061-8.146641 63.348556-8.491946 120.818401-0.362357 58.215874-1.432377 69.197427-3.197269 87.387756l-0.191837 1.94394c-3.516996 33.183389-10.035162 59.119635-19.929643 79.48837-10.01811 20.569097-22.696347 37.425099-37.69367 50.120389-15.052742 12.742183-34.240619 22.504511-57.039279 29.009888-15.534464 4.48044-39.121783 6.675898-72.036602 6.675897z m-8.58147-42.630253h8.585733c35.43853 0 52.337162-2.736862 60.274915-5.03037 17.000945-4.851323 30.86004-11.76595 41.266085-20.57336 10.452938-8.845778 19.503341-21.033767 26.903953-36.227189 7.583922-15.611199 12.92123-37.535938 15.854191-65.139028l0.170521-1.764892c1.649791-16.992419 2.647339-27.249258 2.996907-83.529718 0.370883-61.485614 3.512733-104.081763 9.604596-130.222635 6.714265-28.873471 20.662884-52.234849 41.449396-69.423368 16.178181-13.377373 35.950093-21.899161 58.95764-25.445998v-48.031506c-23.10986-3.525522-42.975558-12.030257-59.251789-25.399105-20.884561-17.158677-34.905651-40.498741-41.66681-69.363686-0.60535-2.583393-1.232014-5.149735-1.867205-7.75018-5.53767-22.734714-11.812843-48.504702-12.324406-107.901434-0.532878-62.525793-2.954277-107.858804-7.20025-134.737178-3.819671-24.175617-12.060099-44.262992-24.486817-59.695144-12.409667-15.402311-27.667034-26.072663-46.637497-32.616407C751.822885 46.560763 732.664849 42.630253 692.762932 42.630253h-8.432264v41.138195c36.632177 0.490248 60.829108 6.539481 75.898903 18.923569 15.82435 13.00649 25.407631 34.445245 28.498324 63.723703 1.253329 9.536388 2.886068 33.383751 2.886068 126.539381 0 73.76739 12.256198 103.16095 27.065948 131.420545 14.541179 27.77361 40.524319 50.678845 77.23323 68.084777a21.323653 21.323653 0 0 1-0.844079 38.900107c-27.343044 11.544273-48.607015 27.684087-63.203614 47.971824-14.890747 20.71404-25.049537 49.378622-30.186482 85.188035-3.18448 23.118386-4.70638 49.429779-4.70638 136.101347 0 53.245186-7.528503 86.339052-23.689632 104.141445-15.888295 17.482667-43.610749 26.307129-84.676472 26.929531v41.142458z" fill="#6E6E96" p-id="3278"></path></svg>