<?xml version="1.0" standalone="no"?><!DOCTYPE svg PUBLIC "-//W3C//DTD SVG 1.1//EN" "http://www.w3.org/Graphics/SVG/1.1/DTD/svg11.dtd"><svg t="1639302470141" class="icon" viewBox="0 0 1024 1024" version="1.1" xmlns="http://www.w3.org/2000/svg" p-id="4037" xmlns:xlink="http://www.w3.org/1999/xlink" width="200" height="200"><defs><style type="text/css"></style></defs><path d="M577.904008 1007.523998H79.504948c-33.981754 0-61.785007-27.803253-61.785008-61.785007V215.040659c0-33.981754 27.803253-61.785007 61.785008-61.785007h498.39906" fill="#8DA7B8" p-id="4038"></path><path d="M577.904008 991.047996H79.504948c-24.981738 0-45.309005-20.331386-45.309006-45.309005V215.040659c0-24.981738 20.327267-45.309005 45.309006-45.309005h498.39906l-16.476002-16.476002v854.264227l16.476002-16.471883z m0-854.268346H79.504948c-43.154768 0-78.261009 35.098003-78.26101 78.261009v730.694213c0 43.158887 35.106241 78.261009 78.26101 78.261009h514.875062V136.77965h-16.476002z" fill="#6E6E96" p-id="4039"></path><path d="M656.165017 153.255652H79.504948c-33.981754 0-61.785007 21.315828-61.785008 47.368505 0 26.048559 27.803253 47.368506 61.785008 47.368506h576.660069" fill="#F0F0FF" p-id="4040"></path><path d="M693.236022 231.516661H79.504948c-24.557481 0-45.309005-14.152886-45.309006-30.892504 0-9.926791 7.327702-17.032067 11.697962-20.372576 8.715805-6.685138 20.965713-10.519927 33.611044-10.519927h572.541069a16.476002 16.476002 0 0 1-16.476002-16.476002v94.737011a16.476002 16.476002 0 0 0 32.952004 0v-94.737011a16.476002 16.476002 0 0 0-16.476002-16.476002H79.504948c-20.038937 0-39.097553 6.149668-53.65822 17.316278C10.211002 166.082219 1.243938 183.040144 1.243938 200.624157c0 35.205097 35.106241 63.844508 78.26101 63.844508h613.731074a16.476002 16.476002 0 0 0 0-32.952004z" fill="#6E6E96" p-id="4041"></path><path d="M79.504948 169.731654s-37.071004 35.011504 35.011504 35.011504H635.570015v26.773503H100.09995s-82.38001 15.635726-82.38001-30.892504 61.785007-47.368506 61.785008-47.368505" fill="#6E6E96" opacity=".15" p-id="4042"></path><path d="M1006.28006 663.15908c0 22.654503-18.535502 41.190005-41.190005 41.190005H549.071004c-22.654503 0-41.190005-18.535502-41.190004-41.190005V57.666007c0-22.654503 18.535502-41.190005 41.190004-41.190005h416.019051c22.654503 0 41.190005 18.535502 41.190005 41.190005v605.493073z" fill="#FFFFFF" p-id="4043"></path><path d="M989.804058 663.15908c0 13.629773-11.08423 24.714003-24.714003 24.714003H549.071004c-13.629773 0-24.714003-11.08423-24.714003-24.714003V57.666007c0-13.633892 11.08423-24.714003 24.714003-24.714003h416.019051c13.629773 0 24.714003 11.080111 24.714003 24.714003v605.493073z m32.952004-605.493073c0-31.802803-25.863204-57.666007-57.666007-57.666007H549.071004c-31.802803 0-57.666007 25.863204-57.666006 57.666007v605.493073c0 31.798684 25.863204 57.666007 57.666006 57.666007h416.019051c31.802803 0 57.666007-25.867323 57.666007-57.666007V57.666007z" fill="#6E6E96" p-id="4044"></path><path d="M895.067046 358.353043v267.735033a16.476002 16.476002 0 0 0 32.952004 0V358.353043a16.476002 16.476002 0 0 0-32.952004 0zM808.568036 358.353043v156.522019a16.476002 16.476002 0 0 0 32.952004 0V358.353043a16.476002 16.476002 0 0 0-32.952004 0zM680.87902 358.353043v53.547007a16.476002 16.476002 0 0 0 32.952004 0V358.353043a16.476002 16.476002 0 0 0-32.952004 0zM680.87902 514.875062v98.856012a16.476002 16.476002 0 0 0 32.952004 0v-98.856012a16.476002 16.476002 0 0 0-32.952004 0zM586.142009 358.353043v94.737012a16.476002 16.476002 0 0 0 32.952004 0V358.353043a16.476002 16.476002 0 0 0-32.952004 0z" fill="#6E6E96" opacity=".24" p-id="4045"></path><path d="M782.552429 230.890573c3.002751-12.925424 9.506653-20.93688 15.70163-27.659088 11.965696 19.099805 37.948352 29.475568 68.157101 29.475567 41.544239 0 58.942897-24.421554 58.951135-54.547923 0-30.130489-17.406896-54.552043-58.951135-54.552043-30.439414 0-56.595067 10.528165-68.433074 29.908063-6.392689-6.796351-13.151969-15.227945-16.451288-29.792731-6.339142-27.988608-12.785378-43.163006-35.954756-43.163006l0.008238 195.784331c23.824299 0 30.216988-16.414217 36.972149-45.45317z" fill="#9F9FD9" p-id="4046"></path><path d="M965.090055 16.476002H549.071004c-1.511673 0-3.00687 0.090618-4.481472 0.259497h382.037296c21.155187 0 38.463227 17.30804 38.463227 38.459108v565.386365c0 21.155187-17.30804 38.463227-38.463227 38.463227h-388.458818c-12.27874 0-23.239401-5.8531-30.291129-14.881949V663.15908c0 22.654503 18.535502 41.190005 41.190004 41.190005h416.019051c22.654503 0 41.190005-18.535502 41.190005-41.190005V57.666007C1006.28006 35.011504 987.744558 16.476002 965.090055 16.476002z" fill="#6E6E96" opacity=".15" p-id="4047"></path><path d="M610.856012 231.516661h152.403018V659.04008h-152.403018z" fill="#6E6E96" opacity=".15" p-id="4048"></path><path d="M21.838941 871.596982v65.904008c0 33.981754 27.803253 61.785007 61.785007 61.785007h498.39906v-65.904008H83.623948c-33.981754 0-61.785007-27.803253-61.785007-61.785007z" fill="#6E6E96" opacity=".2" p-id="4049"></path><path d="M100.09995 247.992663h605.493073v759.527216H100.09995z" fill="#A3C2D4" p-id="4050"></path><path d="M705.593023 991.047996H100.09995a16.476002 16.476002 0 0 1 16.476002 16.476002V247.992663a16.476002 16.476002 0 0 1-16.476002 16.476002h605.493073a16.476002 16.476002 0 0 1-16.476002-16.476002v759.527216a16.476002 16.476002 0 0 1 16.476002-16.471883z m0-759.531335H100.09995a16.476002 16.476002 0 0 0-16.476002 16.476002v759.527216a16.476002 16.476002 0 0 0 16.476002 16.476002h605.493073a16.476002 16.476002 0 0 0 16.476002-16.476002V247.992663a16.476002 16.476002 0 0 0-16.476002-16.476002z" fill="#6E6E96" p-id="4051"></path><path d="M410.532542 591.047739m-173.467587 0a173.467587 173.467587 0 1 0 346.935174 0 173.467587 173.467587 0 1 0-346.935174 0Z" fill="#BADAFF" p-id="4052"></path><path d="M404.411707 497.175717c-47.129604 0-89.629451 7.648984-119.652846 19.919487 22.823382-33.00967 57.666007-57.834886 99.931072-67.21797 65.685701-14.585381 130.918312 12.188122 168.50831 63.008351-33.870541-64.075172-107.464723-100.342971-181.639684-83.875207-58.638091 13.02428-102.999726 55.750672-120.769095 108.848707-7.150585 7.125871-11.075992 14.881949-11.075992 22.992261 0 4.399093 1.186272 8.69521 3.385818 12.847162a164.834162 164.834162 0 0 0 3.142798 52.167142 164.496404 164.496404 0 0 0 28.35108 62.332834 165.394346 165.394346 0 0 1-15.223826-41.449502 164.22455 164.22455 0 0 1 6.178501-92.673392c27.836205-19.919486 82.293511-33.458641 144.955866-33.458641 74.776335 0 137.900018 19.268684 157.992502 45.655002 0.407781-1.783527 0.601374-3.587649 0.601374-5.408248 0.004119-35.180383-73.734228-63.687986-164.685878-63.687986z" fill="#FFFFFF" opacity=".34" p-id="4053"></path><path d="M417.913791 414.857492c-4.497949-2.442567-9.164776-3.731814-13.951055-3.731814-2.310759 0-4.57621 0.296568-6.812827 0.877347 1.190391 0.844395 2.364306 1.804122 3.529984 2.821515-92.290325 4.271404-165.802127 80.435842-165.802128 173.772393 0 96.092163 77.894418 173.9907 173.982463 173.9907 13.102541 0 26.518125-19.066853 33.948802-29.607375 14.111696-27.243069 23.255877-48.023427 25.455423-97.34022 35.19274-4.399093 64.590047-12.583547 83.455069-22.984023-0.074142 0.271854-0.135927 0.560184-0.210069 0.827919 18.366623-5.054014 31.324999-10.573474 31.324999-24.878763 0.016476-93.048221-73.046355-169.052018-164.920661-173.747679z m-166.951329 158.008978c0-84.509533 68.498978-153.004393 153.004393-153.004392 0.613731 0 1.248057 0.016476 1.857669 0.024714 24.087915 26.765265 40.975817 89.073386 40.975817 161.720197 0 11.599105-0.436614 22.946952-1.27689 33.928208-12.254026 0.683754-24.965262 0.955608-37.989542 0.955608-65.702177 0-123.285804-10.194526-155.500506-25.488375a155.784718 155.784718 0 0 1-1.070941-18.13596z m167.342634 152.328877a155.689981 155.689981 0 0 1-14.338241 0.675516c-73.182282 0-134.349439-51.384531-149.420862-120.035913 24.775788 19.594085 84.295345 33.400975 153.799359 33.400975 11.973934 0 23.647182-0.420138 34.90853-1.198629-4.621519 35.505784-13.448537 65.924603-24.948786 87.158051z m137.14624-139.588808c-21.175782 15.833438-50.737848 24.030249-85.131502 27.889752 0.630207-9.510772 0.963846-19.297517 0.963846-29.261379 0-74.722788-18.407813-138.377822-44.196875-162.622259 73.532397 11.141896 129.884443 74.615694 129.884442 151.266174 0 7.278274-0.531351 5.708935-1.519911 12.727712z" fill="#6E6E96" opacity=".2" p-id="4054"></path><path d="M458.864894 719.712957s73.132854-19.709417 92.652797-92.652797l24.376245-19.252208s12.69476 111.299512-143.510097 148.391112l26.481055-36.486107z" fill="#6E6E96" opacity=".2" p-id="4055"></path><path d="M267.351965 643.696803s34.212418 37.157503 169.875819 28.688838l4.102524-16.904378-180.811764-27.720873 6.833421 15.936413z m208.94042 7.900243l-3.212821 18.428408s50.48247-5.943718 74.529195-29.990442l3.468199-10.96478-74.784573 22.526814z" fill="#FFFFFF" opacity=".34" p-id="4056"></path><path d="M459.754598 590.817075c0 93.34067-29.310808 155.261605-48.698943 155.261604s-48.703062-61.920934-48.703062-155.261604c0-93.336551 29.314927-155.253367 48.703062-155.253367s48.698943 61.920934 48.698943 155.253367zM411.055655 402.607585c-53.608791 0-81.655066 94.679345-81.655066 188.20949 0 93.534263 28.050393 188.20949 81.655066 188.209489 53.604672 0 81.650947-94.675226 81.650947-188.209489 0-93.526025-28.046274-188.20949-81.650947-188.20949z" fill="#6E6E96" p-id="4057"></path><path d="M557.156602 580.173577c0 9.098872-50.754324 35.435761-147.633215 35.435762-96.870654 0-147.633216-26.328651-147.633216-35.435762s50.762562-35.431642 147.633216-35.431642c96.878892 0 147.633216 26.324532 147.633215 35.431642z m-147.633215-68.383646c-86.976815 0-180.58522 21.394089-180.58522 68.383646 0 46.977201 93.608405 68.387765 180.58522 68.387766 86.972696 0 180.58522-21.394089 180.585219-68.387766 0-46.985439-93.612524-68.383646-180.585219-68.383646z" fill="#6E6E96" p-id="4058"></path><path d="M564.982703 591.080691c0 86.87384-70.67793 157.551769-157.551769 157.551769-86.877959 0-157.551769-70.67793-157.551769-157.551769s70.67793-157.551769 157.551769-157.55177 157.551769 70.67793 157.551769 157.55177z m-157.551769-190.503773c-105.042751 0-190.503773 85.461022-190.503773 190.503773s85.465141 190.503773 190.503773 190.503773c105.042751 0 190.503773-85.461022 190.503773-190.503773s-85.456903-190.503773-190.503773-190.503773z" fill="#6E6E96" p-id="4059"></path><path d="M316.022075 330.372673h185.359142v32.952004H316.022075zM276.891571 819.508101h263.62015v32.952004H276.891571zM336.617078 892.191984h144.165017v32.952004h-144.165017z" fill="#6E6E96" opacity=".47" p-id="4060"></path><path d="M652.046017 247.992663v693.627327H95.98095v65.904008h605.493073V247.992663z" fill="#6E6E96" opacity=".15" p-id="4061"></path><path d="M116.575952 264.468665h535.470065v37.071005H116.575952z" fill="#CCE0EB" opacity=".35" p-id="4062"></path><path d="M83.623948 301.53967s-49.428006-2.0595-49.428006-20.595003v-28.314009s32.952004 15.957008 49.428006 15.957008v32.952004z" fill="#CCE0EB" opacity=".25" p-id="4063"></path></svg>