<?xml version="1.0" standalone="no"?><!DOCTYPE svg PUBLIC "-//W3C//DTD SVG 1.1//EN" "http://www.w3.org/Graphics/SVG/1.1/DTD/svg11.dtd"><svg t="1639302134615" class="icon" viewBox="0 0 1024 1024" version="1.1" xmlns="http://www.w3.org/2000/svg" p-id="3996" xmlns:xlink="http://www.w3.org/1999/xlink" width="200" height="200"><defs><style type="text/css"></style></defs><path d="M115.220346 250.845924v469.7384l390.479889 262.824407V513.670331z" fill="#79CDF2" p-id="3997"></path><path d="M94.924712 250.845924v469.746518c0 6.754387 3.360957 13.066329 8.962552 16.833199l390.479889 262.820348a20.295634 20.295634 0 0 0 31.628717-16.82914V513.670331a20.287516 20.287516 0 0 0-8.962553-16.8332L126.553429 234.008665A20.295634 20.295634 0 0 0 94.924712 250.845924z m390.479889 262.824407v469.746518a20.283457 20.283457 0 0 1 31.628716-16.833199l-390.479888-262.824407A20.295634 20.295634 0 0 1 135.515981 720.592442V250.845924a20.295634 20.295634 0 0 1-31.628717 16.837258l390.479889 262.824407a20.303753 20.303753 0 0 1-8.962552-16.837258z" fill="#6E6E96" p-id="3998"></path><path d="M908.779654 304.223442L525.492538 40.591269 115.220346 250.845924l390.479889 262.824407L908.779654 304.223442" fill="#91D4F2" p-id="3999"></path><path d="M920.283219 287.499839L536.996103 23.867666a20.295634 20.295634 0 0 0-20.758375-1.339512L105.965537 232.782809a20.291575 20.291575 0 0 0-2.078273 34.896314l390.479889 262.824407a20.307812 20.307812 0 0 0 20.693429 1.173088l403.083477-209.446889a20.303753 20.303753 0 0 0 8.65-27.366633 20.303753 20.303753 0 0 0-27.366634-8.654059l-403.079418 209.450948a20.295634 20.295634 0 0 1 20.693429 1.173087l-390.488007-262.824407a20.291575 20.291575 0 0 1-2.078273 34.896314L534.747347 58.654384a20.295634 20.295634 0 0 1-20.754316-1.339512l383.283057 263.632173a20.295634 20.295634 0 0 0 23.007131-33.447206z" fill="#6E6E96" p-id="4000"></path><path d="M908.779654 761.784462l-403.079419 221.624269V513.670331L908.779654 304.223442z" fill="#67AFCF" p-id="4001"></path><path d="M899.001217 743.997368l-403.079419 221.632387a20.295634 20.295634 0 0 1 30.074072 17.787094V513.670331a20.311871 20.311871 0 0 1-10.935288 18.014405l403.083477-209.446889a20.299694 20.299694 0 0 1-29.651922-18.006286v457.561019a20.279398 20.279398 0 0 1 10.50908-17.795212z m0.414031-457.788331l-403.07536 209.450948a20.295634 20.295634 0 0 0-10.935287 18.010346v469.746518a20.307812 20.307812 0 0 0 30.07813 17.787094l403.079418-221.632387a20.303753 20.303753 0 0 0 10.517198-17.787094V304.223442a20.283457 20.283457 0 0 0-9.758141-17.344649 20.340285 20.340285 0 0 0-19.905958-0.669756z" fill="#6E6E96" p-id="4002"></path></svg>