<?xml version="1.0" standalone="no"?><!DOCTYPE svg PUBLIC "-//W3C//DTD SVG 1.1//EN" "http://www.w3.org/Graphics/SVG/1.1/DTD/svg11.dtd"><svg t="1639301846637" class="icon" viewBox="0 0 1024 1024" version="1.1" xmlns="http://www.w3.org/2000/svg" p-id="1297" xmlns:xlink="http://www.w3.org/1999/xlink" width="200" height="200"><defs><style type="text/css"></style></defs><path d="M96.256 40.96h335.872v155.648H96.256z" fill="#FFF2C4" p-id="1298"></path><path d="M96.256 61.44h335.872a20.48 20.48 0 0 1-20.48-20.48v155.648a20.48 20.48 0 0 1 20.48-20.48H96.256a20.48 20.48 0 0 1 20.48 20.48V40.96a20.48 20.48 0 0 1-20.48 20.48z m0 155.648h335.872a20.48 20.48 0 0 0 20.48-20.48V40.96a20.48 20.48 0 0 0-20.48-20.48H96.256a20.48 20.48 0 0 0-20.48 20.48v155.648a20.48 20.48 0 0 0 20.48 20.48z" fill="#6E6E96" p-id="1299"></path><path d="M96.256 196.608h831.488v786.432H96.256z" fill="#FFF2C4" p-id="1300"></path><path d="M96.256 217.088h831.488a20.48 20.48 0 0 1-20.48-20.48v786.432a20.48 20.48 0 0 1 20.48-20.48H96.256a20.48 20.48 0 0 1 20.48 20.48V196.608a20.48 20.48 0 0 1-20.48 20.48z m0 786.432h831.488a20.48 20.48 0 0 0 20.48-20.48V196.608a20.48 20.48 0 0 0-20.48-20.48H96.256a20.48 20.48 0 0 0-20.48 20.48v786.432a20.48 20.48 0 0 0 20.48 20.48z" fill="#6E6E96" p-id="1301"></path><path d="M235.52 376.832h561.152v40.96H235.52zM235.52 477.184h421.888v40.96H235.52zM235.52 578.220032h516.096v40.96H235.52zM235.52 673.792h259.411968v40.96H235.52zM235.52 783.020032h344.064v40.96H235.52z" fill="#6E6E96" p-id="1302"></path><path d="M116.736 217.088h790.528v43.008H116.736z" fill="#E6D08A" opacity=".52" p-id="1303"></path></svg>