<?xml version="1.0" standalone="no"?><!DOCTYPE svg PUBLIC "-//W3C//DTD SVG 1.1//EN" "http://www.w3.org/Graphics/SVG/1.1/DTD/svg11.dtd"><svg t="1645156865413" class="icon" viewBox="0 0 1041 1024" version="1.1" xmlns="http://www.w3.org/2000/svg" p-id="65183" xmlns:xlink="http://www.w3.org/1999/xlink" width="130.125" height="128"><defs><style type="text/css"></style></defs><path d="M1016.87296 811.769856c0 59.752448-48.427008 108.183552-108.171264 108.183552H132.747264C73.007104 919.953408 24.576 871.510016 24.576 811.769856V216.264704c0-59.744256 48.431104-108.17536 108.171264-108.17536H908.6976c59.744256 0 108.167168 48.431104 108.167168 108.17536l0.008192 595.505152z" fill="#EFDAD8" p-id="65184"></path><path d="M149.471232 223.490048h126.169088v155.60704H149.471232z" fill="#6DB5C6" p-id="65185"></path><path d="M275.64032 397.529088H149.471232a18.432 18.432 0 0 1-18.432-18.432v-155.60704a18.432 18.432 0 0 1 18.432-18.432h126.169088a18.432 18.432 0 0 1 18.432 18.432v155.60704a18.432 18.432 0 0 1-18.432 18.432z m-107.737088-36.864h89.305088v-118.74304H167.903232v118.74304zM361.857024 475.897856h391.118848v36.864H361.857024z" fill="#6E6E96" p-id="65186"></path><path d="M99.663872 840.134656V223.490048S114.76992 169.984 149.471232 169.984h775.921664s-20.328448-47.996928-64.016384-47.996928H83.16928L30.281728 181.604352v574.869504s31.297536 79.634432 69.382144 83.6608z" fill="#F2E1E0" p-id="65187"></path><path d="M361.857024 610.480128h391.118848v36.864H361.857024zM777.551872 756.473856h126.148608v36.864h-126.148608z" fill="#6E6E96" p-id="65188"></path><path d="M908.701696 938.385408H132.747264c-69.808128 0-126.603264-56.799232-126.603264-126.615552V216.264704c0-69.808128 56.795136-126.60736 126.603264-126.60736H908.6976c69.808128 0 126.599168 56.795136 126.599168 126.60736v595.505152c0.004096 33.824768-13.164544 65.622016-37.076992 89.526272-23.908352 23.916544-55.697408 37.08928-89.51808 37.08928zM132.747264 126.521344c-49.483776 0-89.739264 40.259584-89.739264 89.74336v595.505152c0 49.487872 40.255488 89.751552 89.739264 89.751552H908.6976c49.487872 0 89.739264-40.26368 89.739264-89.751552l-0.004096-595.505152c0-49.483776-40.255488-89.74336-89.735168-89.74336H132.747264z" fill="#6E6E96" p-id="65189"></path><path d="M1020.964864 228.552704c0-53.43232-46.55104-120.46336-159.588352-106.565632 1.036288 6.017024 73.728 17.96096 71.524352 83.070976l0.004096 535.031808c0 81.59232-10.194944 104.087552-91.787264 104.087552H121.36448c-60.076032 0-85.069824-86.67136-91.082752-87.703552 0 121.01632 53.133312 175.767552 106.561536 175.767552H912.7936c59.744256 0 108.171264-48.431104 108.171264-108.183552V228.552704z" fill="#6E6E96" opacity=".15" p-id="65190"></path></svg>