<?xml version="1.0" standalone="no"?><!DOCTYPE svg PUBLIC "-//W3C//DTD SVG 1.1//EN" "http://www.w3.org/Graphics/SVG/1.1/DTD/svg11.dtd"><svg t="1639302460365" class="icon" viewBox="0 0 1076 1024" version="1.1" xmlns="http://www.w3.org/2000/svg" p-id="3890" xmlns:xlink="http://www.w3.org/1999/xlink" width="210.15625" height="200"><defs><style type="text/css"></style></defs><path d="M543.702012 28.697348l154.694957 313.442115 345.902837 50.264545-250.29243 243.981342 59.080239 344.506121-309.385603-162.652791-309.381291 162.652791 59.08455-344.506121L43.108529 392.404008l345.902838-50.264545z" fill="#FFE585" opacity=".48" p-id="3891"></path><path d="M43.108529 392.404008l512.620763 146.62504L389.011367 342.139463z" fill="#FFF700" opacity=".48" p-id="3892"></path><path d="M543.702012 28.697348l12.02728 510.3317 142.667677-196.889585z" fill="#FF0099" opacity=".48" p-id="3893"></path><path d="M1044.299806 392.404008L555.729292 539.029048l238.278084 97.356302z" fill="#8A11E0" opacity=".48" p-id="3894"></path><path d="M853.087615 980.891471l-297.358323-441.862423 0.905279 279.209632z" fill="#0060B6" opacity=".48" p-id="3895"></path><path d="M234.320721 980.891471l321.408571-441.862423-262.324021 97.356302z" fill="#70FFE5" opacity=".48" p-id="3896"></path><path d="M543.702012 28.697348l12.02728 510.3317L389.011367 342.139463z" fill="#FFBF00" opacity=".48" p-id="3897"></path><path d="M1044.299806 392.404008L555.729292 539.029048l142.667677-196.889585z" fill="#EB12C8" opacity=".48" p-id="3898"></path><path d="M853.087615 980.891471l-59.080239-344.506121-238.278084-97.356302z" fill="#6569CF" opacity=".48" p-id="3899"></path><path d="M293.405271 636.38535l262.324021-97.356302L43.108529 392.404008z" fill="#FFB054" opacity=".48" p-id="3900"></path><path d="M234.320721 980.891471l322.31385-162.652791-0.905279-279.209632z" fill="#00B3DE" opacity=".48" p-id="3901"></path><path d="M861.709321 1002.445735a17.152884 17.152884 0 0 1-8.022498-1.982992l-301.358794-158.428155-301.363105 158.428155a17.243412 17.243412 0 0 1-25.01588-18.174556l57.554198-335.574034L39.694334 409.061143a17.23479 17.23479 0 0 1 9.55716-29.412949l336.931953-48.958356 150.677242-305.311847a17.239101 17.239101 0 0 1 30.926058-0.004311l150.681553 305.311847 336.931953 48.958356a17.23479 17.23479 0 0 1 9.55285 29.41295l-243.804597 237.65301 57.549886 335.574033a17.23479 17.23479 0 0 1-16.989071 20.161859z m-309.385603-197.139614a17.243412 17.243412 0 0 1 8.022497 1.978682l278.459544 146.396564-53.174371-310.075339a17.243412 17.243412 0 0 1 4.957481-15.260419l225.276552-219.590536-311.329798-45.238091a17.247722 17.247722 0 0 1-12.984288-9.432146l-139.231928-282.110836-139.223305 282.106525a17.239101 17.239101 0 0 1-12.984289 9.432147L88.786327 408.755073l225.276551 219.590536a17.230479 17.230479 0 0 1 4.957481 15.260419l-53.178682 310.075339 278.459544-146.396564a17.252033 17.252033 0 0 1 8.022497-1.978682z" fill="#6E6E96" p-id="3902"></path></svg>