<?xml version="1.0" standalone="no"?><!DOCTYPE svg PUBLIC "-//W3C//DTD SVG 1.1//EN" "http://www.w3.org/Graphics/SVG/1.1/DTD/svg11.dtd"><svg t="1639302048777" class="icon" viewBox="0 0 1090 1024" version="1.1" xmlns="http://www.w3.org/2000/svg" p-id="2989" xmlns:xlink="http://www.w3.org/1999/xlink" width="212.890625" height="200"><defs><style type="text/css"></style></defs><path d="M203.960227 980.89622S42.889334 995.105456 42.889334 791.398276h517.176742" fill="#C9C9D6" p-id="2990"></path><path d="M202.077385 959.54162c0.064334-0.008578 0.030023-0.008578 0.094357-0.008578-0.52325 0.042889-52.590901 3.692772-91.611617-32.36858C79.885673 898.814613 64.334001 853.137472 64.334001 791.398276a21.444667 21.444667 0 0 1-21.444667 21.444667h517.176742a21.444667 21.444667 0 0 0 21.444667-21.444667c0-11.850323-9.598633-21.444667-21.444667-21.444667H42.889334a21.444667 21.444667 0 0 0-21.444667 21.444667c0 74.528795 20.368145 130.962581 60.538295 167.744473 53.212796 48.726572 120.999388 43.356828 123.860107 43.10807a21.436089 21.436089 0 0 0 19.476046-23.246019 21.423222 21.423222 0 0 0-23.24173-19.46318z" fill="#6E6E96" p-id="2991"></path><path d="M1047.220285 42.889334v795.880211c0 78.174389-63.952286 142.126674-142.122385 142.126675H203.960227s127.90886 0 127.90886-142.126675V42.889334h715.351198z" fill="#F0F0FF" p-id="2992"></path><path d="M524.150548 203.720047h351.692537v42.889333h-351.692537zM524.150548 383.855248h231.602403v42.889334h-231.602403z" fill="#6E6E96" p-id="2993"></path><path d="M331.869087 595.634201v243.135344c0 142.126674-127.90886 142.126674-127.90886 142.126675h701.141962c78.1701 0 142.122385-63.952286 142.122385-142.126675v-243.135344H331.869087z" fill="#6E6E96" opacity=".1" p-id="2994"></path><path d="M516.653493 582.226995h312.011325v42.889334h-312.011325z" fill="#6E6E96" p-id="2995"></path><path d="M331.869087 852.970204v-14.200659c0 142.126674-127.90886 142.126674-127.90886 142.126675h701.137673c78.174389 0 142.122385-63.952286 142.122385-142.126675v14.200659H331.869087z" fill="#6E6E96" opacity=".1" p-id="2996"></path><path d="M1025.775618 42.889334v795.880211c0 66.54709-54.134917 120.682007-120.677718 120.682008H203.960227a21.444667 21.444667 0 1 0 0 42.889333c1.531149 0 37.952771-0.24018 74.370105-20.462501 34.208533-19.008553 74.983422-59.255904 74.983422-143.10884V42.889334a21.444667 21.444667 0 0 1-21.444667 21.444667h715.351198a21.444667 21.444667 0 0 1-21.444667-21.444667z m-715.351198 0v795.880211c0 50.570813-17.807651 86.104627-52.925438 105.614985-26.381229 14.650996-53.272842 15.067023-53.538755 15.067023a21.444667 21.444667 0 1 0 0 42.889333h701.137673c90.183402 0 163.567052-73.375072 163.567052-163.571341V42.889334a21.444667 21.444667 0 0 0-21.444667-21.444667H331.869087a21.444667 21.444667 0 0 0-21.444667 21.444667z" fill="#6E6E96" p-id="2997"></path><path d="M516.653493 769.859253h187.632257v42.889333h-187.632257z" fill="#6E6E96" p-id="2998"></path></svg>