<?xml version="1.0" standalone="no"?><!DOCTYPE svg PUBLIC "-//W3C//DTD SVG 1.1//EN" "http://www.w3.org/Graphics/SVG/1.1/DTD/svg11.dtd"><svg t="1639302580276" class="icon" viewBox="0 0 1024 1024" version="1.1" xmlns="http://www.w3.org/2000/svg" p-id="1149" xmlns:xlink="http://www.w3.org/1999/xlink" width="200" height="200"><defs><style type="text/css"></style></defs><path d="M64.19632 710.270772l465.939098 288.264901 414.168087-294.025842-454.43658-265.206613z" fill="#E8E8FF" p-id="1150"></path><path d="M51.459315 726.014117l465.939098 288.2649a24.205634 24.205634 0 0 0 26.747226-0.847197l414.168088-294.025841a24.215317 24.215317 0 0 0-1.810582-40.646102l-454.436581-265.201772a24.195952 24.195952 0 0 0-25.198065 0.488954L51.197894 685.009772a24.200793 24.200793 0 0 0 0.261421 41.004345z m426.20797-270.64804l454.436581 265.206613a24.215317 24.215317 0 0 1-1.810582-40.646101l-414.168087 294.025841a24.215317 24.215317 0 0 1 26.747226-0.847197L76.933325 684.845174a24.205634 24.205634 0 0 1 0.26142 41.004344l425.670605-270.967554a24.205634 24.205634 0 0 1-25.198065 0.484113z" fill="#6E6E96" p-id="1151"></path><path d="M64.19632 511.48442l465.939098 288.260059 414.168087-294.025841-454.43658-265.201772z" fill="#FFE278" opacity=".85" p-id="1152"></path><path d="M51.464156 527.227765l465.939098 288.260059a24.205634 24.205634 0 0 0 26.747226-0.847197l414.168088-294.021001a24.215317 24.215317 0 0 0-1.810582-40.646101L502.066564 214.771753a24.195952 24.195952 0 0 0-25.198065 0.488954L51.197894 486.22342a24.200793 24.200793 0 0 0 0.266262 41.004345zM477.667285 256.579725l454.436581 265.201772a24.215317 24.215317 0 0 1-1.810582-40.646101L516.125197 775.161237a24.215317 24.215317 0 0 1 26.747226-0.847197L76.928484 486.058822a24.200793 24.200793 0 0 1 0.266261 41.004344L502.86535 256.095612a24.205634 24.205634 0 0 1-25.198065 0.484113z" fill="#6E6E96" p-id="1153"></path><path d="M75.698837 309.70141l465.939099 288.26006 414.168087-294.030683L501.374283 38.729015z" fill="#00CCC6" opacity=".85" p-id="1154"></path><path d="M62.966674 325.444755l465.939098 288.260059a24.205634 24.205634 0 0 0 26.747226-0.847197l414.168087-294.030683a24.215317 24.215317 0 0 0-1.810581-40.646101l-454.436581-265.196931a24.195952 24.195952 0 0 0-25.198065 0.488954L62.700412 284.44041a24.200793 24.200793 0 0 0 0.266262 41.004345z m426.207969-270.64804l454.43174 265.196931a24.215317 24.215317 0 0 1-1.810581-40.646101L527.627714 573.383068a24.215317 24.215317 0 0 1 26.747226-0.847197L88.431001 284.275812a24.200793 24.200793 0 0 1 0.266262 41.004345L514.372709 54.307761a24.215317 24.215317 0 0 1-25.198066 0.488954z" fill="#6E6E96" p-id="1155"></path><path d="M192.04564 667.262201L526.523937 877.5075l293.948384-207.558474-66.41542-34.49787-211.184478 138.867725L243.318015 616.086649z" fill="#6E6E96" opacity=".15" p-id="1156"></path><path d="M189.600871 455.50647l341.357539 217.1197L846.038312 456.329461l-66.526766-46.779809-232.204651 159.883057L247.752487 411.205318z" fill="#6E6E96" opacity=".15" p-id="1157"></path></svg>