<?xml version="1.0" standalone="no"?><!DOCTYPE svg PUBLIC "-//W3C//DTD SVG 1.1//EN" "http://www.w3.org/Graphics/SVG/1.1/DTD/svg11.dtd"><svg t="1639302120021" class="icon" viewBox="0 0 1046 1024" version="1.1" xmlns="http://www.w3.org/2000/svg" p-id="3849" xmlns:xlink="http://www.w3.org/1999/xlink" width="204.296875" height="200"><defs><style type="text/css"></style></defs><path d="M763.609927 740.776617m-190.908642 0a190.908642 190.908642 0 1 0 381.817283 0 190.908642 190.908642 0 1 0-381.817283 0Z" fill="#F0F0FF" p-id="3850"></path><path d="M763.609927 572.093492c93.012882 0 168.687232 75.674351 168.687232 168.683125 0 93.012882-75.674351 168.683126-168.687232 168.683126s-168.683126-75.670244-168.683126-168.683126c0-93.008775 75.670244-168.683126 168.683126-168.683125z m-213.134158 168.683125c0 117.521729 95.612429 213.134158 213.134158 213.134158s213.134158-95.612429 213.134158-213.134158c0-117.525835-95.612429-213.134158-213.134158-213.134157s-213.134158 95.608323-213.134158 213.134157z" fill="#6E6E96" p-id="3851"></path><path d="M538.923593 638.10886l51.990952 18.307714-14.759517 41.917192-51.990952-18.307714zM517.675474 764.221827l54.179829-10.143575 8.180567 43.695398-54.179829 10.143574zM562.340055 884.039206l41.859698-35.880328 28.927667 33.757159-41.859698 35.872114zM660.942169 965.467058l18.311821-51.990952 41.925406 14.76773-18.311821 51.990952zM787.059243 986.71107l-10.143575-54.179829 43.691291-8.180566 10.143574 54.183935zM906.872516 942.050596L870.992188 900.190898l33.753052-28.935881 35.884434 41.855591zM988.27162 843.464908l-51.990952-18.315927 14.771837-41.921299 51.990952 18.307714zM1009.047468 737.85264l-50.060799 9.379726-7.556347-40.360749 50.060799-9.379726zM964.867478 597.526349l-41.847378 35.872114-28.93588-33.748945 41.847378-35.876221zM866.343392 516.160098l-18.315928 51.995059-41.921299-14.763624 18.315928-51.999166zM740.230425 494.875018l10.155895 54.192149-43.687185 8.188781-10.155894-54.196256zM620.396618 539.514959l35.884435 41.855591-33.757159 28.935881-35.880328-41.851484z" fill="#6E6E96" p-id="3852"></path><path d="M763.609927 740.780724m-50.19632 0a50.19632 50.19632 0 1 0 100.39264 0 50.19632 50.19632 0 1 0-100.39264 0Z" fill="#F0F0FF" p-id="3853"></path><path d="M763.609927 712.814027c15.424804 0 27.970804 12.546 27.970804 27.970804s-12.546 27.974911-27.970804 27.97491-27.974911-12.550107-27.974911-27.97491 12.55832-27.970804 27.974911-27.970804z m-72.41773 27.966697c0 39.933651 32.488185 72.421836 72.421836 72.421836 39.941864 0 72.425943-32.488185 72.425943-72.421836 0-39.937758-32.484078-72.421836-72.425943-72.421836-39.933651 0-72.421836 32.484078-72.421836 72.421836z" fill="#6E6E96" p-id="3854"></path><path d="M349.690489 349.682275m-243.589522 0a243.589521 243.589521 0 1 0 487.179043 0 243.589521 243.589521 0 1 0-487.179043 0Z" fill="#5FD4FF" p-id="3855"></path><path d="M349.690489 126.901455c122.839919 0 222.784927 99.945009 222.784927 222.78082 0 122.839919-99.936795 222.776714-222.784927 222.776714s-222.78082-99.936795-222.780821-222.776714 99.936795-222.78082 222.780821-222.78082zM85.28816 349.682275c0 145.792322 118.610007 264.406436 264.402329 264.406436s264.402329-118.614114 264.402329-264.406436-118.610007-264.406436-264.402329-264.406436-264.402329 118.614114-264.402329 264.406436z" fill="#6E6E96" p-id="3856"></path><path d="M60.487736 225.795146l66.348012 23.358968-13.823187 39.268364-66.352119-23.358968zM37.297143 386.991738l69.136468-12.948457 7.663121 40.911048-69.136468 12.952564zM97.801306 538.200812l53.399554-45.785713 27.091968 31.601135-53.399554 45.781607zM225.807466 638.913775l23.354861-66.352118 39.260151 13.81908-23.350755 66.352118zM386.991738 662.059194l-12.94435-69.136468 40.915154-7.659014 12.944351 69.136468zM538.237772 601.624846l-45.78982-53.387234 31.592923-27.104288 45.789819 53.39134zM638.872708 473.577618l-66.343905-23.367181 13.8314-39.260151 66.339799 23.367182zM662.083835 312.360492l-69.132362 12.944351-7.659014-40.915155 69.136468-12.944351zM601.563245 161.151419l-53.403661 45.78982-27.091968-31.601136 53.403661-45.785713zM473.577618 60.483629l-23.358968 66.348012-39.268364-13.823187 23.358969-66.348012zM312.360492 37.284823l12.948458 69.132361-40.911048 7.663121-12.948458-69.132361zM161.184273 97.797199l45.773393 53.403661-31.601136 27.087861-45.7775-53.399554z" fill="#6E6E96" p-id="3857"></path><path d="M349.83833 344.980092m-47.001299 0a47.001299 47.001299 0 1 0 94.002599 0 47.001299 47.001299 0 1 0-94.002599 0Z" fill="#F0F0FF" p-id="3858"></path><path d="M349.83833 318.787494c14.439193 0 26.188492 11.749298 26.188492 26.188491s-11.749298 26.188492-26.188492 26.188492c-14.4433 0-26.188492-11.749298-26.188491-26.188492s11.745191-26.188492 26.188491-26.188491z m-67.818214 26.192598c0 37.387491 30.42251 67.814107 67.814108 67.814107s67.814107-30.42251 67.814107-67.814107S387.229928 277.161878 349.83833 277.161878c-37.395704 0-67.818214 30.42251-67.818214 67.818214z" fill="#6E6E96" p-id="3859"></path><path d="M351.078557 111.64092c-134.531723 0-243.589521 109.066012-243.589522 243.589521 0 134.531723 109.057799 243.585415 243.589522 243.585415s243.593628-109.057799 243.593628-243.585415-109.061905-243.589521-243.593628-243.589521z m-2.841844 425.997272c-103.078429 0-186.637663-83.567448-186.637663-186.637663s83.559234-186.637663 186.637663-186.637663 186.64177 83.567448 186.64177 186.637663-83.567448 186.637663-186.64177 186.637663z" fill="#6E6E96" opacity=".2" p-id="3860"></path><path d="M765.474373 561.588527c-100.70475 0-182.350257 81.645507-182.350257 182.346151s81.645507 182.342044 182.350257 182.342044c100.700643 0 182.342044-81.641401 182.342044-182.342044s-81.641401-182.346151-182.342044-182.346151z m-2.139596 318.894268c-77.16098 0-139.714391-62.541091-139.714391-139.714391 0-77.16098 62.545198-139.714391 139.714391-139.714391s139.718498 62.549305 139.718498 139.714391-62.557518 139.714391-139.718498 139.714391z" fill="#6E6E96" opacity=".2" p-id="3861"></path></svg>