<?xml version="1.0" standalone="no"?><!DOCTYPE svg PUBLIC "-//W3C//DTD SVG 1.1//EN" "http://www.w3.org/Graphics/SVG/1.1/DTD/svg11.dtd"><svg t="1645156878499" class="icon" viewBox="0 0 1024 1024" version="1.1" xmlns="http://www.w3.org/2000/svg" p-id="65341" xmlns:xlink="http://www.w3.org/1999/xlink" width="128" height="128"><defs><style type="text/css"></style></defs><path d="M417.016025 991.681197h266.763504l286.972859-930.353884z" fill="#6E6E96" opacity=".2" p-id="65342"></path><path d="M318.168022 667.620127l106.879202 307.873376L985.008068 34.974312z" fill="#E5C0A8" p-id="65343"></path><path d="M425.051265 993.681924a18.180337 18.180337 0 0 1-17.186036-12.222619l-106.87516-307.873376a18.188421 18.188421 0 0 1 4.664319-19.15847L972.498476 21.777602a18.184379 18.184379 0 0 1 28.14355 22.497056L440.67714 984.797891a18.192463 18.192463 0 0 1-15.625875 8.884033z m-85.849345-320.940746l90.210525 259.868071L902.064828 138.741273 339.20192 672.741178z" fill="#6E6E96" p-id="65344"></path><path d="M51.287304 548.991206L985.008068 34.974312 318.168022 667.620127z" fill="#FFDAC1" p-id="65345"></path><path d="M318.16398 685.808548c-2.497876 0-5.01192-0.513318-7.384499-1.568246l-266.876675-118.628922a18.188421 18.188421 0 0 1-10.783713-15.848177 18.204588 18.204588 0 0 1 9.401393-16.713137L976.237207 19.041256a18.188421 18.188421 0 1 1 21.292578 29.129766L330.689739 680.816837a18.184379 18.184379 0 0 1-12.525759 4.991711z m-226.005273-138.555347l222.302919 98.811627L869.915784 119.097779 92.158707 547.253201z" fill="#6E6E96" p-id="65346"></path><path d="M985.008068 34.974312L425.281652 711.656315l429.48924 166.755482z" fill="#FFDAC1" p-id="65347"></path><path d="M854.770892 896.60426a18.196504 18.196504 0 0 1-6.584208-1.232771l-429.48924-166.759524a18.176295 18.176295 0 0 1-7.42896-28.551779L970.998942 23.382225a18.196504 18.196504 0 0 1 31.995453 14.368853l-130.245259 843.445569a18.224798 18.224798 0 0 1-8.87595 12.978448 18.325844 18.325844 0 0 1-9.102294 2.429165z m-399.409634-192.781092l384.887191 149.44819L956.969607 97.417181 455.361258 703.823168z" fill="#6E6E96" p-id="65348"></path><path d="M425.281652 993.681924a18.192463 18.192463 0 0 1-18.188421-18.188421v-263.837188a18.188421 18.188421 0 0 1 36.376842 0v263.837188a18.188421 18.188421 0 0 1-18.188421 18.188421z" fill="#6E6E96" p-id="65349"></path><path d="M985.008068 34.974312L518.147686 728.203736l-62.786428-24.380568zM417.016025 711.656315l78.937746 109.18711 32.504729-54.593555z" fill="#6E6E96" opacity=".2" p-id="65350"></path></svg>