<?xml version="1.0" standalone="no"?><!DOCTYPE svg PUBLIC "-//W3C//DTD SVG 1.1//EN" "http://www.w3.org/Graphics/SVG/1.1/DTD/svg11.dtd"><svg t="1639302588074" class="icon" viewBox="0 0 1163 1024" version="1.1" xmlns="http://www.w3.org/2000/svg" p-id="1294" xmlns:xlink="http://www.w3.org/1999/xlink" width="227.1484375" height="200"><defs><style type="text/css"></style></defs><path d="M327.647157 88.62937v508.696926c0 23.327963 19.07244 42.400403 42.395711 42.400403h394.468729c-0.140756 1.398176-0.220518 2.801045-0.220518 4.227372v108.110002c0 23.313888 13.484426 28.906593 29.981031 12.419373l124.752055-124.761439h137.767294c23.313888 0 42.400403-19.07244 42.400404-42.400403V88.62937c-0.009384-23.31858-19.086515-42.395711-42.405096-42.395711H370.028793c-23.309196 0-42.381636 19.077132-42.381636 42.395711z" fill="#00CCC6" p-id="1295"></path><path d="M304.187821 88.62937v508.696926c0 36.315052 29.539995 65.859739 65.855047 65.859738h394.468729a23.464027 23.464027 0 0 1-23.342039-25.828728c-0.229901 2.252096-0.337814 4.410355-0.337815 6.601457v108.110002c0 29.92942 16.285471 39.909022 23.285737 42.808596s25.565984 7.36154 46.735688-13.79409l124.761439-124.76613a23.464027 23.464027 0 0 1-16.590442 6.873585h137.767294c36.315052 0 65.859739-29.544687 65.859739-65.859739V88.62937c-0.014076-36.315052-29.563455-65.855047-65.864431-65.855047H370.028793c-36.305668 0-65.840971 29.544687-65.840972 65.855047z m65.840972-18.936376h686.757974a18.969219 18.969219 0 0 1 18.94576 18.94576v508.687542a18.964527 18.964527 0 0 1-18.941068 18.941067h-137.767294a23.44526 23.44526 0 0 0-16.590442 6.873585l-124.752055 124.761439c-2.46323 2.46323-3.814488 3.120092-3.828564 3.124784 0.849228-0.398809 4.185145-1.172967 8.229535 0.502029 4.039698 1.674997 5.85545 4.579262 6.169805 5.466026-0.004692-0.014076-0.497338-1.440403-0.497337-4.931153V643.958763c0-0.591175 0.032843-1.196426 0.098529-1.857979a23.44526 23.44526 0 0 0-23.342039-25.828729H370.042868a18.959835 18.959835 0 0 1-18.936375-18.941068V88.62937a18.955143 18.955143 0 0 1 18.9223-18.936376z" fill="#6E6E96" p-id="1296"></path><path d="M860.432128 340.859455m-65.704907 0a65.704907 65.704907 0 1 0 131.409815 0 65.704907 65.704907 0 1 0-131.409815 0Z" fill="#FFFFFF" p-id="1297"></path><path d="M576.316115 340.859455m-65.704908 0a65.704907 65.704907 0 1 0 131.409815 0 65.704907 65.704907 0 1 0-131.409815 0Z" fill="#FFFFFF" p-id="1298"></path><path d="M767.739601 834.941214H368.241191l2.627446 25.833421c0.070378 0.661553 0.098529 1.266804 0.098529 1.857979v93.874877l-114.678616-114.688-6.868894-6.873585H101.930813a18.964527 18.964527 0 0 1-18.941067-18.941068V307.298529a18.969219 18.969219 0 0 1 18.945759-18.931684H241.631157v-46.918671H101.935505c-36.305668 0-65.850355 29.535304-65.864431 65.840971v508.711002c0 36.315052 29.544687 65.859739 65.859739 65.859738h128.050438l117.87847 117.887854c21.174396 21.165013 39.744806 16.703047 46.745072 13.798781 7.000266-2.899574 23.281045-12.879175 23.281044-42.808596v-88.878039h349.853764v-46.918671z" fill="#6E6E96" p-id="1299"></path><path d="M782.002877 572.112202c0-1.431019 0.079762-2.833888 0.220518-4.227373H387.754667c-23.323271 0-42.395711-19.07244-42.395712-42.400403v79.761741c0 23.327963 19.07244 42.400403 42.395712 42.400403h394.24821v-75.534368z m292.500381-4.232065h-137.767295l-124.752055 124.761439c-16.496605 16.487221-29.981031 10.889824-29.981031-12.419372v79.761741c0 23.313888 13.484426 28.906593 29.981031 12.419372l124.752055-124.761438h137.767295c23.313888 0 42.400403-19.07244 42.400403-42.400404v-79.761741c0 23.327963-19.086515 42.400403-42.400403 42.400403z" fill="#6E6E96" opacity=".15" p-id="1300"></path></svg>