<?xml version="1.0" standalone="no"?><!DOCTYPE svg PUBLIC "-//W3C//DTD SVG 1.1//EN" "http://www.w3.org/Graphics/SVG/1.1/DTD/svg11.dtd"><svg t="1639302565355" class="icon" viewBox="0 0 1024 1024" version="1.1" xmlns="http://www.w3.org/2000/svg" p-id="1006" xmlns:xlink="http://www.w3.org/1999/xlink" width="200" height="200"><defs><style type="text/css"></style></defs><path d="M950.50957 265.533171c0 112.527933-93.994249 204.591589-214.556236 204.591589h-436.220771C179.165924 470.12476 85.176327 378.056451 85.176327 265.533171S179.165924 60.941582 299.732563 60.941582h436.220771c120.561987 0.004652 214.556235 92.068309 214.556236 204.591589z" fill="#DCDCF2" p-id="1007"></path><path d="M927.249424 265.533171c0 99.986062-83.252713 181.331443-191.29609 181.331443h-436.220771C191.684534 446.864614 108.436473 365.519233 108.436473 265.533171S191.684534 84.201727 299.732563 84.201727h436.220771c108.043377 0.004652 191.29609 81.345381 191.29609 181.331444zM735.953334 37.686088h-436.220771C166.033246 37.686088 61.916182 139.89582 61.916182 265.533171s104.117064 227.851735 237.816381 227.851734h436.220771c133.694665 0 237.816381-102.214384 237.816381-227.851734S869.647999 37.686088 735.953334 37.686088z" fill="#6E6E96" p-id="1008"></path><path d="M950.50957 777.544801c0 112.523281-93.994249 204.591589-214.556236 204.591589h-436.220771C179.165924 982.13639 85.176327 890.072733 85.176327 777.544801s93.989597-204.591589 214.556236-204.591589h436.220771c120.561987 0 214.556235 92.063656 214.556236 204.591589z" fill="#FFFFFF" p-id="1009"></path><path d="M950.50957 777.544801c0 112.523281-93.994249 204.591589-214.556236 204.591589h-436.220771C179.165924 982.13639 85.176327 890.072733 85.176327 777.544801s93.989597-204.591589 214.556236-204.591589h436.220771c120.561987 0 214.556235 92.063656 214.556236 204.591589z" fill="#F2F2F2" p-id="1010"></path><path d="M927.249424 777.544801c0 99.986062-83.252713 181.331443-191.29609 181.331443h-436.220771C191.684534 958.871592 108.436473 877.530863 108.436473 777.544801s83.248061-181.331443 191.29609-181.331444h436.220771c108.043377 0 191.29609 81.340729 191.29609 181.331444z m-191.29609-227.851735h-436.220771C166.033246 549.693066 61.916182 651.90745 61.916182 777.544801s104.117064 227.851735 237.816381 227.851735h436.220771c133.694665 0 237.816381-102.214384 237.816381-227.851735s-104.121716-227.851735-237.816381-227.851735z" fill="#6E6E96" p-id="1011"></path><path d="M286.77201 265.533171m-106.136045 0a106.136045 106.136045 0 1 0 212.272089 0 106.136045 106.136045 0 1 0-212.272089 0Z" fill="#FF7A7A" p-id="1012"></path><path d="M286.77201 182.657272c45.696882 0 82.871247 37.179017 82.871247 82.875899s-37.179017 82.875899-82.871247 82.875899c-45.696882 0-82.875899-37.179017-82.875899-82.875899s37.179017-82.875899 82.875899-82.875899zM157.375819 265.533171c0 71.348171 58.048019 129.39619 129.396191 129.39619 71.348171 0 129.391538-58.048019 129.391538-129.39619S358.12018 136.13698 286.77201 136.13698 157.375819 194.185 157.375819 265.533171z" fill="#6E6E96" p-id="1013"></path><path d="M743.522186 772.850903m-110.239135 0a110.239134 110.239134 0 1 0 220.478269 0 110.239134 110.239134 0 1 0-220.478269 0Z" fill="#00CCC6" p-id="1014"></path><path d="M743.522186 685.871915c47.967072 0 86.983641 39.02122 86.98364 86.978988s-39.02122 86.978989-86.98364 86.978989-86.978989-39.02122-86.978989-86.978989 39.016568-86.978989 86.978989-86.978988z m-133.503932 86.978988c0 73.613709 59.885571 133.49928 133.49928 133.49928s133.503932-59.885571 133.503932-133.49928c0-73.609057-59.890223-133.49928-133.503932-133.49928s-133.49928 59.890223-133.49928 133.49928z" fill="#6E6E96" p-id="1015"></path><path d="M290.428505 133.043381h436.220771c108.25737 0 195.045625 74.246385 211.639413 170.864378 1.888724-10.978789 2.916822-22.236699 2.916823-33.722559 0-112.523281-93.994249-204.591589-214.556236-204.591589h-436.220771C169.861866 65.598263 75.872269 157.661919 75.872269 270.1852c0 11.48586 1.028098 22.739118 2.916822 33.722559 16.593788-96.617993 103.377391-170.864378 211.639414-170.864378zM290.428505 642.915078h436.220771c108.25737 0 195.045625 74.251037 211.639413 170.864378 1.888724-10.978789 2.916822-22.236699 2.916823-33.72256 0-112.523281-93.994249-204.591589-214.556236-204.591589h-436.220771c-120.566639 0-214.556235 92.063656-214.556236 204.591589 0 11.48586 1.028098 22.74377 2.916822 33.72256 16.593788-96.617993 103.377391-170.864378 211.639414-170.864378z" fill="#6E6E96" opacity=".15" p-id="1016"></path></svg>