<?xml version="1.0" standalone="no"?><!DOCTYPE svg PUBLIC "-//W3C//DTD SVG 1.1//EN" "http://www.w3.org/Graphics/SVG/1.1/DTD/svg11.dtd"><svg t="1639302659945" class="icon" viewBox="0 0 1024 1024" version="1.1" xmlns="http://www.w3.org/2000/svg" p-id="1241" xmlns:xlink="http://www.w3.org/1999/xlink" width="200" height="200"><defs><style type="text/css"></style></defs><path d="M512 516.376068m-468.239316 0a468.239316 468.239316 0 1 0 936.478632 0 468.239316 468.239316 0 1 0-936.478632 0Z" fill="#00CCC6" p-id="1242"></path><path d="M507.623932 54.355145c-258.599385 0-468.239316 209.639932-468.239317 468.239317 0 258.603761 209.639932 468.239316 468.239317 468.239316s468.239316-209.635556 468.239316-468.239316c0-258.599385-209.644308-468.239316-468.239316-468.239317z m17.504273 914.598291c-236.850325 0-428.854701-192.004376-428.854701-428.854701s192.004376-428.854701 428.854701-428.854701 428.854701 192.004376 428.854701 428.854701-192.004376 428.854701-428.854701 428.854701z" fill="#FFFFFF" opacity=".21" p-id="1243"></path><path d="M507.623932 43.760684C249.024547 43.760684 39.384615 253.400615 39.384615 512s209.639932 468.239316 468.239317 468.239316 468.239316-209.639932 468.239316-468.239316c0-258.603761-209.644308-468.239316-468.239316-468.239316z m-10.940171 870.837607C258.625641 914.598291 65.641026 721.604923 65.641026 483.555556 65.641026 245.497436 258.625641 52.512821 496.683761 52.512821c238.049368 0 431.042735 192.984615 431.042735 431.042735 0 238.049368-192.993368 431.042735-431.042735 431.042735z" fill="#6E6E96" opacity=".15" p-id="1244"></path><path d="M504.70947 751.681641l222.623727-227.056684H565.431795V266.940171h-121.422769v257.684786H282.081368z" fill="#FFFFFF" p-id="1245"></path><path d="M520.332034 766.99788l222.623727-227.061059a21.880342 21.880342 0 0 0-15.622564-37.196582H565.431795a21.880342 21.880342 0 0 1 21.880342 21.880342V266.940171a21.880342 21.880342 0 0 0-21.880342-21.880342h-121.422769a21.880342 21.880342 0 0 0-21.880342 21.880342v257.684786a21.880342 21.880342 0 0 1 21.880342-21.880342H282.081368a21.884718 21.884718 0 0 0-15.622565 37.200958l222.628103 227.061059a21.880342 21.880342 0 0 0 31.245128-0.008752zM282.081368 546.505299h161.927658a21.880342 21.880342 0 0 0 21.880342-21.880342V266.940171a21.880342 21.880342 0 0 1-21.880342 21.880342h121.422769a21.880342 21.880342 0 0 1-21.880342-21.880342v257.684786a21.880342 21.880342 0 0 0 21.880342 21.880342h161.901402a21.884718 21.884718 0 0 1-15.622565-37.196581l-222.623726 227.06106a21.862838 21.862838 0 0 1 31.245128-0.004376L297.703932 509.304342a21.884718 21.884718 0 0 1-15.622564 37.200957z" fill="#6E6E96" p-id="1246"></path></svg>