<?xml version="1.0" standalone="no"?><!DOCTYPE svg PUBLIC "-//W3C//DTD SVG 1.1//EN" "http://www.w3.org/Graphics/SVG/1.1/DTD/svg11.dtd"><svg t="1639302697134" class="icon" viewBox="0 0 1024 1024" version="1.1" xmlns="http://www.w3.org/2000/svg" p-id="1806" xmlns:xlink="http://www.w3.org/1999/xlink" width="200" height="200"><defs><style type="text/css"></style></defs><path d="M805.916834 292.453299c0.018793-1.24976 0.098665-2.494822 0.098665-3.763376C806.024896 155.200492 683.628262 46.983469 532.642187 46.983469 402.657723 46.983469 293.942675 127.21244 266.18954 234.687124a189.16954 189.16954 0 0 0-12.915756-0.48393c-89.799504 0-162.600388 64.357955-162.600388 143.764716 0 17.022111 3.373413 33.334771 9.509454 48.48694-25.216028 31.497717-40.086295 69.925496-40.086295 111.454184 0 105.261763 95.221396 190.781073 213.63853 193.073866v0.108062h420.027511c143.994935 0 260.711267-103.203887 260.711267-230.505596 0.014095-91.791603-60.70734-171.052714-148.557029-208.132067z" fill="#EEEEFC" p-id="1807"></path><path d="M810.615181 301.849992c0.018793-1.24976 0.098665-2.494822 0.098665-3.763375C810.723243 164.597186 688.326609 56.380162 537.340534 56.380162 407.35607 56.380162 298.641022 136.609133 270.887887 244.083818a189.16954 189.16954 0 0 0-12.915756-0.48393c-89.799504 0-162.600388 64.357955-162.600388 143.764716 0 11.323016 1.522264 22.317148 4.327177 32.879031 16.834177-63.540443 81.281401-110.866891 158.277909-110.866891 4.350669 0 8.644958 0.192632 12.915756 0.48393C298.64572 202.381291 407.35607 122.157018 537.340534 122.157018c150.986075 0 273.382709 108.221722 273.37801 241.706455 0 1.268554-0.08457 2.513616-0.098665 3.763375 77.118665 32.550147 133.320291 97.608156 145.897765 175.116785 1.719595-10.702834 2.663963-21.631189 2.663963-32.761573 0.004698-91.791603-60.716736-171.052714-148.566426-208.132068zM95.503297 448.62165c-19.474648 28.880738-30.703697 62.61017-30.703697 98.684077 0 11.205557 1.141698 22.162102 3.208971 32.841445 5.62862-28.871341 18.483297-55.543857 36.877324-78.518773a128.734704 128.734704 0 0 1-9.509454-48.486939c-0.004698-1.517566 0.075174-3.016339 0.126856-4.51981z" fill="#FFFFFF" opacity=".42" p-id="1808"></path><path d="M829.40387 292.800976c0.004698-0.281901 0.023492-0.68126 0.037586-1.104111 0.032888-0.826909 0.070475-1.851149 0.070476-3.002244 0-65.297625-26.766482-128.029952-75.375579-176.643747C697.854856 55.769377 617.12786 23.491734 532.642187 23.491734 393.585215 23.491734 274.665357 107.921027 243.444843 228.81419a23.491734 23.491734 0 0 1 24.346833-17.56242 212.877398 212.877398 0 0 0-14.513193-0.54031c-49.1682 0-95.531487 17.045602-130.53887 47.998312C86.914719 290.381328 67.181662 332.736925 67.181662 377.96791c0 19.629693 3.777471 38.90701 11.229049 57.305737a23.491734 23.491734 0 0 1 3.434491-23.496433C52.250315 448.743807 36.609519 492.363259 36.609519 537.913732c0 57.587637 24.920032 111.77837 70.16981 152.597608 44.380584 40.034614 103.513978 62.746422 166.504715 63.963294a23.491734 23.491734 0 0 1-23.035995-23.487036c0 12.976834 10.519599 23.599796 23.491734 23.599796h420.027511c156.708661 0 284.203002-113.93961 284.203002-253.997329 0.009397-97.800788-63.939802-187.999651-162.919876-229.777352a23.472941 23.472941 0 0 1 14.35345 21.988263z m101.582957 207.789089c0 114.146337-106.412858 207.013861-237.219533 207.013861H273.739783a23.491734 23.491734 0 0 1 23.491734 23.491734c0-12.798297-10.242396-23.350784-23.035994-23.595098-105.097321-2.034384-190.602535-78.110017-190.602536-169.58683 0-34.763068 12.07945-68.224695 34.932209-96.77185a23.491734 23.491734 0 0 0 3.434492-23.496433 105.308747 105.308747 0 0 1-7.789859-39.672841c0-31.577589 14.095041-61.430885 39.696332-84.062822 26.414106-23.350784 61.717484-36.214858 99.41702-36.214857 3.378111 0 7.080409 0.14095 11.313619 0.427549a23.491734 23.491734 0 0 0 24.346834-17.56242C314.385182 142.007534 416.879619 70.475203 532.642187 70.475203c72.119624 0 140.73898 27.259808 188.267457 74.792984 39.733919 39.738618 61.614121 90.668698 61.614121 143.421736 0 0.281901-0.018793 0.756434-0.037587 1.259157-0.023492 0.634277-0.051682 1.353124-0.061079 2.161239a23.487036 23.487036 0 0 0 14.35345 21.988264c81.535111 34.415391 134.217675 107.615635 134.208278 186.491482z" fill="#6E6E96" p-id="1809"></path><path d="M849.207402 313.642843c35.026176 36.994783 56.135848 84.63602 56.13115 136.64672 0 117.684192-107.897536 213.088824-241.015798 213.088824H276.027878v-0.098666c-109.471482-2.114256-197.499709-81.173339-197.499709-178.485498 0-11.318318 1.226269-22.373528 3.504967-33.099854-14.019867 25.469738-21.931883 54.045084-21.931883 84.283644 0 105.261763 95.221396 190.781073 213.63853 193.073866v0.108062h420.027511c143.994935 0 260.711267-103.203887 260.711267-230.505595 0.009397-75.784335-41.401833-142.998885-105.271159-185.011503zM115.584031 381.764174a119.037316 119.037316 0 0 1-8.790607-44.826927c0-10.336363 1.376616-20.381429 3.904326-30.04123-12.751313 20.517681-20.019656 44.075192-20.019656 69.140872 0 12.535189 1.841752 24.685114 5.257451 36.271238a174.397937 174.397937 0 0 1 19.648486-30.543953z" fill="#6E6E96" opacity=".15" p-id="1810"></path><path d="M510.137105 741.366246m-249.5339 0a249.5339 249.5339 0 1 0 499.067801 0 249.5339 249.5339 0 1 0-499.067801 0Z" fill="#00CCC6" p-id="1811"></path><path d="M519.533799 473.038959c-137.816608 0-249.5339 111.717292-249.5339 249.529201 0 137.821307 111.717292 249.543297 249.5339 249.543297 0.394661 0 0.779926-0.02819 1.174587-0.02819-115.21756-0.648372-208.423365-94.211251-208.423365-209.579158 0-115.753172 93.840082-209.593253 209.597952-209.593254 115.762568 0 209.593253 93.84478 209.593253 209.593254 0 108.024391-81.723045 196.92651-186.707606 208.338795 125.967378-12.657346 224.294381-118.976238 224.294381-248.274744 0.004698-137.807212-111.717292-249.529202-249.529202-249.529201z" fill="#FFFFFF" opacity=".24" p-id="1812"></path><path d="M510.137105 515.32408c124.637746 0 226.037467 101.40442 226.037468 226.037468 0 124.642444-101.399722 226.051563-226.037468 226.051562-124.633047 0-226.042166-101.409119-226.042165-226.051562-0.004698-124.637746 101.399722-226.037467 226.042165-226.037468z m-273.030332 226.042166c0 150.549128 122.476506 273.025634 273.025634 273.025635 150.54443 0 273.020936-122.476506 273.020936-273.025635s-122.476506-273.025634-273.020936-273.025634-273.025634 122.476506-273.025634 273.025634z" fill="#6E6E96" p-id="1813"></path><path d="M611.658984 505.283713c68.454914 38.244543 114.780614 111.388407 114.780614 195.371358 0 123.547729-100.149962 223.702389-223.683595 223.702389-116.970043 0-212.896191-89.771313-222.795609-204.17606a252.921408 252.921408 0 0 0-0.897384 20.409619c0 137.821307 111.712593 249.543297 249.5339 249.543297 137.81191 0 249.524503-111.72199 249.524504-249.543297-0.004698-108.672763-69.507343-201.070452-166.46243-235.307306z" fill="#6E6E96" opacity=".15" p-id="1814"></path><path d="M554.522388 736.301428V621.967157H478.183648v114.334271H376.379869l139.968451 139.982547 139.977848-139.982547z" fill="#FFFFFF" p-id="1815"></path></svg>