<?xml version="1.0" standalone="no"?><!DOCTYPE svg PUBLIC "-//W3C//DTD SVG 1.1//EN" "http://www.w3.org/Graphics/SVG/1.1/DTD/svg11.dtd"><svg t="1639302825252" class="icon" viewBox="0 0 1200 1024" version="1.1" xmlns="http://www.w3.org/2000/svg" p-id="1380" xmlns:xlink="http://www.w3.org/1999/xlink" width="234.375" height="200"><defs><style type="text/css"></style></defs><path d="M623.117645 79.639305c-29.344393-47.183345-75.886503-46.295077-103.396543 2.007802L64.202357 881.114935c-27.520552 48.292366-4.551718 87.80717 51.0255 87.807169h960.060444c55.577218 0 77.02706-38.610767 47.672156-85.815136L623.117645 79.639305z" fill="#F07373" p-id="1381"></path><path d="M536.882027 354.49267h105.120519v298.484458h-105.120519zM536.882027 726.372274h105.120519v92.973844h-105.120519z" fill="#FFFFFF" p-id="1382"></path><path d="M1122.960457 872.594916L623.117645 69.127253c-28.056667-45.112471-71.792058-46.163676-99.627972-3.957787 13.045456 3.290272 41.464789-18.464419 51.740319-1.94473l428.308299 745.362296c26.080401 41.937831 7.022051 76.243912-42.358313 76.243913H108.237342c-19.421016 0-34.279801-5.492547-43.772184-14.690593l-0.268057 0.467787c-27.520552 48.292366-4.551718 87.80717 51.0255 87.807169h960.060444c55.582474-0.005256 77.032316-38.610767 47.677412-85.820392z" fill="#6E6E96" opacity=".15" p-id="1383"></path><path d="M92.469265 884.825689L571.435141 167.7303l443.061964 668.088203L566.504989 40.902394z" fill="#FFFFFF" opacity=".17" p-id="1384"></path><path d="M645.439987 65.758141c-19.000534-30.553279-46.415965-47.756252-75.213732-47.199113s-55.529914 18.816573-73.342586 50.084671L41.364924 868.10627c-17.875744 31.367963-19.894058 63.529586-5.539851 88.227652 14.354207 24.703322 43.293886 38.873568 79.397528 38.873568h960.060444c36.313883 0 64.980249-14.11243 78.656429-38.715887s10.517308-56.407671-8.661931-87.260543L645.439987 65.758141z m455.203383 831.229992c8.672443 13.949493 11.4266 26.648052 7.353181 33.969696-4.062908 7.321644-16.298936 11.689402-32.713506 11.689401H115.227857c-16.882355 0-29.25504-4.635815-33.953928-12.719582-4.698887-8.083768-2.601733-21.13448 5.760605-35.798793L542.553279 94.661027c8.414898-14.774689 18.869133-23.357779 28.68739-23.546996s20.587854 7.978647 29.565145 22.406439l499.837556 803.467663z" fill="#6E6E96" p-id="1385"></path></svg>