<?xml version="1.0" standalone="no"?><!DOCTYPE svg PUBLIC "-//W3C//DTD SVG 1.1//EN" "http://www.w3.org/Graphics/SVG/1.1/DTD/svg11.dtd"><svg t="1639302767348" class="icon" viewBox="0 0 1048 1024" version="1.1" xmlns="http://www.w3.org/2000/svg" p-id="1234" xmlns:xlink="http://www.w3.org/1999/xlink" width="204.6875" height="200"><defs><style type="text/css"></style></defs><path d="M1014.040615 897.127385c0 50.830769-41.575385 92.411077-92.411077 92.411077H126.872615C76.051692 989.538462 34.461538 947.958154 34.461538 897.127385V277.956923c0-50.830769 41.590154-92.411077 92.411077-92.411077h794.752c50.835692 0 92.411077 41.585231 92.411077 92.411077v619.170462h0.004923z" fill="#00CCC6" p-id="1235"></path><path d="M105.220923 951.522462V338.185846c0-50.353231 41.196308-91.544615 91.539692-91.544615h787.273847c3.963077 0 7.842462 0.339692 11.672615 0.832-14.813538-30.710154-46.203077-52.086154-82.432-52.086154H126.001231C75.657846 195.387077 34.461538 236.583385 34.461538 286.931692v613.341539c0 46.390154 34.998154 84.923077 79.876924 90.707692a90.520615 90.520615 0 0 1-9.117539-39.458461z" fill="#FFFFFF" opacity=".22" p-id="1236"></path><path d="M989.425231 897.127385c0 18.008615-7.079385 35.008-19.933539 47.867077-12.854154 12.849231-29.853538 19.933538-47.867077 19.933538H126.872615C89.491692 964.923077 59.076923 934.508308 59.076923 897.127385V277.956923c0-37.385846 30.414769-67.795692 67.795692-67.795692h794.752c18.008615 0 35.008 7.079385 47.867077 19.933538s19.933538 29.853538 19.933539 47.862154v619.170462z m49.230769 0V277.956923c0-31.158154-12.204308-60.519385-34.353231-82.673231-22.153846-22.153846-51.515077-34.358154-82.678154-34.358154H126.872615C62.345846 160.925538 9.846154 213.430154 9.846154 277.956923v619.170462C9.846154 961.654154 62.345846 1014.153846 126.872615 1014.153846h794.752c31.163077 0 60.524308-12.204308 82.678154-34.358154 22.148923-22.153846 34.353231-51.510154 34.353231-82.668307z" fill="#6E6E96" p-id="1237"></path><path d="M271.630769 281.019077V52.544a24.615385 24.615385 0 0 0-49.230769 0v228.475077a24.615385 24.615385 0 0 0 49.230769 0zM853.828923 281.019077V52.544a24.615385 24.615385 0 1 0-49.230769 0v228.475077a24.615385 24.615385 0 1 0 49.230769 0z" fill="#6E6E96" p-id="1238"></path><path d="M279.867077 601.216l153.924923 153.92c19.224615 19.224615 50.397538 19.224615 69.622154 0l240.295384-240.290462c19.224615-19.224615 19.224615-50.397538 0-69.622153-19.224615-19.229538-50.397538-19.229538-69.627076 0l-240.290462 240.290461c19.224615-19.224615 50.392615-19.224615 69.622154 0L349.489231 531.588923c-19.224615-19.224615-50.397538-19.224615-69.622154 0-19.224615 19.234462-19.224615 50.402462 0 69.627077z" fill="#FFFFFF" p-id="1239"></path><path d="M939.643077 173.095385c1.900308 7.355077 3.012923 15.010462 3.012923 22.936615v619.170462c0 77.051077-15.320615 92.411077-92.411077 92.411076H55.488c-7.921231 0-15.581538-1.122462-22.931692-3.012923 10.279385 39.808 46.493538 69.474462 89.39323 69.474462h794.752c50.835692 0 92.411077-41.580308 92.411077-92.411077V262.488615c0.004923-42.904615-29.666462-79.113846-69.469538-89.39323z" fill="#6E6E96" opacity=".15" p-id="1240"></path></svg>