<?xml version="1.0" standalone="no"?><!DOCTYPE svg PUBLIC "-//W3C//DTD SVG 1.1//EN" "http://www.w3.org/Graphics/SVG/1.1/DTD/svg11.dtd"><svg t="1639302666173" class="icon" viewBox="0 0 1024 1024" version="1.1" xmlns="http://www.w3.org/2000/svg" p-id="1383" xmlns:xlink="http://www.w3.org/1999/xlink" width="200" height="200"><defs><style type="text/css"></style></defs><path d="M512 512m-458.443515 0a458.443515 458.443515 0 1 0 916.88703 0 458.443515 458.443515 0 1 0-916.88703 0Z" fill="#00CCC6" p-id="1384"></path><path d="M740.322008 456.30554h-185.493958V270.815866h-85.690376v185.489674H283.643715v85.690376h185.493959v185.493958h85.690376v-185.493958h185.493958z" fill="#FFFFFF" p-id="1385"></path><path d="M507.715481 59.644787c-253.189356 0-458.443515 205.254159-458.443514 458.443514 0 253.19364 205.254159 458.443515 458.443514 458.443515s458.443515-205.249874 458.443515-458.443515c0-253.189356-205.258444-458.443515-458.443515-458.443514z m17.138075 895.464435c-231.895297 0-419.882845-187.987548-419.882845-419.882845s187.987548-419.882845 419.882845-419.882846 419.882845 187.987548 419.882846 419.882846-187.987548 419.882845-419.882846 419.882845z" fill="#FFFFFF" opacity=".21" p-id="1386"></path><path d="M507.715481 49.271967c-253.189356 0-458.443515 205.254159-458.443514 458.443514s205.254159 458.443515 458.443514 458.443515 458.443515-205.254159 458.443515-458.443515c0-253.19364-205.258444-458.443515-458.443515-458.443514z m-10.711297 852.619246c-233.077824 0-422.025105-188.955849-422.025105-422.025104 0-233.077824 188.94728-422.025105 422.025105-422.025105 233.069255 0 422.025105 188.94728 422.025105 422.025105 0 233.069255-188.955849 422.025105-422.025105 422.025104z" fill="#6E6E96" opacity=".15" p-id="1387"></path></svg>