<?xml version="1.0" standalone="no"?><!DOCTYPE svg PUBLIC "-//W3C//DTD SVG 1.1//EN" "http://www.w3.org/Graphics/SVG/1.1/DTD/svg11.dtd"><svg t="1639302300815" class="icon" viewBox="0 0 1024 1024" version="1.1" xmlns="http://www.w3.org/2000/svg" p-id="2594" xmlns:xlink="http://www.w3.org/1999/xlink" width="200" height="200"><defs><style type="text/css"></style></defs><path d="M507.599726 512m-494.861638 0a494.861638 494.861638 0 1 0 989.723275 0 494.861638 494.861638 0 1 0-989.723275 0Z" fill="#9FCCFF" p-id="2595"></path><path d="M803.086512 870.380291c110.302499-88.309696 181.006812-224.03267 181.006812-376.341295 0-266.20161-215.776264-482.007866-481.995013-482.007866-266.210179 0-482.007866 215.801972-482.007866 482.007866 0 266.218748 215.797687 481.990728 482.007866 481.990728 26.388793 0 52.259151-2.20228 77.499674-6.276925a456.54026 456.54026 0 0 1-65.408559 4.747327c-250.078696 0-452.812666-202.716832-452.812667-452.816951 0-250.078696 202.73397-452.816951 452.812667-452.816951 250.104403 0 452.829805 202.738255 452.829804 452.816951 0 140.277494-63.806122 265.640329-163.932718 348.697116z" fill="#FFFFFF" opacity=".25" p-id="2596"></path><path d="M509.639191 510.153341m-359.112956 0a359.112956 359.112956 0 1 0 718.225911 0 359.112956 359.112956 0 1 0-718.225911 0Z" fill="#FCFCFC" p-id="2597"></path><path d="M509.639191 886.404659c-207.464158 0-376.251318-168.78716-376.251318-376.251318s168.78716-376.251318 376.251318-376.251318 376.251318 168.78716 376.251318 376.251318c0 207.468443-168.78716 376.251318-376.251318 376.251318z m0-718.225911c-188.56483 0-341.974594 153.409764-341.974594 341.974593 0 188.569114 153.409764 341.974594 341.974594 341.974594s341.974594-153.409764 341.974593-341.974594-153.409764-341.974594-341.974593-341.974593z" fill="#6E6E96" p-id="2598"></path><path d="M510.933137 255.447288c176.156655 0 321.789888 130.512912 345.637919 300.105575 2.236556-16.024369 3.483372-32.374366 3.483372-49.015716 0-192.819428-156.314717-349.134145-349.12986-349.134144-192.84942 0-349.159852 156.310432-349.159852 349.134144 0 16.649919 1.2511 32.991347 3.496226 49.015716 23.848031-169.588378 169.472694-300.105575 345.672195-300.105575z" fill="#6E6E96" opacity=".15" p-id="2599"></path><path d="M918.659057 291.870592a459.046746 459.046746 0 0 1 42.451723 193.205041c0 254.568947-206.337311 460.923396-460.923396 460.923396-245.802675 0-446.612864-192.420961-460.130747-434.851663a473.498669 473.498669 0 0 0-0.78408 26.53447c0 261.779913 212.220054 473.991397 473.999966 473.991397 261.80562 0 474.01282-212.220054 474.012821-473.991397 0-90.014963-25.069139-174.134329-68.626287-245.811244z" fill="#6E6E96" opacity=".15" p-id="2600"></path><path d="M512 1024C229.67976 1024 0 794.32024 0 512S229.67976 0 512 0s512 229.67976 512 512c0 282.315955-229.67976 512-512 512z m0-989.723276C248.583374 34.276724 34.276724 248.583374 34.276724 512s214.306649 477.723276 477.723276 477.723276 477.723276-214.306649 477.723276-477.723276S775.420911 34.276724 512 34.276724z" fill="#6E6E96" p-id="2601"></path><path d="M509.639191 247.42225a17.138362 17.138362 0 0 1-17.138363-17.138362V151.036101a17.138362 17.138362 0 0 1 34.276725 0v79.247787a17.138362 17.138362 0 0 1-17.138362 17.138362zM868.747862 527.287419h-79.243502a17.138362 17.138362 0 0 1 0-34.276724h79.243502a17.138362 17.138362 0 0 1 0 34.276724zM509.639191 886.404659a17.138362 17.138362 0 0 1-17.138363-17.138362v-79.247786a17.138362 17.138362 0 0 1 34.276725 0v79.247786a17.138362 17.138362 0 0 1-17.138362 17.138362zM229.761168 527.287419H150.526235a17.138362 17.138362 0 0 1 0-34.276724h79.234933a17.138362 17.138362 0 0 1 0 34.276724z" fill="#6E6E96" p-id="2602"></path><path d="M503.773586 648.674154a17.138362 17.138362 0 0 1-17.138362-17.138363V503.867847c0-4.545951 1.803813-8.903379 5.017256-12.116822l143.628044-143.632328a17.138362 17.138362 0 1 1 24.233644 24.237928l-138.606504 138.615073v120.568378a17.129793 17.129793 0 0 1-17.134078 17.134078z" fill="#6E6E96" p-id="2603"></path></svg>