<?xml version="1.0" standalone="no"?><!DOCTYPE svg PUBLIC "-//W3C//DTD SVG 1.1//EN" "http://www.w3.org/Graphics/SVG/1.1/DTD/svg11.dtd"><svg t="1639302348713" class="icon" viewBox="0 0 1024 1024" version="1.1" xmlns="http://www.w3.org/2000/svg" p-id="3315" xmlns:xlink="http://www.w3.org/1999/xlink" width="200" height="200"><defs><style type="text/css"></style></defs><path d="M941.737443 956.545118c-27.187454 27.191597-71.664339 27.191597-98.84765 0l-333.615996-333.611854c-27.187454-27.191597-27.187454-71.676768 0-98.851793l12.35492-12.359063c27.187454-27.187454 71.664339-27.187454 98.843507 0l333.620139 333.611853c27.187454 27.187454 27.187454 71.668482 0 98.864223l-12.35492 12.346634z" fill="#A5A5C4" p-id="3316"></path><path d="M892.309475 993.514586c-23.15201 0-44.862199-8.969954-61.144841-25.252596l-333.615996-333.611853c-16.278498-16.282642-25.244309-38.001117-25.24431-61.153127s8.965811-44.866342 25.248453-61.140698l12.350777-12.35492c16.282642-16.278498 37.996974-25.244309 61.144841-25.244309 23.15201 0 44.866342 8.965811 61.144841 25.244309l333.615996 333.611853c33.71294 33.71294 33.71294 88.576742 0.004144 122.302111l-12.363207 12.350778c-16.274355 16.278498-37.988687 25.248452-61.140698 25.248452z m-321.261076-485.612177c-14.293922 0-27.688777 5.518697-37.706952 15.536872l-12.350777 12.359063c-10.022318 10.018175-15.541015 23.404744-15.541015 37.702809 0 14.302208 5.518697 27.697063 15.541015 37.719382l333.611853 333.611853c10.022318 10.022318 23.408887 15.541015 37.706952 15.541015s27.688777-5.518697 37.706952-15.541015l12.363207-12.350777c20.786263-20.794549 20.786263-54.631784-0.008287-75.422191l-333.615996-333.611853c-10.018175-10.026461-23.408887-15.545158-37.706952-15.545158z" fill="#6E6E96" p-id="3317"></path><path d="M438.222647 433.263277m-391.699038 0a391.699038 391.699038 0 1 0 783.398075 0 391.699038 391.699038 0 1 0-783.398075 0Z" fill="#F5F5F5" p-id="3318"></path><path d="M438.222647 841.534978c-225.123057 0-408.271701-183.148644-408.271701-408.271701S213.09959 24.991576 438.222647 24.991576s408.271701 183.148644 408.271701 408.271701-183.148644 408.271701-408.271701 408.271701z m0-783.398076c-206.843409 0-375.126375 168.282965-375.126375 375.126375 0 206.847553 168.282965 375.126375 375.126375 375.126375 206.847553 0 375.126375-168.278822 375.126374-375.126375 0-206.843409-168.278822-375.126375-375.126374-375.126375z" fill="#6E6E96" p-id="3319"></path><path d="M438.301367 134.843474c164.864853 0 298.502666 133.654386 298.502666 298.502666 0 164.852424-133.637813 298.510953-298.502666 298.510953-164.848281 0-298.49438-133.658529-298.49438-298.510953-0.004143-164.852424 133.646099-298.502666 298.49438-298.502666z" fill="#9FD4FF" p-id="3320"></path><path d="M438.301367 748.429756c-173.727085 0-315.067043-141.344101-315.067043-315.083616 0-84.155984 32.772441-163.278021 92.280731-222.790454 59.512434-59.50829 138.630328-92.284875 222.786312-92.284875 173.735371 0 315.07533 141.339958 315.075329 315.075329s-141.344101 315.083616-315.075329 315.083616z m0-597.013619c-75.302038 0-146.100456 29.325328-199.348423 82.577438-53.25211 53.25211-82.577438 124.046384-82.573294 199.352565 0 155.459867 126.470136 281.938289 281.921717 281.93829 155.455724 0 281.930003-126.474279 281.930003-281.93829 0-155.455724-126.474279-281.930003-281.930003-281.930003z" fill="#6E6E96" p-id="3321"></path><path d="M173.321055 479.447146c0-146.390477 118.685127-265.075605 265.075605-265.075604 146.402907 0 265.075605 118.685127 265.075604 265.075604a264.383696 264.383696 0 0 1-12.972252 81.931104 284.121738 284.121738 0 0 0 33.008602-133.240069c0-157.643316-127.795949-285.447551-285.447551-285.447551-157.639172 0-285.447551 127.808379-285.447551 285.447551 0 49.597838 12.673944 96.229169 34.910315 136.857053a264.325692 264.325692 0 0 1-14.202772-85.548088z" fill="#90C0F0" p-id="3322"></path><path d="M555.503241 557.574824c0 42.330725-51.010657 76.648567-113.93706 76.648567s-113.937059-34.317842-113.937059-76.648567 51.0148-47.646407 113.937059-47.646407c62.930545 0 113.937059 5.315682 113.93706 47.646407z" fill="#F0F0F0" opacity=".64" p-id="3323"></path><path d="M272.94762 362.249415h343.882761v116.008643h-343.882761z" fill="#6E6E96" p-id="3324"></path></svg>