<?xml version="1.0" standalone="no"?><!DOCTYPE svg PUBLIC "-//W3C//DTD SVG 1.1//EN" "http://www.w3.org/Graphics/SVG/1.1/DTD/svg11.dtd"><svg t="1639302401909" class="icon" viewBox="0 0 1024 1024" version="1.1" xmlns="http://www.w3.org/2000/svg" p-id="3743" xmlns:xlink="http://www.w3.org/1999/xlink" width="200" height="200"><defs><style type="text/css"></style></defs><path d="M805.085732 871.69411c0 40.935811-33.505764 74.433512-74.441575 74.433512H135.32926c-40.939843 0-74.437543-33.497701-74.437543-74.433512V161.957291c0-40.939843 33.497701-74.437543 74.437543-74.437543h595.318929c40.935811 0 74.441575 33.497701 74.441575 74.437543v709.736819h-0.004032z" fill="#D5B08A" p-id="3744"></path><path d="M730.644157 962.253606H135.32926c-49.938142 0-90.563528-40.625386-90.563528-90.559496V161.957291c0-49.938142 40.625386-90.563528 90.563528-90.563527h595.318929c49.938142 0 90.567559 40.625386 90.567559 90.563527v709.736819c-0.004031 49.930079-40.633449 90.559496-90.571591 90.559496zM135.32926 103.645732c-32.155213 0-58.311559 26.156346-58.311559 58.311559v709.736819c0 32.151181 26.156346 58.307528 58.311559 58.307528h595.318929c32.155213 0 58.315591-26.156346 58.315591-58.307528V161.957291c0-32.155213-26.160378-58.311559-58.315591-58.311559H135.32926z" fill="#6E6E96" p-id="3745"></path><path d="M395.711496 269.368441h320.221732v637.230362h-320.221732z" fill="#D59758" p-id="3746"></path><path d="M730.644157 886.578394H135.32926c-40.939843 0-74.437543-33.501732-74.437543-74.437544v59.549229c0 40.935811 33.497701 74.437543 74.437543 74.437543h595.318929c40.935811 0 74.441575-33.501732 74.441575-74.437543v-59.549229c-0.004031 40.939843-33.497701 74.437543-74.445607 74.437544z" fill="#6E6E96" opacity=".15" p-id="3747"></path><path d="M976.964535 498.514646v486.23874H395.711496V269.368441h354.904693l226.348346 229.146205z" fill="#E6E6F2" p-id="3748"></path><path d="M976.964535 1000.883402H395.711496a16.125984 16.125984 0 0 1-16.125984-16.125985V269.368441a16.125984 16.125984 0 0 1 16.125984-16.125984h354.904693a16.125984 16.125984 0 0 1 11.473638 4.793449l226.352378 229.146204a16.138079 16.138079 0 0 1 4.652346 11.332536v486.23874a16.134047 16.134047 0 0 1-16.130016 16.130016z m-565.127055-32.251969h549.001071V505.138394l-216.958992-219.643969H411.83748v683.137008z" fill="#6E6E96" p-id="3749"></path><path d="M750.608126 498.514646l226.356409 226.352378v-226.352378z" fill="#B2B2B2" opacity=".25" p-id="3750"></path><path d="M976.964535 498.514646h-226.356409V269.368441l226.356409 229.146205z" fill="#FFFFFF" p-id="3751"></path><path d="M977.045165 514.64063h-226.437039a16.125984 16.125984 0 0 1-16.125984-16.125984V269.368441a16.121953 16.121953 0 0 1 27.59559-11.332535l225.44126 228.21896a16.117921 16.117921 0 0 1-10.473827 28.385764z m-210.311055-32.251969h171.632882l-171.632882-173.749417v173.749417z" fill="#6E6E96" p-id="3752"></path><path d="M264.062992 147.149606v-56.440945c0-31.04252 36.283465-56.440945 80.629921-56.440944h153.196851c44.346457 0 80.629921 25.398425 80.629921 56.440944v56.440945" fill="#EBEBEB" p-id="3753"></path><path d="M578.519685 163.275591a16.125984 16.125984 0 0 1-16.125984-16.125985v-56.440945c0-21.47578-30.143496-40.314961-64.503937-40.31496H344.692913c-34.360441 0-64.503937 18.839181-64.503937 40.31496v56.440945a16.125984 16.125984 0 0 1-32.251968 0v-56.440945c0-40.012598 43.407118-72.566929 96.755905-72.566929h153.196851c53.348787 0 96.755906 32.554331 96.755905 72.566929v56.440945a16.125984 16.125984 0 0 1-16.125984 16.125985z" fill="#6E6E96" p-id="3754"></path><path d="M638.992126 171.338583H203.590551a16.125984 16.125984 0 0 1 0-32.251969h435.401575a16.125984 16.125984 0 0 1 0 32.251969z" fill="#6E6E96" p-id="3755"></path></svg>