<?xml version="1.0" standalone="no"?><!DOCTYPE svg PUBLIC "-//W3C//DTD SVG 1.1//EN" "http://www.w3.org/Graphics/SVG/1.1/DTD/svg11.dtd"><svg t="1639302189700" class="icon" viewBox="0 0 1024 1024" version="1.1" xmlns="http://www.w3.org/2000/svg" p-id="1569" xmlns:xlink="http://www.w3.org/1999/xlink" width="200" height="200"><defs><style type="text/css"></style></defs><path d="M596.517463 238.392195h339.160456l-136.441756 253.398374 136.441756 245.597659H432.781528l155.939383-116.552846" fill="#FF9EB0" p-id="1570"></path><path d="M596.517463 257.881496h339.164618a19.505951 19.505951 0 0 1-16.737821-9.494894 19.522602 19.522602 0 0 1-0.420423-19.239545l-136.441756 253.398374a19.497626 19.497626 0 0 0 0.112391 18.706732l136.441756 245.601821a19.497626 19.497626 0 0 1 17.058341-28.955057H432.794016a19.493463 19.493463 0 0 1 11.671935 35.099057l155.939382-116.544521c8.616585-6.443707 10.385691-18.65678 3.941984-27.281691s-18.65678-10.389854-27.281691-3.941983l-155.935219 116.54452a19.493463 19.493463 0 0 0 11.667772 35.111545h502.900553a19.501789 19.501789 0 0 0 17.041691-28.95922l-136.445919-245.597658a19.476813 19.476813 0 0 1 0.120716 18.706731l136.445918-253.398374a19.501789 19.501789 0 0 0-0.428748-19.239544 19.480976 19.480976 0 0 0-16.737821-9.494895h-339.164618c-10.764488 0-19.493463 8.728976-19.493463 19.493464s8.712325 19.485138 19.480975 19.485138z" fill="#6E6E96" p-id="1571"></path><path d="M159.893854 137.028683h432.727414v479.914667H159.893854z" fill="#FF9EB0" p-id="1572"></path><path d="M159.893854 156.522146h432.727414a19.493463 19.493463 0 0 1-19.493463-19.493463v479.914667a19.489301 19.489301 0 0 1 19.493463-19.493464H159.893854a19.493463 19.493463 0 0 1 19.493463 19.493464V137.028683a19.497626 19.497626 0 0 1-19.493463 19.493463z m0 479.914667h432.727414a19.480976 19.480976 0 0 0 19.493464-19.493463V137.028683a19.493463 19.493463 0 0 0-19.493464-19.493463H159.893854a19.493463 19.493463 0 0 0-19.493464 19.493463v479.914667a19.489301 19.489301 0 0 0 19.493464 19.493463z" fill="#6E6E96" p-id="1573"></path><path d="M204.317138 949.451967c0 21.437398-17.541203 38.982764-38.982764 38.982765h-15.597268c-21.441561 0-38.982764-17.545366-38.982765-38.982765V83.997138c0-21.441561 17.541203-38.982764 38.982765-38.982764h15.597268c21.441561 0 38.982764 17.541203 38.982764 38.982764v865.454829z" fill="#E6E6F5" p-id="1574"></path><path d="M165.334374 64.503675h38.982764v904.437593h-38.982764z" fill="#6E6E96" opacity=".15" p-id="1575"></path><path d="M188.724033 949.451967a19.518439 19.518439 0 0 1-19.493464 19.493464h-15.597268a19.518439 19.518439 0 0 1-19.493464-19.493464V83.997138a19.518439 19.518439 0 0 1 19.493464-19.493463h15.597268a19.518439 19.518439 0 0 1 19.493464 19.493463v865.454829z m38.986926-865.454829c0-32.243512-26.232715-58.476228-58.476227-58.476227h-15.597269c-32.243512 0-58.476228 26.232715-58.476227 58.476227v865.454829c0 32.243512 26.232715 58.476228 58.476227 58.476228h15.597269c32.243512 0 58.476228-26.232715 58.476227-58.476228V83.997138z" fill="#6E6E96" p-id="1576"></path><path d="M655.239285 257.881496v460.017431h-163.819187l93.650211-80.325724v-382.043577zM227.710959 156.522146h50.679675v440.92774H227.710959z" fill="#963C3C" opacity=".15" p-id="1577"></path></svg>