<?xml version="1.0" standalone="no"?><!DOCTYPE svg PUBLIC "-//W3C//DTD SVG 1.1//EN" "http://www.w3.org/Graphics/SVG/1.1/DTD/svg11.dtd"><svg t="1639301924457" class="icon" viewBox="0 0 2114 1024" version="1.1" xmlns="http://www.w3.org/2000/svg" p-id="2146" xmlns:xlink="http://www.w3.org/1999/xlink" width="412.890625" height="200"><defs><style type="text/css"></style></defs><path d="M2031.349593 774.243902c0 91.577236-74.926829 166.504065-166.504065 166.504065H249.756098c-91.577236 0-166.504065-74.926829-166.504065-166.504065V249.756098c0-91.577236 74.926829-166.504065 166.504065-166.504065h1615.08943c91.577236 0 166.504065 74.926829 166.504065 166.504065v524.487804z" fill="#F0F0FF" p-id="2147"></path><path d="M1989.723577 774.243902c0 68.857756-56.020293 124.878049-124.878049 124.878049H249.756098c-68.857756 0-124.878049-56.020293-124.878049-124.878049V249.756098c0-68.857756 56.020293-124.878049 124.878049-124.878049h1615.08943c68.857756 0 124.878049 56.020293 124.878049 124.878049v524.487804z m83.252033-524.487804c0-114.762927-93.367154-208.130081-208.130082-208.130082H249.756098C134.993171 41.626016 41.626016 134.993171 41.626016 249.756098v524.487804c0 114.762927 93.367154 208.130081 208.130082 208.130082h1615.08943c114.762927 0 208.130081-93.367154 208.130082-208.130082V249.756098z" fill="#6E6E96" p-id="2148"></path><path d="M524.487805 512m-141.528455 0a141.528455 141.528455 0 1 0 283.05691 0 141.528455 141.528455 0 1 0-283.05691 0Z" fill="#6E6E96" p-id="2149"></path><path d="M1348.682927 512m-141.528455 0a141.528455 141.528455 0 1 0 283.05691 0 141.528455 141.528455 0 1 0-283.05691 0Z" fill="#6E6E96" p-id="2150"></path><path d="M949.073171 512m-141.528456 0a141.528455 141.528455 0 1 0 283.056911 0 141.528455 141.528455 0 1 0-283.056911 0Z" fill="#6E6E96" p-id="2151"></path><path d="M1856.520325 108.227642H241.430894C149.853659 108.227642 74.926829 183.154472 74.926829 274.731707v166.504065c0-91.577236 74.926829-166.504065 166.504065-166.504065h1615.089431c91.577236 0 166.504065 74.926829 166.504065 166.504065V274.731707c0-91.577236-74.926829-166.504065-166.504065-166.504065z" fill="#6E6E96" opacity=".15" p-id="2152"></path></svg>