<?xml version="1.0" standalone="no"?><!DOCTYPE svg PUBLIC "-//W3C//DTD SVG 1.1//EN" "http://www.w3.org/Graphics/SVG/1.1/DTD/svg11.dtd"><svg t="1639302330343" class="icon" viewBox="0 0 1024 1024" version="1.1" xmlns="http://www.w3.org/2000/svg" p-id="3023" xmlns:xlink="http://www.w3.org/1999/xlink" width="200" height="200"><defs><style type="text/css"></style></defs><path d="M958.939859 963.513101c0 23.76271-19.442218 43.204928-43.204928 43.204928H108.265069c-23.76271 0-43.204928-19.442218-43.204928-43.204928V373.688064c0-23.76271 19.442218-43.204928 43.204928-43.204928h807.469862c23.76271 0 43.204928 19.442218 43.204928 43.204928V963.513101z" fill="#EEEEF7" p-id="3024"></path><path d="M915.734931 1024H108.265069c-33.354204 0-60.486899-27.132695-60.486899-60.486899V373.688064c0-33.354204 27.132695-60.486899 60.486899-60.486899h807.469862c33.354204 0 60.486899 27.132695 60.486899 60.486899V963.513101c0 33.349884-27.132695 60.486899-60.486899 60.486899zM108.265069 347.765107c-14.296511 0-25.922957 11.626446-25.922957 25.922957V963.513101c0 14.296511 11.626446 25.922957 25.922957 25.922957h807.469862c14.296511 0 25.922957-11.626446 25.922957-25.922957V373.688064c0-14.296511-11.626446-25.922957-25.922957-25.922957H108.265069z" fill="#6E6E96" p-id="3025"></path><path d="M543.831231 28.238741c-18.694772-14.672394-49.227695-14.598945-67.85334 0.159858L98.924164 327.147715c-18.629965 14.758803-19.053373 39.428817-0.954829 54.822734l378.959065 322.330365c18.094224 15.393916 47.78033 15.467364 65.956643 0.159859l383.007367-322.650083c18.176313-15.307506 17.744264-39.839264-0.950509-54.507337l-381.11067-299.064512z" fill="#BABACF" p-id="3026"></path><path d="M510.019054 733.178988h-0.00432c-16.646859 0-32.369132-5.582077-44.280731-15.713632L86.774938 395.13499c-12.585596-10.706181-19.645281-25.68965-19.37741-41.11813 0.267871-15.424159 7.850335-30.15704 20.798852-40.41389l377.049407-298.749116C477.334526 5.275322 493.23826 0 510.027695 0c16.646859 0 32.44258 5.201873 44.475153 14.646471l381.114991 299.064512c13.021965 10.217965 20.643315 24.911962 20.911185 40.314518 0.267871 15.398236-6.83934 30.347141-19.502704 41.010118l-383.003047 322.650082c-11.872714 9.9933-27.499937 15.493287-44.004219 15.493287zM510.027695 34.563942c-8.900215 0-17.394304 2.691667-23.3177 7.379402L109.656268 340.69246c-4.877836 3.866841-7.612708 8.809485-7.703439 13.929269-0.09073 5.115463 2.471322 10.153158 7.215223 14.188498l378.959065 322.330366c5.582077 4.752542 13.562027 7.474453 21.887617 7.474453 8.252141 0 16.171605-2.687347 21.736399-7.370761l383.003046-322.645762c4.73526-3.987815 7.292992-8.952061 7.206582-13.972473-0.08641-5.024733-2.816961-9.898249-7.686157-13.721886L533.159614 41.835332C527.275102 37.212405 518.8415 34.563942 510.027695 34.563942z" fill="#6E6E96" p-id="3027"></path><path d="M844.18757 92.212278v356.267837l-296.480857 251.240977c-18.789823 14.827931-49.517168 14.858175-68.302671 0.038884L182.923185 452.796287V92.212278h661.264385z" fill="#FFFFFF" p-id="3028"></path><path d="M513.510012 728.141294c-16.789435 0-32.70181-5.26236-44.812151-14.81497l-0.354281-0.289473-296.485177-246.96369a17.27333 17.27333 0 0 1-6.22151-13.276874V92.212278a17.281971 17.281971 0 0 1 17.281971-17.281971h661.268706a17.281971 17.281971 0 0 1 17.281971 17.281971v356.267837a17.294933 17.294933 0 0 1-6.109176 13.186144l-296.480858 251.240977a9.937133 9.937133 0 0 1-0.466613 0.380203c-12.136264 9.578533-28.083203 14.853854-44.902882 14.853855z m-23.239931-41.822371c5.940678 4.614286 14.400203 7.262748 23.239931 7.262749 8.848369 0 17.316535-2.644142 23.287456-7.262749l290.108131-245.844681V109.494249H200.205156v335.205435l290.064925 241.619239z" fill="#6E6E96" p-id="3029"></path><path d="M488.935049 228.942914H284.463407a17.281971 17.281971 0 0 1 0-34.563943h204.467322a17.281971 17.281971 0 0 1 0.00432 34.563943z" fill="#6E6E96" opacity=".4" p-id="3030"></path><path d="M736.905413 228.942914h-126.16271a17.281971 17.281971 0 0 1 0-34.563943h126.16271a17.281971 17.281971 0 0 1 0 34.563943z" fill="#6E6E96" p-id="3031"></path><path d="M488.935049 327.666174H284.463407a17.281971 17.281971 0 0 1 0-34.563942h204.467322a17.281971 17.281971 0 0 1 0.00432 34.563942z" fill="#6E6E96" opacity=".4" p-id="3032"></path><path d="M736.905413 327.666174h-126.16271a17.281971 17.281971 0 0 1 0-34.563942h126.16271a17.281971 17.281971 0 0 1 0 34.563942z" fill="#6E6E96" p-id="3033"></path><path d="M736.905413 437.462858h-126.16271a17.281971 17.281971 0 0 1 0-34.563942h126.16271a17.281971 17.281971 0 0 1 0 34.563942z" fill="#FFA8A8" p-id="3034"></path><path d="M915.929353 942.221712H112.39114c-23.663339 0-43.010506-19.351487-43.010506-43.010506v68.81681c0 23.659019 19.351487 43.010506 43.010506 43.010506h803.533893c23.659019 0 43.010506-19.351487 43.010506-43.010506v-68.81681c0.00432 23.659019-19.351487 43.010506-43.006186 43.010506z" fill="#6E6E96" opacity=".15" p-id="3035"></path><path d="M73.709768 989.63048a17.277651 17.277651 0 0 1-11.254884-30.403308l357.391165-306.219248a17.277651 17.277651 0 0 1 24.367579 1.879414 17.277651 17.277651 0 0 1-1.879414 24.36758l-357.391165 306.219248a17.221484 17.221484 0 0 1-11.233281 4.156314z" fill="#6E6E96" p-id="3036"></path><path d="M954.606405 989.63048a17.208523 17.208523 0 0 1-10.710502-3.728586l-375.908797-297.578262a17.281971 17.281971 0 0 1 21.451247-27.102451l375.908797 297.578262a17.281971 17.281971 0 0 1-10.740745 30.831037z" fill="#6E6E96" p-id="3037"></path></svg>