<?xml version="1.0" standalone="no"?><!DOCTYPE svg PUBLIC "-//W3C//DTD SVG 1.1//EN" "http://www.w3.org/Graphics/SVG/1.1/DTD/svg11.dtd"><svg t="1639560503357" class="icon" viewBox="0 0 1024 1024" version="1.1" xmlns="http://www.w3.org/2000/svg" p-id="8163" xmlns:xlink="http://www.w3.org/1999/xlink" width="200" height="200"><defs><style type="text/css"></style></defs><path d="M502.613333 571.392m-308.224 0a308.224 308.224 0 1 0 616.448 0 308.224 308.224 0 1 0-616.448 0Z" fill="#EDF4FF" p-id="8164"></path><path d="M802.133333 497.322667a307.2 307.2 0 0 0-535.04-123.904 304.810667 304.810667 0 0 1 123.733334-63.317334 307.2 307.2 0 0 1 309.76 497.322667A308.053333 308.053333 0 0 0 802.133333 497.322667z" fill="#FCFEFF" p-id="8165"></path><path d="M756.053333 747.178667a308.394667 308.394667 0 1 1-428.373333-429.568 308.394667 308.394667 0 0 0 428.373333 429.568z" fill="#D8E3F0" p-id="8166"></path><path d="M332.629333 666.282667m-56.661333 0a56.661333 56.661333 0 1 0 113.322667 0 56.661333 56.661333 0 1 0-113.322667 0Z" fill="#D8E3F0" p-id="8167"></path><path d="M619.690667 463.701333m-49.152 0a49.152 49.152 0 1 0 98.304 0 49.152 49.152 0 1 0-98.304 0Z" fill="#D8E3F0" p-id="8168"></path><path d="M683.008 553.642667m-25.770667 0a25.770667 25.770667 0 1 0 51.541334 0 25.770667 25.770667 0 1 0-51.541334 0Z" fill="#D8E3F0" p-id="8169"></path><path d="M353.621333 398.336m-35.498666 0a35.498667 35.498667 0 1 0 70.997333 0 35.498667 35.498667 0 1 0-70.997333 0Z" fill="#D8E3F0" p-id="8170"></path><path d="M247.978667 397.994667m-84.650667 0a84.650667 84.650667 0 1 0 169.301333 0 84.650667 84.650667 0 1 0-169.301333 0Z" fill="#69BAF9" p-id="8171"></path><path d="M290.133333 470.869333a85.333333 85.333333 0 0 0-115.712-116.053333 83.114667 83.114667 0 0 1 52.565334-39.082667 85.333333 85.333333 0 0 1 63.146666 155.136z" fill="#96DDFF" p-id="8172"></path><path d="M581.632 808.448m-24.234667 0a24.234667 24.234667 0 1 0 48.469334 0 24.234667 24.234667 0 1 0-48.469334 0Z" fill="#D8E3F0" p-id="8173"></path><path d="M931.157333 237.397333L802.133333 147.285333a17.066667 17.066667 0 0 0-27.306666 14.336v44.032a250.197333 250.197333 0 0 0-238.933334 176.298667 402.773333 402.773333 0 0 1 238.933334-74.922667v34.133334a17.066667 17.066667 0 0 0 27.306666 14.336l129.365334-90.112a17.066667 17.066667 0 0 0-0.341334-27.989334z" fill="#FFC670" p-id="8174"></path><path d="M419.328 745.472c-7.68 0-15.189333 1.365333-22.528 1.877333a17.066667 17.066667 0 0 0 1.024 34.133334h1.194667l23.552-2.048a17.066667 17.066667 0 1 0-3.242667-34.133334zM109.568 415.061333a17.066667 17.066667 0 0 0 17.066667-17.066666 121.685333 121.685333 0 0 1 68.266666-109.397334 17.066667 17.066667 0 1 0-14.506666-30.890666 156.16 156.16 0 0 0-88.576 140.288 17.066667 17.066667 0 0 0 17.749333 17.066666zM133.973333 521.216A24.405333 24.405333 0 1 0 109.568 546.133333a24.234667 24.234667 0 0 0 24.405333-24.917333z" fill="#3D3D63" p-id="8175"></path><path d="M284.672 240.810667m-24.234667 0a24.234667 24.234667 0 1 0 48.469334 0 24.234667 24.234667 0 1 0-48.469334 0Z" fill="#3D3D63" p-id="8176"></path><path d="M940.885333 223.402667l-129.365333-90.112a34.133333 34.133333 0 0 0-54.101333 28.330666v27.648a265.898667 265.898667 0 0 0-107.178667 30.037334 381.098667 381.098667 0 0 0-176.298667-28.842667 17.066667 17.066667 0 0 0 2.56 34.133333 351.914667 351.914667 0 0 1 137.557334 17.066667 244.736 244.736 0 0 0-20.48 17.066667 326.826667 326.826667 0 0 0-90.794667-12.8 322.218667 322.218667 0 0 0-198.144 68.266666 102.4 102.4 0 0 0-114.517333 168.277334 307.2 307.2 0 0 0-7.168 29.525333C119.466667 564.224 90.112 620.544 102.4 670.549333s65.194667 86.869333 145.749333 102.4A324.266667 324.266667 0 0 0 822.272 631.466667c63.317333-51.2 93.354667-108.032 80.725333-158.890667a104.618667 104.618667 0 0 0-34.133333-53.418667 17.066667 17.066667 0 0 0-22.186667 24.576A73.386667 73.386667 0 0 1 870.4 480.597333c7.338667 29.696-8.533333 64.682667-42.325333 99.328v-8.533333a326.656 326.656 0 0 0-109.738667-243.370667c12.970667-1.706667 25.941333-3.072 39.082667-3.584v17.066667a34.133333 34.133333 0 0 0 54.101333 28.16l129.365333-90.112a34.133333 34.133333 0 0 0 0-56.490667z m-692.906666 106.837333a68.266667 68.266667 0 1 1-68.266667 68.266667 68.266667 68.266667 0 0 1 68.266667-68.266667zM135.509333 662.357333c-7.168-29.184 8.192-64.170667 42.154667-99.328v8.362667a324.266667 324.266667 0 0 0 42.154667 159.573333c-46.762667-14.165333-76.8-38.570667-84.309334-68.608z m658.432-90.965333a297.130667 297.130667 0 0 1-3.242666 41.130667 533.845333 533.845333 0 0 1-85.333334 51.2 65.706667 65.706667 0 0 0-116.736 41.472v4.778666c-16.042667 4.949333-32.426667 9.557333-48.810666 13.653334s-31.573333 7.338667-47.274667 10.410666a17.066667 17.066667 0 0 0 3.242667 34.133334 9.386667 9.386667 0 0 0 3.072 0c17.066667-3.072 32.938667-6.656 49.152-10.752s34.133333-9.216 51.2-14.506667a65.877333 65.877333 0 0 0 119.466666-37.034667 67.072 67.072 0 0 0-1.024-10.24 640.341333 640.341333 0 0 0 59.392-34.133333 290.133333 290.133333 0 0 1-477.866666 118.442667c14.165333 1.194667 28.842667 2.048 44.032 2.218666a17.066667 17.066667 0 0 0 17.066666-17.066666 17.066667 17.066667 0 0 0-17.066666-17.066667 512 512 0 0 1-77.653334-6.485333 290.133333 290.133333 0 0 1-55.978666-170.666667 294.058667 294.058667 0 0 1 12.288-74.752 96.085333 96.085333 0 0 0 26.453333 3.584 102.4 102.4 0 0 0 81.749333-162.304 290.133333 290.133333 0 0 1 237.056-50.005333 268.629333 268.629333 0 0 0-47.445333 89.6 17.066667 17.066667 0 0 0 16.213333 22.016 17.066667 17.066667 0 0 0 10.24-3.242667 360.448 360.448 0 0 1 128.682667-59.562667 292.693333 292.693333 0 0 1 119.125333 235.178667z m-107.52 134.656a31.744 31.744 0 1 1-31.573333-31.744 31.573333 31.573333 0 0 1 31.573333 31.744zM921.6 251.904L791.552 341.333333v-34.133333a17.066667 17.066667 0 0 0-17.066667-17.066667 431.957333 431.957333 0 0 0-201.216 48.298667 231.082667 231.082667 0 0 1 201.216-115.370667 17.066667 17.066667 0 0 0 17.066667-17.066666V161.450667L921.6 251.392z" fill="#3D3D63" p-id="8177"></path></svg>