<?xml version="1.0" standalone="no"?><!DOCTYPE svg PUBLIC "-//W3C//DTD SVG 1.1//EN" "http://www.w3.org/Graphics/SVG/1.1/DTD/svg11.dtd"><svg t="1642412683169" class="icon" viewBox="0 0 1024 1024" version="1.1" xmlns="http://www.w3.org/2000/svg" p-id="3974" xmlns:xlink="http://www.w3.org/1999/xlink" width="200" height="200"><defs><style type="text/css"></style></defs><path d="M277.9 520.4c0 124.4 100.9 225.3 225.3 225.3s225.3-100.9 225.3-225.3-100.9-225.3-225.3-225.3-225.3 100.8-225.3 225.3z m0 0" fill="#E9EAEB" p-id="3975"></path><path d="M410.3 264c78.7-3.2 154.3 31.1 203.8 92.4l-76.3 48.1 277.3 116.1V225.8L743.2 275c-65.3-69.7-157.4-108-252.9-105.1-122.8 4.7-232.8 77.4-285.1 188.6l11.8 8.1c45.4-61.9 116.6-99.7 193.3-102.6z m0 0" fill="#A3D4FF" p-id="3976"></path><path d="M832.5 546.5L500.4 407.7l87.1-55.1c-47.9-49.6-115.2-75.6-184-70.9-68.8 4.7-132 39.5-172.7 95.2l-9.9 13.7-37.6-26.6 6.2-13.3C237.3 249 331.5 177 442 157.4c110.6-19.6 223.7 15.8 303.4 94.9l87.1-59.6v353.8zM575.3 401.4l222.5 92.9V258.6l-57 39-10.2-10.7c-61.7-66.2-149-102.6-239.4-99.8-85.7 3-166.4 41.4-222.9 105.9 41.7-28.5 90.7-44.6 141.3-46.4 84.1-3.4 164.8 33.3 217.7 98.8l12.3 15.2-64.3 40.8z m0 0" fill="#2A5082" p-id="3977"></path><path d="M789.5 654c-45.9 62.8-118.3 100.7-196 102.7s-152-32.2-201-92.5l76.4-48.1L191.3 503v294.6l72.1-52c65.3 69.7 157.4 108 252.9 105.1 122.9-4.6 232.9-77.4 285.2-188.6l-12-8.1z m0 0" fill="#A3D4FF" p-id="3978"></path><path d="M504.4 868.4c-90.9-0.4-178-36.3-242.8-100L174 831.5V477.3l332.6 135.5-87.6 55.1c45.9 48.1 110.3 74.1 176.7 71.3 71.4-2.6 137.8-37.8 179.9-95.5l10.1-13.7 37.6 26.6-6.2 13.2c-55 117.1-170.9 193.6-300.2 198.3-4.2 0.2-8.4 0.3-12.5 0.3zM265.7 722.8l10.4 11c61.7 66.2 149 102.6 239.4 99.8 85.7-3.1 166.3-41.4 222.7-106C623 806 467 783.2 379 675.2L366.7 660l64.4-40.9-222.5-90.3v235l57.1-41z m0 0" fill="#2A5082" p-id="3979"></path><path d="M1020.1 567.7l-34.7-3.8c1.4-12.7 2.2-23.3 2.6-33.2 5.1-126.3-40.2-249.5-125.9-342.5S657.2 40.2 530.9 35.1L532.6 0.6C814.7 12 1034.2 250 1022.9 532.1c-0.4 10.7-1.2 22.1-2.8 35.6zM59.2 749C-6.7 623.4-17.5 476.1 29.4 342.2 76.3 208.4 176.7 100 306.6 43.1L320.5 75C199.4 128 105.8 229 62.1 353.8 18.3 478.6 28.4 615.9 89.9 733l-30.7 16z m452.6 273.8c-6.8 0-13.7-0.1-20.5-0.4-101.8-3.8-200.1-38.2-282.2-98.5l20.5-27.9c106.5 78.3 240.8 108.8 370.7 84.3 129.9-24.5 243.8-101.9 314.5-213.6l29 18.6c-94 147.5-256.9 237.1-432 237.5z m0 0" fill="#BCC0C4" p-id="3980"></path></svg>