<?xml version="1.0" standalone="no"?><!DOCTYPE svg PUBLIC "-//W3C//DTD SVG 1.1//EN" "http://www.w3.org/Graphics/SVG/1.1/DTD/svg11.dtd"><svg t="1642752700415" class="icon" viewBox="0 0 1024 1024" version="1.1" xmlns="http://www.w3.org/2000/svg" p-id="4310" xmlns:xlink="http://www.w3.org/1999/xlink" width="200" height="200"><defs><style type="text/css"></style></defs><path d="M512.3 106c-223.6 0-406.7 183-406.7 406.7s183 406.6 406.7 406.6 406.6-183 406.6-406.7C919 289 736 106 512.3 106z m10.2 122c155 0 155 116.9 155 183s-61 188.1-155 190.6c-91.5 0-155-122-155-190.6 0-66.1 0-183 155-183z m-10.2 668.4c-116.9 0-223.7-53.4-294.8-137.2 10.2-25.4 22.9-53.4 40.7-68.6 38.1-30.5 152.5-81.3 152.5-81.3l71.2 137.2 12.7-33-20.4-40.7 40.7-40.7 40.7 40.7-17.9 43.2 10.2 33.1 73.7-134.7s114.4 50.8 152.5 81.3c17.8 12.7 30.5 35.6 38.1 55.9-68.6 88.9-177.9 144.8-299.9 144.8z m0 0" p-id="4311" fill="#bfbfbf"></path></svg>