<?xml version="1.0" standalone="no"?><!DOCTYPE svg PUBLIC "-//W3C//DTD SVG 1.1//EN" "http://www.w3.org/Graphics/SVG/1.1/DTD/svg11.dtd"><svg t="1658895225826" class="icon" viewBox="0 0 1024 1024" version="1.1" xmlns="http://www.w3.org/2000/svg" p-id="1606" xmlns:xlink="http://www.w3.org/1999/xlink" width="128" height="128"><defs><style type="text/css"></style></defs><path d="M64 576m0 0l256 0q0 0 0 0l0 448q0 0 0 0l-256 0q0 0 0 0l0-448q0 0 0 0Z" fill="#FFA500" p-id="1607"></path><path d="M384 256m0 0l256 0q0 0 0 0l0 768q0 0 0 0l-256 0q0 0 0 0l0-768q0 0 0 0Z" fill="#1F4690" p-id="1608"></path><path d="M704 416m0 0l256 0q0 0 0 0l0 608q0 0 0 0l-256 0q0 0 0 0l0-608q0 0 0 0Z" fill="#3A5BA0" p-id="1609"></path><path d="M576 112q0 44.16-80 128-80-83.84-80-128a80 80 0 0 1 160 0z" fill="#3A5BA0" p-id="1610"></path><path d="M288 432q0 44.16-80 128-80-83.84-80-128a80 80 0 0 1 160 0z" fill="#FFA500" p-id="1611"></path></svg>