<?xml version="1.0" standalone="no"?><!DOCTYPE svg PUBLIC "-//W3C//DTD SVG 1.1//EN" "http://www.w3.org/Graphics/SVG/1.1/DTD/svg11.dtd"><svg t="1658895203253" class="icon" viewBox="0 0 1024 1024" version="1.1" xmlns="http://www.w3.org/2000/svg" p-id="1445" xmlns:xlink="http://www.w3.org/1999/xlink" width="128" height="128"><defs><style type="text/css"></style></defs><path d="M64 480m0 0l256 0q0 0 0 0l0 544q0 0 0 0l-256 0q0 0 0 0l0-544q0 0 0 0Z" fill="#FFA500" p-id="1446"></path><path d="M384 672m0 0l256 0q0 0 0 0l0 352q0 0 0 0l-256 0q0 0 0 0l0-352q0 0 0 0Z" fill="#1F4690" p-id="1447"></path><path d="M704 96m0 0l256 0q0 0 0 0l0 928q0 0 0 0l-256 0q0 0 0 0l0-928q0 0 0 0Z" fill="#3A5BA0" p-id="1448"></path><path d="M843.68 202.912L614.944 448H432v-16l11.68 10.944-240 256-23.36-21.888L425.056 416H608v16l-11.712-10.912 224-240 23.392 21.824zM848 192q0 1.6-0.32 3.136t-0.896 2.976q-0.608 1.472-1.472 2.784-0.896 1.28-1.984 2.432-1.12 1.088-2.432 1.984-1.312 0.864-2.784 1.472-1.44 0.608-3.008 0.896-1.536 0.32-3.104 0.32-1.6 0-3.136-0.32t-2.976-0.896q-1.472-0.608-2.784-1.472-1.28-0.896-2.432-1.984-1.088-1.12-1.984-2.432-0.864-1.312-1.472-2.784-0.608-1.44-0.896-2.976-0.32-1.568-0.32-3.136 0-1.6 0.32-3.136t0.896-2.976q0.608-1.472 1.472-2.784 0.896-1.28 1.984-2.432 1.12-1.088 2.432-1.984 1.312-0.864 2.784-1.472 1.44-0.608 2.976-0.896 1.568-0.32 3.136-0.32 1.6 0 3.104 0.32 1.568 0.32 3.008 0.896 1.472 0.608 2.784 1.472 1.28 0.896 2.432 1.984 1.088 1.12 1.984 2.432 0.864 1.312 1.472 2.784 0.608 1.44 0.896 2.976 0.32 1.568 0.32 3.136z m-640 496q0 1.6-0.32 3.136t-0.896 2.976q-0.608 1.472-1.472 2.784-0.896 1.28-1.984 2.432-1.12 1.088-2.432 1.984-1.312 0.864-2.784 1.472-1.44 0.608-2.976 0.896Q193.568 704 192 704q-1.6 0-3.136-0.32t-2.976-0.896q-1.472-0.608-2.784-1.472-1.28-0.896-2.432-1.984-1.088-1.12-1.984-2.432-0.864-1.312-1.472-2.784-0.608-1.44-0.896-2.976-0.32-1.568-0.32-3.136 0-1.6 0.32-3.136t0.896-2.976q0.608-1.472 1.472-2.784 0.896-1.28 1.984-2.432 1.12-1.088 2.432-1.984 1.312-0.864 2.784-1.472 1.44-0.608 2.976-0.896Q190.432 672 192 672q1.6 0 3.136 0.32t2.976 0.896q1.472 0.608 2.784 1.472 1.28 0.896 2.432 1.984 1.088 1.12 1.984 2.432 0.864 1.312 1.472 2.784 0.608 1.44 0.896 2.976 0.32 1.568 0.32 3.136z" fill="#1F4690" p-id="1449"></path></svg>